%TF.GenerationSoftware,KiCad,Pcbnew,5.1.8-4.fc33*%
%TF.CreationDate,2021-01-04T09:42:59+01:00*%
%TF.ProjectId,obsonet_1,6f62736f-6e65-4745-9f31-2e6b69636164,rev?*%
%TF.SameCoordinates,Original*%
%TF.FileFunction,Copper,L1,Top*%
%TF.FilePolarity,Positive*%
%FSLAX46Y46*%
G04 Gerber Fmt 4.6, Leading zero omitted, Abs format (unit mm)*
G04 Created by KiCad (PCBNEW 5.1.8-4.fc33) date 2021-01-04 09:42:59*
%MOMM*%
%LPD*%
G01*
G04 APERTURE LIST*
%TA.AperFunction,NonConductor*%
%ADD10C,0.254000*%
%TD*%
%TA.AperFunction,EtchedComponent*%
%ADD11C,0.254000*%
%TD*%
%TA.AperFunction,SMDPad,CuDef*%
%ADD12R,2.000000X1.500000*%
%TD*%
%TA.AperFunction,ComponentPad*%
%ADD13C,1.800000*%
%TD*%
%TA.AperFunction,SMDPad,CuDef*%
%ADD14R,1.600000X1.803000*%
%TD*%
%TA.AperFunction,ComponentPad*%
%ADD15C,1.408000*%
%TD*%
%TA.AperFunction,ComponentPad*%
%ADD16O,1.208000X2.416000*%
%TD*%
%TA.AperFunction,ComponentPad*%
%ADD17R,2.250000X2.250000*%
%TD*%
%TA.AperFunction,SMDPad,CuDef*%
%ADD18R,0.600000X2.200000*%
%TD*%
%TA.AperFunction,SMDPad,CuDef*%
%ADD19R,1.498600X8.128000*%
%TD*%
%TA.AperFunction,SMDPad,CuDef*%
%ADD20R,1.498600X7.137400*%
%TD*%
%TA.AperFunction,ViaPad*%
%ADD21C,1.106400*%
%TD*%
%TA.AperFunction,Conductor*%
%ADD22C,0.254000*%
%TD*%
%TA.AperFunction,Conductor*%
%ADD23C,1.270000*%
%TD*%
%TA.AperFunction,Conductor*%
%ADD24C,0.250000*%
%TD*%
%TA.AperFunction,Conductor*%
%ADD25C,0.127000*%
%TD*%
%TA.AperFunction,Conductor*%
%ADD26C,0.100000*%
%TD*%
G04 APERTURE END LIST*
D10*
X107342747Y-84796057D02*
X108549247Y-84393890D01*
X107342747Y-83991723D01*
X108549247Y-82957580D02*
X108549247Y-83647009D01*
X108549247Y-83302295D02*
X107342747Y-83302295D01*
X107515104Y-83417200D01*
X107630009Y-83532104D01*
X107687461Y-83647009D01*
X108434342Y-82440509D02*
X108491795Y-82383057D01*
X108549247Y-82440509D01*
X108491795Y-82497961D01*
X108434342Y-82440509D01*
X108549247Y-82440509D01*
X107342747Y-81636176D02*
X107342747Y-81521271D01*
X107400200Y-81406366D01*
X107457652Y-81348914D01*
X107572557Y-81291461D01*
X107802366Y-81234009D01*
X108089628Y-81234009D01*
X108319438Y-81291461D01*
X108434342Y-81348914D01*
X108491795Y-81406366D01*
X108549247Y-81521271D01*
X108549247Y-81636176D01*
X108491795Y-81751080D01*
X108434342Y-81808533D01*
X108319438Y-81865985D01*
X108089628Y-81923438D01*
X107802366Y-81923438D01*
X107572557Y-81865985D01*
X107457652Y-81808533D01*
X107400200Y-81751080D01*
X107342747Y-81636176D01*
X191780866Y-119285023D02*
X191723414Y-119342476D01*
X191551057Y-119457380D01*
X191436152Y-119514833D01*
X191263795Y-119572285D01*
X190976533Y-119629738D01*
X190746723Y-119629738D01*
X190459461Y-119572285D01*
X190287104Y-119514833D01*
X190172200Y-119457380D01*
X189999842Y-119342476D01*
X189942390Y-119285023D01*
X190689271Y-118423238D02*
X190746723Y-118250880D01*
X190804176Y-118193428D01*
X190919080Y-118135976D01*
X191091438Y-118135976D01*
X191206342Y-118193428D01*
X191263795Y-118250880D01*
X191321247Y-118365785D01*
X191321247Y-118825404D01*
X190114747Y-118825404D01*
X190114747Y-118423238D01*
X190172200Y-118308333D01*
X190229652Y-118250880D01*
X190344557Y-118193428D01*
X190459461Y-118193428D01*
X190574366Y-118250880D01*
X190631819Y-118308333D01*
X190689271Y-118423238D01*
X190689271Y-118825404D01*
X191321247Y-117618904D02*
X190114747Y-117618904D01*
X190114747Y-116814571D02*
X190114747Y-116584761D01*
X190172200Y-116469857D01*
X190287104Y-116354952D01*
X190516914Y-116297500D01*
X190919080Y-116297500D01*
X191148890Y-116354952D01*
X191263795Y-116469857D01*
X191321247Y-116584761D01*
X191321247Y-116814571D01*
X191263795Y-116929476D01*
X191148890Y-117044380D01*
X190919080Y-117101833D01*
X190516914Y-117101833D01*
X190287104Y-117044380D01*
X190172200Y-116929476D01*
X190114747Y-116814571D01*
X191263795Y-115837880D02*
X191321247Y-115665523D01*
X191321247Y-115378261D01*
X191263795Y-115263357D01*
X191206342Y-115205904D01*
X191091438Y-115148452D01*
X190976533Y-115148452D01*
X190861628Y-115205904D01*
X190804176Y-115263357D01*
X190746723Y-115378261D01*
X190689271Y-115608071D01*
X190631819Y-115722976D01*
X190574366Y-115780428D01*
X190459461Y-115837880D01*
X190344557Y-115837880D01*
X190229652Y-115780428D01*
X190172200Y-115722976D01*
X190114747Y-115608071D01*
X190114747Y-115320809D01*
X190172200Y-115148452D01*
X191780866Y-114746285D02*
X191723414Y-114688833D01*
X191551057Y-114573928D01*
X191436152Y-114516476D01*
X191263795Y-114459023D01*
X190976533Y-114401571D01*
X190746723Y-114401571D01*
X190459461Y-114459023D01*
X190287104Y-114516476D01*
X190172200Y-114573928D01*
X189999842Y-114688833D01*
X189942390Y-114746285D01*
X191812666Y-101917723D02*
X191755214Y-101975176D01*
X191582857Y-102090080D01*
X191467952Y-102147533D01*
X191295595Y-102204985D01*
X191008333Y-102262438D01*
X190778523Y-102262438D01*
X190491261Y-102204985D01*
X190318904Y-102147533D01*
X190204000Y-102090080D01*
X190031642Y-101975176D01*
X189974190Y-101917723D01*
X191353047Y-101458104D02*
X190146547Y-101458104D01*
X190721071Y-101458104D02*
X190721071Y-100768676D01*
X191353047Y-100768676D02*
X190146547Y-100768676D01*
X191008333Y-100251604D02*
X191008333Y-99677080D01*
X191353047Y-100366509D02*
X190146547Y-99964342D01*
X191353047Y-99562176D01*
X191353047Y-98470580D02*
X190778523Y-98872747D01*
X191353047Y-99160009D02*
X190146547Y-99160009D01*
X190146547Y-98700390D01*
X190204000Y-98585485D01*
X190261452Y-98528033D01*
X190376357Y-98470580D01*
X190548714Y-98470580D01*
X190663619Y-98528033D01*
X190721071Y-98585485D01*
X190778523Y-98700390D01*
X190778523Y-99160009D01*
X191353047Y-97953509D02*
X190146547Y-97953509D01*
X190146547Y-97666247D01*
X190204000Y-97493890D01*
X190318904Y-97378985D01*
X190433809Y-97321533D01*
X190663619Y-97264080D01*
X190835976Y-97264080D01*
X191065785Y-97321533D01*
X191180690Y-97378985D01*
X191295595Y-97493890D01*
X191353047Y-97666247D01*
X191353047Y-97953509D01*
X190146547Y-96861914D02*
X191353047Y-96574652D01*
X190491261Y-96344842D01*
X191353047Y-96115033D01*
X190146547Y-95827771D01*
X191008333Y-95425604D02*
X191008333Y-94851080D01*
X191353047Y-95540509D02*
X190146547Y-95138342D01*
X191353047Y-94736176D01*
X191353047Y-93644580D02*
X190778523Y-94046747D01*
X191353047Y-94334009D02*
X190146547Y-94334009D01*
X190146547Y-93874390D01*
X190204000Y-93759485D01*
X190261452Y-93702033D01*
X190376357Y-93644580D01*
X190548714Y-93644580D01*
X190663619Y-93702033D01*
X190721071Y-93759485D01*
X190778523Y-93874390D01*
X190778523Y-94334009D01*
X190721071Y-93127509D02*
X190721071Y-92725342D01*
X191353047Y-92552985D02*
X191353047Y-93127509D01*
X190146547Y-93127509D01*
X190146547Y-92552985D01*
X191812666Y-92150819D02*
X191755214Y-92093366D01*
X191582857Y-91978461D01*
X191467952Y-91921009D01*
X191295595Y-91863557D01*
X191008333Y-91806104D01*
X190778523Y-91806104D01*
X190491261Y-91863557D01*
X190318904Y-91921009D01*
X190204000Y-91978461D01*
X190031642Y-92093366D01*
X189974190Y-92150819D01*
X193607247Y-119629738D02*
X192400747Y-119629738D01*
X193607247Y-118940309D01*
X192400747Y-118940309D01*
X192975271Y-118365785D02*
X192975271Y-117963619D01*
X193607247Y-117791261D02*
X193607247Y-118365785D01*
X192400747Y-118365785D01*
X192400747Y-117791261D01*
X193549795Y-117331642D02*
X193607247Y-117159285D01*
X193607247Y-116872023D01*
X193549795Y-116757119D01*
X193492342Y-116699666D01*
X193377438Y-116642214D01*
X193262533Y-116642214D01*
X193147628Y-116699666D01*
X193090176Y-116757119D01*
X193032723Y-116872023D01*
X192975271Y-117101833D01*
X192917819Y-117216738D01*
X192860366Y-117274190D01*
X192745461Y-117331642D01*
X192630557Y-117331642D01*
X192515652Y-117274190D01*
X192458200Y-117216738D01*
X192400747Y-117101833D01*
X192400747Y-116814571D01*
X192458200Y-116642214D01*
X192400747Y-116297500D02*
X192400747Y-115608071D01*
X193607247Y-115952785D02*
X192400747Y-115952785D01*
X192400747Y-114976095D02*
X192400747Y-114746285D01*
X192458200Y-114631380D01*
X192573104Y-114516476D01*
X192802914Y-114459023D01*
X193205080Y-114459023D01*
X193434890Y-114516476D01*
X193549795Y-114631380D01*
X193607247Y-114746285D01*
X193607247Y-114976095D01*
X193549795Y-115091000D01*
X193434890Y-115205904D01*
X193205080Y-115263357D01*
X192802914Y-115263357D01*
X192573104Y-115205904D01*
X192458200Y-115091000D01*
X192400747Y-114976095D01*
X193607247Y-113252523D02*
X193032723Y-113654690D01*
X193607247Y-113941952D02*
X192400747Y-113941952D01*
X192400747Y-113482333D01*
X192458200Y-113367428D01*
X192515652Y-113309976D01*
X192630557Y-113252523D01*
X192802914Y-113252523D01*
X192917819Y-113309976D01*
X192975271Y-113367428D01*
X193032723Y-113482333D01*
X193032723Y-113941952D01*
X195835795Y-119687190D02*
X195893247Y-119514833D01*
X195893247Y-119227571D01*
X195835795Y-119112666D01*
X195778342Y-119055214D01*
X195663438Y-118997761D01*
X195548533Y-118997761D01*
X195433628Y-119055214D01*
X195376176Y-119112666D01*
X195318723Y-119227571D01*
X195261271Y-119457380D01*
X195203819Y-119572285D01*
X195146366Y-119629738D01*
X195031461Y-119687190D01*
X194916557Y-119687190D01*
X194801652Y-119629738D01*
X194744200Y-119572285D01*
X194686747Y-119457380D01*
X194686747Y-119170119D01*
X194744200Y-118997761D01*
X194686747Y-118250880D02*
X194686747Y-118021071D01*
X194744200Y-117906166D01*
X194859104Y-117791261D01*
X195088914Y-117733809D01*
X195491080Y-117733809D01*
X195720890Y-117791261D01*
X195835795Y-117906166D01*
X195893247Y-118021071D01*
X195893247Y-118250880D01*
X195835795Y-118365785D01*
X195720890Y-118480690D01*
X195491080Y-118538142D01*
X195088914Y-118538142D01*
X194859104Y-118480690D01*
X194744200Y-118365785D01*
X194686747Y-118250880D01*
X195893247Y-116527309D02*
X195318723Y-116929476D01*
X195893247Y-117216738D02*
X194686747Y-117216738D01*
X194686747Y-116757119D01*
X194744200Y-116642214D01*
X194801652Y-116584761D01*
X194916557Y-116527309D01*
X195088914Y-116527309D01*
X195203819Y-116584761D01*
X195261271Y-116642214D01*
X195318723Y-116757119D01*
X195318723Y-117216738D01*
X195893247Y-116010238D02*
X194686747Y-116010238D01*
X195548533Y-115493166D02*
X195548533Y-114918642D01*
X195893247Y-115608071D02*
X194686747Y-115205904D01*
X195893247Y-114803738D01*
X195893247Y-114401571D02*
X194686747Y-114401571D01*
X195893247Y-113712142D01*
X194686747Y-113712142D01*
X194686747Y-112907809D02*
X194686747Y-112678000D01*
X194744200Y-112563095D01*
X194859104Y-112448190D01*
X195088914Y-112390738D01*
X195491080Y-112390738D01*
X195720890Y-112448190D01*
X195835795Y-112563095D01*
X195893247Y-112678000D01*
X195893247Y-112907809D01*
X195835795Y-113022714D01*
X195720890Y-113137619D01*
X195491080Y-113195071D01*
X195088914Y-113195071D01*
X194859104Y-113137619D01*
X194744200Y-113022714D01*
X194686747Y-112907809D01*
X193639047Y-102262438D02*
X192432547Y-102262438D01*
X192432547Y-101975176D01*
X192490000Y-101802819D01*
X192604904Y-101687914D01*
X192719809Y-101630461D01*
X192949619Y-101573009D01*
X193121976Y-101573009D01*
X193351785Y-101630461D01*
X193466690Y-101687914D01*
X193581595Y-101802819D01*
X193639047Y-101975176D01*
X193639047Y-102262438D01*
X193294333Y-101113390D02*
X193294333Y-100538866D01*
X193639047Y-101228295D02*
X192432547Y-100826128D01*
X193639047Y-100423961D01*
X193639047Y-100021795D02*
X192432547Y-100021795D01*
X193639047Y-99332366D01*
X192432547Y-99332366D01*
X193639047Y-98757842D02*
X192432547Y-98757842D01*
X193007071Y-98183319D02*
X193007071Y-97781152D01*
X193639047Y-97608795D02*
X193639047Y-98183319D01*
X192432547Y-98183319D01*
X192432547Y-97608795D01*
X193639047Y-96517200D02*
X193639047Y-97091723D01*
X192432547Y-97091723D01*
X195293071Y-101860271D02*
X195350523Y-101687914D01*
X195407976Y-101630461D01*
X195522880Y-101573009D01*
X195695238Y-101573009D01*
X195810142Y-101630461D01*
X195867595Y-101687914D01*
X195925047Y-101802819D01*
X195925047Y-102262438D01*
X194718547Y-102262438D01*
X194718547Y-101860271D01*
X194776000Y-101745366D01*
X194833452Y-101687914D01*
X194948357Y-101630461D01*
X195063261Y-101630461D01*
X195178166Y-101687914D01*
X195235619Y-101745366D01*
X195293071Y-101860271D01*
X195293071Y-102262438D01*
X195293071Y-101055938D02*
X195293071Y-100653771D01*
X195925047Y-100481414D02*
X195925047Y-101055938D01*
X194718547Y-101055938D01*
X194718547Y-100481414D01*
X195925047Y-99274914D02*
X195350523Y-99677080D01*
X195925047Y-99964342D02*
X194718547Y-99964342D01*
X194718547Y-99504723D01*
X194776000Y-99389819D01*
X194833452Y-99332366D01*
X194948357Y-99274914D01*
X195120714Y-99274914D01*
X195235619Y-99332366D01*
X195293071Y-99389819D01*
X195350523Y-99504723D01*
X195350523Y-99964342D01*
X195925047Y-98757842D02*
X194718547Y-98757842D01*
X194718547Y-98470580D01*
X194776000Y-98298223D01*
X194890904Y-98183319D01*
X195005809Y-98125866D01*
X195235619Y-98068414D01*
X195407976Y-98068414D01*
X195637785Y-98125866D01*
X195752690Y-98183319D01*
X195867595Y-98298223D01*
X195925047Y-98470580D01*
X195925047Y-98757842D01*
X194718547Y-97551342D02*
X195695238Y-97551342D01*
X195810142Y-97493890D01*
X195867595Y-97436438D01*
X195925047Y-97321533D01*
X195925047Y-97091723D01*
X195867595Y-96976819D01*
X195810142Y-96919366D01*
X195695238Y-96861914D01*
X194718547Y-96861914D01*
X194776000Y-95655414D02*
X194718547Y-95770319D01*
X194718547Y-95942676D01*
X194776000Y-96115033D01*
X194890904Y-96229938D01*
X195005809Y-96287390D01*
X195235619Y-96344842D01*
X195407976Y-96344842D01*
X195637785Y-96287390D01*
X195752690Y-96229938D01*
X195867595Y-96115033D01*
X195925047Y-95942676D01*
X195925047Y-95827771D01*
X195867595Y-95655414D01*
X195810142Y-95597961D01*
X195407976Y-95597961D01*
X195407976Y-95827771D01*
X194718547Y-94851080D02*
X194718547Y-94621271D01*
X194776000Y-94506366D01*
X194890904Y-94391461D01*
X195120714Y-94334009D01*
X195522880Y-94334009D01*
X195752690Y-94391461D01*
X195867595Y-94506366D01*
X195925047Y-94621271D01*
X195925047Y-94851080D01*
X195867595Y-94965985D01*
X195752690Y-95080890D01*
X195522880Y-95138342D01*
X195120714Y-95138342D01*
X194890904Y-95080890D01*
X194776000Y-94965985D01*
X194718547Y-94851080D01*
D11*
%TO.C,U$1*%
X122487700Y-123447600D02*
X123833900Y-121568000D01*
X122563900Y-121644200D02*
X123884700Y-123422200D01*
X120887500Y-121644200D02*
X122563900Y-121644200D01*
X121446300Y-122533200D02*
X120912900Y-122533200D01*
X119998500Y-123396800D02*
X121446300Y-123396800D01*
X119465100Y-121593400D02*
X119998500Y-123396800D01*
X118906300Y-123422200D02*
X119465100Y-121593400D01*
X118347500Y-121593400D02*
X118906300Y-123422200D01*
X117814100Y-123447600D02*
X118347500Y-121593400D01*
X117966500Y-123600000D02*
X117585500Y-123600000D01*
X118347500Y-122126800D02*
X117966500Y-123600000D01*
X118728500Y-123600000D02*
X118347500Y-122126800D01*
X119084100Y-123600000D02*
X118728500Y-123600000D01*
X119465100Y-122152200D02*
X119084100Y-123600000D01*
X119871500Y-123600000D02*
X119465100Y-122152200D01*
X121395500Y-123600000D02*
X119871500Y-123600000D01*
X120887500Y-122330000D02*
X121395500Y-122330000D01*
X122462300Y-121822000D02*
X120887500Y-121822000D01*
X122944900Y-122482400D02*
X122462300Y-121822000D01*
X122157500Y-123600000D02*
X122944900Y-122482400D01*
X122614700Y-123600000D02*
X122157500Y-123600000D01*
X123198900Y-122787200D02*
X122614700Y-123600000D01*
X123783100Y-123600000D02*
X123198900Y-122787200D01*
X124214900Y-123600000D02*
X123783100Y-123600000D01*
X123402100Y-122482400D02*
X124214900Y-123600000D01*
X124164100Y-121441000D02*
X123402100Y-122482400D01*
X123706900Y-121441000D02*
X124164100Y-121441000D01*
X123173500Y-122152200D02*
X123706900Y-121441000D01*
X122665500Y-121441000D02*
X123173500Y-122152200D01*
X120887500Y-121441000D02*
X122665500Y-121441000D01*
X121420900Y-122711000D02*
X120887500Y-122711000D01*
X120125500Y-123219000D02*
X121446300Y-123219000D01*
X119642900Y-121441000D02*
X120125500Y-123219000D01*
X119287300Y-121441000D02*
X119642900Y-121441000D01*
X118880900Y-122863400D02*
X119287300Y-121441000D01*
X118525300Y-121441000D02*
X118880900Y-122863400D01*
X118144300Y-121441000D02*
X118525300Y-121441000D01*
X117585500Y-123600000D02*
X118144300Y-121441000D01*
X120887498Y-121644202D02*
G75*
G03*
X120912900Y-122533200I25401J-444136D01*
G01*
X121446300Y-122533200D02*
G75*
G02*
X121446300Y-123396800I0J-431800D01*
G01*
X121395500Y-123600000D02*
G75*
G03*
X121395500Y-122330000I0J635000D01*
G01*
X120887500Y-122330000D02*
G75*
G02*
X120887500Y-121822000I0J254000D01*
G01*
X120887500Y-121441000D02*
G75*
G03*
X120887500Y-122711000I0J-635000D01*
G01*
X121420898Y-122711002D02*
G75*
G02*
X121446300Y-123219000I25401J-253364D01*
G01*
%TD*%
D12*
%TO.P,C2,2*%
%TO.N,GND*%
X110956200Y-102595600D03*
%TO.P,C2,1*%
%TO.N,VCC*%
X110956200Y-99595600D03*
%TD*%
%TO.P,C3,2*%
%TO.N,GND*%
X134292400Y-108168100D03*
%TO.P,C3,1*%
%TO.N,VCC*%
X134292400Y-111168100D03*
%TD*%
D13*
%TO.P,C6,+*%
%TO.N,VCC*%
X111591100Y-121415600D03*
%TO.P,C6,-*%
%TO.N,GND*%
X114131100Y-121415600D03*
%TD*%
D14*
%TO.P,R1,1*%
%TO.N,/~SLTSL*%
X184464100Y-123479100D03*
%TO.P,R1,2*%
%TO.N,Net-(IC6-Pad2)*%
X187308100Y-123479100D03*
%TD*%
D15*
%TO.P,CON2,8*%
%TO.N,Net-(CON2-Pad8)*%
X183663500Y-78076900D03*
%TO.P,CON2,7*%
%TO.N,Net-(CON2-Pad7)*%
X186203500Y-79346900D03*
%TO.P,CON2,1*%
%TO.N,Net-(CON2-Pad1)*%
X186203500Y-86966900D03*
%TO.P,CON2,2*%
%TO.N,Net-(CON2-Pad2)*%
X183663500Y-85696900D03*
%TO.P,CON2,3*%
%TO.N,Net-(CON2-Pad3)*%
X186203500Y-84426900D03*
%TO.P,CON2,4*%
%TO.N,Net-(CON2-Pad4)*%
X183663500Y-83156900D03*
%TO.P,CON2,5*%
%TO.N,Net-(CON2-Pad5)*%
X186203500Y-81886900D03*
%TO.P,CON2,6*%
%TO.N,Net-(CON2-Pad6)*%
X183663500Y-80616900D03*
%TD*%
D16*
%TO.P,TF1,14*%
%TO.N,Net-(CON2-Pad2)*%
X173027300Y-88459100D03*
%TO.P,TF1,11*%
%TO.N,Net-(CON2-Pad3)*%
X165407300Y-88459100D03*
%TO.P,TF1,6*%
%TO.N,/TPIN+*%
X165407300Y-80839100D03*
%TO.P,TF1,3*%
%TO.N,/TPOUT-*%
X173027300Y-80839100D03*
%TO.P,TF1,16*%
%TO.N,Net-(CON2-Pad1)*%
X178107300Y-88459100D03*
%TO.P,TF1,15*%
%TO.N,Net-(C10-Pad1)*%
X175567300Y-88459100D03*
%TO.P,TF1,10*%
%TO.N,Net-(C9-Pad1)*%
X162867300Y-88459100D03*
%TO.P,TF1,9*%
%TO.N,Net-(CON2-Pad6)*%
X160327300Y-88459100D03*
%TO.P,TF1,8*%
%TO.N,/TPIN-*%
X160327300Y-80839100D03*
%TO.P,TF1,7*%
%TO.N,Net-(C8-Pad2)*%
X162867300Y-80839100D03*
%TO.P,TF1,2*%
%TO.N,Net-(C7-Pad2)*%
X175567300Y-80839100D03*
%TO.P,TF1,1*%
%TO.N,/TPOUT+*%
X178107300Y-80839100D03*
%TD*%
D15*
%TO.P,C7,2*%
%TO.N,Net-(C7-Pad2)*%
X175313500Y-77187800D03*
%TO.P,C7,1*%
%TO.N,GND*%
X170233500Y-77187800D03*
%TD*%
%TO.P,C8,2*%
%TO.N,Net-(C8-Pad2)*%
X162867400Y-77187800D03*
%TO.P,C8,1*%
%TO.N,GND*%
X167947400Y-77187800D03*
%TD*%
%TO.P,C9,2*%
%TO.N,GND*%
X167947400Y-92078600D03*
%TO.P,C9,1*%
%TO.N,Net-(C9-Pad1)*%
X162867400Y-92078600D03*
%TD*%
%TO.P,C10,2*%
%TO.N,GND*%
X170487300Y-92078600D03*
%TO.P,C10,1*%
%TO.N,Net-(C10-Pad1)*%
X175567300Y-92078600D03*
%TD*%
D17*
%TO.P,IC6,20*%
%TO.N,VCC*%
X176996100Y-119193100D03*
%TO.P,IC6,19*%
%TO.N,/~WE*%
X176996100Y-116653100D03*
%TO.P,IC6,18*%
%TO.N,/~CE_FLASH*%
X176996100Y-114113100D03*
%TO.P,IC6,17*%
%TO.N,/~OE*%
X176996100Y-111573100D03*
%TO.P,IC6,16*%
%TO.N,/~AEN*%
X176996100Y-109033100D03*
%TO.P,IC6,15*%
%TO.N,/RSTDRV*%
X176996100Y-106493100D03*
%TO.P,IC6,14*%
%TO.N,/NC_14*%
X176996100Y-103953100D03*
%TO.P,IC6,13*%
%TO.N,/NC_13*%
X176996100Y-101413100D03*
%TO.P,IC6,12*%
%TO.N,/~BUSDIR*%
X176996100Y-98873100D03*
%TO.P,IC6,11*%
%TO.N,GND*%
X176996100Y-96333100D03*
%TO.P,IC6,10*%
X184616100Y-96333100D03*
%TO.P,IC6,9*%
%TO.N,/~WR*%
X184616100Y-98873100D03*
%TO.P,IC6,5*%
%TO.N,/~RESET*%
X184616100Y-109033100D03*
%TO.P,IC6,6*%
%TO.N,/A15*%
X184616100Y-106493100D03*
%TO.P,IC6,4*%
%TO.N,/~RD*%
X184616100Y-111573100D03*
%TO.P,IC6,3*%
%TO.N,/~MERQ*%
X184616100Y-114113100D03*
%TO.P,IC6,8*%
%TO.N,/~H/L*%
X184616100Y-101413100D03*
%TO.P,IC6,7*%
%TO.N,/A14*%
X184616100Y-103953100D03*
%TO.P,IC6,2*%
%TO.N,Net-(IC6-Pad2)*%
X184616100Y-116653100D03*
%TO.P,IC6,1*%
%TO.N,GND*%
X184616100Y-119193100D03*
%TD*%
D15*
%TO.P,LED1,K*%
%TO.N,Net-(IC4-Pad61)*%
X108257500Y-77029200D03*
%TO.P,LED1,A*%
%TO.N,Net-(LED1-PadA)*%
X105717500Y-77029200D03*
%TD*%
%TO.P,LED2,K*%
%TO.N,Net-(IC4-Pad62)*%
X111591100Y-77029100D03*
%TO.P,LED2,A*%
%TO.N,Net-(LED2-PadA)*%
X114131100Y-77029100D03*
%TD*%
D18*
%TO.P,IC1,44*%
%TO.N,/~RESET*%
X144452400Y-104625600D03*
%TO.P,IC1,43*%
%TO.N,/~WE*%
X143182400Y-104625600D03*
%TO.P,IC1,42*%
%TO.N,/A9*%
X141912400Y-104625600D03*
%TO.P,IC1,41*%
%TO.N,/A10*%
X140642400Y-104625600D03*
%TO.P,IC1,40*%
%TO.N,/A11*%
X139372400Y-104625600D03*
%TO.P,IC1,39*%
%TO.N,/A12*%
X138102400Y-104625600D03*
%TO.P,IC1,38*%
%TO.N,/A13*%
X136832400Y-104625600D03*
%TO.P,IC1,37*%
%TO.N,/BROM-A14*%
X135562400Y-104625600D03*
%TO.P,IC1,36*%
%TO.N,/BROM-A15*%
X134292400Y-104625600D03*
%TO.P,IC1,35*%
%TO.N,/BROM-A16*%
X133022400Y-104625600D03*
%TO.P,IC1,34*%
%TO.N,/BROM-A17*%
X131752400Y-104625600D03*
%TO.P,IC1,33*%
%TO.N,GND*%
X130482400Y-104625600D03*
%TO.P,IC1,32*%
X129212400Y-104625600D03*
%TO.P,IC1,31*%
%TO.N,/A0*%
X127942400Y-104625600D03*
%TO.P,IC1,30*%
%TO.N,/D7*%
X126672400Y-104625600D03*
%TO.P,IC1,29*%
%TO.N,Net-(IC1-Pad29)*%
X125402400Y-104625600D03*
%TO.P,IC1,28*%
%TO.N,/D6*%
X124132400Y-104625600D03*
%TO.P,IC1,27*%
%TO.N,Net-(IC1-Pad27)*%
X122862400Y-104625600D03*
%TO.P,IC1,26*%
%TO.N,/D5*%
X121592400Y-104625600D03*
%TO.P,IC1,25*%
%TO.N,Net-(IC1-Pad25)*%
X120322400Y-104625600D03*
%TO.P,IC1,24*%
%TO.N,/D4*%
X119052400Y-104625600D03*
%TO.P,IC1,23*%
%TO.N,VCC*%
X117782400Y-104625600D03*
%TO.P,IC1,22*%
%TO.N,Net-(IC1-Pad22)*%
X117782400Y-89945600D03*
%TO.P,IC1,21*%
%TO.N,/D3*%
X119052400Y-89945600D03*
%TO.P,IC1,20*%
%TO.N,Net-(IC1-Pad20)*%
X120322400Y-89945600D03*
%TO.P,IC1,19*%
%TO.N,/D2*%
X121592400Y-89945600D03*
%TO.P,IC1,18*%
%TO.N,Net-(IC1-Pad18)*%
X122862400Y-89945600D03*
%TO.P,IC1,17*%
%TO.N,/D1*%
X124132400Y-89945600D03*
%TO.P,IC1,16*%
%TO.N,Net-(IC1-Pad16)*%
X125402400Y-89945600D03*
%TO.P,IC1,15*%
%TO.N,/D0*%
X126672400Y-89945600D03*
%TO.P,IC1,8*%
%TO.N,/A4*%
X135562400Y-89945600D03*
%TO.P,IC1,10*%
%TO.N,/A2*%
X133022400Y-89945600D03*
%TO.P,IC1,7*%
%TO.N,/A5*%
X136832400Y-89945600D03*
%TO.P,IC1,5*%
%TO.N,/A7*%
X139372400Y-89945600D03*
%TO.P,IC1,9*%
%TO.N,/A3*%
X134292400Y-89945600D03*
%TO.P,IC1,6*%
%TO.N,/A6*%
X138102400Y-89945600D03*
%TO.P,IC1,11*%
%TO.N,/A1*%
X131752400Y-89945600D03*
%TO.P,IC1,12*%
%TO.N,/~CE_FLASH*%
X130482400Y-89945600D03*
%TO.P,IC1,14*%
%TO.N,/~OE*%
X127942400Y-89945600D03*
%TO.P,IC1,4*%
%TO.N,/A8*%
X140642400Y-89945600D03*
%TO.P,IC1,3*%
%TO.N,/BROM-A18*%
X141912400Y-89945600D03*
%TO.P,IC1,1*%
%TO.N,N/C*%
X144452400Y-89945600D03*
%TO.P,IC1,13*%
%TO.N,GND*%
X129212400Y-89945600D03*
%TO.P,IC1,2*%
%TO.N,Net-(IC1-Pad2)*%
X143182400Y-89945600D03*
%TD*%
D19*
%TO.P,CON1,50*%
%TO.N,Net-(CON1-Pad50)*%
X123021100Y-131872400D03*
%TO.P,CON1,48*%
%TO.N,Net-(CON1-Pad48)*%
X125561100Y-131872400D03*
%TO.P,CON1,46*%
%TO.N,Net-(CON1-Pad44)*%
X128101100Y-131872400D03*
D20*
%TO.P,CON1,44*%
X130641100Y-131372400D03*
D19*
%TO.P,CON1,42*%
%TO.N,Net-(CON1-Pad42)*%
X133181100Y-131872400D03*
%TO.P,CON1,40*%
%TO.N,/D6*%
X135721100Y-131872400D03*
%TO.P,CON1,38*%
%TO.N,/D4*%
X138261100Y-131872400D03*
%TO.P,CON1,36*%
%TO.N,/D2*%
X140801100Y-131872400D03*
%TO.P,CON1,34*%
%TO.N,/D0*%
X143341100Y-131872400D03*
%TO.P,CON1,32*%
%TO.N,/A4*%
X145881100Y-131872400D03*
%TO.P,CON1,30*%
%TO.N,/A2*%
X148421100Y-131872400D03*
%TO.P,CON1,28*%
%TO.N,/A0*%
X150961100Y-131872400D03*
%TO.P,CON1,26*%
%TO.N,/A13*%
X153501100Y-131872400D03*
%TO.P,CON1,24*%
%TO.N,/A8*%
X156041100Y-131872400D03*
%TO.P,CON1,22*%
%TO.N,/A6*%
X158581100Y-131872400D03*
%TO.P,CON1,20*%
%TO.N,/A10*%
X161121100Y-131872400D03*
%TO.P,CON1,18*%
%TO.N,/A15*%
X163661100Y-131872400D03*
%TO.P,CON1,16*%
%TO.N,Net-(CON1-Pad16)*%
X166201100Y-131872400D03*
%TO.P,CON1,14*%
%TO.N,/~RD*%
X168741100Y-131872400D03*
%TO.P,CON1,12*%
%TO.N,/~MERQ*%
X171281100Y-131872400D03*
%TO.P,CON1,10*%
%TO.N,/~BUSDIR*%
X173821100Y-131872400D03*
%TO.P,CON1,8*%
%TO.N,Net-(CON1-Pad8)*%
X176361100Y-131872400D03*
%TO.P,CON1,6*%
%TO.N,Net-(CON1-Pad6)*%
X178901100Y-131872400D03*
%TO.P,CON1,4*%
%TO.N,/~SLTSL*%
X181441100Y-131872400D03*
%TO.P,CON1,2*%
%TO.N,Net-(CON1-Pad2)*%
X183981100Y-131872400D03*
%TD*%
D21*
%TO.N,GND*%
X129847400Y-76997300D03*
X157628600Y-76997300D03*
X127307400Y-94110600D03*
X114766100Y-105223200D03*
X104923600Y-103000500D03*
X129847400Y-103635600D03*
X146039900Y-109985700D03*
%TO.N,VCC*%
X139848600Y-110938100D03*
X120957400Y-111731800D03*
X130482400Y-109350600D03*
X151119900Y-117097600D03*
X166201100Y-115383100D03*
X135086100Y-78870600D03*
X121909900Y-83950600D03*
X117782400Y-107128000D03*
X108568000Y-74647900D03*
X111280400Y-74647900D03*
%TO.N,N$24*%
X190331100Y-82045600D03*
%TO.N,N$26*%
X190331100Y-86014400D03*
%TO.N,N$27*%
X193188600Y-85061900D03*
%TO.N,N$28*%
X193188600Y-82998100D03*
%TO.N,Net-(IC6-Pad2)*%
X149691100Y-78997600D03*
%TO.N,/BROM-A16*%
X134451100Y-96491800D03*
%TO.N,/BROM-A17*%
X133181100Y-97603100D03*
%TO.N,Net-(CON2-Pad1)*%
X193188600Y-79029400D03*
%TO.N,Net-(CON2-Pad2)*%
X190331100Y-79981900D03*
%TO.N,Net-(CON2-Pad3)*%
X193188600Y-81093100D03*
%TO.N,Net-(CON2-Pad6)*%
X190331100Y-83950600D03*
%TO.N,/TPOUT-*%
X111591100Y-92840600D03*
%TO.N,/TPOUT+*%
X109527400Y-92840600D03*
%TO.N,/A5*%
X144611100Y-96714000D03*
%TO.N,/A12*%
X152231200Y-106493100D03*
%TO.N,/A7*%
X156199900Y-105540600D03*
%TO.N,/A11*%
X158739900Y-105540600D03*
%TO.N,/A9*%
X162549900Y-107763100D03*
%TO.N,/~H/L*%
X180012400Y-104905600D03*
%TO.N,/A10*%
X162391200Y-124431800D03*
X160962400Y-106175600D03*
%TO.N,/A6*%
X159851200Y-124431800D03*
X156041200Y-107763100D03*
%TO.N,/A8*%
X157311200Y-124431800D03*
X156199900Y-103318100D03*
%TO.N,/A13*%
X154771200Y-124431900D03*
X151913600Y-104270600D03*
%TO.N,/~WE*%
X142706100Y-107445500D03*
X138261100Y-98555600D03*
X125402400Y-101095600D03*
%TO.N,/~OE*%
X125719900Y-95380600D03*
%TO.N,/~AEN*%
X124767400Y-97920600D03*
%TO.N,/RSTDRV*%
X123814900Y-99825600D03*
%TO.N,/~BUSDIR*%
X173821100Y-126368600D03*
X179345600Y-98873100D03*
X181377600Y-98873100D03*
%TO.N,/~WR*%
X180171100Y-101730600D03*
%TO.N,/~RESET*%
X166359800Y-124431800D03*
X162549900Y-114271800D03*
%TO.N,/A14*%
X152548600Y-124431900D03*
%TO.N,Net-(IC4-Pad61)*%
X122544900Y-77092600D03*
%TO.N,Net-(IC4-Pad62)*%
X124767400Y-77092600D03*
%TO.N,/BROM-A14*%
X136991100Y-95380600D03*
%TO.N,/BROM-A15*%
X135721100Y-98555600D03*
%TO.N,/BROM-A18*%
X130164900Y-85538100D03*
%TO.N,/D7*%
X131752400Y-122685600D03*
%TO.N,/D6*%
X135721100Y-124431900D03*
X129847400Y-121098100D03*
%TO.N,/D5*%
X127942400Y-119510600D03*
%TO.N,/D4*%
X138261100Y-124431900D03*
X126037400Y-117923100D03*
%TO.N,/D3*%
X120322400Y-96015600D03*
%TO.N,/D2*%
X140801100Y-124431900D03*
X121592300Y-94110600D03*
%TO.N,/D1*%
X122862400Y-96015600D03*
%TO.N,/D0*%
X143341100Y-124431900D03*
X124132400Y-94110600D03*
%TO.N,/A4*%
X141118600Y-117923100D03*
X128577400Y-100778100D03*
%TO.N,/A3*%
X147151100Y-124431900D03*
X142388600Y-115700600D03*
X127624800Y-96650600D03*
%TO.N,/A2*%
X143658600Y-117605600D03*
X129212400Y-95063100D03*
%TO.N,/A1*%
X149691000Y-124431900D03*
X144928600Y-115700600D03*
X130164900Y-92840600D03*
%TO.N,/A0*%
X146516100Y-117288100D03*
%TD*%
D22*
%TO.N,GND*%
X127307400Y-94110600D02*
X127307400Y-93475500D01*
X127307400Y-93475500D02*
X129212400Y-91570500D01*
X129212400Y-91570500D02*
X129212400Y-89945600D01*
D23*
X173503600Y-96333100D02*
X175249800Y-96333100D01*
D22*
X175249800Y-96333100D02*
X176996100Y-96333100D01*
X129212400Y-104625600D02*
X130482400Y-104625600D01*
X130164900Y-103635600D02*
X129847400Y-103635600D01*
X130482400Y-103953100D02*
X130164900Y-103635600D01*
X130482400Y-104625600D02*
X130482400Y-103953100D01*
X132316200Y-108168100D02*
X134292400Y-108168100D01*
X130482400Y-106334300D02*
X132316200Y-108168100D01*
X130482400Y-104625600D02*
X130482400Y-106334300D01*
X134292400Y-108168100D02*
X140571100Y-108168100D01*
X140571100Y-108168100D02*
X142388700Y-109985700D01*
X142388700Y-109985700D02*
X146039900Y-109985700D01*
%TO.N,VCC*%
X121909900Y-83950600D02*
X123021100Y-83950600D01*
D23*
X173503600Y-119193100D02*
X175249900Y-119193100D01*
D22*
X175249900Y-119193100D02*
X176996100Y-119193100D01*
X123021100Y-83950600D02*
X128101100Y-78870600D01*
X128101100Y-78870600D02*
X135086100Y-78870600D01*
X113654900Y-94586800D02*
X113654900Y-86808100D01*
X113654900Y-86808100D02*
X116512400Y-83950600D01*
X116512400Y-83950600D02*
X121909900Y-83950600D01*
D24*
X110956200Y-99595600D02*
X107072488Y-99595600D01*
X113654900Y-94586800D02*
X113654900Y-94625100D01*
X113654900Y-94625100D02*
X113538000Y-94742000D01*
X113538000Y-94742000D02*
X108204000Y-94742000D01*
X108204000Y-94742000D02*
X106934000Y-93472000D01*
X106934000Y-93472000D02*
X104648000Y-93472000D01*
X104648000Y-93472000D02*
X103886000Y-94234000D01*
X103886000Y-94234000D02*
X103886000Y-99314000D01*
X104167600Y-99595600D02*
X107072488Y-99595600D01*
X103886000Y-99314000D02*
X104167600Y-99595600D01*
D22*
%TO.N,/~SLTSL*%
X181441100Y-125384700D02*
X183346700Y-123479100D01*
X183346700Y-123479100D02*
X184464100Y-123479100D01*
X181441100Y-131872400D02*
X181441100Y-125384700D01*
%TO.N,Net-(IC6-Pad2)*%
X149691100Y-78997600D02*
X149691100Y-83791800D01*
X187308100Y-116653100D02*
X187308100Y-123479100D01*
X187308100Y-116653100D02*
X184616100Y-116653100D01*
X187308100Y-95659600D02*
X187308100Y-116653100D01*
X186140100Y-94491600D02*
X187308100Y-95659600D01*
X160390900Y-94491600D02*
X186140100Y-94491600D01*
X149691100Y-83791800D02*
X160390900Y-94491600D01*
%TO.N,/BROM-A16*%
X133022400Y-104625600D02*
X133022300Y-99508100D01*
X133022300Y-99508100D02*
X134451100Y-98079300D01*
X134451100Y-98079300D02*
X134451100Y-96491800D01*
%TO.N,/BROM-A17*%
X131752400Y-104625600D02*
X131752400Y-99031900D01*
X131752400Y-99031900D02*
X133181100Y-97603100D01*
%TO.N,Net-(CON2-Pad1)*%
X186203500Y-86966900D02*
X187314800Y-86966900D01*
X187314800Y-86966900D02*
X189315100Y-84966600D01*
X189315100Y-84966600D02*
X191093100Y-84966600D01*
X191093100Y-84966600D02*
X191855100Y-84204600D01*
X191855100Y-84204600D02*
X191855100Y-80362900D01*
X191855100Y-80362900D02*
X193188600Y-79029400D01*
%TO.N,Net-(CON2-Pad2)*%
X183663500Y-85696900D02*
X187314900Y-85696900D01*
X187314900Y-85696900D02*
X188648400Y-84363400D01*
X188648400Y-84363400D02*
X188648400Y-81664600D01*
X188648400Y-81664600D02*
X190331100Y-79981900D01*
%TO.N,/TPOUT-*%
X111591100Y-92840600D02*
X111591100Y-86649400D01*
X111591100Y-86649400D02*
X119052400Y-79188100D01*
X119052400Y-79188100D02*
X126354900Y-79188100D01*
X126354900Y-79188100D02*
X127624900Y-77918100D01*
X127624900Y-77918100D02*
X127624900Y-76298800D01*
X127624900Y-76298800D02*
X128736100Y-75187600D01*
X173027300Y-76298800D02*
X173027300Y-80839100D01*
X171916100Y-75187600D02*
X173027300Y-76298800D01*
X128736100Y-75187600D02*
X171916100Y-75187600D01*
%TO.N,/TPOUT+*%
X109527400Y-92840600D02*
X109527400Y-87125600D01*
X109527400Y-87125600D02*
X118417400Y-78235600D01*
X118417400Y-78235600D02*
X125719900Y-78235600D01*
X125719900Y-78235600D02*
X126672400Y-77283100D01*
X126672400Y-77283100D02*
X126672400Y-75917800D01*
X126672400Y-75917800D02*
X128355200Y-74235100D01*
X178107300Y-76298800D02*
X178107300Y-80839100D01*
X176043600Y-74235100D02*
X178107300Y-76298800D01*
X128355200Y-74235100D02*
X176043600Y-74235100D01*
%TO.N,/A5*%
X136832400Y-91570700D02*
X136832400Y-89945600D01*
X140483600Y-95222000D02*
X136832400Y-91570700D01*
X144134900Y-95221800D02*
X140483600Y-95222000D01*
X144611100Y-96714000D02*
X144611100Y-95698100D01*
X144611100Y-95698100D02*
X144134900Y-95221800D01*
%TO.N,/A12*%
X138102300Y-103064100D02*
X138102400Y-104625600D01*
X142229800Y-98936600D02*
X138102300Y-103064100D01*
X146579600Y-98936600D02*
X142229800Y-98936600D01*
X150326200Y-102683200D02*
X146579600Y-98936600D01*
X150326200Y-105540600D02*
X150326200Y-102683200D01*
X151278600Y-106493200D02*
X150326200Y-105540600D01*
X152231200Y-106493100D02*
X151278600Y-106493200D01*
%TO.N,/A7*%
X139372300Y-91570500D02*
X139372400Y-89945600D01*
X141118600Y-93316800D02*
X139372300Y-91570500D01*
X144769800Y-93316900D02*
X141118600Y-93316800D01*
X154453600Y-103000600D02*
X144769800Y-93316900D01*
X154453600Y-104905600D02*
X154453600Y-103000600D01*
X155088600Y-105540600D02*
X154453600Y-104905600D01*
X156199900Y-105540600D02*
X155088600Y-105540600D01*
%TO.N,/A11*%
X139372400Y-103064100D02*
X139372400Y-104625600D01*
X142547400Y-99889100D02*
X139372400Y-103064100D01*
X146262100Y-99889100D02*
X142547400Y-99889100D01*
X149373600Y-103000600D02*
X146262100Y-99889100D01*
X149373600Y-106175600D02*
X149373600Y-103000600D01*
X152548600Y-109350600D02*
X149373600Y-106175600D01*
X156834900Y-109350600D02*
X152548600Y-109350600D01*
X158739900Y-107445600D02*
X156834900Y-109350600D01*
X158739900Y-105540600D02*
X158739900Y-107445600D01*
%TO.N,/A9*%
X141912400Y-103064100D02*
X141912400Y-104625600D01*
X143182400Y-101794100D02*
X141912400Y-103064100D01*
X145627100Y-101794100D02*
X143182400Y-101794100D01*
X147468600Y-103635600D02*
X145627100Y-101794100D01*
X147468600Y-106651800D02*
X147468600Y-103635600D01*
X152072300Y-111255600D02*
X147468600Y-106651800D01*
X157787400Y-111255600D02*
X152072300Y-111255600D01*
X161279900Y-107763100D02*
X157787400Y-111255600D01*
X162549900Y-107763100D02*
X161279900Y-107763100D01*
%TO.N,/~H/L*%
X180012400Y-104905600D02*
X180012400Y-104429300D01*
X180012400Y-104429300D02*
X183028600Y-101413100D01*
X183028600Y-101413100D02*
X184616100Y-101413100D01*
%TO.N,/A10*%
X161121100Y-125701800D02*
X162391200Y-124431800D01*
X140642400Y-103064100D02*
X140642400Y-104625600D01*
X142864900Y-100841600D02*
X140642400Y-103064100D01*
X145944600Y-100841600D02*
X142864900Y-100841600D01*
X148421100Y-103318100D02*
X145944600Y-100841600D01*
X148421100Y-106493100D02*
X148421100Y-103318100D01*
X152231100Y-110303000D02*
X148421100Y-106493100D01*
X157311100Y-110303100D02*
X152231100Y-110303000D01*
X160962400Y-106651800D02*
X157311100Y-110303100D01*
X160962400Y-106175600D02*
X160962400Y-106651800D01*
X161121100Y-131872400D02*
X161121100Y-125701800D01*
%TO.N,/A6*%
X158581100Y-125701800D02*
X159851200Y-124431800D01*
X138102300Y-91570700D02*
X138102400Y-89945600D01*
X140801000Y-94269500D02*
X138102300Y-91570700D01*
X144452300Y-94269300D02*
X140801000Y-94269500D01*
X153501100Y-103318100D02*
X144452300Y-94269300D01*
X153501100Y-105699300D02*
X153501100Y-103318100D01*
X155564900Y-107763100D02*
X153501100Y-105699300D01*
X156041200Y-107763100D02*
X155564900Y-107763100D01*
X158581100Y-131872400D02*
X158581100Y-125701800D01*
%TO.N,/A8*%
X156041100Y-125701800D02*
X157311200Y-124431800D01*
X140642400Y-91570600D02*
X140642400Y-89945600D01*
X141436200Y-92364400D02*
X140642400Y-91570600D01*
X145087400Y-92364300D02*
X141436200Y-92364400D01*
X156041100Y-103318100D02*
X145087400Y-92364300D01*
X156199900Y-103318100D02*
X156041100Y-103318100D01*
X156041100Y-131872400D02*
X156041100Y-125701800D01*
%TO.N,/A13*%
X153501100Y-125701900D02*
X154771200Y-124431900D01*
X136832400Y-103064100D02*
X136832400Y-104625600D01*
X141912400Y-97984100D02*
X136832400Y-103064100D01*
X146897000Y-97984100D02*
X141912400Y-97984100D01*
X151913500Y-103000500D02*
X146897000Y-97984100D01*
X151913600Y-104270600D02*
X151913500Y-103000500D01*
X153501100Y-131872400D02*
X153501100Y-125701900D01*
%TO.N,/~WE*%
X166994900Y-112208100D02*
X171439900Y-116653100D01*
X151596100Y-112208100D02*
X166994900Y-112208100D01*
X146516100Y-107128100D02*
X151596100Y-112208100D01*
X146516100Y-103953100D02*
X146516100Y-107128100D01*
X145309600Y-102746600D02*
X146516100Y-103953100D01*
X143658700Y-102746600D02*
X145309600Y-102746600D01*
X143182400Y-103222900D02*
X143658700Y-102746600D01*
X143182400Y-104625600D02*
X143182400Y-103222900D01*
X143182400Y-106969300D02*
X143182400Y-104625600D01*
X142706100Y-107445500D02*
X143182400Y-106969300D01*
X138896100Y-97920600D02*
X138261100Y-98555600D01*
X134927400Y-94110600D02*
X137784900Y-94110600D01*
X137784900Y-94110600D02*
X138896100Y-95221800D01*
X138896100Y-95221800D02*
X138896100Y-97920600D01*
X125878700Y-102206800D02*
X129371100Y-102206800D01*
X129371100Y-102206800D02*
X130164900Y-101413100D01*
X130164900Y-101413100D02*
X130164900Y-98873100D01*
X130164900Y-98873100D02*
X134927400Y-94110600D01*
X125402400Y-101730600D02*
X125878700Y-102206800D01*
X125402400Y-101095600D02*
X125402400Y-101730600D01*
X175249800Y-116653100D02*
X176996100Y-116653100D01*
D23*
X173503600Y-116653100D02*
X175249800Y-116653100D01*
D22*
X171439900Y-116653100D02*
X173503600Y-116653100D01*
%TO.N,/~CE_FLASH*%
X129529900Y-83633100D02*
X141594800Y-83633100D01*
X128577400Y-84585600D02*
X129529900Y-83633100D01*
X128577400Y-86490600D02*
X128577400Y-84585600D01*
X130482400Y-88395600D02*
X128577400Y-86490600D01*
X130482400Y-89945600D02*
X130482400Y-88395600D01*
X141594800Y-83633100D02*
X172074800Y-114113100D01*
X175249900Y-114113100D02*
X176996100Y-114113100D01*
D23*
X173503600Y-114113100D02*
X175249900Y-114113100D01*
D22*
X172074800Y-114113100D02*
X173503600Y-114113100D01*
%TO.N,/~OE*%
X128894900Y-82680600D02*
X142071100Y-82680600D01*
X127307400Y-84268100D02*
X128894900Y-82680600D01*
X127307400Y-87125600D02*
X127307400Y-84268100D01*
X127942300Y-87760600D02*
X127307400Y-87125600D01*
X127942400Y-89945600D02*
X127942300Y-87760600D01*
X125719900Y-95380600D02*
X125719900Y-93793100D01*
X125719900Y-93793100D02*
X127942400Y-91570600D01*
X127942400Y-91570600D02*
X127942400Y-89945600D01*
X142071100Y-82680600D02*
X170963600Y-111573100D01*
X175249800Y-111573100D02*
X176996100Y-111573100D01*
D23*
X173503600Y-111573100D02*
X175249800Y-111573100D01*
D22*
X170963600Y-111573100D02*
X173503600Y-111573100D01*
%TO.N,/~AEN*%
X128259900Y-81728100D02*
X142706100Y-81728100D01*
X123179900Y-86808100D02*
X128259900Y-81728100D01*
X117464900Y-86808100D02*
X123179900Y-86808100D01*
X115877400Y-88395600D02*
X117464900Y-86808100D01*
X115877400Y-94428100D02*
X115877400Y-88395600D01*
X124767400Y-97920600D02*
X119369800Y-97920600D01*
X119369800Y-97920600D02*
X115877400Y-94428100D01*
X142706100Y-81728100D02*
X170011100Y-109033100D01*
X175249900Y-109033100D02*
X176996100Y-109033100D01*
D23*
X173503600Y-109033100D02*
X175249900Y-109033100D01*
D22*
X170011100Y-109033100D02*
X173503600Y-109033100D01*
%TO.N,/RSTDRV*%
X127624900Y-80775600D02*
X143341100Y-80775600D01*
X122544800Y-85855600D02*
X127624900Y-80775600D01*
X116829900Y-85855600D02*
X122544800Y-85855600D01*
X114924900Y-87760600D02*
X116829900Y-85855600D01*
X114924900Y-95063100D02*
X114924900Y-87760600D01*
X119687400Y-99825600D02*
X114924900Y-95063100D01*
X123814900Y-99825600D02*
X119687400Y-99825600D01*
X143341100Y-80775600D02*
X169058600Y-106493100D01*
X175249800Y-106493100D02*
X176996100Y-106493100D01*
D23*
X173503600Y-106493100D02*
X175249800Y-106493100D01*
D22*
X169058600Y-106493100D02*
X173503600Y-106493100D01*
D23*
%TO.N,/NC_14*%
X173503500Y-103953100D02*
X175249800Y-103953100D01*
D22*
X175249800Y-103953100D02*
X176996100Y-103953100D01*
D23*
%TO.N,/NC_13*%
X173503600Y-101413100D02*
X175249900Y-101413100D01*
D22*
X175249900Y-101413100D02*
X176996100Y-101413100D01*
D23*
%TO.N,/~BUSDIR*%
X175249900Y-98873100D02*
X173503600Y-98873100D01*
D22*
X176996100Y-98873100D02*
X175249900Y-98873100D01*
X173821100Y-131872400D02*
X173821100Y-126368600D01*
X179345600Y-98873100D02*
X176996100Y-98873100D01*
%TO.N,/~WR*%
X180171100Y-101730600D02*
X183028600Y-98873100D01*
X183028600Y-98873100D02*
X184616100Y-98873100D01*
%TO.N,/~RESET*%
X182869900Y-109033100D02*
X184616100Y-109033100D01*
X180806100Y-111096900D02*
X182869900Y-109033100D01*
X180806000Y-121256900D02*
X180806100Y-111096900D01*
X179059800Y-123003100D02*
X180806000Y-121256900D01*
X162549900Y-114271800D02*
X162549800Y-114271800D01*
X162549800Y-114271800D02*
X162073600Y-113795600D01*
X162073600Y-113795600D02*
X151913600Y-113795600D01*
X144452300Y-106334300D02*
X144452400Y-104625600D01*
X151913600Y-113795600D02*
X144452300Y-106334300D01*
X167788500Y-123003100D02*
X179059800Y-123003100D01*
X166359800Y-124431800D02*
X167788500Y-123003100D01*
%TO.N,/A15*%
X180012400Y-109350600D02*
X182869800Y-106493100D01*
X180012400Y-120939300D02*
X180012400Y-109350600D01*
X178901100Y-122050600D02*
X180012400Y-120939300D01*
X164454900Y-124908200D02*
X164454900Y-123638100D01*
X164454900Y-123638100D02*
X166042400Y-122050600D01*
X166042400Y-122050600D02*
X178901100Y-122050600D01*
X163661100Y-125701900D02*
X164454900Y-124908200D01*
X182869800Y-106493100D02*
X184616100Y-106493100D01*
X163661100Y-131872400D02*
X163661100Y-125701900D01*
%TO.N,/~RD*%
X183028600Y-111573100D02*
X184616100Y-111573100D01*
X181599900Y-113001800D02*
X183028600Y-111573100D01*
X181599900Y-121891800D02*
X181599900Y-113001800D01*
X179536100Y-123955600D02*
X181599900Y-121891800D01*
X170487500Y-123955600D02*
X179536100Y-123955600D01*
X168741100Y-125702000D02*
X170487500Y-123955600D01*
X168741100Y-131872400D02*
X168741100Y-125702000D01*
%TO.N,/~MERQ*%
X183028600Y-114113100D02*
X184616100Y-114113100D01*
X182393600Y-114748100D02*
X183028600Y-114113100D01*
X182393600Y-122368100D02*
X182393600Y-114748100D01*
X179853600Y-124908100D02*
X182393600Y-122368100D01*
X172075000Y-124908100D02*
X179853600Y-124908100D01*
X171281100Y-125702000D02*
X172075000Y-124908100D01*
X171281100Y-131872400D02*
X171281100Y-125702000D01*
%TO.N,/A14*%
X179218600Y-107604400D02*
X182869800Y-103953100D01*
X179218600Y-120463100D02*
X179218600Y-107604400D01*
X178583600Y-121098100D02*
X179218600Y-120463100D01*
X153659800Y-121098100D02*
X178583600Y-121098100D01*
X152548600Y-122209300D02*
X153659800Y-121098100D01*
X152548600Y-124431900D02*
X152548600Y-122209300D01*
X182869800Y-103953100D02*
X184616100Y-103953100D01*
%TO.N,Net-(IC4-Pad61)*%
X117972900Y-77092600D02*
X122544900Y-77092600D01*
X115686900Y-79378600D02*
X117972900Y-77092600D01*
X109622700Y-79378600D02*
X115686900Y-79378600D01*
X108257400Y-78013300D02*
X109622700Y-79378600D01*
X108257400Y-77029300D02*
X108257400Y-78013300D01*
X108257500Y-77029200D02*
X108257400Y-77029300D01*
%TO.N,Net-(IC4-Pad62)*%
X124767400Y-76521100D02*
X124767400Y-77092600D01*
X124164100Y-75917800D02*
X124767400Y-76521100D01*
X117560200Y-75917800D02*
X124164100Y-75917800D01*
X115115400Y-78362600D02*
X117560200Y-75917800D01*
X111972100Y-78362600D02*
X115115400Y-78362600D01*
X111591100Y-77981600D02*
X111972100Y-78362600D01*
X111591100Y-77029100D02*
X111591100Y-77981600D01*
%TO.N,/BROM-A14*%
X135562400Y-104625600D02*
X135562500Y-100619300D01*
X135562500Y-100619300D02*
X136991200Y-99190600D01*
X136991200Y-99190600D02*
X136991100Y-95380600D01*
%TO.N,/BROM-A15*%
X134292400Y-104625600D02*
X134292300Y-99984300D01*
X134292300Y-99984300D02*
X135721100Y-98555500D01*
X135721100Y-98555500D02*
X135721100Y-98555600D01*
%TO.N,/BROM-A18*%
X141912400Y-87443200D02*
X141912400Y-89945600D01*
X140007400Y-85538100D02*
X141912400Y-87443200D01*
X130164900Y-85538100D02*
X140007400Y-85538100D01*
%TO.N,/D7*%
X126672400Y-110620600D02*
X126672400Y-104625600D01*
X131752400Y-115700600D02*
X126672400Y-110620600D01*
X131752400Y-122685600D02*
X131752400Y-115700600D01*
%TO.N,/D6*%
X124132400Y-109350600D02*
X124132400Y-104625600D01*
X129847400Y-115065600D02*
X124132400Y-109350600D01*
X129847400Y-121098100D02*
X129847400Y-115065600D01*
X135721100Y-124431900D02*
X135721100Y-131872400D01*
%TO.N,/D5*%
X121592400Y-108080600D02*
X121592400Y-104625600D01*
X127942400Y-114430600D02*
X121592400Y-108080600D01*
X127942400Y-119510600D02*
X127942400Y-114430600D01*
%TO.N,/D4*%
X119052400Y-106810600D02*
X119052400Y-104625600D01*
X126037400Y-117923100D02*
X126037400Y-113795600D01*
X126037400Y-113795600D02*
X119052400Y-106810600D01*
X138261100Y-124431900D02*
X138261100Y-131872400D01*
%TO.N,/D3*%
X120322400Y-96015600D02*
X119052300Y-94745600D01*
X119052300Y-94745600D02*
X119052300Y-89945700D01*
X119052300Y-89945700D02*
X119052400Y-89945600D01*
%TO.N,/D2*%
X121592400Y-92681800D02*
X121592400Y-89945600D01*
X121592300Y-94110600D02*
X121592400Y-92681800D01*
X140801100Y-124431900D02*
X140801100Y-131872400D01*
%TO.N,/D1*%
X124132400Y-91570600D02*
X124132400Y-89945600D01*
X122862400Y-92840600D02*
X124132400Y-91570600D01*
X122862400Y-96015600D02*
X122862400Y-92840600D01*
%TO.N,/D0*%
X126672300Y-91570600D02*
X126672400Y-89945600D01*
X124132400Y-94110600D02*
X126672300Y-91570600D01*
X143341100Y-124431900D02*
X143341100Y-131872400D01*
%TO.N,/A4*%
X145881100Y-123638100D02*
X141118600Y-118875600D01*
X141118600Y-118875600D02*
X141118600Y-117923100D01*
X128577400Y-100778100D02*
X128577400Y-99190600D01*
X128577400Y-99190600D02*
X135562400Y-92205600D01*
X135562400Y-92205600D02*
X135562400Y-89945600D01*
X145881100Y-131872400D02*
X145881100Y-123638100D01*
%TO.N,/A3*%
X147151100Y-124431900D02*
X147151100Y-123320600D01*
X147151100Y-123320600D02*
X142388600Y-118558100D01*
X142388600Y-118558100D02*
X142388600Y-115700600D01*
X127624800Y-96650600D02*
X129847400Y-96650600D01*
X129847400Y-96650600D02*
X134292300Y-92205600D01*
X134292300Y-92205600D02*
X134292400Y-89945600D01*
%TO.N,/A2*%
X129212400Y-95063100D02*
X130164900Y-95063100D01*
X130164900Y-95063100D02*
X133022400Y-92205600D01*
X133022400Y-92205600D02*
X133022400Y-89945600D01*
X143658600Y-118240600D02*
X143658600Y-117605600D01*
X148421100Y-123003100D02*
X143658600Y-118240600D01*
X148421100Y-131872400D02*
X148421100Y-123003100D01*
%TO.N,/A1*%
X149691000Y-124431900D02*
X149691100Y-122685600D01*
X149691100Y-122685600D02*
X144928600Y-117923100D01*
X144928600Y-117923100D02*
X144928600Y-115700600D01*
X130164900Y-92840600D02*
X131117400Y-92840600D01*
X131117400Y-92840600D02*
X131752400Y-92205600D01*
X131752400Y-92205600D02*
X131752400Y-89945600D01*
%TO.N,/A0*%
X146516100Y-115065600D02*
X146516100Y-117288100D01*
X145563600Y-114113100D02*
X146516100Y-115065600D01*
X131434900Y-114113100D02*
X145563600Y-114113100D01*
X127942300Y-110620600D02*
X131434900Y-114113100D01*
X127942300Y-110620600D02*
X127942400Y-104625600D01*
X146516100Y-117288100D02*
X146516100Y-117923100D01*
X146516100Y-117923100D02*
X150961100Y-122368100D01*
X150961100Y-122368100D02*
X150961100Y-131872400D01*
D23*
%TO.N,Net-(CON1-Pad44)*%
X130641100Y-128559300D02*
X130641100Y-131372400D01*
X128101100Y-128559300D02*
X130641100Y-128559300D01*
X128101100Y-131872400D02*
X128101100Y-128559300D01*
%TD*%
D25*
%TO.N,GND*%
X194953746Y-73436037D02*
X194729769Y-73585693D01*
X194539293Y-73776169D01*
X194389637Y-74000146D01*
X194286552Y-74249015D01*
X194234000Y-74513213D01*
X194234000Y-74782587D01*
X194286552Y-75046785D01*
X194389637Y-75295654D01*
X194539293Y-75519631D01*
X194729769Y-75710107D01*
X194953746Y-75859763D01*
X195202615Y-75962848D01*
X195466813Y-76015400D01*
X195736187Y-76015400D01*
X196000385Y-75962848D01*
X196249254Y-75859763D01*
X196473231Y-75710107D01*
X196663707Y-75519631D01*
X196813363Y-75295654D01*
X196916448Y-75046785D01*
X196969000Y-74782587D01*
X196969000Y-74513213D01*
X196916448Y-74249015D01*
X196813363Y-74000146D01*
X196663707Y-73776169D01*
X196473231Y-73585693D01*
X196249254Y-73436037D01*
X196217056Y-73422700D01*
X197082000Y-73422700D01*
X197082001Y-125584500D01*
X189473900Y-125584500D01*
X189473900Y-121309506D01*
X189472680Y-121297118D01*
X189469066Y-121285206D01*
X189463198Y-121274227D01*
X189455301Y-121264605D01*
X188680100Y-120489403D01*
X188680100Y-113707910D01*
X189398770Y-113707910D01*
X189398770Y-120399600D01*
X196669520Y-120399600D01*
X196669520Y-111754529D01*
X193970770Y-111754529D01*
X193970770Y-112616314D01*
X191684770Y-112616314D01*
X191684770Y-113707910D01*
X189398770Y-113707910D01*
X188680100Y-113707910D01*
X188680100Y-106809818D01*
X192533600Y-106809818D01*
X192533600Y-107197382D01*
X192609210Y-107577499D01*
X192757524Y-107935561D01*
X192972843Y-108257808D01*
X193246892Y-108531857D01*
X193569139Y-108747176D01*
X193927201Y-108895490D01*
X194307318Y-108971100D01*
X194694882Y-108971100D01*
X195074999Y-108895490D01*
X195433061Y-108747176D01*
X195755308Y-108531857D01*
X196029357Y-108257808D01*
X196244676Y-107935561D01*
X196392990Y-107577499D01*
X196468600Y-107197382D01*
X196468600Y-106809818D01*
X196392990Y-106429701D01*
X196244676Y-106071639D01*
X196029357Y-105749392D01*
X195755308Y-105475343D01*
X195433061Y-105260024D01*
X195074999Y-105111710D01*
X194694882Y-105036100D01*
X194307318Y-105036100D01*
X193927201Y-105111710D01*
X193569139Y-105260024D01*
X193246892Y-105475343D01*
X192972843Y-105749392D01*
X192757524Y-106071639D01*
X192609210Y-106429701D01*
X192533600Y-106809818D01*
X188680100Y-106809818D01*
X188680100Y-93845706D01*
X188678880Y-93833318D01*
X188675266Y-93821406D01*
X188669398Y-93810427D01*
X188661501Y-93800805D01*
X187148395Y-92287699D01*
X187138773Y-92279802D01*
X187127794Y-92273934D01*
X187115882Y-92270320D01*
X187103494Y-92269100D01*
X182367297Y-92269100D01*
X181210640Y-91112443D01*
X189430570Y-91112443D01*
X189430570Y-103032300D01*
X196701320Y-103032300D01*
X196701320Y-93697800D01*
X194002570Y-93697800D01*
X194002570Y-95995895D01*
X192129320Y-95995895D01*
X192129320Y-91112443D01*
X189430570Y-91112443D01*
X181210640Y-91112443D01*
X180359410Y-90261213D01*
X194234000Y-90261213D01*
X194234000Y-90530587D01*
X194286552Y-90794785D01*
X194389637Y-91043654D01*
X194539293Y-91267631D01*
X194729769Y-91458107D01*
X194953746Y-91607763D01*
X195202615Y-91710848D01*
X195466813Y-91763400D01*
X195736187Y-91763400D01*
X196000385Y-91710848D01*
X196249254Y-91607763D01*
X196473231Y-91458107D01*
X196663707Y-91267631D01*
X196813363Y-91043654D01*
X196916448Y-90794785D01*
X196969000Y-90530587D01*
X196969000Y-90261213D01*
X196916448Y-89997015D01*
X196813363Y-89748146D01*
X196663707Y-89524169D01*
X196473231Y-89333693D01*
X196249254Y-89184037D01*
X196000385Y-89080952D01*
X195736187Y-89028400D01*
X195466813Y-89028400D01*
X195202615Y-89080952D01*
X194953746Y-89184037D01*
X194729769Y-89333693D01*
X194539293Y-89524169D01*
X194389637Y-89748146D01*
X194286552Y-89997015D01*
X194234000Y-90261213D01*
X180359410Y-90261213D01*
X179790100Y-89691903D01*
X179790100Y-88043118D01*
X190586000Y-88043118D01*
X190586000Y-88430682D01*
X190661610Y-88810799D01*
X190809924Y-89168861D01*
X191025243Y-89491108D01*
X191299292Y-89765157D01*
X191621539Y-89980476D01*
X191979601Y-90128790D01*
X192359718Y-90204400D01*
X192747282Y-90204400D01*
X193127399Y-90128790D01*
X193485461Y-89980476D01*
X193807708Y-89765157D01*
X194081757Y-89491108D01*
X194297076Y-89168861D01*
X194445390Y-88810799D01*
X194521000Y-88430682D01*
X194521000Y-88043118D01*
X194445390Y-87663001D01*
X194297076Y-87304939D01*
X194081757Y-86982692D01*
X193807708Y-86708643D01*
X193485461Y-86493324D01*
X193127399Y-86345010D01*
X192747282Y-86269400D01*
X192359718Y-86269400D01*
X191979601Y-86345010D01*
X191621539Y-86493324D01*
X191299292Y-86708643D01*
X191025243Y-86982692D01*
X190809924Y-87304939D01*
X190661610Y-87663001D01*
X190586000Y-88043118D01*
X179790100Y-88043118D01*
X179790100Y-86860706D01*
X179788880Y-86848318D01*
X179785266Y-86836406D01*
X179779398Y-86825427D01*
X179771501Y-86815805D01*
X179210895Y-86255199D01*
X179201273Y-86247302D01*
X179190294Y-86241434D01*
X179178382Y-86237820D01*
X179165994Y-86236600D01*
X172318006Y-86236600D01*
X172305618Y-86237820D01*
X172293706Y-86241434D01*
X172282727Y-86247302D01*
X172273105Y-86255199D01*
X170950399Y-87577905D01*
X170942502Y-87587527D01*
X170936634Y-87598506D01*
X170933020Y-87610418D01*
X170931800Y-87622806D01*
X170931800Y-90184594D01*
X170933020Y-90196982D01*
X170936634Y-90208894D01*
X170942502Y-90219873D01*
X170950399Y-90229495D01*
X171725498Y-91004595D01*
X171725602Y-92898701D01*
X170894703Y-93729600D01*
X167540097Y-93729600D01*
X166645224Y-92834727D01*
X167316431Y-92834727D01*
X167388279Y-92998728D01*
X167578531Y-93090128D01*
X167782958Y-93142654D01*
X167993705Y-93154290D01*
X168202672Y-93124587D01*
X168401829Y-93054687D01*
X168506521Y-92998728D01*
X168578369Y-92834727D01*
X169856331Y-92834727D01*
X169928179Y-92998728D01*
X170118431Y-93090128D01*
X170322858Y-93142654D01*
X170533605Y-93154290D01*
X170742572Y-93124587D01*
X170941729Y-93054687D01*
X171046421Y-92998728D01*
X171118269Y-92834727D01*
X170487300Y-92203758D01*
X169856331Y-92834727D01*
X168578369Y-92834727D01*
X167947400Y-92203758D01*
X167316431Y-92834727D01*
X166645224Y-92834727D01*
X166613901Y-92803404D01*
X166613863Y-92124905D01*
X166871710Y-92124905D01*
X166901413Y-92333872D01*
X166971313Y-92533029D01*
X167027272Y-92637721D01*
X167191273Y-92709569D01*
X167822242Y-92078600D01*
X168072558Y-92078600D01*
X168703527Y-92709569D01*
X168867528Y-92637721D01*
X168958928Y-92447469D01*
X169011454Y-92243042D01*
X169017976Y-92124905D01*
X169411610Y-92124905D01*
X169441313Y-92333872D01*
X169511213Y-92533029D01*
X169567172Y-92637721D01*
X169731173Y-92709569D01*
X170362142Y-92078600D01*
X170612458Y-92078600D01*
X171243427Y-92709569D01*
X171407428Y-92637721D01*
X171498828Y-92447469D01*
X171551354Y-92243042D01*
X171562990Y-92032295D01*
X171533287Y-91823328D01*
X171463387Y-91624171D01*
X171407428Y-91519479D01*
X171243427Y-91447631D01*
X170612458Y-92078600D01*
X170362142Y-92078600D01*
X169731173Y-91447631D01*
X169567172Y-91519479D01*
X169475772Y-91709731D01*
X169423246Y-91914158D01*
X169411610Y-92124905D01*
X169017976Y-92124905D01*
X169023090Y-92032295D01*
X168993387Y-91823328D01*
X168923487Y-91624171D01*
X168867528Y-91519479D01*
X168703527Y-91447631D01*
X168072558Y-92078600D01*
X167822242Y-92078600D01*
X167191273Y-91447631D01*
X167027272Y-91519479D01*
X166935872Y-91709731D01*
X166883346Y-91914158D01*
X166871710Y-92124905D01*
X166613863Y-92124905D01*
X166613818Y-91322473D01*
X167316431Y-91322473D01*
X167947400Y-91953442D01*
X168578369Y-91322473D01*
X169856331Y-91322473D01*
X170487300Y-91953442D01*
X171118269Y-91322473D01*
X171046421Y-91158472D01*
X170856169Y-91067072D01*
X170651742Y-91014546D01*
X170440995Y-91002910D01*
X170232028Y-91032613D01*
X170032871Y-91102513D01*
X169928179Y-91158472D01*
X169856331Y-91322473D01*
X168578369Y-91322473D01*
X168506521Y-91158472D01*
X168316269Y-91067072D01*
X168111842Y-91014546D01*
X167901095Y-91002910D01*
X167692128Y-91032613D01*
X167492971Y-91102513D01*
X167388279Y-91158472D01*
X167316431Y-91322473D01*
X166613818Y-91322473D01*
X166613799Y-91004598D01*
X167389001Y-90229395D01*
X167396898Y-90219773D01*
X167402766Y-90208794D01*
X167406380Y-90196882D01*
X167407600Y-90184494D01*
X167407600Y-87622706D01*
X167406380Y-87610318D01*
X167402766Y-87598406D01*
X167396898Y-87587427D01*
X167389001Y-87577805D01*
X166066395Y-86255199D01*
X166056773Y-86247302D01*
X166045794Y-86241434D01*
X166033882Y-86237820D01*
X166021494Y-86236600D01*
X159268706Y-86236600D01*
X159256318Y-86237820D01*
X159244406Y-86241434D01*
X159233427Y-86247302D01*
X159223805Y-86255199D01*
X158663199Y-86815805D01*
X158655302Y-86825427D01*
X158649434Y-86836406D01*
X158645820Y-86848318D01*
X158644600Y-86860706D01*
X158644600Y-89342703D01*
X154898241Y-85596291D01*
X182642000Y-85596291D01*
X182642000Y-85797509D01*
X182681255Y-85994861D01*
X182758258Y-86180762D01*
X182870049Y-86348069D01*
X183012331Y-86490351D01*
X183179638Y-86602142D01*
X183365539Y-86679145D01*
X183562891Y-86718400D01*
X183764109Y-86718400D01*
X183961461Y-86679145D01*
X184147362Y-86602142D01*
X184314669Y-86490351D01*
X184456951Y-86348069D01*
X184568742Y-86180762D01*
X184585046Y-86141400D01*
X185600296Y-86141400D01*
X185552331Y-86173449D01*
X185410049Y-86315731D01*
X185298258Y-86483038D01*
X185221255Y-86668939D01*
X185182000Y-86866291D01*
X185182000Y-87067509D01*
X185221255Y-87264861D01*
X185298258Y-87450762D01*
X185410049Y-87618069D01*
X185552331Y-87760351D01*
X185719638Y-87872142D01*
X185905539Y-87949145D01*
X186102891Y-87988400D01*
X186304109Y-87988400D01*
X186501461Y-87949145D01*
X186687362Y-87872142D01*
X186854669Y-87760351D01*
X186996951Y-87618069D01*
X187108742Y-87450762D01*
X187125046Y-87411400D01*
X187292980Y-87411400D01*
X187314800Y-87413549D01*
X187336620Y-87411400D01*
X187336630Y-87411400D01*
X187401937Y-87404968D01*
X187485726Y-87379551D01*
X187562945Y-87338276D01*
X187630629Y-87282729D01*
X187644547Y-87265770D01*
X189499218Y-85411100D01*
X189703044Y-85411100D01*
X189654783Y-85459361D01*
X189559496Y-85601969D01*
X189493860Y-85760426D01*
X189460400Y-85928644D01*
X189460400Y-86100156D01*
X189493860Y-86268374D01*
X189559496Y-86426831D01*
X189654783Y-86569439D01*
X189776061Y-86690717D01*
X189918669Y-86786004D01*
X190077126Y-86851640D01*
X190245344Y-86885100D01*
X190416856Y-86885100D01*
X190585074Y-86851640D01*
X190743531Y-86786004D01*
X190886139Y-86690717D01*
X191007417Y-86569439D01*
X191102704Y-86426831D01*
X191168340Y-86268374D01*
X191201800Y-86100156D01*
X191201800Y-85928644D01*
X191168340Y-85760426D01*
X191102704Y-85601969D01*
X191007417Y-85459361D01*
X190959156Y-85411100D01*
X191071280Y-85411100D01*
X191093100Y-85413249D01*
X191114920Y-85411100D01*
X191114930Y-85411100D01*
X191180237Y-85404668D01*
X191264026Y-85379251D01*
X191341245Y-85337976D01*
X191408929Y-85282429D01*
X191422846Y-85265471D01*
X191712173Y-84976144D01*
X192317900Y-84976144D01*
X192317900Y-85147656D01*
X192351360Y-85315874D01*
X192416996Y-85474331D01*
X192512283Y-85616939D01*
X192633561Y-85738217D01*
X192776169Y-85833504D01*
X192934626Y-85899140D01*
X193102844Y-85932600D01*
X193274356Y-85932600D01*
X193442574Y-85899140D01*
X193601031Y-85833504D01*
X193743639Y-85738217D01*
X193864917Y-85616939D01*
X193960204Y-85474331D01*
X194025840Y-85315874D01*
X194059300Y-85147656D01*
X194059300Y-84976144D01*
X194025840Y-84807926D01*
X193960204Y-84649469D01*
X193864917Y-84506861D01*
X193743639Y-84385583D01*
X193601031Y-84290296D01*
X193442574Y-84224660D01*
X193274356Y-84191200D01*
X193102844Y-84191200D01*
X192934626Y-84224660D01*
X192776169Y-84290296D01*
X192633561Y-84385583D01*
X192512283Y-84506861D01*
X192416996Y-84649469D01*
X192351360Y-84807926D01*
X192317900Y-84976144D01*
X191712173Y-84976144D01*
X192153977Y-84534341D01*
X192170929Y-84520429D01*
X192184842Y-84503476D01*
X192184845Y-84503473D01*
X192226476Y-84452746D01*
X192267751Y-84375526D01*
X192271541Y-84363031D01*
X192293168Y-84291737D01*
X192299600Y-84226430D01*
X192299600Y-84226420D01*
X192301749Y-84204600D01*
X192299600Y-84182780D01*
X192299600Y-82912344D01*
X192317900Y-82912344D01*
X192317900Y-83083856D01*
X192351360Y-83252074D01*
X192416996Y-83410531D01*
X192512283Y-83553139D01*
X192633561Y-83674417D01*
X192776169Y-83769704D01*
X192934626Y-83835340D01*
X193102844Y-83868800D01*
X193274356Y-83868800D01*
X193442574Y-83835340D01*
X193601031Y-83769704D01*
X193743639Y-83674417D01*
X193864917Y-83553139D01*
X193960204Y-83410531D01*
X194025840Y-83252074D01*
X194059300Y-83083856D01*
X194059300Y-82912344D01*
X194025840Y-82744126D01*
X193960204Y-82585669D01*
X193864917Y-82443061D01*
X193743639Y-82321783D01*
X193601031Y-82226496D01*
X193442574Y-82160860D01*
X193274356Y-82127400D01*
X193102844Y-82127400D01*
X192934626Y-82160860D01*
X192776169Y-82226496D01*
X192633561Y-82321783D01*
X192512283Y-82443061D01*
X192416996Y-82585669D01*
X192351360Y-82744126D01*
X192317900Y-82912344D01*
X192299600Y-82912344D01*
X192299600Y-81007344D01*
X192317900Y-81007344D01*
X192317900Y-81178856D01*
X192351360Y-81347074D01*
X192416996Y-81505531D01*
X192512283Y-81648139D01*
X192633561Y-81769417D01*
X192776169Y-81864704D01*
X192934626Y-81930340D01*
X193102844Y-81963800D01*
X193274356Y-81963800D01*
X193442574Y-81930340D01*
X193601031Y-81864704D01*
X193743639Y-81769417D01*
X193864917Y-81648139D01*
X193960204Y-81505531D01*
X194025840Y-81347074D01*
X194059300Y-81178856D01*
X194059300Y-81007344D01*
X194025840Y-80839126D01*
X193960204Y-80680669D01*
X193864917Y-80538061D01*
X193743639Y-80416783D01*
X193601031Y-80321496D01*
X193442574Y-80255860D01*
X193274356Y-80222400D01*
X193102844Y-80222400D01*
X192934626Y-80255860D01*
X192776169Y-80321496D01*
X192633561Y-80416783D01*
X192512283Y-80538061D01*
X192416996Y-80680669D01*
X192351360Y-80839126D01*
X192317900Y-81007344D01*
X192299600Y-81007344D01*
X192299600Y-80547017D01*
X192972453Y-79874164D01*
X193102844Y-79900100D01*
X193274356Y-79900100D01*
X193442574Y-79866640D01*
X193601031Y-79801004D01*
X193743639Y-79705717D01*
X193864917Y-79584439D01*
X193960204Y-79441831D01*
X194025840Y-79283374D01*
X194059300Y-79115156D01*
X194059300Y-78943644D01*
X194025840Y-78775426D01*
X193960204Y-78616969D01*
X193864917Y-78474361D01*
X193758556Y-78368000D01*
X193807708Y-78335157D01*
X194081757Y-78061108D01*
X194297076Y-77738861D01*
X194445390Y-77380799D01*
X194521000Y-77000682D01*
X194521000Y-76613118D01*
X194445390Y-76233001D01*
X194297076Y-75874939D01*
X194081757Y-75552692D01*
X193807708Y-75278643D01*
X193485461Y-75063324D01*
X193127399Y-74915010D01*
X192747282Y-74839400D01*
X192359718Y-74839400D01*
X191979601Y-74915010D01*
X191621539Y-75063324D01*
X191299292Y-75278643D01*
X191025243Y-75552692D01*
X190809924Y-75874939D01*
X190661610Y-76233001D01*
X190586000Y-76613118D01*
X190586000Y-77000682D01*
X190661610Y-77380799D01*
X190809924Y-77738861D01*
X191025243Y-78061108D01*
X191299292Y-78335157D01*
X191621539Y-78550476D01*
X191979601Y-78698790D01*
X192352389Y-78772942D01*
X192351360Y-78775426D01*
X192317900Y-78943644D01*
X192317900Y-79115156D01*
X192343836Y-79245547D01*
X191556225Y-80033158D01*
X191539272Y-80047071D01*
X191525359Y-80064024D01*
X191525355Y-80064028D01*
X191483724Y-80114755D01*
X191442449Y-80191975D01*
X191417033Y-80275763D01*
X191408451Y-80362900D01*
X191410601Y-80384730D01*
X191410600Y-84020482D01*
X191127208Y-84303875D01*
X191168340Y-84204574D01*
X191201800Y-84036356D01*
X191201800Y-83864844D01*
X191168340Y-83696626D01*
X191102704Y-83538169D01*
X191007417Y-83395561D01*
X190886139Y-83274283D01*
X190743531Y-83178996D01*
X190585074Y-83113360D01*
X190416856Y-83079900D01*
X190245344Y-83079900D01*
X190077126Y-83113360D01*
X189918669Y-83178996D01*
X189776061Y-83274283D01*
X189654783Y-83395561D01*
X189559496Y-83538169D01*
X189493860Y-83696626D01*
X189460400Y-83864844D01*
X189460400Y-84036356D01*
X189493860Y-84204574D01*
X189559496Y-84363031D01*
X189654783Y-84505639D01*
X189671244Y-84522100D01*
X189336919Y-84522100D01*
X189315099Y-84519951D01*
X189293279Y-84522100D01*
X189293270Y-84522100D01*
X189227963Y-84528532D01*
X189144174Y-84553949D01*
X189066955Y-84595224D01*
X188999271Y-84650771D01*
X188985358Y-84667724D01*
X187130683Y-86522400D01*
X187125046Y-86522400D01*
X187108742Y-86483038D01*
X186996951Y-86315731D01*
X186854669Y-86173449D01*
X186806704Y-86141400D01*
X187293080Y-86141400D01*
X187314900Y-86143549D01*
X187336720Y-86141400D01*
X187336730Y-86141400D01*
X187402037Y-86134968D01*
X187485826Y-86109551D01*
X187563045Y-86068276D01*
X187630729Y-86012729D01*
X187644647Y-85995770D01*
X188947277Y-84693141D01*
X188964229Y-84679229D01*
X188978142Y-84662276D01*
X188978145Y-84662273D01*
X189019776Y-84611546D01*
X189061051Y-84534326D01*
X189064760Y-84522100D01*
X189086468Y-84450537D01*
X189092900Y-84385230D01*
X189092900Y-84385220D01*
X189095049Y-84363400D01*
X189092900Y-84341580D01*
X189092900Y-81959844D01*
X189460400Y-81959844D01*
X189460400Y-82131356D01*
X189493860Y-82299574D01*
X189559496Y-82458031D01*
X189654783Y-82600639D01*
X189776061Y-82721917D01*
X189918669Y-82817204D01*
X190077126Y-82882840D01*
X190245344Y-82916300D01*
X190416856Y-82916300D01*
X190585074Y-82882840D01*
X190743531Y-82817204D01*
X190886139Y-82721917D01*
X191007417Y-82600639D01*
X191102704Y-82458031D01*
X191168340Y-82299574D01*
X191201800Y-82131356D01*
X191201800Y-81959844D01*
X191168340Y-81791626D01*
X191102704Y-81633169D01*
X191007417Y-81490561D01*
X190886139Y-81369283D01*
X190743531Y-81273996D01*
X190585074Y-81208360D01*
X190416856Y-81174900D01*
X190245344Y-81174900D01*
X190077126Y-81208360D01*
X189918669Y-81273996D01*
X189776061Y-81369283D01*
X189654783Y-81490561D01*
X189559496Y-81633169D01*
X189493860Y-81791626D01*
X189460400Y-81959844D01*
X189092900Y-81959844D01*
X189092900Y-81848717D01*
X190114953Y-80826664D01*
X190245344Y-80852600D01*
X190416856Y-80852600D01*
X190585074Y-80819140D01*
X190743531Y-80753504D01*
X190886139Y-80658217D01*
X191007417Y-80536939D01*
X191102704Y-80394331D01*
X191168340Y-80235874D01*
X191201800Y-80067656D01*
X191201800Y-79896144D01*
X191168340Y-79727926D01*
X191102704Y-79569469D01*
X191007417Y-79426861D01*
X190886139Y-79305583D01*
X190743531Y-79210296D01*
X190585074Y-79144660D01*
X190416856Y-79111200D01*
X190245344Y-79111200D01*
X190077126Y-79144660D01*
X189918669Y-79210296D01*
X189776061Y-79305583D01*
X189654783Y-79426861D01*
X189559496Y-79569469D01*
X189493860Y-79727926D01*
X189460400Y-79896144D01*
X189460400Y-80067656D01*
X189486336Y-80198047D01*
X188349525Y-81334858D01*
X188332572Y-81348771D01*
X188318659Y-81365724D01*
X188318655Y-81365728D01*
X188277024Y-81416455D01*
X188235749Y-81493675D01*
X188210333Y-81577463D01*
X188201751Y-81664600D01*
X188203901Y-81686430D01*
X188203900Y-84179282D01*
X187130783Y-85252400D01*
X186806704Y-85252400D01*
X186854669Y-85220351D01*
X186996951Y-85078069D01*
X187108742Y-84910762D01*
X187185745Y-84724861D01*
X187225000Y-84527509D01*
X187225000Y-84326291D01*
X187185745Y-84128939D01*
X187108742Y-83943038D01*
X186996951Y-83775731D01*
X186854669Y-83633449D01*
X186687362Y-83521658D01*
X186501461Y-83444655D01*
X186304109Y-83405400D01*
X186102891Y-83405400D01*
X185905539Y-83444655D01*
X185719638Y-83521658D01*
X185552331Y-83633449D01*
X185410049Y-83775731D01*
X185298258Y-83943038D01*
X185221255Y-84128939D01*
X185182000Y-84326291D01*
X185182000Y-84527509D01*
X185221255Y-84724861D01*
X185298258Y-84910762D01*
X185410049Y-85078069D01*
X185552331Y-85220351D01*
X185600296Y-85252400D01*
X184585046Y-85252400D01*
X184568742Y-85213038D01*
X184456951Y-85045731D01*
X184314669Y-84903449D01*
X184147362Y-84791658D01*
X183961461Y-84714655D01*
X183764109Y-84675400D01*
X183562891Y-84675400D01*
X183365539Y-84714655D01*
X183179638Y-84791658D01*
X183012331Y-84903449D01*
X182870049Y-85045731D01*
X182758258Y-85213038D01*
X182681255Y-85398939D01*
X182642000Y-85596291D01*
X154898241Y-85596291D01*
X151373900Y-82071902D01*
X151373900Y-78351706D01*
X151372680Y-78339318D01*
X151369066Y-78327406D01*
X151363198Y-78316427D01*
X151355301Y-78306805D01*
X150794695Y-77746199D01*
X150785073Y-77738302D01*
X150774094Y-77732434D01*
X150762182Y-77728820D01*
X150749794Y-77727600D01*
X148791206Y-77727600D01*
X148778818Y-77728820D01*
X148766906Y-77732434D01*
X148755927Y-77738302D01*
X148746305Y-77746199D01*
X148185699Y-78306805D01*
X148177802Y-78316427D01*
X148171934Y-78327406D01*
X148168320Y-78339318D01*
X148167100Y-78351706D01*
X148167100Y-80521600D01*
X145854797Y-80521600D01*
X144603395Y-79270199D01*
X144593773Y-79262302D01*
X144582794Y-79256434D01*
X144570882Y-79252820D01*
X144558494Y-79251600D01*
X137282297Y-79251600D01*
X135713395Y-77682699D01*
X135703773Y-77674802D01*
X135692794Y-77668934D01*
X135680882Y-77665320D01*
X135668494Y-77664100D01*
X130693706Y-77664100D01*
X130681318Y-77665320D01*
X130669406Y-77668934D01*
X130658427Y-77674802D01*
X130648805Y-77682699D01*
X130318203Y-78013300D01*
X129344797Y-78013300D01*
X128831400Y-77499903D01*
X128831400Y-76494797D01*
X129344897Y-75981300D01*
X158131203Y-75981300D01*
X158803400Y-76653497D01*
X158803400Y-81802494D01*
X158804620Y-81814882D01*
X158808234Y-81826794D01*
X158814102Y-81837773D01*
X158821999Y-81847395D01*
X160017605Y-83043001D01*
X160027227Y-83050898D01*
X160038206Y-83056766D01*
X160050118Y-83060380D01*
X160062506Y-83061600D01*
X165989794Y-83061600D01*
X166002182Y-83060380D01*
X166014094Y-83056766D01*
X166025073Y-83050898D01*
X166034695Y-83043001D01*
X166912801Y-82164895D01*
X166920698Y-82155273D01*
X166926566Y-82144294D01*
X166930180Y-82132382D01*
X166931400Y-82119994D01*
X166931400Y-79050206D01*
X166930180Y-79037818D01*
X166926566Y-79025906D01*
X166920698Y-79014927D01*
X166912801Y-79005305D01*
X166232900Y-78325403D01*
X166232900Y-77943927D01*
X167316431Y-77943927D01*
X167388279Y-78107928D01*
X167578531Y-78199328D01*
X167782958Y-78251854D01*
X167993705Y-78263490D01*
X168202672Y-78233787D01*
X168401829Y-78163887D01*
X168506521Y-78107928D01*
X168578369Y-77943927D01*
X169602531Y-77943927D01*
X169674379Y-78107928D01*
X169864631Y-78199328D01*
X170069058Y-78251854D01*
X170279805Y-78263490D01*
X170488772Y-78233787D01*
X170687929Y-78163887D01*
X170792621Y-78107928D01*
X170864469Y-77943927D01*
X170233500Y-77312958D01*
X169602531Y-77943927D01*
X168578369Y-77943927D01*
X167947400Y-77312958D01*
X167316431Y-77943927D01*
X166232900Y-77943927D01*
X166232900Y-77234105D01*
X166871710Y-77234105D01*
X166901413Y-77443072D01*
X166971313Y-77642229D01*
X167027272Y-77746921D01*
X167191273Y-77818769D01*
X167822242Y-77187800D01*
X168072558Y-77187800D01*
X168703527Y-77818769D01*
X168867528Y-77746921D01*
X168958928Y-77556669D01*
X169011454Y-77352242D01*
X169017976Y-77234105D01*
X169157810Y-77234105D01*
X169187513Y-77443072D01*
X169257413Y-77642229D01*
X169313372Y-77746921D01*
X169477373Y-77818769D01*
X170108342Y-77187800D01*
X170358658Y-77187800D01*
X170989627Y-77818769D01*
X171153628Y-77746921D01*
X171245028Y-77556669D01*
X171297554Y-77352242D01*
X171309190Y-77141495D01*
X171279487Y-76932528D01*
X171209587Y-76733371D01*
X171153628Y-76628679D01*
X170989627Y-76556831D01*
X170358658Y-77187800D01*
X170108342Y-77187800D01*
X169477373Y-76556831D01*
X169313372Y-76628679D01*
X169221972Y-76818931D01*
X169169446Y-77023358D01*
X169157810Y-77234105D01*
X169017976Y-77234105D01*
X169023090Y-77141495D01*
X168993387Y-76932528D01*
X168923487Y-76733371D01*
X168867528Y-76628679D01*
X168703527Y-76556831D01*
X168072558Y-77187800D01*
X167822242Y-77187800D01*
X167191273Y-76556831D01*
X167027272Y-76628679D01*
X166935872Y-76818931D01*
X166883346Y-77023358D01*
X166871710Y-77234105D01*
X166232900Y-77234105D01*
X166232900Y-76780397D01*
X166581624Y-76431673D01*
X167316431Y-76431673D01*
X167947400Y-77062642D01*
X168578369Y-76431673D01*
X169602531Y-76431673D01*
X170233500Y-77062642D01*
X170864469Y-76431673D01*
X170792621Y-76267672D01*
X170602369Y-76176272D01*
X170397942Y-76123746D01*
X170187195Y-76112110D01*
X169978228Y-76141813D01*
X169779071Y-76211713D01*
X169674379Y-76267672D01*
X169602531Y-76431673D01*
X168578369Y-76431673D01*
X168506521Y-76267672D01*
X168316269Y-76176272D01*
X168111842Y-76123746D01*
X167901095Y-76112110D01*
X167692128Y-76141813D01*
X167492971Y-76211713D01*
X167388279Y-76267672D01*
X167316431Y-76431673D01*
X166581624Y-76431673D01*
X167190797Y-75822500D01*
X170989904Y-75822600D01*
X171947900Y-76780597D01*
X171947900Y-78325403D01*
X171267999Y-79005305D01*
X171260102Y-79014927D01*
X171254234Y-79025906D01*
X171250620Y-79037818D01*
X171249400Y-79050206D01*
X171249400Y-82119994D01*
X171250620Y-82132382D01*
X171254234Y-82144294D01*
X171260102Y-82155273D01*
X171267999Y-82164895D01*
X172146105Y-83043001D01*
X172155727Y-83050898D01*
X172166706Y-83056766D01*
X172178618Y-83060380D01*
X172191006Y-83061600D01*
X178848494Y-83061600D01*
X178860882Y-83060380D01*
X178872794Y-83056766D01*
X178873682Y-83056291D01*
X182642000Y-83056291D01*
X182642000Y-83257509D01*
X182681255Y-83454861D01*
X182758258Y-83640762D01*
X182870049Y-83808069D01*
X183012331Y-83950351D01*
X183179638Y-84062142D01*
X183365539Y-84139145D01*
X183562891Y-84178400D01*
X183764109Y-84178400D01*
X183961461Y-84139145D01*
X184147362Y-84062142D01*
X184314669Y-83950351D01*
X184456951Y-83808069D01*
X184568742Y-83640762D01*
X184645745Y-83454861D01*
X184685000Y-83257509D01*
X184685000Y-83056291D01*
X184645745Y-82858939D01*
X184568742Y-82673038D01*
X184456951Y-82505731D01*
X184314669Y-82363449D01*
X184147362Y-82251658D01*
X183961461Y-82174655D01*
X183764109Y-82135400D01*
X183562891Y-82135400D01*
X183365539Y-82174655D01*
X183179638Y-82251658D01*
X183012331Y-82363449D01*
X182870049Y-82505731D01*
X182758258Y-82673038D01*
X182681255Y-82858939D01*
X182642000Y-83056291D01*
X178873682Y-83056291D01*
X178883773Y-83050898D01*
X178893395Y-83043001D01*
X179771501Y-82164895D01*
X179779398Y-82155273D01*
X179785266Y-82144294D01*
X179788880Y-82132382D01*
X179790100Y-82119994D01*
X179790100Y-81786291D01*
X185182000Y-81786291D01*
X185182000Y-81987509D01*
X185221255Y-82184861D01*
X185298258Y-82370762D01*
X185410049Y-82538069D01*
X185552331Y-82680351D01*
X185719638Y-82792142D01*
X185905539Y-82869145D01*
X186102891Y-82908400D01*
X186304109Y-82908400D01*
X186501461Y-82869145D01*
X186687362Y-82792142D01*
X186854669Y-82680351D01*
X186996951Y-82538069D01*
X187108742Y-82370762D01*
X187185745Y-82184861D01*
X187225000Y-81987509D01*
X187225000Y-81786291D01*
X187185745Y-81588939D01*
X187108742Y-81403038D01*
X186996951Y-81235731D01*
X186854669Y-81093449D01*
X186687362Y-80981658D01*
X186501461Y-80904655D01*
X186304109Y-80865400D01*
X186102891Y-80865400D01*
X185905539Y-80904655D01*
X185719638Y-80981658D01*
X185552331Y-81093449D01*
X185410049Y-81235731D01*
X185298258Y-81403038D01*
X185221255Y-81588939D01*
X185182000Y-81786291D01*
X179790100Y-81786291D01*
X179790100Y-80516291D01*
X182642000Y-80516291D01*
X182642000Y-80717509D01*
X182681255Y-80914861D01*
X182758258Y-81100762D01*
X182870049Y-81268069D01*
X183012331Y-81410351D01*
X183179638Y-81522142D01*
X183365539Y-81599145D01*
X183562891Y-81638400D01*
X183764109Y-81638400D01*
X183961461Y-81599145D01*
X184147362Y-81522142D01*
X184314669Y-81410351D01*
X184456951Y-81268069D01*
X184568742Y-81100762D01*
X184645745Y-80914861D01*
X184685000Y-80717509D01*
X184685000Y-80516291D01*
X184645745Y-80318939D01*
X184568742Y-80133038D01*
X184456951Y-79965731D01*
X184314669Y-79823449D01*
X184147362Y-79711658D01*
X183961461Y-79634655D01*
X183764109Y-79595400D01*
X183562891Y-79595400D01*
X183365539Y-79634655D01*
X183179638Y-79711658D01*
X183012331Y-79823449D01*
X182870049Y-79965731D01*
X182758258Y-80133038D01*
X182681255Y-80318939D01*
X182642000Y-80516291D01*
X179790100Y-80516291D01*
X179790100Y-79246291D01*
X185182000Y-79246291D01*
X185182000Y-79447509D01*
X185221255Y-79644861D01*
X185298258Y-79830762D01*
X185410049Y-79998069D01*
X185552331Y-80140351D01*
X185719638Y-80252142D01*
X185905539Y-80329145D01*
X186102891Y-80368400D01*
X186304109Y-80368400D01*
X186501461Y-80329145D01*
X186687362Y-80252142D01*
X186854669Y-80140351D01*
X186996951Y-79998069D01*
X187108742Y-79830762D01*
X187185745Y-79644861D01*
X187225000Y-79447509D01*
X187225000Y-79246291D01*
X187185745Y-79048939D01*
X187108742Y-78863038D01*
X186996951Y-78695731D01*
X186854669Y-78553449D01*
X186687362Y-78441658D01*
X186501461Y-78364655D01*
X186304109Y-78325400D01*
X186102891Y-78325400D01*
X185905539Y-78364655D01*
X185719638Y-78441658D01*
X185552331Y-78553449D01*
X185410049Y-78695731D01*
X185298258Y-78863038D01*
X185221255Y-79048939D01*
X185182000Y-79246291D01*
X179790100Y-79246291D01*
X179790100Y-77976291D01*
X182642000Y-77976291D01*
X182642000Y-78177509D01*
X182681255Y-78374861D01*
X182758258Y-78560762D01*
X182870049Y-78728069D01*
X183012331Y-78870351D01*
X183179638Y-78982142D01*
X183365539Y-79059145D01*
X183562891Y-79098400D01*
X183764109Y-79098400D01*
X183961461Y-79059145D01*
X184147362Y-78982142D01*
X184314669Y-78870351D01*
X184456951Y-78728069D01*
X184568742Y-78560762D01*
X184645745Y-78374861D01*
X184685000Y-78177509D01*
X184685000Y-77976291D01*
X184645745Y-77778939D01*
X184568742Y-77593038D01*
X184456951Y-77425731D01*
X184314669Y-77283449D01*
X184147362Y-77171658D01*
X183961461Y-77094655D01*
X183764109Y-77055400D01*
X183562891Y-77055400D01*
X183365539Y-77094655D01*
X183179638Y-77171658D01*
X183012331Y-77283449D01*
X182870049Y-77425731D01*
X182758258Y-77593038D01*
X182681255Y-77778939D01*
X182642000Y-77976291D01*
X179790100Y-77976291D01*
X179790100Y-73986497D01*
X180353897Y-73422700D01*
X194985944Y-73422700D01*
X194953746Y-73436037D01*
%TA.AperFunction,Conductor*%
D26*
G36*
X194953746Y-73436037D02*
G01*
X194729769Y-73585693D01*
X194539293Y-73776169D01*
X194389637Y-74000146D01*
X194286552Y-74249015D01*
X194234000Y-74513213D01*
X194234000Y-74782587D01*
X194286552Y-75046785D01*
X194389637Y-75295654D01*
X194539293Y-75519631D01*
X194729769Y-75710107D01*
X194953746Y-75859763D01*
X195202615Y-75962848D01*
X195466813Y-76015400D01*
X195736187Y-76015400D01*
X196000385Y-75962848D01*
X196249254Y-75859763D01*
X196473231Y-75710107D01*
X196663707Y-75519631D01*
X196813363Y-75295654D01*
X196916448Y-75046785D01*
X196969000Y-74782587D01*
X196969000Y-74513213D01*
X196916448Y-74249015D01*
X196813363Y-74000146D01*
X196663707Y-73776169D01*
X196473231Y-73585693D01*
X196249254Y-73436037D01*
X196217056Y-73422700D01*
X197082000Y-73422700D01*
X197082001Y-125584500D01*
X189473900Y-125584500D01*
X189473900Y-121309506D01*
X189472680Y-121297118D01*
X189469066Y-121285206D01*
X189463198Y-121274227D01*
X189455301Y-121264605D01*
X188680100Y-120489403D01*
X188680100Y-113707910D01*
X189398770Y-113707910D01*
X189398770Y-120399600D01*
X196669520Y-120399600D01*
X196669520Y-111754529D01*
X193970770Y-111754529D01*
X193970770Y-112616314D01*
X191684770Y-112616314D01*
X191684770Y-113707910D01*
X189398770Y-113707910D01*
X188680100Y-113707910D01*
X188680100Y-106809818D01*
X192533600Y-106809818D01*
X192533600Y-107197382D01*
X192609210Y-107577499D01*
X192757524Y-107935561D01*
X192972843Y-108257808D01*
X193246892Y-108531857D01*
X193569139Y-108747176D01*
X193927201Y-108895490D01*
X194307318Y-108971100D01*
X194694882Y-108971100D01*
X195074999Y-108895490D01*
X195433061Y-108747176D01*
X195755308Y-108531857D01*
X196029357Y-108257808D01*
X196244676Y-107935561D01*
X196392990Y-107577499D01*
X196468600Y-107197382D01*
X196468600Y-106809818D01*
X196392990Y-106429701D01*
X196244676Y-106071639D01*
X196029357Y-105749392D01*
X195755308Y-105475343D01*
X195433061Y-105260024D01*
X195074999Y-105111710D01*
X194694882Y-105036100D01*
X194307318Y-105036100D01*
X193927201Y-105111710D01*
X193569139Y-105260024D01*
X193246892Y-105475343D01*
X192972843Y-105749392D01*
X192757524Y-106071639D01*
X192609210Y-106429701D01*
X192533600Y-106809818D01*
X188680100Y-106809818D01*
X188680100Y-93845706D01*
X188678880Y-93833318D01*
X188675266Y-93821406D01*
X188669398Y-93810427D01*
X188661501Y-93800805D01*
X187148395Y-92287699D01*
X187138773Y-92279802D01*
X187127794Y-92273934D01*
X187115882Y-92270320D01*
X187103494Y-92269100D01*
X182367297Y-92269100D01*
X181210640Y-91112443D01*
X189430570Y-91112443D01*
X189430570Y-103032300D01*
X196701320Y-103032300D01*
X196701320Y-93697800D01*
X194002570Y-93697800D01*
X194002570Y-95995895D01*
X192129320Y-95995895D01*
X192129320Y-91112443D01*
X189430570Y-91112443D01*
X181210640Y-91112443D01*
X180359410Y-90261213D01*
X194234000Y-90261213D01*
X194234000Y-90530587D01*
X194286552Y-90794785D01*
X194389637Y-91043654D01*
X194539293Y-91267631D01*
X194729769Y-91458107D01*
X194953746Y-91607763D01*
X195202615Y-91710848D01*
X195466813Y-91763400D01*
X195736187Y-91763400D01*
X196000385Y-91710848D01*
X196249254Y-91607763D01*
X196473231Y-91458107D01*
X196663707Y-91267631D01*
X196813363Y-91043654D01*
X196916448Y-90794785D01*
X196969000Y-90530587D01*
X196969000Y-90261213D01*
X196916448Y-89997015D01*
X196813363Y-89748146D01*
X196663707Y-89524169D01*
X196473231Y-89333693D01*
X196249254Y-89184037D01*
X196000385Y-89080952D01*
X195736187Y-89028400D01*
X195466813Y-89028400D01*
X195202615Y-89080952D01*
X194953746Y-89184037D01*
X194729769Y-89333693D01*
X194539293Y-89524169D01*
X194389637Y-89748146D01*
X194286552Y-89997015D01*
X194234000Y-90261213D01*
X180359410Y-90261213D01*
X179790100Y-89691903D01*
X179790100Y-88043118D01*
X190586000Y-88043118D01*
X190586000Y-88430682D01*
X190661610Y-88810799D01*
X190809924Y-89168861D01*
X191025243Y-89491108D01*
X191299292Y-89765157D01*
X191621539Y-89980476D01*
X191979601Y-90128790D01*
X192359718Y-90204400D01*
X192747282Y-90204400D01*
X193127399Y-90128790D01*
X193485461Y-89980476D01*
X193807708Y-89765157D01*
X194081757Y-89491108D01*
X194297076Y-89168861D01*
X194445390Y-88810799D01*
X194521000Y-88430682D01*
X194521000Y-88043118D01*
X194445390Y-87663001D01*
X194297076Y-87304939D01*
X194081757Y-86982692D01*
X193807708Y-86708643D01*
X193485461Y-86493324D01*
X193127399Y-86345010D01*
X192747282Y-86269400D01*
X192359718Y-86269400D01*
X191979601Y-86345010D01*
X191621539Y-86493324D01*
X191299292Y-86708643D01*
X191025243Y-86982692D01*
X190809924Y-87304939D01*
X190661610Y-87663001D01*
X190586000Y-88043118D01*
X179790100Y-88043118D01*
X179790100Y-86860706D01*
X179788880Y-86848318D01*
X179785266Y-86836406D01*
X179779398Y-86825427D01*
X179771501Y-86815805D01*
X179210895Y-86255199D01*
X179201273Y-86247302D01*
X179190294Y-86241434D01*
X179178382Y-86237820D01*
X179165994Y-86236600D01*
X172318006Y-86236600D01*
X172305618Y-86237820D01*
X172293706Y-86241434D01*
X172282727Y-86247302D01*
X172273105Y-86255199D01*
X170950399Y-87577905D01*
X170942502Y-87587527D01*
X170936634Y-87598506D01*
X170933020Y-87610418D01*
X170931800Y-87622806D01*
X170931800Y-90184594D01*
X170933020Y-90196982D01*
X170936634Y-90208894D01*
X170942502Y-90219873D01*
X170950399Y-90229495D01*
X171725498Y-91004595D01*
X171725602Y-92898701D01*
X170894703Y-93729600D01*
X167540097Y-93729600D01*
X166645224Y-92834727D01*
X167316431Y-92834727D01*
X167388279Y-92998728D01*
X167578531Y-93090128D01*
X167782958Y-93142654D01*
X167993705Y-93154290D01*
X168202672Y-93124587D01*
X168401829Y-93054687D01*
X168506521Y-92998728D01*
X168578369Y-92834727D01*
X169856331Y-92834727D01*
X169928179Y-92998728D01*
X170118431Y-93090128D01*
X170322858Y-93142654D01*
X170533605Y-93154290D01*
X170742572Y-93124587D01*
X170941729Y-93054687D01*
X171046421Y-92998728D01*
X171118269Y-92834727D01*
X170487300Y-92203758D01*
X169856331Y-92834727D01*
X168578369Y-92834727D01*
X167947400Y-92203758D01*
X167316431Y-92834727D01*
X166645224Y-92834727D01*
X166613901Y-92803404D01*
X166613863Y-92124905D01*
X166871710Y-92124905D01*
X166901413Y-92333872D01*
X166971313Y-92533029D01*
X167027272Y-92637721D01*
X167191273Y-92709569D01*
X167822242Y-92078600D01*
X168072558Y-92078600D01*
X168703527Y-92709569D01*
X168867528Y-92637721D01*
X168958928Y-92447469D01*
X169011454Y-92243042D01*
X169017976Y-92124905D01*
X169411610Y-92124905D01*
X169441313Y-92333872D01*
X169511213Y-92533029D01*
X169567172Y-92637721D01*
X169731173Y-92709569D01*
X170362142Y-92078600D01*
X170612458Y-92078600D01*
X171243427Y-92709569D01*
X171407428Y-92637721D01*
X171498828Y-92447469D01*
X171551354Y-92243042D01*
X171562990Y-92032295D01*
X171533287Y-91823328D01*
X171463387Y-91624171D01*
X171407428Y-91519479D01*
X171243427Y-91447631D01*
X170612458Y-92078600D01*
X170362142Y-92078600D01*
X169731173Y-91447631D01*
X169567172Y-91519479D01*
X169475772Y-91709731D01*
X169423246Y-91914158D01*
X169411610Y-92124905D01*
X169017976Y-92124905D01*
X169023090Y-92032295D01*
X168993387Y-91823328D01*
X168923487Y-91624171D01*
X168867528Y-91519479D01*
X168703527Y-91447631D01*
X168072558Y-92078600D01*
X167822242Y-92078600D01*
X167191273Y-91447631D01*
X167027272Y-91519479D01*
X166935872Y-91709731D01*
X166883346Y-91914158D01*
X166871710Y-92124905D01*
X166613863Y-92124905D01*
X166613818Y-91322473D01*
X167316431Y-91322473D01*
X167947400Y-91953442D01*
X168578369Y-91322473D01*
X169856331Y-91322473D01*
X170487300Y-91953442D01*
X171118269Y-91322473D01*
X171046421Y-91158472D01*
X170856169Y-91067072D01*
X170651742Y-91014546D01*
X170440995Y-91002910D01*
X170232028Y-91032613D01*
X170032871Y-91102513D01*
X169928179Y-91158472D01*
X169856331Y-91322473D01*
X168578369Y-91322473D01*
X168506521Y-91158472D01*
X168316269Y-91067072D01*
X168111842Y-91014546D01*
X167901095Y-91002910D01*
X167692128Y-91032613D01*
X167492971Y-91102513D01*
X167388279Y-91158472D01*
X167316431Y-91322473D01*
X166613818Y-91322473D01*
X166613799Y-91004598D01*
X167389001Y-90229395D01*
X167396898Y-90219773D01*
X167402766Y-90208794D01*
X167406380Y-90196882D01*
X167407600Y-90184494D01*
X167407600Y-87622706D01*
X167406380Y-87610318D01*
X167402766Y-87598406D01*
X167396898Y-87587427D01*
X167389001Y-87577805D01*
X166066395Y-86255199D01*
X166056773Y-86247302D01*
X166045794Y-86241434D01*
X166033882Y-86237820D01*
X166021494Y-86236600D01*
X159268706Y-86236600D01*
X159256318Y-86237820D01*
X159244406Y-86241434D01*
X159233427Y-86247302D01*
X159223805Y-86255199D01*
X158663199Y-86815805D01*
X158655302Y-86825427D01*
X158649434Y-86836406D01*
X158645820Y-86848318D01*
X158644600Y-86860706D01*
X158644600Y-89342703D01*
X154898241Y-85596291D01*
X182642000Y-85596291D01*
X182642000Y-85797509D01*
X182681255Y-85994861D01*
X182758258Y-86180762D01*
X182870049Y-86348069D01*
X183012331Y-86490351D01*
X183179638Y-86602142D01*
X183365539Y-86679145D01*
X183562891Y-86718400D01*
X183764109Y-86718400D01*
X183961461Y-86679145D01*
X184147362Y-86602142D01*
X184314669Y-86490351D01*
X184456951Y-86348069D01*
X184568742Y-86180762D01*
X184585046Y-86141400D01*
X185600296Y-86141400D01*
X185552331Y-86173449D01*
X185410049Y-86315731D01*
X185298258Y-86483038D01*
X185221255Y-86668939D01*
X185182000Y-86866291D01*
X185182000Y-87067509D01*
X185221255Y-87264861D01*
X185298258Y-87450762D01*
X185410049Y-87618069D01*
X185552331Y-87760351D01*
X185719638Y-87872142D01*
X185905539Y-87949145D01*
X186102891Y-87988400D01*
X186304109Y-87988400D01*
X186501461Y-87949145D01*
X186687362Y-87872142D01*
X186854669Y-87760351D01*
X186996951Y-87618069D01*
X187108742Y-87450762D01*
X187125046Y-87411400D01*
X187292980Y-87411400D01*
X187314800Y-87413549D01*
X187336620Y-87411400D01*
X187336630Y-87411400D01*
X187401937Y-87404968D01*
X187485726Y-87379551D01*
X187562945Y-87338276D01*
X187630629Y-87282729D01*
X187644547Y-87265770D01*
X189499218Y-85411100D01*
X189703044Y-85411100D01*
X189654783Y-85459361D01*
X189559496Y-85601969D01*
X189493860Y-85760426D01*
X189460400Y-85928644D01*
X189460400Y-86100156D01*
X189493860Y-86268374D01*
X189559496Y-86426831D01*
X189654783Y-86569439D01*
X189776061Y-86690717D01*
X189918669Y-86786004D01*
X190077126Y-86851640D01*
X190245344Y-86885100D01*
X190416856Y-86885100D01*
X190585074Y-86851640D01*
X190743531Y-86786004D01*
X190886139Y-86690717D01*
X191007417Y-86569439D01*
X191102704Y-86426831D01*
X191168340Y-86268374D01*
X191201800Y-86100156D01*
X191201800Y-85928644D01*
X191168340Y-85760426D01*
X191102704Y-85601969D01*
X191007417Y-85459361D01*
X190959156Y-85411100D01*
X191071280Y-85411100D01*
X191093100Y-85413249D01*
X191114920Y-85411100D01*
X191114930Y-85411100D01*
X191180237Y-85404668D01*
X191264026Y-85379251D01*
X191341245Y-85337976D01*
X191408929Y-85282429D01*
X191422846Y-85265471D01*
X191712173Y-84976144D01*
X192317900Y-84976144D01*
X192317900Y-85147656D01*
X192351360Y-85315874D01*
X192416996Y-85474331D01*
X192512283Y-85616939D01*
X192633561Y-85738217D01*
X192776169Y-85833504D01*
X192934626Y-85899140D01*
X193102844Y-85932600D01*
X193274356Y-85932600D01*
X193442574Y-85899140D01*
X193601031Y-85833504D01*
X193743639Y-85738217D01*
X193864917Y-85616939D01*
X193960204Y-85474331D01*
X194025840Y-85315874D01*
X194059300Y-85147656D01*
X194059300Y-84976144D01*
X194025840Y-84807926D01*
X193960204Y-84649469D01*
X193864917Y-84506861D01*
X193743639Y-84385583D01*
X193601031Y-84290296D01*
X193442574Y-84224660D01*
X193274356Y-84191200D01*
X193102844Y-84191200D01*
X192934626Y-84224660D01*
X192776169Y-84290296D01*
X192633561Y-84385583D01*
X192512283Y-84506861D01*
X192416996Y-84649469D01*
X192351360Y-84807926D01*
X192317900Y-84976144D01*
X191712173Y-84976144D01*
X192153977Y-84534341D01*
X192170929Y-84520429D01*
X192184842Y-84503476D01*
X192184845Y-84503473D01*
X192226476Y-84452746D01*
X192267751Y-84375526D01*
X192271541Y-84363031D01*
X192293168Y-84291737D01*
X192299600Y-84226430D01*
X192299600Y-84226420D01*
X192301749Y-84204600D01*
X192299600Y-84182780D01*
X192299600Y-82912344D01*
X192317900Y-82912344D01*
X192317900Y-83083856D01*
X192351360Y-83252074D01*
X192416996Y-83410531D01*
X192512283Y-83553139D01*
X192633561Y-83674417D01*
X192776169Y-83769704D01*
X192934626Y-83835340D01*
X193102844Y-83868800D01*
X193274356Y-83868800D01*
X193442574Y-83835340D01*
X193601031Y-83769704D01*
X193743639Y-83674417D01*
X193864917Y-83553139D01*
X193960204Y-83410531D01*
X194025840Y-83252074D01*
X194059300Y-83083856D01*
X194059300Y-82912344D01*
X194025840Y-82744126D01*
X193960204Y-82585669D01*
X193864917Y-82443061D01*
X193743639Y-82321783D01*
X193601031Y-82226496D01*
X193442574Y-82160860D01*
X193274356Y-82127400D01*
X193102844Y-82127400D01*
X192934626Y-82160860D01*
X192776169Y-82226496D01*
X192633561Y-82321783D01*
X192512283Y-82443061D01*
X192416996Y-82585669D01*
X192351360Y-82744126D01*
X192317900Y-82912344D01*
X192299600Y-82912344D01*
X192299600Y-81007344D01*
X192317900Y-81007344D01*
X192317900Y-81178856D01*
X192351360Y-81347074D01*
X192416996Y-81505531D01*
X192512283Y-81648139D01*
X192633561Y-81769417D01*
X192776169Y-81864704D01*
X192934626Y-81930340D01*
X193102844Y-81963800D01*
X193274356Y-81963800D01*
X193442574Y-81930340D01*
X193601031Y-81864704D01*
X193743639Y-81769417D01*
X193864917Y-81648139D01*
X193960204Y-81505531D01*
X194025840Y-81347074D01*
X194059300Y-81178856D01*
X194059300Y-81007344D01*
X194025840Y-80839126D01*
X193960204Y-80680669D01*
X193864917Y-80538061D01*
X193743639Y-80416783D01*
X193601031Y-80321496D01*
X193442574Y-80255860D01*
X193274356Y-80222400D01*
X193102844Y-80222400D01*
X192934626Y-80255860D01*
X192776169Y-80321496D01*
X192633561Y-80416783D01*
X192512283Y-80538061D01*
X192416996Y-80680669D01*
X192351360Y-80839126D01*
X192317900Y-81007344D01*
X192299600Y-81007344D01*
X192299600Y-80547017D01*
X192972453Y-79874164D01*
X193102844Y-79900100D01*
X193274356Y-79900100D01*
X193442574Y-79866640D01*
X193601031Y-79801004D01*
X193743639Y-79705717D01*
X193864917Y-79584439D01*
X193960204Y-79441831D01*
X194025840Y-79283374D01*
X194059300Y-79115156D01*
X194059300Y-78943644D01*
X194025840Y-78775426D01*
X193960204Y-78616969D01*
X193864917Y-78474361D01*
X193758556Y-78368000D01*
X193807708Y-78335157D01*
X194081757Y-78061108D01*
X194297076Y-77738861D01*
X194445390Y-77380799D01*
X194521000Y-77000682D01*
X194521000Y-76613118D01*
X194445390Y-76233001D01*
X194297076Y-75874939D01*
X194081757Y-75552692D01*
X193807708Y-75278643D01*
X193485461Y-75063324D01*
X193127399Y-74915010D01*
X192747282Y-74839400D01*
X192359718Y-74839400D01*
X191979601Y-74915010D01*
X191621539Y-75063324D01*
X191299292Y-75278643D01*
X191025243Y-75552692D01*
X190809924Y-75874939D01*
X190661610Y-76233001D01*
X190586000Y-76613118D01*
X190586000Y-77000682D01*
X190661610Y-77380799D01*
X190809924Y-77738861D01*
X191025243Y-78061108D01*
X191299292Y-78335157D01*
X191621539Y-78550476D01*
X191979601Y-78698790D01*
X192352389Y-78772942D01*
X192351360Y-78775426D01*
X192317900Y-78943644D01*
X192317900Y-79115156D01*
X192343836Y-79245547D01*
X191556225Y-80033158D01*
X191539272Y-80047071D01*
X191525359Y-80064024D01*
X191525355Y-80064028D01*
X191483724Y-80114755D01*
X191442449Y-80191975D01*
X191417033Y-80275763D01*
X191408451Y-80362900D01*
X191410601Y-80384730D01*
X191410600Y-84020482D01*
X191127208Y-84303875D01*
X191168340Y-84204574D01*
X191201800Y-84036356D01*
X191201800Y-83864844D01*
X191168340Y-83696626D01*
X191102704Y-83538169D01*
X191007417Y-83395561D01*
X190886139Y-83274283D01*
X190743531Y-83178996D01*
X190585074Y-83113360D01*
X190416856Y-83079900D01*
X190245344Y-83079900D01*
X190077126Y-83113360D01*
X189918669Y-83178996D01*
X189776061Y-83274283D01*
X189654783Y-83395561D01*
X189559496Y-83538169D01*
X189493860Y-83696626D01*
X189460400Y-83864844D01*
X189460400Y-84036356D01*
X189493860Y-84204574D01*
X189559496Y-84363031D01*
X189654783Y-84505639D01*
X189671244Y-84522100D01*
X189336919Y-84522100D01*
X189315099Y-84519951D01*
X189293279Y-84522100D01*
X189293270Y-84522100D01*
X189227963Y-84528532D01*
X189144174Y-84553949D01*
X189066955Y-84595224D01*
X188999271Y-84650771D01*
X188985358Y-84667724D01*
X187130683Y-86522400D01*
X187125046Y-86522400D01*
X187108742Y-86483038D01*
X186996951Y-86315731D01*
X186854669Y-86173449D01*
X186806704Y-86141400D01*
X187293080Y-86141400D01*
X187314900Y-86143549D01*
X187336720Y-86141400D01*
X187336730Y-86141400D01*
X187402037Y-86134968D01*
X187485826Y-86109551D01*
X187563045Y-86068276D01*
X187630729Y-86012729D01*
X187644647Y-85995770D01*
X188947277Y-84693141D01*
X188964229Y-84679229D01*
X188978142Y-84662276D01*
X188978145Y-84662273D01*
X189019776Y-84611546D01*
X189061051Y-84534326D01*
X189064760Y-84522100D01*
X189086468Y-84450537D01*
X189092900Y-84385230D01*
X189092900Y-84385220D01*
X189095049Y-84363400D01*
X189092900Y-84341580D01*
X189092900Y-81959844D01*
X189460400Y-81959844D01*
X189460400Y-82131356D01*
X189493860Y-82299574D01*
X189559496Y-82458031D01*
X189654783Y-82600639D01*
X189776061Y-82721917D01*
X189918669Y-82817204D01*
X190077126Y-82882840D01*
X190245344Y-82916300D01*
X190416856Y-82916300D01*
X190585074Y-82882840D01*
X190743531Y-82817204D01*
X190886139Y-82721917D01*
X191007417Y-82600639D01*
X191102704Y-82458031D01*
X191168340Y-82299574D01*
X191201800Y-82131356D01*
X191201800Y-81959844D01*
X191168340Y-81791626D01*
X191102704Y-81633169D01*
X191007417Y-81490561D01*
X190886139Y-81369283D01*
X190743531Y-81273996D01*
X190585074Y-81208360D01*
X190416856Y-81174900D01*
X190245344Y-81174900D01*
X190077126Y-81208360D01*
X189918669Y-81273996D01*
X189776061Y-81369283D01*
X189654783Y-81490561D01*
X189559496Y-81633169D01*
X189493860Y-81791626D01*
X189460400Y-81959844D01*
X189092900Y-81959844D01*
X189092900Y-81848717D01*
X190114953Y-80826664D01*
X190245344Y-80852600D01*
X190416856Y-80852600D01*
X190585074Y-80819140D01*
X190743531Y-80753504D01*
X190886139Y-80658217D01*
X191007417Y-80536939D01*
X191102704Y-80394331D01*
X191168340Y-80235874D01*
X191201800Y-80067656D01*
X191201800Y-79896144D01*
X191168340Y-79727926D01*
X191102704Y-79569469D01*
X191007417Y-79426861D01*
X190886139Y-79305583D01*
X190743531Y-79210296D01*
X190585074Y-79144660D01*
X190416856Y-79111200D01*
X190245344Y-79111200D01*
X190077126Y-79144660D01*
X189918669Y-79210296D01*
X189776061Y-79305583D01*
X189654783Y-79426861D01*
X189559496Y-79569469D01*
X189493860Y-79727926D01*
X189460400Y-79896144D01*
X189460400Y-80067656D01*
X189486336Y-80198047D01*
X188349525Y-81334858D01*
X188332572Y-81348771D01*
X188318659Y-81365724D01*
X188318655Y-81365728D01*
X188277024Y-81416455D01*
X188235749Y-81493675D01*
X188210333Y-81577463D01*
X188201751Y-81664600D01*
X188203901Y-81686430D01*
X188203900Y-84179282D01*
X187130783Y-85252400D01*
X186806704Y-85252400D01*
X186854669Y-85220351D01*
X186996951Y-85078069D01*
X187108742Y-84910762D01*
X187185745Y-84724861D01*
X187225000Y-84527509D01*
X187225000Y-84326291D01*
X187185745Y-84128939D01*
X187108742Y-83943038D01*
X186996951Y-83775731D01*
X186854669Y-83633449D01*
X186687362Y-83521658D01*
X186501461Y-83444655D01*
X186304109Y-83405400D01*
X186102891Y-83405400D01*
X185905539Y-83444655D01*
X185719638Y-83521658D01*
X185552331Y-83633449D01*
X185410049Y-83775731D01*
X185298258Y-83943038D01*
X185221255Y-84128939D01*
X185182000Y-84326291D01*
X185182000Y-84527509D01*
X185221255Y-84724861D01*
X185298258Y-84910762D01*
X185410049Y-85078069D01*
X185552331Y-85220351D01*
X185600296Y-85252400D01*
X184585046Y-85252400D01*
X184568742Y-85213038D01*
X184456951Y-85045731D01*
X184314669Y-84903449D01*
X184147362Y-84791658D01*
X183961461Y-84714655D01*
X183764109Y-84675400D01*
X183562891Y-84675400D01*
X183365539Y-84714655D01*
X183179638Y-84791658D01*
X183012331Y-84903449D01*
X182870049Y-85045731D01*
X182758258Y-85213038D01*
X182681255Y-85398939D01*
X182642000Y-85596291D01*
X154898241Y-85596291D01*
X151373900Y-82071902D01*
X151373900Y-78351706D01*
X151372680Y-78339318D01*
X151369066Y-78327406D01*
X151363198Y-78316427D01*
X151355301Y-78306805D01*
X150794695Y-77746199D01*
X150785073Y-77738302D01*
X150774094Y-77732434D01*
X150762182Y-77728820D01*
X150749794Y-77727600D01*
X148791206Y-77727600D01*
X148778818Y-77728820D01*
X148766906Y-77732434D01*
X148755927Y-77738302D01*
X148746305Y-77746199D01*
X148185699Y-78306805D01*
X148177802Y-78316427D01*
X148171934Y-78327406D01*
X148168320Y-78339318D01*
X148167100Y-78351706D01*
X148167100Y-80521600D01*
X145854797Y-80521600D01*
X144603395Y-79270199D01*
X144593773Y-79262302D01*
X144582794Y-79256434D01*
X144570882Y-79252820D01*
X144558494Y-79251600D01*
X137282297Y-79251600D01*
X135713395Y-77682699D01*
X135703773Y-77674802D01*
X135692794Y-77668934D01*
X135680882Y-77665320D01*
X135668494Y-77664100D01*
X130693706Y-77664100D01*
X130681318Y-77665320D01*
X130669406Y-77668934D01*
X130658427Y-77674802D01*
X130648805Y-77682699D01*
X130318203Y-78013300D01*
X129344797Y-78013300D01*
X128831400Y-77499903D01*
X128831400Y-76494797D01*
X129344897Y-75981300D01*
X158131203Y-75981300D01*
X158803400Y-76653497D01*
X158803400Y-81802494D01*
X158804620Y-81814882D01*
X158808234Y-81826794D01*
X158814102Y-81837773D01*
X158821999Y-81847395D01*
X160017605Y-83043001D01*
X160027227Y-83050898D01*
X160038206Y-83056766D01*
X160050118Y-83060380D01*
X160062506Y-83061600D01*
X165989794Y-83061600D01*
X166002182Y-83060380D01*
X166014094Y-83056766D01*
X166025073Y-83050898D01*
X166034695Y-83043001D01*
X166912801Y-82164895D01*
X166920698Y-82155273D01*
X166926566Y-82144294D01*
X166930180Y-82132382D01*
X166931400Y-82119994D01*
X166931400Y-79050206D01*
X166930180Y-79037818D01*
X166926566Y-79025906D01*
X166920698Y-79014927D01*
X166912801Y-79005305D01*
X166232900Y-78325403D01*
X166232900Y-77943927D01*
X167316431Y-77943927D01*
X167388279Y-78107928D01*
X167578531Y-78199328D01*
X167782958Y-78251854D01*
X167993705Y-78263490D01*
X168202672Y-78233787D01*
X168401829Y-78163887D01*
X168506521Y-78107928D01*
X168578369Y-77943927D01*
X169602531Y-77943927D01*
X169674379Y-78107928D01*
X169864631Y-78199328D01*
X170069058Y-78251854D01*
X170279805Y-78263490D01*
X170488772Y-78233787D01*
X170687929Y-78163887D01*
X170792621Y-78107928D01*
X170864469Y-77943927D01*
X170233500Y-77312958D01*
X169602531Y-77943927D01*
X168578369Y-77943927D01*
X167947400Y-77312958D01*
X167316431Y-77943927D01*
X166232900Y-77943927D01*
X166232900Y-77234105D01*
X166871710Y-77234105D01*
X166901413Y-77443072D01*
X166971313Y-77642229D01*
X167027272Y-77746921D01*
X167191273Y-77818769D01*
X167822242Y-77187800D01*
X168072558Y-77187800D01*
X168703527Y-77818769D01*
X168867528Y-77746921D01*
X168958928Y-77556669D01*
X169011454Y-77352242D01*
X169017976Y-77234105D01*
X169157810Y-77234105D01*
X169187513Y-77443072D01*
X169257413Y-77642229D01*
X169313372Y-77746921D01*
X169477373Y-77818769D01*
X170108342Y-77187800D01*
X170358658Y-77187800D01*
X170989627Y-77818769D01*
X171153628Y-77746921D01*
X171245028Y-77556669D01*
X171297554Y-77352242D01*
X171309190Y-77141495D01*
X171279487Y-76932528D01*
X171209587Y-76733371D01*
X171153628Y-76628679D01*
X170989627Y-76556831D01*
X170358658Y-77187800D01*
X170108342Y-77187800D01*
X169477373Y-76556831D01*
X169313372Y-76628679D01*
X169221972Y-76818931D01*
X169169446Y-77023358D01*
X169157810Y-77234105D01*
X169017976Y-77234105D01*
X169023090Y-77141495D01*
X168993387Y-76932528D01*
X168923487Y-76733371D01*
X168867528Y-76628679D01*
X168703527Y-76556831D01*
X168072558Y-77187800D01*
X167822242Y-77187800D01*
X167191273Y-76556831D01*
X167027272Y-76628679D01*
X166935872Y-76818931D01*
X166883346Y-77023358D01*
X166871710Y-77234105D01*
X166232900Y-77234105D01*
X166232900Y-76780397D01*
X166581624Y-76431673D01*
X167316431Y-76431673D01*
X167947400Y-77062642D01*
X168578369Y-76431673D01*
X169602531Y-76431673D01*
X170233500Y-77062642D01*
X170864469Y-76431673D01*
X170792621Y-76267672D01*
X170602369Y-76176272D01*
X170397942Y-76123746D01*
X170187195Y-76112110D01*
X169978228Y-76141813D01*
X169779071Y-76211713D01*
X169674379Y-76267672D01*
X169602531Y-76431673D01*
X168578369Y-76431673D01*
X168506521Y-76267672D01*
X168316269Y-76176272D01*
X168111842Y-76123746D01*
X167901095Y-76112110D01*
X167692128Y-76141813D01*
X167492971Y-76211713D01*
X167388279Y-76267672D01*
X167316431Y-76431673D01*
X166581624Y-76431673D01*
X167190797Y-75822500D01*
X170989904Y-75822600D01*
X171947900Y-76780597D01*
X171947900Y-78325403D01*
X171267999Y-79005305D01*
X171260102Y-79014927D01*
X171254234Y-79025906D01*
X171250620Y-79037818D01*
X171249400Y-79050206D01*
X171249400Y-82119994D01*
X171250620Y-82132382D01*
X171254234Y-82144294D01*
X171260102Y-82155273D01*
X171267999Y-82164895D01*
X172146105Y-83043001D01*
X172155727Y-83050898D01*
X172166706Y-83056766D01*
X172178618Y-83060380D01*
X172191006Y-83061600D01*
X178848494Y-83061600D01*
X178860882Y-83060380D01*
X178872794Y-83056766D01*
X178873682Y-83056291D01*
X182642000Y-83056291D01*
X182642000Y-83257509D01*
X182681255Y-83454861D01*
X182758258Y-83640762D01*
X182870049Y-83808069D01*
X183012331Y-83950351D01*
X183179638Y-84062142D01*
X183365539Y-84139145D01*
X183562891Y-84178400D01*
X183764109Y-84178400D01*
X183961461Y-84139145D01*
X184147362Y-84062142D01*
X184314669Y-83950351D01*
X184456951Y-83808069D01*
X184568742Y-83640762D01*
X184645745Y-83454861D01*
X184685000Y-83257509D01*
X184685000Y-83056291D01*
X184645745Y-82858939D01*
X184568742Y-82673038D01*
X184456951Y-82505731D01*
X184314669Y-82363449D01*
X184147362Y-82251658D01*
X183961461Y-82174655D01*
X183764109Y-82135400D01*
X183562891Y-82135400D01*
X183365539Y-82174655D01*
X183179638Y-82251658D01*
X183012331Y-82363449D01*
X182870049Y-82505731D01*
X182758258Y-82673038D01*
X182681255Y-82858939D01*
X182642000Y-83056291D01*
X178873682Y-83056291D01*
X178883773Y-83050898D01*
X178893395Y-83043001D01*
X179771501Y-82164895D01*
X179779398Y-82155273D01*
X179785266Y-82144294D01*
X179788880Y-82132382D01*
X179790100Y-82119994D01*
X179790100Y-81786291D01*
X185182000Y-81786291D01*
X185182000Y-81987509D01*
X185221255Y-82184861D01*
X185298258Y-82370762D01*
X185410049Y-82538069D01*
X185552331Y-82680351D01*
X185719638Y-82792142D01*
X185905539Y-82869145D01*
X186102891Y-82908400D01*
X186304109Y-82908400D01*
X186501461Y-82869145D01*
X186687362Y-82792142D01*
X186854669Y-82680351D01*
X186996951Y-82538069D01*
X187108742Y-82370762D01*
X187185745Y-82184861D01*
X187225000Y-81987509D01*
X187225000Y-81786291D01*
X187185745Y-81588939D01*
X187108742Y-81403038D01*
X186996951Y-81235731D01*
X186854669Y-81093449D01*
X186687362Y-80981658D01*
X186501461Y-80904655D01*
X186304109Y-80865400D01*
X186102891Y-80865400D01*
X185905539Y-80904655D01*
X185719638Y-80981658D01*
X185552331Y-81093449D01*
X185410049Y-81235731D01*
X185298258Y-81403038D01*
X185221255Y-81588939D01*
X185182000Y-81786291D01*
X179790100Y-81786291D01*
X179790100Y-80516291D01*
X182642000Y-80516291D01*
X182642000Y-80717509D01*
X182681255Y-80914861D01*
X182758258Y-81100762D01*
X182870049Y-81268069D01*
X183012331Y-81410351D01*
X183179638Y-81522142D01*
X183365539Y-81599145D01*
X183562891Y-81638400D01*
X183764109Y-81638400D01*
X183961461Y-81599145D01*
X184147362Y-81522142D01*
X184314669Y-81410351D01*
X184456951Y-81268069D01*
X184568742Y-81100762D01*
X184645745Y-80914861D01*
X184685000Y-80717509D01*
X184685000Y-80516291D01*
X184645745Y-80318939D01*
X184568742Y-80133038D01*
X184456951Y-79965731D01*
X184314669Y-79823449D01*
X184147362Y-79711658D01*
X183961461Y-79634655D01*
X183764109Y-79595400D01*
X183562891Y-79595400D01*
X183365539Y-79634655D01*
X183179638Y-79711658D01*
X183012331Y-79823449D01*
X182870049Y-79965731D01*
X182758258Y-80133038D01*
X182681255Y-80318939D01*
X182642000Y-80516291D01*
X179790100Y-80516291D01*
X179790100Y-79246291D01*
X185182000Y-79246291D01*
X185182000Y-79447509D01*
X185221255Y-79644861D01*
X185298258Y-79830762D01*
X185410049Y-79998069D01*
X185552331Y-80140351D01*
X185719638Y-80252142D01*
X185905539Y-80329145D01*
X186102891Y-80368400D01*
X186304109Y-80368400D01*
X186501461Y-80329145D01*
X186687362Y-80252142D01*
X186854669Y-80140351D01*
X186996951Y-79998069D01*
X187108742Y-79830762D01*
X187185745Y-79644861D01*
X187225000Y-79447509D01*
X187225000Y-79246291D01*
X187185745Y-79048939D01*
X187108742Y-78863038D01*
X186996951Y-78695731D01*
X186854669Y-78553449D01*
X186687362Y-78441658D01*
X186501461Y-78364655D01*
X186304109Y-78325400D01*
X186102891Y-78325400D01*
X185905539Y-78364655D01*
X185719638Y-78441658D01*
X185552331Y-78553449D01*
X185410049Y-78695731D01*
X185298258Y-78863038D01*
X185221255Y-79048939D01*
X185182000Y-79246291D01*
X179790100Y-79246291D01*
X179790100Y-77976291D01*
X182642000Y-77976291D01*
X182642000Y-78177509D01*
X182681255Y-78374861D01*
X182758258Y-78560762D01*
X182870049Y-78728069D01*
X183012331Y-78870351D01*
X183179638Y-78982142D01*
X183365539Y-79059145D01*
X183562891Y-79098400D01*
X183764109Y-79098400D01*
X183961461Y-79059145D01*
X184147362Y-78982142D01*
X184314669Y-78870351D01*
X184456951Y-78728069D01*
X184568742Y-78560762D01*
X184645745Y-78374861D01*
X184685000Y-78177509D01*
X184685000Y-77976291D01*
X184645745Y-77778939D01*
X184568742Y-77593038D01*
X184456951Y-77425731D01*
X184314669Y-77283449D01*
X184147362Y-77171658D01*
X183961461Y-77094655D01*
X183764109Y-77055400D01*
X183562891Y-77055400D01*
X183365539Y-77094655D01*
X183179638Y-77171658D01*
X183012331Y-77283449D01*
X182870049Y-77425731D01*
X182758258Y-77593038D01*
X182681255Y-77778939D01*
X182642000Y-77976291D01*
X179790100Y-77976291D01*
X179790100Y-73986497D01*
X180353897Y-73422700D01*
X194985944Y-73422700D01*
X194953746Y-73436037D01*
G37*
%TD.AperFunction*%
%TD*%
D25*
%TO.N,GND*%
X109588876Y-101825759D02*
X109586922Y-101845600D01*
X109588700Y-102415225D01*
X109680575Y-102507100D01*
X110867700Y-102507100D01*
X110867700Y-102487100D01*
X111044700Y-102487100D01*
X111044700Y-102507100D01*
X112231825Y-102507100D01*
X112323700Y-102415225D01*
X112325478Y-101845600D01*
X112323527Y-101825792D01*
X113046204Y-101825801D01*
X114988400Y-103767997D01*
X114988400Y-109139194D01*
X114989620Y-109151582D01*
X114993234Y-109163494D01*
X114999102Y-109174473D01*
X115006999Y-109184095D01*
X119853903Y-114030999D01*
X119863525Y-114038896D01*
X119874504Y-114044764D01*
X119886416Y-114048378D01*
X119898806Y-114049598D01*
X122888602Y-114049499D01*
X124354600Y-115515497D01*
X124354600Y-118505494D01*
X124355820Y-118517882D01*
X124359434Y-118529794D01*
X124365302Y-118540773D01*
X124373199Y-118550395D01*
X127529600Y-121706797D01*
X127529600Y-125924000D01*
X121164387Y-125924000D01*
X121164135Y-125921442D01*
X121140171Y-125842442D01*
X121101254Y-125769634D01*
X121048882Y-125705818D01*
X120985066Y-125653446D01*
X120912258Y-125614529D01*
X120833258Y-125590565D01*
X120771680Y-125584500D01*
X120751100Y-125582473D01*
X120730520Y-125584500D01*
X113591400Y-125584500D01*
X113591400Y-123600000D01*
X117138850Y-123600000D01*
X117141902Y-123630985D01*
X117143185Y-123662076D01*
X117146183Y-123674454D01*
X117147432Y-123687137D01*
X117156473Y-123716940D01*
X117163795Y-123747174D01*
X117169148Y-123758725D01*
X117172849Y-123770926D01*
X117187530Y-123798393D01*
X117200610Y-123826617D01*
X117208116Y-123836905D01*
X117214124Y-123848145D01*
X117233879Y-123872217D01*
X117252217Y-123897351D01*
X117261586Y-123905977D01*
X117269671Y-123915829D01*
X117293735Y-123935578D01*
X117316630Y-123956658D01*
X117327506Y-123963293D01*
X117337355Y-123971376D01*
X117364815Y-123986054D01*
X117391378Y-124002259D01*
X117403333Y-124006642D01*
X117414574Y-124012651D01*
X117444377Y-124021692D01*
X117473585Y-124032401D01*
X117486165Y-124034368D01*
X117498363Y-124038068D01*
X117529354Y-124041120D01*
X117560092Y-124045926D01*
X117594640Y-124044500D01*
X117932013Y-124044500D01*
X117941177Y-124045931D01*
X117975683Y-124044500D01*
X117988330Y-124044500D01*
X117997529Y-124043594D01*
X118028660Y-124042303D01*
X118040995Y-124039313D01*
X118053637Y-124038068D01*
X118083482Y-124029015D01*
X118113754Y-124021677D01*
X118125265Y-124016340D01*
X118137426Y-124012651D01*
X118164930Y-123997949D01*
X118193190Y-123984847D01*
X118203442Y-123977364D01*
X118214645Y-123971376D01*
X118238750Y-123951594D01*
X118263915Y-123933226D01*
X118272510Y-123923887D01*
X118282329Y-123915829D01*
X118302106Y-123891731D01*
X118323209Y-123868802D01*
X118329819Y-123857962D01*
X118337876Y-123848145D01*
X118347500Y-123830140D01*
X118357124Y-123848145D01*
X118365177Y-123857958D01*
X118371790Y-123868802D01*
X118392905Y-123891745D01*
X118412671Y-123915829D01*
X118422482Y-123923881D01*
X118431084Y-123933227D01*
X118456266Y-123951606D01*
X118480355Y-123971376D01*
X118491553Y-123977362D01*
X118501809Y-123984847D01*
X118530076Y-123997953D01*
X118557574Y-124012651D01*
X118569732Y-124016339D01*
X118581245Y-124021677D01*
X118611522Y-124029016D01*
X118641363Y-124038068D01*
X118654003Y-124039313D01*
X118666339Y-124042303D01*
X118697472Y-124043594D01*
X118706670Y-124044500D01*
X118719316Y-124044500D01*
X118753823Y-124045931D01*
X118762987Y-124044500D01*
X119048660Y-124044500D01*
X119056883Y-124045820D01*
X119092344Y-124044500D01*
X119105930Y-124044500D01*
X119114184Y-124043687D01*
X119144381Y-124042563D01*
X119157652Y-124039406D01*
X119171237Y-124038068D01*
X119200172Y-124029291D01*
X119229562Y-124022299D01*
X119241960Y-124016615D01*
X119255026Y-124012651D01*
X119281698Y-123998394D01*
X119309153Y-123985806D01*
X119320203Y-123977813D01*
X119332245Y-123971376D01*
X119355616Y-123952196D01*
X119380097Y-123934487D01*
X119389380Y-123924486D01*
X119399929Y-123915829D01*
X119419103Y-123892466D01*
X119439664Y-123870315D01*
X119446818Y-123858695D01*
X119455476Y-123848145D01*
X119469727Y-123821483D01*
X119477490Y-123808875D01*
X119487590Y-123824696D01*
X119500124Y-123848145D01*
X119511093Y-123861511D01*
X119520398Y-123876086D01*
X119538803Y-123895276D01*
X119555671Y-123915829D01*
X119569038Y-123926799D01*
X119581006Y-123939277D01*
X119602797Y-123954505D01*
X119623355Y-123971376D01*
X119638608Y-123979529D01*
X119652778Y-123989431D01*
X119677118Y-124000113D01*
X119700574Y-124012651D01*
X119717126Y-124017672D01*
X119732955Y-124024619D01*
X119758914Y-124030348D01*
X119784363Y-124038068D01*
X119801572Y-124039763D01*
X119818455Y-124043489D01*
X119845034Y-124044043D01*
X119849670Y-124044500D01*
X119866924Y-124044500D01*
X119905996Y-124045315D01*
X119910593Y-124044500D01*
X121417330Y-124044500D01*
X121439495Y-124042317D01*
X121447740Y-124042317D01*
X121453913Y-124041668D01*
X121577070Y-124027854D01*
X121616440Y-124019486D01*
X121656000Y-124011653D01*
X121661922Y-124009819D01*
X121661926Y-124009818D01*
X121661929Y-124009817D01*
X121780057Y-123972344D01*
X121817059Y-123956485D01*
X121854334Y-123941121D01*
X121859793Y-123938169D01*
X121865242Y-123935173D01*
X121871275Y-123940124D01*
X121900251Y-123965128D01*
X121905069Y-123967858D01*
X121909355Y-123971376D01*
X121943151Y-123989441D01*
X121976427Y-124008299D01*
X121981682Y-124010036D01*
X121986574Y-124012651D01*
X122023240Y-124023774D01*
X122059562Y-124035780D01*
X122065058Y-124036459D01*
X122070363Y-124038068D01*
X122108481Y-124041822D01*
X122146459Y-124046513D01*
X122173813Y-124044500D01*
X122585257Y-124044500D01*
X122599450Y-124046389D01*
X122628914Y-124044500D01*
X122636530Y-124044500D01*
X122650734Y-124043101D01*
X122686828Y-124040787D01*
X122694216Y-124038819D01*
X122701837Y-124038068D01*
X122736505Y-124027552D01*
X122771436Y-124018245D01*
X122778295Y-124014875D01*
X122785626Y-124012651D01*
X122817563Y-123995580D01*
X122850020Y-123979632D01*
X122856096Y-123974984D01*
X122862845Y-123971376D01*
X122890828Y-123948411D01*
X122919561Y-123926428D01*
X122924612Y-123920685D01*
X122930529Y-123915829D01*
X122953489Y-123887852D01*
X122962900Y-123877152D01*
X122967339Y-123870976D01*
X122986076Y-123848145D01*
X122992828Y-123835513D01*
X123198900Y-123548805D01*
X123404975Y-123835518D01*
X123411724Y-123848145D01*
X123430453Y-123870967D01*
X123434899Y-123877152D01*
X123444324Y-123887869D01*
X123467271Y-123915829D01*
X123473184Y-123920682D01*
X123478238Y-123926428D01*
X123506986Y-123948422D01*
X123534955Y-123971376D01*
X123541701Y-123974982D01*
X123547779Y-123979632D01*
X123580248Y-123995586D01*
X123612174Y-124012651D01*
X123619503Y-124014874D01*
X123626363Y-124018245D01*
X123661291Y-124027550D01*
X123695963Y-124038068D01*
X123703588Y-124038819D01*
X123710971Y-124040786D01*
X123747050Y-124043099D01*
X123761270Y-124044500D01*
X123768891Y-124044500D01*
X123798350Y-124046389D01*
X123812543Y-124044500D01*
X124201945Y-124044500D01*
X124232648Y-124046296D01*
X124267235Y-124041496D01*
X124302037Y-124038068D01*
X124310561Y-124035482D01*
X124319375Y-124034259D01*
X124352366Y-124022801D01*
X124385826Y-124012651D01*
X124393684Y-124008451D01*
X124402088Y-124005532D01*
X124432204Y-123987861D01*
X124463045Y-123971376D01*
X124469933Y-123965723D01*
X124477606Y-123961221D01*
X124503698Y-123938013D01*
X124530729Y-123915829D01*
X124536380Y-123908943D01*
X124543029Y-123903029D01*
X124564096Y-123875172D01*
X124586276Y-123848145D01*
X124590475Y-123840289D01*
X124595843Y-123833191D01*
X124611071Y-123801757D01*
X124627551Y-123770926D01*
X124630138Y-123762396D01*
X124634016Y-123754392D01*
X124642813Y-123720614D01*
X124652968Y-123687137D01*
X124653842Y-123678266D01*
X124656083Y-123669660D01*
X124658121Y-123634812D01*
X124661550Y-123600000D01*
X124660677Y-123591131D01*
X124661196Y-123582250D01*
X124656395Y-123547659D01*
X124652968Y-123512863D01*
X124650383Y-123504340D01*
X124649159Y-123495524D01*
X124637699Y-123462526D01*
X124627551Y-123429074D01*
X124623352Y-123421218D01*
X124620432Y-123412811D01*
X124602754Y-123382684D01*
X124586276Y-123351855D01*
X124566747Y-123328059D01*
X123952302Y-122483196D01*
X124515543Y-121713433D01*
X124535476Y-121689145D01*
X124551646Y-121658893D01*
X124569089Y-121629362D01*
X124572248Y-121620350D01*
X124576751Y-121611926D01*
X124586709Y-121579100D01*
X124598055Y-121546733D01*
X124599395Y-121537278D01*
X124602168Y-121528137D01*
X124605531Y-121493987D01*
X124610343Y-121460041D01*
X124609813Y-121450511D01*
X124610750Y-121441000D01*
X124607385Y-121406837D01*
X124605483Y-121372617D01*
X124603105Y-121363376D01*
X124602168Y-121353863D01*
X124592202Y-121321008D01*
X124583661Y-121287821D01*
X124579526Y-121279221D01*
X124576751Y-121270074D01*
X124560576Y-121239814D01*
X124545717Y-121208912D01*
X124539978Y-121201277D01*
X124535476Y-121192855D01*
X124513712Y-121166335D01*
X124493105Y-121138922D01*
X124485990Y-121132556D01*
X124479929Y-121125171D01*
X124453410Y-121103407D01*
X124427851Y-121080540D01*
X124419628Y-121075683D01*
X124412245Y-121069624D01*
X124381988Y-121053451D01*
X124352461Y-121036011D01*
X124343452Y-121032853D01*
X124335026Y-121028349D01*
X124302192Y-121018389D01*
X124269832Y-121007045D01*
X124260378Y-121005705D01*
X124251237Y-121002932D01*
X124217084Y-120999568D01*
X124183140Y-120994757D01*
X124151786Y-120996500D01*
X123740877Y-120996500D01*
X123731209Y-120995013D01*
X123697220Y-120996500D01*
X123685070Y-120996500D01*
X123675359Y-120997456D01*
X123643734Y-120998840D01*
X123631901Y-121001736D01*
X123619763Y-121002932D01*
X123589434Y-121012132D01*
X123558686Y-121019659D01*
X123547644Y-121024809D01*
X123535974Y-121028349D01*
X123508037Y-121043282D01*
X123479334Y-121056669D01*
X123469502Y-121063880D01*
X123458755Y-121069624D01*
X123434280Y-121089711D01*
X123408727Y-121108450D01*
X123400489Y-121117441D01*
X123391071Y-121125171D01*
X123370982Y-121149649D01*
X123364398Y-121156836D01*
X123357118Y-121166543D01*
X123335524Y-121192855D01*
X123330911Y-121201486D01*
X123182249Y-121399702D01*
X123043938Y-121206067D01*
X123036876Y-121192855D01*
X123018556Y-121170533D01*
X123014516Y-121164876D01*
X123004699Y-121153648D01*
X122981329Y-121125171D01*
X122975926Y-121120737D01*
X122971323Y-121115472D01*
X122942124Y-121092997D01*
X122913645Y-121069624D01*
X122907478Y-121066328D01*
X122901939Y-121062064D01*
X122868944Y-121045731D01*
X122836426Y-121028349D01*
X122829727Y-121026317D01*
X122823469Y-121023219D01*
X122787937Y-121013640D01*
X122752637Y-121002932D01*
X122745672Y-121002246D01*
X122738928Y-121000428D01*
X122702196Y-120997964D01*
X122687330Y-120996500D01*
X122680369Y-120996500D01*
X122651566Y-120994568D01*
X122636716Y-120996500D01*
X120865670Y-120996500D01*
X120843505Y-120998683D01*
X120835259Y-120998683D01*
X120829087Y-120999332D01*
X120705929Y-121013146D01*
X120666522Y-121021522D01*
X120627000Y-121029348D01*
X120621078Y-121031181D01*
X120621074Y-121031182D01*
X120621071Y-121031183D01*
X120621072Y-121031183D01*
X120502943Y-121068656D01*
X120465941Y-121084515D01*
X120428666Y-121099879D01*
X120423207Y-121102831D01*
X120314606Y-121162535D01*
X120281365Y-121185296D01*
X120247808Y-121207591D01*
X120243026Y-121211547D01*
X120148090Y-121291208D01*
X120119922Y-121319973D01*
X120091317Y-121348378D01*
X120087395Y-121353188D01*
X120081610Y-121360383D01*
X120080968Y-121353863D01*
X120070162Y-121318241D01*
X120066160Y-121303496D01*
X120063829Y-121297363D01*
X120055551Y-121270074D01*
X120048303Y-121256514D01*
X120042845Y-121242154D01*
X120027718Y-121218003D01*
X120014276Y-121192855D01*
X120004524Y-121180972D01*
X119996367Y-121167949D01*
X119976815Y-121147209D01*
X119958729Y-121125171D01*
X119946847Y-121115420D01*
X119936306Y-121104238D01*
X119913085Y-121087712D01*
X119891045Y-121069624D01*
X119877487Y-121062377D01*
X119864969Y-121053468D01*
X119838979Y-121041794D01*
X119813826Y-121028349D01*
X119799107Y-121023884D01*
X119785097Y-121017591D01*
X119757332Y-121011212D01*
X119730037Y-121002932D01*
X119714735Y-121001425D01*
X119699763Y-120997985D01*
X119671279Y-120997145D01*
X119664730Y-120996500D01*
X119649408Y-120996500D01*
X119612243Y-120995404D01*
X119605736Y-120996500D01*
X119327432Y-120996500D01*
X119323862Y-120995850D01*
X119283787Y-120996500D01*
X119265470Y-120996500D01*
X119261859Y-120996856D01*
X119236314Y-120997270D01*
X119218406Y-121001135D01*
X119200163Y-121002932D01*
X119175699Y-121010353D01*
X119150727Y-121015743D01*
X119133920Y-121023027D01*
X119116374Y-121028349D01*
X119093824Y-121040402D01*
X119070387Y-121050559D01*
X119055323Y-121060982D01*
X119039155Y-121069624D01*
X119019395Y-121085841D01*
X118998383Y-121100379D01*
X118985637Y-121113545D01*
X118971471Y-121125171D01*
X118955261Y-121144923D01*
X118937483Y-121163287D01*
X118927548Y-121178691D01*
X118915924Y-121192855D01*
X118906300Y-121210860D01*
X118896676Y-121192855D01*
X118889768Y-121184437D01*
X118884174Y-121175095D01*
X118862048Y-121150661D01*
X118841129Y-121125171D01*
X118832708Y-121118260D01*
X118825403Y-121110193D01*
X118798948Y-121090554D01*
X118773445Y-121069624D01*
X118763835Y-121064487D01*
X118755099Y-121058002D01*
X118725326Y-121043904D01*
X118696226Y-121028349D01*
X118685798Y-121025186D01*
X118675964Y-121020529D01*
X118644005Y-121012508D01*
X118612437Y-121002932D01*
X118601596Y-121001864D01*
X118591040Y-120999215D01*
X118558120Y-120997582D01*
X118547130Y-120996500D01*
X118536295Y-120996500D01*
X118503589Y-120994878D01*
X118492620Y-120996500D01*
X118178829Y-120996500D01*
X118169708Y-120995074D01*
X118135160Y-120996500D01*
X118122470Y-120996500D01*
X118113315Y-120997402D01*
X118082223Y-120998685D01*
X118069844Y-121001683D01*
X118057163Y-121002932D01*
X118027364Y-121011971D01*
X117997125Y-121019295D01*
X117985573Y-121024648D01*
X117973374Y-121028349D01*
X117945905Y-121043032D01*
X117917682Y-121056111D01*
X117907396Y-121063616D01*
X117896155Y-121069624D01*
X117872087Y-121089376D01*
X117846948Y-121107717D01*
X117838319Y-121117089D01*
X117828471Y-121125171D01*
X117808725Y-121149231D01*
X117787641Y-121172131D01*
X117781005Y-121183008D01*
X117772924Y-121192855D01*
X117758252Y-121220305D01*
X117742040Y-121246878D01*
X117737654Y-121258839D01*
X117731649Y-121270074D01*
X117722615Y-121299856D01*
X117719449Y-121308490D01*
X117716271Y-121320769D01*
X117706232Y-121353863D01*
X117705327Y-121363053D01*
X117157476Y-123479754D01*
X117147432Y-123512863D01*
X117144380Y-123543849D01*
X117139574Y-123574592D01*
X117140099Y-123587316D01*
X117138850Y-123600000D01*
X113591400Y-123600000D01*
X113591400Y-122562762D01*
X113679541Y-122606497D01*
X113920550Y-122671709D01*
X114169650Y-122688650D01*
X114417269Y-122656667D01*
X114653891Y-122576992D01*
X114806316Y-122495520D01*
X114901804Y-122311462D01*
X114131100Y-121540758D01*
X114116958Y-121554900D01*
X113991800Y-121429742D01*
X114005942Y-121415600D01*
X114256258Y-121415600D01*
X115026962Y-122186304D01*
X115211020Y-122090816D01*
X115321997Y-121867159D01*
X115387209Y-121626150D01*
X115404150Y-121377050D01*
X115372167Y-121129431D01*
X115292492Y-120892809D01*
X115211020Y-120740384D01*
X115026962Y-120644896D01*
X114256258Y-121415600D01*
X114005942Y-121415600D01*
X113991800Y-121401458D01*
X114116958Y-121276300D01*
X114131100Y-121290442D01*
X114901804Y-120519738D01*
X114806316Y-120335680D01*
X114582659Y-120224703D01*
X114341650Y-120159491D01*
X114092550Y-120142550D01*
X113844931Y-120174533D01*
X113608309Y-120254208D01*
X113591400Y-120263246D01*
X113591400Y-113213206D01*
X113590180Y-113200818D01*
X113586566Y-113188906D01*
X113580698Y-113177927D01*
X113572801Y-113168305D01*
X103907600Y-103503103D01*
X103907600Y-103345600D01*
X109586922Y-103345600D01*
X109594018Y-103417643D01*
X109615032Y-103486917D01*
X109649157Y-103550760D01*
X109695081Y-103606719D01*
X109751040Y-103652643D01*
X109814883Y-103686768D01*
X109884157Y-103707782D01*
X109956200Y-103714878D01*
X110775825Y-103713100D01*
X110867700Y-103621225D01*
X110867700Y-102684100D01*
X111044700Y-102684100D01*
X111044700Y-103621225D01*
X111136575Y-103713100D01*
X111956200Y-103714878D01*
X112028243Y-103707782D01*
X112097517Y-103686768D01*
X112161360Y-103652643D01*
X112217319Y-103606719D01*
X112263243Y-103550760D01*
X112297368Y-103486917D01*
X112318382Y-103417643D01*
X112325478Y-103345600D01*
X112323700Y-102775975D01*
X112231825Y-102684100D01*
X111044700Y-102684100D01*
X110867700Y-102684100D01*
X109680575Y-102684100D01*
X109588700Y-102775975D01*
X109586922Y-103345600D01*
X103907600Y-103345600D01*
X103907600Y-102497897D01*
X104579798Y-101825699D01*
X109588876Y-101825759D01*
%TA.AperFunction,Conductor*%
D26*
G36*
X109588876Y-101825759D02*
G01*
X109586922Y-101845600D01*
X109588700Y-102415225D01*
X109680575Y-102507100D01*
X110867700Y-102507100D01*
X110867700Y-102487100D01*
X111044700Y-102487100D01*
X111044700Y-102507100D01*
X112231825Y-102507100D01*
X112323700Y-102415225D01*
X112325478Y-101845600D01*
X112323527Y-101825792D01*
X113046204Y-101825801D01*
X114988400Y-103767997D01*
X114988400Y-109139194D01*
X114989620Y-109151582D01*
X114993234Y-109163494D01*
X114999102Y-109174473D01*
X115006999Y-109184095D01*
X119853903Y-114030999D01*
X119863525Y-114038896D01*
X119874504Y-114044764D01*
X119886416Y-114048378D01*
X119898806Y-114049598D01*
X122888602Y-114049499D01*
X124354600Y-115515497D01*
X124354600Y-118505494D01*
X124355820Y-118517882D01*
X124359434Y-118529794D01*
X124365302Y-118540773D01*
X124373199Y-118550395D01*
X127529600Y-121706797D01*
X127529600Y-125924000D01*
X121164387Y-125924000D01*
X121164135Y-125921442D01*
X121140171Y-125842442D01*
X121101254Y-125769634D01*
X121048882Y-125705818D01*
X120985066Y-125653446D01*
X120912258Y-125614529D01*
X120833258Y-125590565D01*
X120771680Y-125584500D01*
X120751100Y-125582473D01*
X120730520Y-125584500D01*
X113591400Y-125584500D01*
X113591400Y-123600000D01*
X117138850Y-123600000D01*
X117141902Y-123630985D01*
X117143185Y-123662076D01*
X117146183Y-123674454D01*
X117147432Y-123687137D01*
X117156473Y-123716940D01*
X117163795Y-123747174D01*
X117169148Y-123758725D01*
X117172849Y-123770926D01*
X117187530Y-123798393D01*
X117200610Y-123826617D01*
X117208116Y-123836905D01*
X117214124Y-123848145D01*
X117233879Y-123872217D01*
X117252217Y-123897351D01*
X117261586Y-123905977D01*
X117269671Y-123915829D01*
X117293735Y-123935578D01*
X117316630Y-123956658D01*
X117327506Y-123963293D01*
X117337355Y-123971376D01*
X117364815Y-123986054D01*
X117391378Y-124002259D01*
X117403333Y-124006642D01*
X117414574Y-124012651D01*
X117444377Y-124021692D01*
X117473585Y-124032401D01*
X117486165Y-124034368D01*
X117498363Y-124038068D01*
X117529354Y-124041120D01*
X117560092Y-124045926D01*
X117594640Y-124044500D01*
X117932013Y-124044500D01*
X117941177Y-124045931D01*
X117975683Y-124044500D01*
X117988330Y-124044500D01*
X117997529Y-124043594D01*
X118028660Y-124042303D01*
X118040995Y-124039313D01*
X118053637Y-124038068D01*
X118083482Y-124029015D01*
X118113754Y-124021677D01*
X118125265Y-124016340D01*
X118137426Y-124012651D01*
X118164930Y-123997949D01*
X118193190Y-123984847D01*
X118203442Y-123977364D01*
X118214645Y-123971376D01*
X118238750Y-123951594D01*
X118263915Y-123933226D01*
X118272510Y-123923887D01*
X118282329Y-123915829D01*
X118302106Y-123891731D01*
X118323209Y-123868802D01*
X118329819Y-123857962D01*
X118337876Y-123848145D01*
X118347500Y-123830140D01*
X118357124Y-123848145D01*
X118365177Y-123857958D01*
X118371790Y-123868802D01*
X118392905Y-123891745D01*
X118412671Y-123915829D01*
X118422482Y-123923881D01*
X118431084Y-123933227D01*
X118456266Y-123951606D01*
X118480355Y-123971376D01*
X118491553Y-123977362D01*
X118501809Y-123984847D01*
X118530076Y-123997953D01*
X118557574Y-124012651D01*
X118569732Y-124016339D01*
X118581245Y-124021677D01*
X118611522Y-124029016D01*
X118641363Y-124038068D01*
X118654003Y-124039313D01*
X118666339Y-124042303D01*
X118697472Y-124043594D01*
X118706670Y-124044500D01*
X118719316Y-124044500D01*
X118753823Y-124045931D01*
X118762987Y-124044500D01*
X119048660Y-124044500D01*
X119056883Y-124045820D01*
X119092344Y-124044500D01*
X119105930Y-124044500D01*
X119114184Y-124043687D01*
X119144381Y-124042563D01*
X119157652Y-124039406D01*
X119171237Y-124038068D01*
X119200172Y-124029291D01*
X119229562Y-124022299D01*
X119241960Y-124016615D01*
X119255026Y-124012651D01*
X119281698Y-123998394D01*
X119309153Y-123985806D01*
X119320203Y-123977813D01*
X119332245Y-123971376D01*
X119355616Y-123952196D01*
X119380097Y-123934487D01*
X119389380Y-123924486D01*
X119399929Y-123915829D01*
X119419103Y-123892466D01*
X119439664Y-123870315D01*
X119446818Y-123858695D01*
X119455476Y-123848145D01*
X119469727Y-123821483D01*
X119477490Y-123808875D01*
X119487590Y-123824696D01*
X119500124Y-123848145D01*
X119511093Y-123861511D01*
X119520398Y-123876086D01*
X119538803Y-123895276D01*
X119555671Y-123915829D01*
X119569038Y-123926799D01*
X119581006Y-123939277D01*
X119602797Y-123954505D01*
X119623355Y-123971376D01*
X119638608Y-123979529D01*
X119652778Y-123989431D01*
X119677118Y-124000113D01*
X119700574Y-124012651D01*
X119717126Y-124017672D01*
X119732955Y-124024619D01*
X119758914Y-124030348D01*
X119784363Y-124038068D01*
X119801572Y-124039763D01*
X119818455Y-124043489D01*
X119845034Y-124044043D01*
X119849670Y-124044500D01*
X119866924Y-124044500D01*
X119905996Y-124045315D01*
X119910593Y-124044500D01*
X121417330Y-124044500D01*
X121439495Y-124042317D01*
X121447740Y-124042317D01*
X121453913Y-124041668D01*
X121577070Y-124027854D01*
X121616440Y-124019486D01*
X121656000Y-124011653D01*
X121661922Y-124009819D01*
X121661926Y-124009818D01*
X121661929Y-124009817D01*
X121780057Y-123972344D01*
X121817059Y-123956485D01*
X121854334Y-123941121D01*
X121859793Y-123938169D01*
X121865242Y-123935173D01*
X121871275Y-123940124D01*
X121900251Y-123965128D01*
X121905069Y-123967858D01*
X121909355Y-123971376D01*
X121943151Y-123989441D01*
X121976427Y-124008299D01*
X121981682Y-124010036D01*
X121986574Y-124012651D01*
X122023240Y-124023774D01*
X122059562Y-124035780D01*
X122065058Y-124036459D01*
X122070363Y-124038068D01*
X122108481Y-124041822D01*
X122146459Y-124046513D01*
X122173813Y-124044500D01*
X122585257Y-124044500D01*
X122599450Y-124046389D01*
X122628914Y-124044500D01*
X122636530Y-124044500D01*
X122650734Y-124043101D01*
X122686828Y-124040787D01*
X122694216Y-124038819D01*
X122701837Y-124038068D01*
X122736505Y-124027552D01*
X122771436Y-124018245D01*
X122778295Y-124014875D01*
X122785626Y-124012651D01*
X122817563Y-123995580D01*
X122850020Y-123979632D01*
X122856096Y-123974984D01*
X122862845Y-123971376D01*
X122890828Y-123948411D01*
X122919561Y-123926428D01*
X122924612Y-123920685D01*
X122930529Y-123915829D01*
X122953489Y-123887852D01*
X122962900Y-123877152D01*
X122967339Y-123870976D01*
X122986076Y-123848145D01*
X122992828Y-123835513D01*
X123198900Y-123548805D01*
X123404975Y-123835518D01*
X123411724Y-123848145D01*
X123430453Y-123870967D01*
X123434899Y-123877152D01*
X123444324Y-123887869D01*
X123467271Y-123915829D01*
X123473184Y-123920682D01*
X123478238Y-123926428D01*
X123506986Y-123948422D01*
X123534955Y-123971376D01*
X123541701Y-123974982D01*
X123547779Y-123979632D01*
X123580248Y-123995586D01*
X123612174Y-124012651D01*
X123619503Y-124014874D01*
X123626363Y-124018245D01*
X123661291Y-124027550D01*
X123695963Y-124038068D01*
X123703588Y-124038819D01*
X123710971Y-124040786D01*
X123747050Y-124043099D01*
X123761270Y-124044500D01*
X123768891Y-124044500D01*
X123798350Y-124046389D01*
X123812543Y-124044500D01*
X124201945Y-124044500D01*
X124232648Y-124046296D01*
X124267235Y-124041496D01*
X124302037Y-124038068D01*
X124310561Y-124035482D01*
X124319375Y-124034259D01*
X124352366Y-124022801D01*
X124385826Y-124012651D01*
X124393684Y-124008451D01*
X124402088Y-124005532D01*
X124432204Y-123987861D01*
X124463045Y-123971376D01*
X124469933Y-123965723D01*
X124477606Y-123961221D01*
X124503698Y-123938013D01*
X124530729Y-123915829D01*
X124536380Y-123908943D01*
X124543029Y-123903029D01*
X124564096Y-123875172D01*
X124586276Y-123848145D01*
X124590475Y-123840289D01*
X124595843Y-123833191D01*
X124611071Y-123801757D01*
X124627551Y-123770926D01*
X124630138Y-123762396D01*
X124634016Y-123754392D01*
X124642813Y-123720614D01*
X124652968Y-123687137D01*
X124653842Y-123678266D01*
X124656083Y-123669660D01*
X124658121Y-123634812D01*
X124661550Y-123600000D01*
X124660677Y-123591131D01*
X124661196Y-123582250D01*
X124656395Y-123547659D01*
X124652968Y-123512863D01*
X124650383Y-123504340D01*
X124649159Y-123495524D01*
X124637699Y-123462526D01*
X124627551Y-123429074D01*
X124623352Y-123421218D01*
X124620432Y-123412811D01*
X124602754Y-123382684D01*
X124586276Y-123351855D01*
X124566747Y-123328059D01*
X123952302Y-122483196D01*
X124515543Y-121713433D01*
X124535476Y-121689145D01*
X124551646Y-121658893D01*
X124569089Y-121629362D01*
X124572248Y-121620350D01*
X124576751Y-121611926D01*
X124586709Y-121579100D01*
X124598055Y-121546733D01*
X124599395Y-121537278D01*
X124602168Y-121528137D01*
X124605531Y-121493987D01*
X124610343Y-121460041D01*
X124609813Y-121450511D01*
X124610750Y-121441000D01*
X124607385Y-121406837D01*
X124605483Y-121372617D01*
X124603105Y-121363376D01*
X124602168Y-121353863D01*
X124592202Y-121321008D01*
X124583661Y-121287821D01*
X124579526Y-121279221D01*
X124576751Y-121270074D01*
X124560576Y-121239814D01*
X124545717Y-121208912D01*
X124539978Y-121201277D01*
X124535476Y-121192855D01*
X124513712Y-121166335D01*
X124493105Y-121138922D01*
X124485990Y-121132556D01*
X124479929Y-121125171D01*
X124453410Y-121103407D01*
X124427851Y-121080540D01*
X124419628Y-121075683D01*
X124412245Y-121069624D01*
X124381988Y-121053451D01*
X124352461Y-121036011D01*
X124343452Y-121032853D01*
X124335026Y-121028349D01*
X124302192Y-121018389D01*
X124269832Y-121007045D01*
X124260378Y-121005705D01*
X124251237Y-121002932D01*
X124217084Y-120999568D01*
X124183140Y-120994757D01*
X124151786Y-120996500D01*
X123740877Y-120996500D01*
X123731209Y-120995013D01*
X123697220Y-120996500D01*
X123685070Y-120996500D01*
X123675359Y-120997456D01*
X123643734Y-120998840D01*
X123631901Y-121001736D01*
X123619763Y-121002932D01*
X123589434Y-121012132D01*
X123558686Y-121019659D01*
X123547644Y-121024809D01*
X123535974Y-121028349D01*
X123508037Y-121043282D01*
X123479334Y-121056669D01*
X123469502Y-121063880D01*
X123458755Y-121069624D01*
X123434280Y-121089711D01*
X123408727Y-121108450D01*
X123400489Y-121117441D01*
X123391071Y-121125171D01*
X123370982Y-121149649D01*
X123364398Y-121156836D01*
X123357118Y-121166543D01*
X123335524Y-121192855D01*
X123330911Y-121201486D01*
X123182249Y-121399702D01*
X123043938Y-121206067D01*
X123036876Y-121192855D01*
X123018556Y-121170533D01*
X123014516Y-121164876D01*
X123004699Y-121153648D01*
X122981329Y-121125171D01*
X122975926Y-121120737D01*
X122971323Y-121115472D01*
X122942124Y-121092997D01*
X122913645Y-121069624D01*
X122907478Y-121066328D01*
X122901939Y-121062064D01*
X122868944Y-121045731D01*
X122836426Y-121028349D01*
X122829727Y-121026317D01*
X122823469Y-121023219D01*
X122787937Y-121013640D01*
X122752637Y-121002932D01*
X122745672Y-121002246D01*
X122738928Y-121000428D01*
X122702196Y-120997964D01*
X122687330Y-120996500D01*
X122680369Y-120996500D01*
X122651566Y-120994568D01*
X122636716Y-120996500D01*
X120865670Y-120996500D01*
X120843505Y-120998683D01*
X120835259Y-120998683D01*
X120829087Y-120999332D01*
X120705929Y-121013146D01*
X120666522Y-121021522D01*
X120627000Y-121029348D01*
X120621078Y-121031181D01*
X120621074Y-121031182D01*
X120621071Y-121031183D01*
X120621072Y-121031183D01*
X120502943Y-121068656D01*
X120465941Y-121084515D01*
X120428666Y-121099879D01*
X120423207Y-121102831D01*
X120314606Y-121162535D01*
X120281365Y-121185296D01*
X120247808Y-121207591D01*
X120243026Y-121211547D01*
X120148090Y-121291208D01*
X120119922Y-121319973D01*
X120091317Y-121348378D01*
X120087395Y-121353188D01*
X120081610Y-121360383D01*
X120080968Y-121353863D01*
X120070162Y-121318241D01*
X120066160Y-121303496D01*
X120063829Y-121297363D01*
X120055551Y-121270074D01*
X120048303Y-121256514D01*
X120042845Y-121242154D01*
X120027718Y-121218003D01*
X120014276Y-121192855D01*
X120004524Y-121180972D01*
X119996367Y-121167949D01*
X119976815Y-121147209D01*
X119958729Y-121125171D01*
X119946847Y-121115420D01*
X119936306Y-121104238D01*
X119913085Y-121087712D01*
X119891045Y-121069624D01*
X119877487Y-121062377D01*
X119864969Y-121053468D01*
X119838979Y-121041794D01*
X119813826Y-121028349D01*
X119799107Y-121023884D01*
X119785097Y-121017591D01*
X119757332Y-121011212D01*
X119730037Y-121002932D01*
X119714735Y-121001425D01*
X119699763Y-120997985D01*
X119671279Y-120997145D01*
X119664730Y-120996500D01*
X119649408Y-120996500D01*
X119612243Y-120995404D01*
X119605736Y-120996500D01*
X119327432Y-120996500D01*
X119323862Y-120995850D01*
X119283787Y-120996500D01*
X119265470Y-120996500D01*
X119261859Y-120996856D01*
X119236314Y-120997270D01*
X119218406Y-121001135D01*
X119200163Y-121002932D01*
X119175699Y-121010353D01*
X119150727Y-121015743D01*
X119133920Y-121023027D01*
X119116374Y-121028349D01*
X119093824Y-121040402D01*
X119070387Y-121050559D01*
X119055323Y-121060982D01*
X119039155Y-121069624D01*
X119019395Y-121085841D01*
X118998383Y-121100379D01*
X118985637Y-121113545D01*
X118971471Y-121125171D01*
X118955261Y-121144923D01*
X118937483Y-121163287D01*
X118927548Y-121178691D01*
X118915924Y-121192855D01*
X118906300Y-121210860D01*
X118896676Y-121192855D01*
X118889768Y-121184437D01*
X118884174Y-121175095D01*
X118862048Y-121150661D01*
X118841129Y-121125171D01*
X118832708Y-121118260D01*
X118825403Y-121110193D01*
X118798948Y-121090554D01*
X118773445Y-121069624D01*
X118763835Y-121064487D01*
X118755099Y-121058002D01*
X118725326Y-121043904D01*
X118696226Y-121028349D01*
X118685798Y-121025186D01*
X118675964Y-121020529D01*
X118644005Y-121012508D01*
X118612437Y-121002932D01*
X118601596Y-121001864D01*
X118591040Y-120999215D01*
X118558120Y-120997582D01*
X118547130Y-120996500D01*
X118536295Y-120996500D01*
X118503589Y-120994878D01*
X118492620Y-120996500D01*
X118178829Y-120996500D01*
X118169708Y-120995074D01*
X118135160Y-120996500D01*
X118122470Y-120996500D01*
X118113315Y-120997402D01*
X118082223Y-120998685D01*
X118069844Y-121001683D01*
X118057163Y-121002932D01*
X118027364Y-121011971D01*
X117997125Y-121019295D01*
X117985573Y-121024648D01*
X117973374Y-121028349D01*
X117945905Y-121043032D01*
X117917682Y-121056111D01*
X117907396Y-121063616D01*
X117896155Y-121069624D01*
X117872087Y-121089376D01*
X117846948Y-121107717D01*
X117838319Y-121117089D01*
X117828471Y-121125171D01*
X117808725Y-121149231D01*
X117787641Y-121172131D01*
X117781005Y-121183008D01*
X117772924Y-121192855D01*
X117758252Y-121220305D01*
X117742040Y-121246878D01*
X117737654Y-121258839D01*
X117731649Y-121270074D01*
X117722615Y-121299856D01*
X117719449Y-121308490D01*
X117716271Y-121320769D01*
X117706232Y-121353863D01*
X117705327Y-121363053D01*
X117157476Y-123479754D01*
X117147432Y-123512863D01*
X117144380Y-123543849D01*
X117139574Y-123574592D01*
X117140099Y-123587316D01*
X117138850Y-123600000D01*
X113591400Y-123600000D01*
X113591400Y-122562762D01*
X113679541Y-122606497D01*
X113920550Y-122671709D01*
X114169650Y-122688650D01*
X114417269Y-122656667D01*
X114653891Y-122576992D01*
X114806316Y-122495520D01*
X114901804Y-122311462D01*
X114131100Y-121540758D01*
X114116958Y-121554900D01*
X113991800Y-121429742D01*
X114005942Y-121415600D01*
X114256258Y-121415600D01*
X115026962Y-122186304D01*
X115211020Y-122090816D01*
X115321997Y-121867159D01*
X115387209Y-121626150D01*
X115404150Y-121377050D01*
X115372167Y-121129431D01*
X115292492Y-120892809D01*
X115211020Y-120740384D01*
X115026962Y-120644896D01*
X114256258Y-121415600D01*
X114005942Y-121415600D01*
X113991800Y-121401458D01*
X114116958Y-121276300D01*
X114131100Y-121290442D01*
X114901804Y-120519738D01*
X114806316Y-120335680D01*
X114582659Y-120224703D01*
X114341650Y-120159491D01*
X114092550Y-120142550D01*
X113844931Y-120174533D01*
X113608309Y-120254208D01*
X113591400Y-120263246D01*
X113591400Y-113213206D01*
X113590180Y-113200818D01*
X113586566Y-113188906D01*
X113580698Y-113177927D01*
X113572801Y-113168305D01*
X103907600Y-103503103D01*
X103907600Y-103345600D01*
X109586922Y-103345600D01*
X109594018Y-103417643D01*
X109615032Y-103486917D01*
X109649157Y-103550760D01*
X109695081Y-103606719D01*
X109751040Y-103652643D01*
X109814883Y-103686768D01*
X109884157Y-103707782D01*
X109956200Y-103714878D01*
X110775825Y-103713100D01*
X110867700Y-103621225D01*
X110867700Y-102684100D01*
X111044700Y-102684100D01*
X111044700Y-103621225D01*
X111136575Y-103713100D01*
X111956200Y-103714878D01*
X112028243Y-103707782D01*
X112097517Y-103686768D01*
X112161360Y-103652643D01*
X112217319Y-103606719D01*
X112263243Y-103550760D01*
X112297368Y-103486917D01*
X112318382Y-103417643D01*
X112325478Y-103345600D01*
X112323700Y-102775975D01*
X112231825Y-102684100D01*
X111044700Y-102684100D01*
X110867700Y-102684100D01*
X109680575Y-102684100D01*
X109588700Y-102775975D01*
X109586922Y-103345600D01*
X103907600Y-103345600D01*
X103907600Y-102497897D01*
X104579798Y-101825699D01*
X109588876Y-101825759D01*
G37*
%TD.AperFunction*%
%TD*%
D25*
%TO.N,VCC*%
X125624600Y-75378100D02*
X125026797Y-75378100D01*
X124505595Y-74856899D01*
X124495973Y-74849002D01*
X124484994Y-74843134D01*
X124473082Y-74839520D01*
X124460694Y-74838300D01*
X105166706Y-74838300D01*
X105154318Y-74839520D01*
X105142406Y-74843134D01*
X105131427Y-74849002D01*
X105121805Y-74856899D01*
X104497699Y-75481005D01*
X104489802Y-75490627D01*
X104483934Y-75501606D01*
X104480320Y-75513518D01*
X104479100Y-75525906D01*
X104479100Y-77738494D01*
X104480320Y-77750882D01*
X104483934Y-77762794D01*
X104489802Y-77773773D01*
X104497699Y-77783395D01*
X104994805Y-78280501D01*
X105004427Y-78288398D01*
X105015406Y-78294266D01*
X105027318Y-78297880D01*
X105039706Y-78299100D01*
X107299403Y-78299100D01*
X109312805Y-80312501D01*
X109322427Y-80320398D01*
X109333406Y-80326266D01*
X109345318Y-80329880D01*
X109357706Y-80331100D01*
X113400900Y-80331100D01*
X113400900Y-81436903D01*
X109579520Y-85258284D01*
X109579520Y-80521600D01*
X106880770Y-80521600D01*
X106880770Y-85317362D01*
X109520442Y-85317362D01*
X107545699Y-87292105D01*
X107537802Y-87301727D01*
X107531934Y-87312706D01*
X107528320Y-87324618D01*
X107527100Y-87337006D01*
X107527100Y-93422994D01*
X107528320Y-93435382D01*
X107531934Y-93447294D01*
X107537802Y-93458273D01*
X107545699Y-93467895D01*
X108741305Y-94663501D01*
X108750927Y-94671398D01*
X108761906Y-94677266D01*
X108773818Y-94680880D01*
X108786206Y-94682100D01*
X113718400Y-94682100D01*
X113718400Y-95962994D01*
X113719620Y-95975382D01*
X113723234Y-95987294D01*
X113729102Y-95998273D01*
X113736999Y-96007895D01*
X118163400Y-100434297D01*
X118163400Y-103166135D01*
X118154443Y-103163418D01*
X118082400Y-103156322D01*
X117962775Y-103158100D01*
X117870900Y-103249975D01*
X117870900Y-104537100D01*
X117890900Y-104537100D01*
X117890900Y-104714100D01*
X117870900Y-104714100D01*
X117870900Y-106001225D01*
X117962775Y-106093100D01*
X118082400Y-106094878D01*
X118154443Y-106087782D01*
X118163400Y-106085065D01*
X118163400Y-107392994D01*
X118164620Y-107405382D01*
X118168234Y-107417294D01*
X118174102Y-107428273D01*
X118181999Y-107437895D01*
X121973400Y-111229297D01*
X121973400Y-112234406D01*
X121459898Y-112747800D01*
X120454900Y-112747800D01*
X116290100Y-108583304D01*
X116290100Y-105725600D01*
X117113122Y-105725600D01*
X117120218Y-105797643D01*
X117141232Y-105866917D01*
X117175357Y-105930760D01*
X117221281Y-105986719D01*
X117277240Y-106032643D01*
X117341083Y-106066768D01*
X117410357Y-106087782D01*
X117482400Y-106094878D01*
X117602025Y-106093100D01*
X117693900Y-106001225D01*
X117693900Y-104714100D01*
X117206775Y-104714100D01*
X117114900Y-104805975D01*
X117113122Y-105725600D01*
X116290100Y-105725600D01*
X116290100Y-103525600D01*
X117113122Y-103525600D01*
X117114900Y-104445225D01*
X117206775Y-104537100D01*
X117693900Y-104537100D01*
X117693900Y-103249975D01*
X117602025Y-103158100D01*
X117482400Y-103156322D01*
X117410357Y-103163418D01*
X117341083Y-103184432D01*
X117277240Y-103218557D01*
X117221281Y-103264481D01*
X117175357Y-103320440D01*
X117141232Y-103384283D01*
X117120218Y-103453557D01*
X117113122Y-103525600D01*
X116290100Y-103525600D01*
X116290100Y-103212106D01*
X116288880Y-103199718D01*
X116285266Y-103187806D01*
X116279398Y-103176827D01*
X116271501Y-103167205D01*
X113488394Y-100384098D01*
X113478772Y-100376201D01*
X113467793Y-100370333D01*
X113455881Y-100366719D01*
X113443494Y-100365499D01*
X112323520Y-100365475D01*
X112325478Y-100345600D01*
X112323700Y-99775975D01*
X112231825Y-99684100D01*
X111044700Y-99684100D01*
X111044700Y-99704100D01*
X110867700Y-99704100D01*
X110867700Y-99684100D01*
X109680575Y-99684100D01*
X109588700Y-99775975D01*
X109586922Y-100345600D01*
X109588874Y-100365417D01*
X104182507Y-100365301D01*
X104170119Y-100366521D01*
X104158207Y-100370134D01*
X104147228Y-100376002D01*
X104137603Y-100383901D01*
X102624497Y-101897103D01*
X102616601Y-101906726D01*
X102610733Y-101917704D01*
X102607120Y-101929617D01*
X102605900Y-101942003D01*
X102605900Y-104059295D01*
X102607120Y-104071683D01*
X102610734Y-104083595D01*
X102616602Y-104094574D01*
X102624498Y-104104196D01*
X112289600Y-113769398D01*
X112289600Y-120380561D01*
X112266316Y-120335680D01*
X112042659Y-120224703D01*
X111801650Y-120159491D01*
X111552550Y-120142550D01*
X111304931Y-120174533D01*
X111068309Y-120254208D01*
X110915884Y-120335680D01*
X110820396Y-120519738D01*
X111591100Y-121290442D01*
X111605242Y-121276300D01*
X111730400Y-121401458D01*
X111716258Y-121415600D01*
X111730400Y-121429742D01*
X111605242Y-121554900D01*
X111591100Y-121540758D01*
X110820396Y-122311462D01*
X110915884Y-122495520D01*
X111139541Y-122606497D01*
X111380550Y-122671709D01*
X111629650Y-122688650D01*
X111877269Y-122656667D01*
X112113891Y-122576992D01*
X112266316Y-122495520D01*
X112289600Y-122450639D01*
X112289600Y-125584500D01*
X108920200Y-125584500D01*
X108920200Y-121454150D01*
X110318050Y-121454150D01*
X110350033Y-121701769D01*
X110429708Y-121938391D01*
X110511180Y-122090816D01*
X110695238Y-122186304D01*
X111465942Y-121415600D01*
X110695238Y-120644896D01*
X110511180Y-120740384D01*
X110400203Y-120964041D01*
X110334991Y-121205050D01*
X110318050Y-121454150D01*
X108920200Y-121454150D01*
X108920200Y-114024179D01*
X108922227Y-114003600D01*
X108914135Y-113921442D01*
X108890171Y-113842442D01*
X108851254Y-113769634D01*
X108798882Y-113705818D01*
X108735066Y-113653446D01*
X108662258Y-113614529D01*
X108583258Y-113590565D01*
X108521680Y-113584500D01*
X108501100Y-113582473D01*
X108480520Y-113584500D01*
X99920200Y-113584500D01*
X99920200Y-106809818D01*
X100533600Y-106809818D01*
X100533600Y-107197382D01*
X100609210Y-107577499D01*
X100757524Y-107935561D01*
X100972843Y-108257808D01*
X101246892Y-108531857D01*
X101569139Y-108747176D01*
X101927201Y-108895490D01*
X102307318Y-108971100D01*
X102694882Y-108971100D01*
X103074999Y-108895490D01*
X103433061Y-108747176D01*
X103755308Y-108531857D01*
X104029357Y-108257808D01*
X104244676Y-107935561D01*
X104392990Y-107577499D01*
X104468600Y-107197382D01*
X104468600Y-106809818D01*
X104392990Y-106429701D01*
X104244676Y-106071639D01*
X104029357Y-105749392D01*
X103755308Y-105475343D01*
X103433061Y-105260024D01*
X103074999Y-105111710D01*
X102694882Y-105036100D01*
X102307318Y-105036100D01*
X101927201Y-105111710D01*
X101569139Y-105260024D01*
X101246892Y-105475343D01*
X100972843Y-105749392D01*
X100757524Y-106071639D01*
X100609210Y-106429701D01*
X100533600Y-106809818D01*
X99920200Y-106809818D01*
X99920200Y-98845600D01*
X109586922Y-98845600D01*
X109588700Y-99415225D01*
X109680575Y-99507100D01*
X110867700Y-99507100D01*
X110867700Y-98569975D01*
X111044700Y-98569975D01*
X111044700Y-99507100D01*
X112231825Y-99507100D01*
X112323700Y-99415225D01*
X112325478Y-98845600D01*
X112318382Y-98773557D01*
X112297368Y-98704283D01*
X112263243Y-98640440D01*
X112217319Y-98584481D01*
X112161360Y-98538557D01*
X112097517Y-98504432D01*
X112028243Y-98483418D01*
X111956200Y-98476322D01*
X111136575Y-98478100D01*
X111044700Y-98569975D01*
X110867700Y-98569975D01*
X110775825Y-98478100D01*
X109956200Y-98476322D01*
X109884157Y-98483418D01*
X109814883Y-98504432D01*
X109751040Y-98538557D01*
X109695081Y-98584481D01*
X109649157Y-98640440D01*
X109615032Y-98704283D01*
X109594018Y-98773557D01*
X109586922Y-98845600D01*
X99920200Y-98845600D01*
X99920200Y-73422700D01*
X125624600Y-73422700D01*
X125624600Y-75378100D01*
%TA.AperFunction,Conductor*%
D26*
G36*
X125624600Y-75378100D02*
G01*
X125026797Y-75378100D01*
X124505595Y-74856899D01*
X124495973Y-74849002D01*
X124484994Y-74843134D01*
X124473082Y-74839520D01*
X124460694Y-74838300D01*
X105166706Y-74838300D01*
X105154318Y-74839520D01*
X105142406Y-74843134D01*
X105131427Y-74849002D01*
X105121805Y-74856899D01*
X104497699Y-75481005D01*
X104489802Y-75490627D01*
X104483934Y-75501606D01*
X104480320Y-75513518D01*
X104479100Y-75525906D01*
X104479100Y-77738494D01*
X104480320Y-77750882D01*
X104483934Y-77762794D01*
X104489802Y-77773773D01*
X104497699Y-77783395D01*
X104994805Y-78280501D01*
X105004427Y-78288398D01*
X105015406Y-78294266D01*
X105027318Y-78297880D01*
X105039706Y-78299100D01*
X107299403Y-78299100D01*
X109312805Y-80312501D01*
X109322427Y-80320398D01*
X109333406Y-80326266D01*
X109345318Y-80329880D01*
X109357706Y-80331100D01*
X113400900Y-80331100D01*
X113400900Y-81436903D01*
X109579520Y-85258284D01*
X109579520Y-80521600D01*
X106880770Y-80521600D01*
X106880770Y-85317362D01*
X109520442Y-85317362D01*
X107545699Y-87292105D01*
X107537802Y-87301727D01*
X107531934Y-87312706D01*
X107528320Y-87324618D01*
X107527100Y-87337006D01*
X107527100Y-93422994D01*
X107528320Y-93435382D01*
X107531934Y-93447294D01*
X107537802Y-93458273D01*
X107545699Y-93467895D01*
X108741305Y-94663501D01*
X108750927Y-94671398D01*
X108761906Y-94677266D01*
X108773818Y-94680880D01*
X108786206Y-94682100D01*
X113718400Y-94682100D01*
X113718400Y-95962994D01*
X113719620Y-95975382D01*
X113723234Y-95987294D01*
X113729102Y-95998273D01*
X113736999Y-96007895D01*
X118163400Y-100434297D01*
X118163400Y-103166135D01*
X118154443Y-103163418D01*
X118082400Y-103156322D01*
X117962775Y-103158100D01*
X117870900Y-103249975D01*
X117870900Y-104537100D01*
X117890900Y-104537100D01*
X117890900Y-104714100D01*
X117870900Y-104714100D01*
X117870900Y-106001225D01*
X117962775Y-106093100D01*
X118082400Y-106094878D01*
X118154443Y-106087782D01*
X118163400Y-106085065D01*
X118163400Y-107392994D01*
X118164620Y-107405382D01*
X118168234Y-107417294D01*
X118174102Y-107428273D01*
X118181999Y-107437895D01*
X121973400Y-111229297D01*
X121973400Y-112234406D01*
X121459898Y-112747800D01*
X120454900Y-112747800D01*
X116290100Y-108583304D01*
X116290100Y-105725600D01*
X117113122Y-105725600D01*
X117120218Y-105797643D01*
X117141232Y-105866917D01*
X117175357Y-105930760D01*
X117221281Y-105986719D01*
X117277240Y-106032643D01*
X117341083Y-106066768D01*
X117410357Y-106087782D01*
X117482400Y-106094878D01*
X117602025Y-106093100D01*
X117693900Y-106001225D01*
X117693900Y-104714100D01*
X117206775Y-104714100D01*
X117114900Y-104805975D01*
X117113122Y-105725600D01*
X116290100Y-105725600D01*
X116290100Y-103525600D01*
X117113122Y-103525600D01*
X117114900Y-104445225D01*
X117206775Y-104537100D01*
X117693900Y-104537100D01*
X117693900Y-103249975D01*
X117602025Y-103158100D01*
X117482400Y-103156322D01*
X117410357Y-103163418D01*
X117341083Y-103184432D01*
X117277240Y-103218557D01*
X117221281Y-103264481D01*
X117175357Y-103320440D01*
X117141232Y-103384283D01*
X117120218Y-103453557D01*
X117113122Y-103525600D01*
X116290100Y-103525600D01*
X116290100Y-103212106D01*
X116288880Y-103199718D01*
X116285266Y-103187806D01*
X116279398Y-103176827D01*
X116271501Y-103167205D01*
X113488394Y-100384098D01*
X113478772Y-100376201D01*
X113467793Y-100370333D01*
X113455881Y-100366719D01*
X113443494Y-100365499D01*
X112323520Y-100365475D01*
X112325478Y-100345600D01*
X112323700Y-99775975D01*
X112231825Y-99684100D01*
X111044700Y-99684100D01*
X111044700Y-99704100D01*
X110867700Y-99704100D01*
X110867700Y-99684100D01*
X109680575Y-99684100D01*
X109588700Y-99775975D01*
X109586922Y-100345600D01*
X109588874Y-100365417D01*
X104182507Y-100365301D01*
X104170119Y-100366521D01*
X104158207Y-100370134D01*
X104147228Y-100376002D01*
X104137603Y-100383901D01*
X102624497Y-101897103D01*
X102616601Y-101906726D01*
X102610733Y-101917704D01*
X102607120Y-101929617D01*
X102605900Y-101942003D01*
X102605900Y-104059295D01*
X102607120Y-104071683D01*
X102610734Y-104083595D01*
X102616602Y-104094574D01*
X102624498Y-104104196D01*
X112289600Y-113769398D01*
X112289600Y-120380561D01*
X112266316Y-120335680D01*
X112042659Y-120224703D01*
X111801650Y-120159491D01*
X111552550Y-120142550D01*
X111304931Y-120174533D01*
X111068309Y-120254208D01*
X110915884Y-120335680D01*
X110820396Y-120519738D01*
X111591100Y-121290442D01*
X111605242Y-121276300D01*
X111730400Y-121401458D01*
X111716258Y-121415600D01*
X111730400Y-121429742D01*
X111605242Y-121554900D01*
X111591100Y-121540758D01*
X110820396Y-122311462D01*
X110915884Y-122495520D01*
X111139541Y-122606497D01*
X111380550Y-122671709D01*
X111629650Y-122688650D01*
X111877269Y-122656667D01*
X112113891Y-122576992D01*
X112266316Y-122495520D01*
X112289600Y-122450639D01*
X112289600Y-125584500D01*
X108920200Y-125584500D01*
X108920200Y-121454150D01*
X110318050Y-121454150D01*
X110350033Y-121701769D01*
X110429708Y-121938391D01*
X110511180Y-122090816D01*
X110695238Y-122186304D01*
X111465942Y-121415600D01*
X110695238Y-120644896D01*
X110511180Y-120740384D01*
X110400203Y-120964041D01*
X110334991Y-121205050D01*
X110318050Y-121454150D01*
X108920200Y-121454150D01*
X108920200Y-114024179D01*
X108922227Y-114003600D01*
X108914135Y-113921442D01*
X108890171Y-113842442D01*
X108851254Y-113769634D01*
X108798882Y-113705818D01*
X108735066Y-113653446D01*
X108662258Y-113614529D01*
X108583258Y-113590565D01*
X108521680Y-113584500D01*
X108501100Y-113582473D01*
X108480520Y-113584500D01*
X99920200Y-113584500D01*
X99920200Y-106809818D01*
X100533600Y-106809818D01*
X100533600Y-107197382D01*
X100609210Y-107577499D01*
X100757524Y-107935561D01*
X100972843Y-108257808D01*
X101246892Y-108531857D01*
X101569139Y-108747176D01*
X101927201Y-108895490D01*
X102307318Y-108971100D01*
X102694882Y-108971100D01*
X103074999Y-108895490D01*
X103433061Y-108747176D01*
X103755308Y-108531857D01*
X104029357Y-108257808D01*
X104244676Y-107935561D01*
X104392990Y-107577499D01*
X104468600Y-107197382D01*
X104468600Y-106809818D01*
X104392990Y-106429701D01*
X104244676Y-106071639D01*
X104029357Y-105749392D01*
X103755308Y-105475343D01*
X103433061Y-105260024D01*
X103074999Y-105111710D01*
X102694882Y-105036100D01*
X102307318Y-105036100D01*
X101927201Y-105111710D01*
X101569139Y-105260024D01*
X101246892Y-105475343D01*
X100972843Y-105749392D01*
X100757524Y-106071639D01*
X100609210Y-106429701D01*
X100533600Y-106809818D01*
X99920200Y-106809818D01*
X99920200Y-98845600D01*
X109586922Y-98845600D01*
X109588700Y-99415225D01*
X109680575Y-99507100D01*
X110867700Y-99507100D01*
X110867700Y-98569975D01*
X111044700Y-98569975D01*
X111044700Y-99507100D01*
X112231825Y-99507100D01*
X112323700Y-99415225D01*
X112325478Y-98845600D01*
X112318382Y-98773557D01*
X112297368Y-98704283D01*
X112263243Y-98640440D01*
X112217319Y-98584481D01*
X112161360Y-98538557D01*
X112097517Y-98504432D01*
X112028243Y-98483418D01*
X111956200Y-98476322D01*
X111136575Y-98478100D01*
X111044700Y-98569975D01*
X110867700Y-98569975D01*
X110775825Y-98478100D01*
X109956200Y-98476322D01*
X109884157Y-98483418D01*
X109814883Y-98504432D01*
X109751040Y-98538557D01*
X109695081Y-98584481D01*
X109649157Y-98640440D01*
X109615032Y-98704283D01*
X109594018Y-98773557D01*
X109586922Y-98845600D01*
X99920200Y-98845600D01*
X99920200Y-73422700D01*
X125624600Y-73422700D01*
X125624600Y-75378100D01*
G37*
%TD.AperFunction*%
%TD*%
D25*
%TO.N,VCC*%
X132712603Y-109903403D02*
X132722226Y-109911299D01*
X132733204Y-109917167D01*
X132745117Y-109920780D01*
X132757503Y-109922000D01*
X140351204Y-109922000D01*
X141761305Y-111332200D01*
X141770927Y-111340097D01*
X141781906Y-111345965D01*
X141793818Y-111349579D01*
X141806208Y-111350800D01*
X147494903Y-111350800D01*
X151921305Y-115777201D01*
X151930927Y-115785098D01*
X151941906Y-115790966D01*
X151953818Y-115794580D01*
X151966206Y-115795800D01*
X163925994Y-115795800D01*
X163938382Y-115794580D01*
X163950294Y-115790966D01*
X163961273Y-115785098D01*
X163970895Y-115777201D01*
X165539797Y-114208300D01*
X166703603Y-114208300D01*
X167534600Y-115039297D01*
X167534600Y-117949401D01*
X165910003Y-119574100D01*
X150299897Y-119574100D01*
X148198900Y-117473103D01*
X148198900Y-114959406D01*
X148197680Y-114947018D01*
X148194066Y-114935106D01*
X148188198Y-114924127D01*
X148180301Y-114914505D01*
X146190995Y-112925199D01*
X146181373Y-112917302D01*
X146170394Y-112911434D01*
X146158482Y-112907820D01*
X146146094Y-112906600D01*
X132202297Y-112906600D01*
X131213797Y-111918100D01*
X132923122Y-111918100D01*
X132930218Y-111990143D01*
X132951232Y-112059417D01*
X132985357Y-112123260D01*
X133031281Y-112179219D01*
X133087240Y-112225143D01*
X133151083Y-112259268D01*
X133220357Y-112280282D01*
X133292400Y-112287378D01*
X134112025Y-112285600D01*
X134203900Y-112193725D01*
X134203900Y-111256600D01*
X134380900Y-111256600D01*
X134380900Y-112193725D01*
X134472775Y-112285600D01*
X135292400Y-112287378D01*
X135364443Y-112280282D01*
X135433717Y-112259268D01*
X135497560Y-112225143D01*
X135553519Y-112179219D01*
X135599443Y-112123260D01*
X135633568Y-112059417D01*
X135654582Y-111990143D01*
X135661678Y-111918100D01*
X135659900Y-111348475D01*
X135568025Y-111256600D01*
X134380900Y-111256600D01*
X134203900Y-111256600D01*
X133016775Y-111256600D01*
X132924900Y-111348475D01*
X132923122Y-111918100D01*
X131213797Y-111918100D01*
X129713797Y-110418100D01*
X132923122Y-110418100D01*
X132924900Y-110987725D01*
X133016775Y-111079600D01*
X134203900Y-111079600D01*
X134203900Y-110142475D01*
X134380900Y-110142475D01*
X134380900Y-111079600D01*
X135568025Y-111079600D01*
X135659900Y-110987725D01*
X135661678Y-110418100D01*
X135654582Y-110346057D01*
X135633568Y-110276783D01*
X135599443Y-110212940D01*
X135553519Y-110156981D01*
X135497560Y-110111057D01*
X135433717Y-110076932D01*
X135364443Y-110055918D01*
X135292400Y-110048822D01*
X134472775Y-110050600D01*
X134380900Y-110142475D01*
X134203900Y-110142475D01*
X134112025Y-110050600D01*
X133292400Y-110048822D01*
X133220357Y-110055918D01*
X133151083Y-110076932D01*
X133087240Y-110111057D01*
X133031281Y-110156981D01*
X132985357Y-110212940D01*
X132951232Y-110276783D01*
X132930218Y-110346057D01*
X132923122Y-110418100D01*
X129713797Y-110418100D01*
X129307600Y-110011903D01*
X129307600Y-108847995D01*
X129979901Y-108175800D01*
X130984901Y-108175800D01*
X132712603Y-109903403D01*
%TA.AperFunction,Conductor*%
D26*
G36*
X132712603Y-109903403D02*
G01*
X132722226Y-109911299D01*
X132733204Y-109917167D01*
X132745117Y-109920780D01*
X132757503Y-109922000D01*
X140351204Y-109922000D01*
X141761305Y-111332200D01*
X141770927Y-111340097D01*
X141781906Y-111345965D01*
X141793818Y-111349579D01*
X141806208Y-111350800D01*
X147494903Y-111350800D01*
X151921305Y-115777201D01*
X151930927Y-115785098D01*
X151941906Y-115790966D01*
X151953818Y-115794580D01*
X151966206Y-115795800D01*
X163925994Y-115795800D01*
X163938382Y-115794580D01*
X163950294Y-115790966D01*
X163961273Y-115785098D01*
X163970895Y-115777201D01*
X165539797Y-114208300D01*
X166703603Y-114208300D01*
X167534600Y-115039297D01*
X167534600Y-117949401D01*
X165910003Y-119574100D01*
X150299897Y-119574100D01*
X148198900Y-117473103D01*
X148198900Y-114959406D01*
X148197680Y-114947018D01*
X148194066Y-114935106D01*
X148188198Y-114924127D01*
X148180301Y-114914505D01*
X146190995Y-112925199D01*
X146181373Y-112917302D01*
X146170394Y-112911434D01*
X146158482Y-112907820D01*
X146146094Y-112906600D01*
X132202297Y-112906600D01*
X131213797Y-111918100D01*
X132923122Y-111918100D01*
X132930218Y-111990143D01*
X132951232Y-112059417D01*
X132985357Y-112123260D01*
X133031281Y-112179219D01*
X133087240Y-112225143D01*
X133151083Y-112259268D01*
X133220357Y-112280282D01*
X133292400Y-112287378D01*
X134112025Y-112285600D01*
X134203900Y-112193725D01*
X134203900Y-111256600D01*
X134380900Y-111256600D01*
X134380900Y-112193725D01*
X134472775Y-112285600D01*
X135292400Y-112287378D01*
X135364443Y-112280282D01*
X135433717Y-112259268D01*
X135497560Y-112225143D01*
X135553519Y-112179219D01*
X135599443Y-112123260D01*
X135633568Y-112059417D01*
X135654582Y-111990143D01*
X135661678Y-111918100D01*
X135659900Y-111348475D01*
X135568025Y-111256600D01*
X134380900Y-111256600D01*
X134203900Y-111256600D01*
X133016775Y-111256600D01*
X132924900Y-111348475D01*
X132923122Y-111918100D01*
X131213797Y-111918100D01*
X129713797Y-110418100D01*
X132923122Y-110418100D01*
X132924900Y-110987725D01*
X133016775Y-111079600D01*
X134203900Y-111079600D01*
X134203900Y-110142475D01*
X134380900Y-110142475D01*
X134380900Y-111079600D01*
X135568025Y-111079600D01*
X135659900Y-110987725D01*
X135661678Y-110418100D01*
X135654582Y-110346057D01*
X135633568Y-110276783D01*
X135599443Y-110212940D01*
X135553519Y-110156981D01*
X135497560Y-110111057D01*
X135433717Y-110076932D01*
X135364443Y-110055918D01*
X135292400Y-110048822D01*
X134472775Y-110050600D01*
X134380900Y-110142475D01*
X134203900Y-110142475D01*
X134112025Y-110050600D01*
X133292400Y-110048822D01*
X133220357Y-110055918D01*
X133151083Y-110076932D01*
X133087240Y-110111057D01*
X133031281Y-110156981D01*
X132985357Y-110212940D01*
X132951232Y-110276783D01*
X132930218Y-110346057D01*
X132923122Y-110418100D01*
X129713797Y-110418100D01*
X129307600Y-110011903D01*
X129307600Y-108847995D01*
X129979901Y-108175800D01*
X130984901Y-108175800D01*
X132712603Y-109903403D01*
G37*
%TD.AperFunction*%
%TD*%
M02*
