%TF.GenerationSoftware,KiCad,Pcbnew,5.1.8-4.fc33*%
%TF.CreationDate,2021-01-04T09:43:00+01:00*%
%TF.ProjectId,obsonet_1,6f62736f-6e65-4745-9f31-2e6b69636164,rev?*%
%TF.SameCoordinates,Original*%
%TF.FileFunction,Legend,Top*%
%TF.FilePolarity,Positive*%
%FSLAX46Y46*%
G04 Gerber Fmt 4.6, Leading zero omitted, Abs format (unit mm)*
G04 Created by KiCad (PCBNEW 5.1.8-4.fc33) date 2021-01-04 09:43:00*
%MOMM*%
%LPD*%
G01*
G04 APERTURE LIST*
%ADD10C,0.300000*%
%ADD11C,0.152400*%
%ADD12C,0.203200*%
%ADD13C,0.050800*%
%ADD14C,0.304800*%
%ADD15C,0.254000*%
%ADD16C,0.081280*%
%ADD17C,0.127000*%
%ADD18C,0.101600*%
%ADD19C,0.135128*%
%ADD20C,0.177800*%
%ADD21C,0.120650*%
%ADD22C,0.096520*%
%ADD23C,0.142240*%
G04 APERTURE END LIST*
D10*
X101989142Y-96677714D02*
X101989142Y-96106285D01*
X102132000Y-95820571D01*
X102417714Y-95534857D01*
X102989142Y-95392000D01*
X103989142Y-95392000D01*
X104560571Y-95534857D01*
X104846285Y-95820571D01*
X104989142Y-96106285D01*
X104989142Y-96677714D01*
X104846285Y-96963428D01*
X104560571Y-97249142D01*
X103989142Y-97392000D01*
X102989142Y-97392000D01*
X102417714Y-97249142D01*
X102132000Y-96963428D01*
X101989142Y-96677714D01*
X104989142Y-94106285D02*
X101989142Y-94106285D01*
X103132000Y-94106285D02*
X102989142Y-93820571D01*
X102989142Y-93249142D01*
X103132000Y-92963428D01*
X103274857Y-92820571D01*
X103560571Y-92677714D01*
X104417714Y-92677714D01*
X104703428Y-92820571D01*
X104846285Y-92963428D01*
X104989142Y-93249142D01*
X104989142Y-93820571D01*
X104846285Y-94106285D01*
X104846285Y-91534857D02*
X104989142Y-91249142D01*
X104989142Y-90677714D01*
X104846285Y-90392000D01*
X104560571Y-90249142D01*
X104417714Y-90249142D01*
X104132000Y-90392000D01*
X103989142Y-90677714D01*
X103989142Y-91106285D01*
X103846285Y-91392000D01*
X103560571Y-91534857D01*
X103417714Y-91534857D01*
X103132000Y-91392000D01*
X102989142Y-91106285D01*
X102989142Y-90677714D01*
X103132000Y-90392000D01*
X104989142Y-88534857D02*
X104846285Y-88820571D01*
X104703428Y-88963428D01*
X104417714Y-89106285D01*
X103560571Y-89106285D01*
X103274857Y-88963428D01*
X103132000Y-88820571D01*
X102989142Y-88534857D01*
X102989142Y-88106285D01*
X103132000Y-87820571D01*
X103274857Y-87677714D01*
X103560571Y-87534857D01*
X104417714Y-87534857D01*
X104703428Y-87677714D01*
X104846285Y-87820571D01*
X104989142Y-88106285D01*
X104989142Y-88534857D01*
X104989142Y-86249142D02*
X101989142Y-86249142D01*
X104989142Y-84534857D01*
X101989142Y-84534857D01*
X103417714Y-83106285D02*
X103417714Y-82106285D01*
X104989142Y-81677714D02*
X104989142Y-83106285D01*
X101989142Y-83106285D01*
X101989142Y-81677714D01*
X101989142Y-80820571D02*
X101989142Y-79106285D01*
X104989142Y-79963428D02*
X101989142Y-79963428D01*
D11*
%TO.C,C6*%
X115401100Y-121415600D02*
G75*
G03*
X115401100Y-121415600I-2540000J0D01*
G01*
X111464100Y-120145600D02*
X111464100Y-119891600D01*
X111464100Y-120145600D02*
X111718100Y-120145600D01*
X111464100Y-120399600D02*
X111464100Y-120145600D01*
X111210100Y-120145600D02*
X111464100Y-120145600D01*
D12*
%TO.C,CON2*%
X185314500Y-87220900D02*
X182520500Y-87220900D01*
X187473500Y-87220900D02*
X187219500Y-87220900D01*
X187473500Y-86712900D02*
X187473500Y-87220900D01*
X185314500Y-86712900D02*
X182510500Y-86712900D01*
X187473500Y-86712900D02*
X187219500Y-86712900D01*
X184806500Y-77822900D02*
X184806500Y-78330900D01*
D13*
X197989100Y-90395900D02*
X197989100Y-74647900D01*
D12*
X185314500Y-84680900D02*
X182520500Y-84680900D01*
X187473500Y-84680900D02*
X187219500Y-84680900D01*
X187473500Y-84172900D02*
X187473500Y-84680900D01*
X185314500Y-84172900D02*
X182510500Y-84172900D01*
X187473500Y-84172900D02*
X187219500Y-84172900D01*
X185314500Y-82140900D02*
X182520500Y-82140900D01*
X187473500Y-82140900D02*
X187219500Y-82140900D01*
X187473500Y-81632900D02*
X187473500Y-82140900D01*
X185314500Y-81632900D02*
X182510500Y-81632900D01*
X187473500Y-81632900D02*
X187219500Y-81632900D01*
X183536500Y-76933900D02*
X182520500Y-76933900D01*
X183536500Y-76044900D02*
X183536500Y-76933900D01*
X182520500Y-76044900D02*
X183536500Y-76044900D01*
X183536500Y-88109900D02*
X182520500Y-88109900D01*
X183536500Y-88998900D02*
X183536500Y-88109900D01*
X182520500Y-88998900D02*
X183536500Y-88998900D01*
X184806500Y-85442900D02*
X184806500Y-85950900D01*
X184806500Y-82902900D02*
X184806500Y-83410900D01*
X184806500Y-80362900D02*
X184806500Y-80870900D01*
X185314500Y-79600900D02*
X182520500Y-79600900D01*
X187473500Y-79600900D02*
X187219500Y-79600900D01*
X187473500Y-79092900D02*
X187473500Y-79600900D01*
X196826500Y-91320900D02*
X196826500Y-90366900D01*
X197884500Y-91320900D02*
X196826500Y-91320900D01*
X197884500Y-90365900D02*
X197884500Y-91320900D01*
X196826500Y-73722900D02*
X196826500Y-74651900D01*
X197884500Y-73722900D02*
X196826500Y-73722900D01*
X197884500Y-74652900D02*
X197884500Y-73722900D01*
X196998500Y-74700900D02*
X200564500Y-74700900D01*
X182510500Y-74700900D02*
X193823500Y-74700900D01*
X182510500Y-77822900D02*
X182510500Y-74700900D01*
X182510500Y-79092900D02*
X182510500Y-78330900D01*
X185314500Y-79092900D02*
X182510500Y-79092900D01*
X187473500Y-79092900D02*
X187219500Y-79092900D01*
X182520500Y-80362900D02*
X182520500Y-79600900D01*
X182520500Y-81632900D02*
X182520500Y-80870900D01*
X182520500Y-82902900D02*
X182520500Y-82140900D01*
X182520500Y-84172900D02*
X182520500Y-83410900D01*
X182520500Y-85442900D02*
X182520500Y-84680900D01*
X182510500Y-86712900D02*
X182510500Y-85950900D01*
X182510500Y-90342900D02*
X182510500Y-87220900D01*
X193823500Y-90342900D02*
X182510500Y-90342900D01*
X200564500Y-90342900D02*
X196998500Y-90342900D01*
X200564500Y-74700900D02*
X200564500Y-90342900D01*
D11*
%TO.C,TF1*%
X180012300Y-79315100D02*
X158422300Y-79315100D01*
X180012300Y-89983100D02*
X158422300Y-89983100D01*
X180012300Y-89983100D02*
X180012300Y-85284100D01*
X158422300Y-79315100D02*
X158422300Y-89983100D01*
X180012300Y-84014100D02*
X180012300Y-79315100D01*
X180012300Y-85284100D02*
G75*
G02*
X180012300Y-84014100I0J635000D01*
G01*
%TO.C,C7*%
X176202500Y-75663800D02*
X169344500Y-75663800D01*
X176456500Y-78457800D02*
X176456500Y-75917800D01*
X169344500Y-78711800D02*
X176202500Y-78711800D01*
X169090500Y-75917800D02*
X169090500Y-78457800D01*
X173103700Y-77187800D02*
X174297500Y-77187800D01*
D14*
X173103700Y-77187800D02*
X173103700Y-77822800D01*
X173103700Y-76552800D02*
X173103700Y-77187800D01*
D11*
X172468700Y-77187800D02*
X171249500Y-77187800D01*
D14*
X172468700Y-77187800D02*
X172468700Y-77822800D01*
X172468700Y-76552800D02*
X172468700Y-77187800D01*
D11*
X169344500Y-75663800D02*
G75*
G03*
X169090500Y-75917800I0J-254000D01*
G01*
X169344500Y-78711800D02*
G75*
G02*
X169090500Y-78457800I0J254000D01*
G01*
X176456500Y-78457800D02*
G75*
G02*
X176202500Y-78711800I-254000J0D01*
G01*
X176456500Y-75917800D02*
G75*
G03*
X176202500Y-75663800I-254000J0D01*
G01*
%TO.C,C8*%
X161978400Y-78711800D02*
X168836400Y-78711800D01*
X161724400Y-75917800D02*
X161724400Y-78457800D01*
X168836400Y-75663800D02*
X161978400Y-75663800D01*
X169090400Y-78457800D02*
X169090400Y-75917800D01*
X165077200Y-77187800D02*
X163883400Y-77187800D01*
D14*
X165077200Y-77187800D02*
X165077200Y-76552800D01*
X165077200Y-77822800D02*
X165077200Y-77187800D01*
D11*
X165712200Y-77187800D02*
X166931400Y-77187800D01*
D14*
X165712200Y-77187800D02*
X165712200Y-76552800D01*
X165712200Y-77822800D02*
X165712200Y-77187800D01*
D11*
X168836400Y-78711800D02*
G75*
G03*
X169090400Y-78457800I0J254000D01*
G01*
X168836400Y-75663800D02*
G75*
G02*
X169090400Y-75917800I0J-254000D01*
G01*
X161724400Y-75917800D02*
G75*
G02*
X161978400Y-75663800I254000J0D01*
G01*
X161724400Y-78457800D02*
G75*
G03*
X161978400Y-78711800I254000J0D01*
G01*
%TO.C,C9*%
X168836400Y-90554600D02*
X161978400Y-90554600D01*
X169090400Y-93348600D02*
X169090400Y-90808600D01*
X161978400Y-93602600D02*
X168836400Y-93602600D01*
X161724400Y-90808600D02*
X161724400Y-93348600D01*
X165737600Y-92078600D02*
X166931400Y-92078600D01*
D14*
X165737600Y-92078600D02*
X165737600Y-92713600D01*
X165737600Y-91443600D02*
X165737600Y-92078600D01*
D11*
X165102600Y-92078600D02*
X163883400Y-92078600D01*
D14*
X165102600Y-92078600D02*
X165102600Y-92713600D01*
X165102600Y-91443600D02*
X165102600Y-92078600D01*
D11*
X161978400Y-90554600D02*
G75*
G03*
X161724400Y-90808600I0J-254000D01*
G01*
X161978400Y-93602600D02*
G75*
G02*
X161724400Y-93348600I0J254000D01*
G01*
X169090400Y-93348600D02*
G75*
G02*
X168836400Y-93602600I-254000J0D01*
G01*
X169090400Y-90808600D02*
G75*
G03*
X168836400Y-90554600I-254000J0D01*
G01*
%TO.C,C10*%
X169598300Y-93602600D02*
X176456300Y-93602600D01*
X169344300Y-90808600D02*
X169344300Y-93348600D01*
X176456300Y-90554600D02*
X169598300Y-90554600D01*
X176710300Y-93348600D02*
X176710300Y-90808600D01*
X172697100Y-92078600D02*
X171503300Y-92078600D01*
D14*
X172697100Y-92078600D02*
X172697100Y-91443600D01*
X172697100Y-92713600D02*
X172697100Y-92078600D01*
D11*
X173332100Y-92078600D02*
X174551300Y-92078600D01*
D14*
X173332100Y-92078600D02*
X173332100Y-91443600D01*
X173332100Y-92713600D02*
X173332100Y-92078600D01*
D11*
X176456300Y-93602600D02*
G75*
G03*
X176710300Y-93348600I0J254000D01*
G01*
X176456300Y-90554600D02*
G75*
G02*
X176710300Y-90808600I0J-254000D01*
G01*
X169344300Y-90808600D02*
G75*
G02*
X169598300Y-90554600I254000J0D01*
G01*
X169344300Y-93348600D02*
G75*
G03*
X169598300Y-93602600I254000J0D01*
G01*
%TO.C,IC6*%
X183727100Y-120463100D02*
X181822100Y-120463100D01*
X177885100Y-120463100D02*
X179790100Y-120463100D01*
X177885100Y-95063100D02*
X183727100Y-95063100D01*
X183727100Y-120463100D02*
X183727100Y-95063100D01*
X177885100Y-95063100D02*
X177885100Y-120463100D01*
X181822100Y-120463100D02*
G75*
G03*
X179790100Y-120463100I-1016000J0D01*
G01*
D15*
%TO.C,LED1*%
X106987500Y-79061200D02*
G75*
G02*
X105223200Y-78037400I-56J2032000D01*
G01*
X108538700Y-78341800D02*
G75*
G02*
X106987500Y-79061200I-1551163J1312600D01*
G01*
X106987500Y-74997200D02*
G75*
G03*
X105194600Y-76073000I60J-2032000D01*
G01*
X108548500Y-75728300D02*
G75*
G03*
X106987500Y-74997200I-1560988J-1300900D01*
G01*
D11*
X106987500Y-78553200D02*
G75*
G02*
X105784500Y-77964800I8J1524000D01*
G01*
X108190500Y-77964800D02*
G75*
G02*
X106987500Y-78553200I-1203008J935600D01*
G01*
X106987500Y-75505200D02*
G75*
G03*
X105768300Y-76114800I0J-1524000D01*
G01*
X108227600Y-76143399D02*
G75*
G03*
X106987500Y-75505200I-1240134J-885801D01*
G01*
D15*
%TO.C,LED2*%
X112861100Y-74997100D02*
G75*
G02*
X114625400Y-76020900I56J-2032000D01*
G01*
X111309900Y-75716500D02*
G75*
G02*
X112861100Y-74997100I1551163J-1312600D01*
G01*
X112861100Y-79061100D02*
G75*
G03*
X114654000Y-77985300I-60J2032000D01*
G01*
X111300100Y-78330000D02*
G75*
G03*
X112861100Y-79061100I1560988J1300900D01*
G01*
D11*
X112861100Y-75505100D02*
G75*
G02*
X114064100Y-76093500I-8J-1524000D01*
G01*
X111658100Y-76093500D02*
G75*
G02*
X112861100Y-75505100I1203008J-935600D01*
G01*
X112861100Y-78553100D02*
G75*
G03*
X114080300Y-77943500I0J1524000D01*
G01*
X111621000Y-77914901D02*
G75*
G03*
X112861100Y-78553100I1240134J885801D01*
G01*
D15*
%TO.C,IC1*%
X144829700Y-91985600D02*
G75*
G03*
X144829700Y-91985600I-412300J0D01*
G01*
D12*
X116987400Y-103725600D02*
X116987400Y-90845600D01*
X145247400Y-103725600D02*
X116987400Y-103725600D01*
X145247400Y-90845600D02*
X145247400Y-103725600D01*
X116987400Y-90845600D02*
X145247400Y-90845600D01*
%TO.C,C2*%
D16*
X109285314Y-101231917D02*
X109331276Y-101277879D01*
X109377238Y-101415765D01*
X109377238Y-101507689D01*
X109331276Y-101645574D01*
X109239352Y-101737498D01*
X109147428Y-101783460D01*
X108963580Y-101829422D01*
X108825695Y-101829422D01*
X108641847Y-101783460D01*
X108549923Y-101737498D01*
X108458000Y-101645574D01*
X108412038Y-101507689D01*
X108412038Y-101415765D01*
X108458000Y-101277879D01*
X108503961Y-101231917D01*
X108503961Y-100864222D02*
X108458000Y-100818260D01*
X108412038Y-100726336D01*
X108412038Y-100496527D01*
X108458000Y-100404603D01*
X108503961Y-100358641D01*
X108595885Y-100312679D01*
X108687809Y-100312679D01*
X108825695Y-100358641D01*
X109377238Y-100910184D01*
X109377238Y-100312679D01*
%TO.C,C3*%
X132704114Y-109655815D02*
X132750076Y-109701777D01*
X132796038Y-109839663D01*
X132796038Y-109931587D01*
X132750076Y-110069472D01*
X132658152Y-110161396D01*
X132566228Y-110207358D01*
X132382380Y-110253320D01*
X132244495Y-110253320D01*
X132060647Y-110207358D01*
X131968723Y-110161396D01*
X131876800Y-110069472D01*
X131830838Y-109931587D01*
X131830838Y-109839663D01*
X131876800Y-109701777D01*
X131922761Y-109655815D01*
X131830838Y-109334082D02*
X131830838Y-108736577D01*
X132198533Y-109058310D01*
X132198533Y-108920425D01*
X132244495Y-108828501D01*
X132290457Y-108782539D01*
X132382380Y-108736577D01*
X132612190Y-108736577D01*
X132704114Y-108782539D01*
X132750076Y-108828501D01*
X132796038Y-108920425D01*
X132796038Y-109196196D01*
X132750076Y-109288120D01*
X132704114Y-109334082D01*
%TO.C,C6*%
D17*
X116333340Y-119973242D02*
X116275888Y-120030695D01*
X116103530Y-120088147D01*
X115988626Y-120088147D01*
X115816269Y-120030695D01*
X115701364Y-119915790D01*
X115643911Y-119800885D01*
X115586459Y-119571076D01*
X115586459Y-119398719D01*
X115643911Y-119168909D01*
X115701364Y-119054004D01*
X115816269Y-118939100D01*
X115988626Y-118881647D01*
X116103530Y-118881647D01*
X116275888Y-118939100D01*
X116333340Y-118996552D01*
X117367483Y-118881647D02*
X117137673Y-118881647D01*
X117022769Y-118939100D01*
X116965316Y-118996552D01*
X116850411Y-119168909D01*
X116792959Y-119398719D01*
X116792959Y-119858338D01*
X116850411Y-119973242D01*
X116907864Y-120030695D01*
X117022769Y-120088147D01*
X117252578Y-120088147D01*
X117367483Y-120030695D01*
X117424935Y-119973242D01*
X117482388Y-119858338D01*
X117482388Y-119571076D01*
X117424935Y-119456171D01*
X117367483Y-119398719D01*
X117252578Y-119341266D01*
X117022769Y-119341266D01*
X116907864Y-119398719D01*
X116850411Y-119456171D01*
X116792959Y-119571076D01*
%TO.C,R1*%
D18*
X185658830Y-122151647D02*
X185256663Y-121577123D01*
X184969401Y-122151647D02*
X184969401Y-120945147D01*
X185429020Y-120945147D01*
X185543925Y-121002600D01*
X185601378Y-121060052D01*
X185658830Y-121174957D01*
X185658830Y-121347314D01*
X185601378Y-121462219D01*
X185543925Y-121519671D01*
X185429020Y-121577123D01*
X184969401Y-121577123D01*
X186807878Y-122151647D02*
X186118449Y-122151647D01*
X186463163Y-122151647D02*
X186463163Y-120945147D01*
X186348259Y-121117504D01*
X186233354Y-121232409D01*
X186118449Y-121289861D01*
%TO.C,CON2*%
D19*
X188653199Y-92214700D02*
X188572766Y-92295133D01*
X188331466Y-92375566D01*
X188170599Y-92375566D01*
X187929299Y-92295133D01*
X187768433Y-92134266D01*
X187687999Y-91973400D01*
X187607566Y-91651666D01*
X187607566Y-91410366D01*
X187687999Y-91088633D01*
X187768433Y-90927766D01*
X187929299Y-90766900D01*
X188170599Y-90686466D01*
X188331466Y-90686466D01*
X188572766Y-90766900D01*
X188653199Y-90847333D01*
X189698833Y-90686466D02*
X190020566Y-90686466D01*
X190181433Y-90766900D01*
X190342299Y-90927766D01*
X190422733Y-91249500D01*
X190422733Y-91812533D01*
X190342299Y-92134266D01*
X190181433Y-92295133D01*
X190020566Y-92375566D01*
X189698833Y-92375566D01*
X189537966Y-92295133D01*
X189377099Y-92134266D01*
X189296666Y-91812533D01*
X189296666Y-91249500D01*
X189377099Y-90927766D01*
X189537966Y-90766900D01*
X189698833Y-90686466D01*
X191146633Y-92375566D02*
X191146633Y-90686466D01*
X192111833Y-92375566D01*
X192111833Y-90686466D01*
X192835733Y-90847333D02*
X192916166Y-90766900D01*
X193077033Y-90686466D01*
X193479199Y-90686466D01*
X193640066Y-90766900D01*
X193720499Y-90847333D01*
X193800933Y-91008200D01*
X193800933Y-91169066D01*
X193720499Y-91410366D01*
X192755299Y-92375566D01*
X193800933Y-92375566D01*
%TO.C,TF1*%
D20*
X156383566Y-86340103D02*
X156383566Y-85374903D01*
X158072666Y-85857503D02*
X156383566Y-85857503D01*
X157187900Y-84248836D02*
X157187900Y-84811870D01*
X158072666Y-84811870D02*
X156383566Y-84811870D01*
X156383566Y-84007536D01*
X158072666Y-82479303D02*
X158072666Y-83444503D01*
X158072666Y-82961903D02*
X156383566Y-82961903D01*
X156624866Y-83122770D01*
X156785733Y-83283636D01*
X156866166Y-83444503D01*
%TO.C,C7*%
D21*
X172759112Y-75110442D02*
X172701660Y-75167895D01*
X172529303Y-75225347D01*
X172414398Y-75225347D01*
X172242041Y-75167895D01*
X172127136Y-75052990D01*
X172069684Y-74938085D01*
X172012232Y-74708276D01*
X172012232Y-74535919D01*
X172069684Y-74306109D01*
X172127136Y-74191204D01*
X172242041Y-74076300D01*
X172414398Y-74018847D01*
X172529303Y-74018847D01*
X172701660Y-74076300D01*
X172759112Y-74133752D01*
X173161279Y-74018847D02*
X173965612Y-74018847D01*
X173448541Y-75225347D01*
%TO.C,C8*%
X165139112Y-75265642D02*
X165081660Y-75323095D01*
X164909303Y-75380547D01*
X164794398Y-75380547D01*
X164622041Y-75323095D01*
X164507136Y-75208190D01*
X164449684Y-75093285D01*
X164392232Y-74863476D01*
X164392232Y-74691119D01*
X164449684Y-74461309D01*
X164507136Y-74346404D01*
X164622041Y-74231500D01*
X164794398Y-74174047D01*
X164909303Y-74174047D01*
X165081660Y-74231500D01*
X165139112Y-74288952D01*
X165828541Y-74691119D02*
X165713636Y-74633666D01*
X165656184Y-74576214D01*
X165598732Y-74461309D01*
X165598732Y-74403857D01*
X165656184Y-74288952D01*
X165713636Y-74231500D01*
X165828541Y-74174047D01*
X166058351Y-74174047D01*
X166173255Y-74231500D01*
X166230708Y-74288952D01*
X166288160Y-74403857D01*
X166288160Y-74461309D01*
X166230708Y-74576214D01*
X166173255Y-74633666D01*
X166058351Y-74691119D01*
X165828541Y-74691119D01*
X165713636Y-74748571D01*
X165656184Y-74806023D01*
X165598732Y-74920928D01*
X165598732Y-75150738D01*
X165656184Y-75265642D01*
X165713636Y-75323095D01*
X165828541Y-75380547D01*
X166058351Y-75380547D01*
X166173255Y-75323095D01*
X166230708Y-75265642D01*
X166288160Y-75150738D01*
X166288160Y-74920928D01*
X166230708Y-74806023D01*
X166173255Y-74748571D01*
X166058351Y-74691119D01*
%TO.C,C9*%
X165393112Y-95077642D02*
X165335660Y-95135095D01*
X165163303Y-95192547D01*
X165048398Y-95192547D01*
X164876041Y-95135095D01*
X164761136Y-95020190D01*
X164703684Y-94905285D01*
X164646232Y-94675476D01*
X164646232Y-94503119D01*
X164703684Y-94273309D01*
X164761136Y-94158404D01*
X164876041Y-94043500D01*
X165048398Y-93986047D01*
X165163303Y-93986047D01*
X165335660Y-94043500D01*
X165393112Y-94100952D01*
X165967636Y-95192547D02*
X166197446Y-95192547D01*
X166312351Y-95135095D01*
X166369803Y-95077642D01*
X166484708Y-94905285D01*
X166542160Y-94675476D01*
X166542160Y-94215857D01*
X166484708Y-94100952D01*
X166427255Y-94043500D01*
X166312351Y-93986047D01*
X166082541Y-93986047D01*
X165967636Y-94043500D01*
X165910184Y-94100952D01*
X165852732Y-94215857D01*
X165852732Y-94503119D01*
X165910184Y-94618023D01*
X165967636Y-94675476D01*
X166082541Y-94732928D01*
X166312351Y-94732928D01*
X166427255Y-94675476D01*
X166484708Y-94618023D01*
X166542160Y-94503119D01*
%TO.C,C10*%
X172251112Y-95077642D02*
X172193660Y-95135095D01*
X172021303Y-95192547D01*
X171906398Y-95192547D01*
X171734041Y-95135095D01*
X171619136Y-95020190D01*
X171561684Y-94905285D01*
X171504232Y-94675476D01*
X171504232Y-94503119D01*
X171561684Y-94273309D01*
X171619136Y-94158404D01*
X171734041Y-94043500D01*
X171906398Y-93986047D01*
X172021303Y-93986047D01*
X172193660Y-94043500D01*
X172251112Y-94100952D01*
X173400160Y-95192547D02*
X172710732Y-95192547D01*
X173055446Y-95192547D02*
X173055446Y-93986047D01*
X172940541Y-94158404D01*
X172825636Y-94273309D01*
X172710732Y-94330761D01*
X174147041Y-93986047D02*
X174261946Y-93986047D01*
X174376851Y-94043500D01*
X174434303Y-94100952D01*
X174491755Y-94215857D01*
X174549208Y-94445666D01*
X174549208Y-94732928D01*
X174491755Y-94962738D01*
X174434303Y-95077642D01*
X174376851Y-95135095D01*
X174261946Y-95192547D01*
X174147041Y-95192547D01*
X174032136Y-95135095D01*
X173974684Y-95077642D01*
X173917232Y-94962738D01*
X173859779Y-94732928D01*
X173859779Y-94445666D01*
X173917232Y-94215857D01*
X173974684Y-94100952D01*
X174032136Y-94043500D01*
X174147041Y-93986047D01*
%TO.C,IC6*%
D22*
X177742547Y-123348000D02*
X176536047Y-123348000D01*
X177627642Y-122084047D02*
X177685095Y-122141500D01*
X177742547Y-122313857D01*
X177742547Y-122428762D01*
X177685095Y-122601119D01*
X177570190Y-122716023D01*
X177455285Y-122773476D01*
X177225476Y-122830928D01*
X177053119Y-122830928D01*
X176823309Y-122773476D01*
X176708404Y-122716023D01*
X176593500Y-122601119D01*
X176536047Y-122428762D01*
X176536047Y-122313857D01*
X176593500Y-122141500D01*
X176650952Y-122084047D01*
X176536047Y-121049904D02*
X176536047Y-121279714D01*
X176593500Y-121394619D01*
X176650952Y-121452071D01*
X176823309Y-121566976D01*
X177053119Y-121624428D01*
X177512738Y-121624428D01*
X177627642Y-121566976D01*
X177685095Y-121509523D01*
X177742547Y-121394619D01*
X177742547Y-121164809D01*
X177685095Y-121049904D01*
X177627642Y-120992452D01*
X177512738Y-120935000D01*
X177225476Y-120935000D01*
X177110571Y-120992452D01*
X177053119Y-121049904D01*
X176995666Y-121164809D01*
X176995666Y-121394619D01*
X177053119Y-121509523D01*
X177110571Y-121566976D01*
X177225476Y-121624428D01*
%TO.C,LED1*%
D21*
X101016208Y-77412547D02*
X100441684Y-77412547D01*
X100441684Y-76206047D01*
X101418374Y-76780571D02*
X101820541Y-76780571D01*
X101992898Y-77412547D02*
X101418374Y-77412547D01*
X101418374Y-76206047D01*
X101992898Y-76206047D01*
X102509970Y-77412547D02*
X102509970Y-76206047D01*
X102797232Y-76206047D01*
X102969589Y-76263500D01*
X103084493Y-76378404D01*
X103141946Y-76493309D01*
X103199398Y-76723119D01*
X103199398Y-76895476D01*
X103141946Y-77125285D01*
X103084493Y-77240190D01*
X102969589Y-77355095D01*
X102797232Y-77412547D01*
X102509970Y-77412547D01*
X104348446Y-77412547D02*
X103659017Y-77412547D01*
X104003732Y-77412547D02*
X104003732Y-76206047D01*
X103888827Y-76378404D01*
X103773922Y-76493309D01*
X103659017Y-76550761D01*
%TO.C,LED2*%
X116002208Y-77666547D02*
X115427684Y-77666547D01*
X115427684Y-76460047D01*
X116404374Y-77034571D02*
X116806541Y-77034571D01*
X116978898Y-77666547D02*
X116404374Y-77666547D01*
X116404374Y-76460047D01*
X116978898Y-76460047D01*
X117495970Y-77666547D02*
X117495970Y-76460047D01*
X117783232Y-76460047D01*
X117955589Y-76517500D01*
X118070493Y-76632404D01*
X118127946Y-76747309D01*
X118185398Y-76977119D01*
X118185398Y-77149476D01*
X118127946Y-77379285D01*
X118070493Y-77494190D01*
X117955589Y-77609095D01*
X117783232Y-77666547D01*
X117495970Y-77666547D01*
X118645017Y-76574952D02*
X118702470Y-76517500D01*
X118817374Y-76460047D01*
X119104636Y-76460047D01*
X119219541Y-76517500D01*
X119276993Y-76574952D01*
X119334446Y-76689857D01*
X119334446Y-76804761D01*
X119276993Y-76977119D01*
X118587565Y-77666547D01*
X119334446Y-77666547D01*
%TO.C,IC1*%
D18*
X146945047Y-92878849D02*
X145738547Y-92878849D01*
X146830142Y-91614897D02*
X146887595Y-91672349D01*
X146945047Y-91844706D01*
X146945047Y-91959611D01*
X146887595Y-92131968D01*
X146772690Y-92246873D01*
X146657785Y-92304325D01*
X146427976Y-92361778D01*
X146255619Y-92361778D01*
X146025809Y-92304325D01*
X145910904Y-92246873D01*
X145796000Y-92131968D01*
X145738547Y-91959611D01*
X145738547Y-91844706D01*
X145796000Y-91672349D01*
X145853452Y-91614897D01*
X146945047Y-90465849D02*
X146945047Y-91155278D01*
X146945047Y-90810563D02*
X145738547Y-90810563D01*
X145910904Y-90925468D01*
X146025809Y-91040373D01*
X146083261Y-91155278D01*
%TO.C,CON1*%
D23*
X101330922Y-71214300D02*
X101250489Y-71294733D01*
X101009189Y-71375166D01*
X100848322Y-71375166D01*
X100607022Y-71294733D01*
X100446156Y-71133866D01*
X100365722Y-70973000D01*
X100285289Y-70651266D01*
X100285289Y-70409966D01*
X100365722Y-70088233D01*
X100446156Y-69927366D01*
X100607022Y-69766500D01*
X100848322Y-69686066D01*
X101009189Y-69686066D01*
X101250489Y-69766500D01*
X101330922Y-69846933D01*
X102376556Y-69686066D02*
X102698289Y-69686066D01*
X102859156Y-69766500D01*
X103020022Y-69927366D01*
X103100456Y-70249100D01*
X103100456Y-70812133D01*
X103020022Y-71133866D01*
X102859156Y-71294733D01*
X102698289Y-71375166D01*
X102376556Y-71375166D01*
X102215689Y-71294733D01*
X102054822Y-71133866D01*
X101974389Y-70812133D01*
X101974389Y-70249100D01*
X102054822Y-69927366D01*
X102215689Y-69766500D01*
X102376556Y-69686066D01*
X103824356Y-71375166D02*
X103824356Y-69686066D01*
X104789556Y-71375166D01*
X104789556Y-69686066D01*
X106478656Y-71375166D02*
X105513456Y-71375166D01*
X105996056Y-71375166D02*
X105996056Y-69686066D01*
X105835189Y-69927366D01*
X105674322Y-70088233D01*
X105513456Y-70168666D01*
%TO.C,CASE1*%
X96520922Y-67334300D02*
X96440489Y-67414733D01*
X96199189Y-67495166D01*
X96038322Y-67495166D01*
X95797022Y-67414733D01*
X95636156Y-67253866D01*
X95555722Y-67093000D01*
X95475289Y-66771266D01*
X95475289Y-66529966D01*
X95555722Y-66208233D01*
X95636156Y-66047366D01*
X95797022Y-65886500D01*
X96038322Y-65806066D01*
X96199189Y-65806066D01*
X96440489Y-65886500D01*
X96520922Y-65966933D01*
X97164389Y-67012566D02*
X97968722Y-67012566D01*
X97003522Y-67495166D02*
X97566556Y-65806066D01*
X98129589Y-67495166D01*
X98612189Y-67414733D02*
X98853489Y-67495166D01*
X99255656Y-67495166D01*
X99416522Y-67414733D01*
X99496956Y-67334300D01*
X99577389Y-67173433D01*
X99577389Y-67012566D01*
X99496956Y-66851700D01*
X99416522Y-66771266D01*
X99255656Y-66690833D01*
X98933922Y-66610400D01*
X98773056Y-66529966D01*
X98692622Y-66449533D01*
X98612189Y-66288666D01*
X98612189Y-66127800D01*
X98692622Y-65966933D01*
X98773056Y-65886500D01*
X98933922Y-65806066D01*
X99336089Y-65806066D01*
X99577389Y-65886500D01*
X100301289Y-66610400D02*
X100864322Y-66610400D01*
X101105622Y-67495166D02*
X100301289Y-67495166D01*
X100301289Y-65806066D01*
X101105622Y-65806066D01*
X102714289Y-67495166D02*
X101749089Y-67495166D01*
X102231689Y-67495166D02*
X102231689Y-65806066D01*
X102070822Y-66047366D01*
X101909956Y-66208233D01*
X101749089Y-66288666D01*
%TD*%
M02*
