%TF.GenerationSoftware,KiCad,Pcbnew,5.1.8-4.fc33*%
%TF.CreationDate,2021-01-04T09:43:00+01:00*%
%TF.ProjectId,obsonet_1,6f62736f-6e65-4745-9f31-2e6b69636164,rev?*%
%TF.SameCoordinates,Original*%
%TF.FileFunction,Soldermask,Top*%
%TF.FilePolarity,Negative*%
%FSLAX46Y46*%
G04 Gerber Fmt 4.6, Leading zero omitted, Abs format (unit mm)*
G04 Created by KiCad (PCBNEW 5.1.8-4.fc33) date 2021-01-04 09:43:00*
%MOMM*%
%LPD*%
G01*
G04 APERTURE LIST*
%ADD10C,2.104800*%
%ADD11C,2.100000*%
%ADD12C,3.300000*%
%ADD13C,1.712800*%
%ADD14O,1.512800X2.720800*%
%ADD15C,1.106400*%
G04 APERTURE END LIST*
%TO.C,C2*%
G36*
G01*
X109956200Y-101693200D02*
X111956200Y-101693200D01*
G75*
G02*
X112108600Y-101845600I0J-152400D01*
G01*
X112108600Y-103345600D01*
G75*
G02*
X111956200Y-103498000I-152400J0D01*
G01*
X109956200Y-103498000D01*
G75*
G02*
X109803800Y-103345600I0J152400D01*
G01*
X109803800Y-101845600D01*
G75*
G02*
X109956200Y-101693200I152400J0D01*
G01*
G37*
G36*
G01*
X109956200Y-98693200D02*
X111956200Y-98693200D01*
G75*
G02*
X112108600Y-98845600I0J-152400D01*
G01*
X112108600Y-100345600D01*
G75*
G02*
X111956200Y-100498000I-152400J0D01*
G01*
X109956200Y-100498000D01*
G75*
G02*
X109803800Y-100345600I0J152400D01*
G01*
X109803800Y-98845600D01*
G75*
G02*
X109956200Y-98693200I152400J0D01*
G01*
G37*
%TD*%
%TO.C,C3*%
G36*
G01*
X135292400Y-109070500D02*
X133292400Y-109070500D01*
G75*
G02*
X133140000Y-108918100I0J152400D01*
G01*
X133140000Y-107418100D01*
G75*
G02*
X133292400Y-107265700I152400J0D01*
G01*
X135292400Y-107265700D01*
G75*
G02*
X135444800Y-107418100I0J-152400D01*
G01*
X135444800Y-108918100D01*
G75*
G02*
X135292400Y-109070500I-152400J0D01*
G01*
G37*
G36*
G01*
X135292400Y-112070500D02*
X133292400Y-112070500D01*
G75*
G02*
X133140000Y-111918100I0J152400D01*
G01*
X133140000Y-110418100D01*
G75*
G02*
X133292400Y-110265700I152400J0D01*
G01*
X135292400Y-110265700D01*
G75*
G02*
X135444800Y-110418100I0J-152400D01*
G01*
X135444800Y-111918100D01*
G75*
G02*
X135292400Y-112070500I-152400J0D01*
G01*
G37*
%TD*%
D10*
%TO.C,C6*%
X111591100Y-121415600D03*
X114131100Y-121415600D03*
%TD*%
%TO.C,R1*%
G36*
G01*
X183511700Y-124380600D02*
X183511700Y-122577600D01*
G75*
G02*
X183664100Y-122425200I152400J0D01*
G01*
X185264100Y-122425200D01*
G75*
G02*
X185416500Y-122577600I0J-152400D01*
G01*
X185416500Y-124380600D01*
G75*
G02*
X185264100Y-124533000I-152400J0D01*
G01*
X183664100Y-124533000D01*
G75*
G02*
X183511700Y-124380600I0J152400D01*
G01*
G37*
G36*
G01*
X186355700Y-124380600D02*
X186355700Y-122577600D01*
G75*
G02*
X186508100Y-122425200I152400J0D01*
G01*
X188108100Y-122425200D01*
G75*
G02*
X188260500Y-122577600I0J-152400D01*
G01*
X188260500Y-124380600D01*
G75*
G02*
X188108100Y-124533000I-152400J0D01*
G01*
X186508100Y-124533000D01*
G75*
G02*
X186355700Y-124380600I0J152400D01*
G01*
G37*
%TD*%
D11*
%TO.C,CON2*%
X195601500Y-74647900D03*
X195601500Y-90395900D03*
D12*
X192553500Y-76806900D03*
X192553500Y-88236900D03*
D13*
X183663500Y-78076900D03*
X186203500Y-79346900D03*
X186203500Y-86966900D03*
X183663500Y-85696900D03*
X186203500Y-84426900D03*
X183663500Y-83156900D03*
X186203500Y-81886900D03*
X183663500Y-80616900D03*
%TD*%
D14*
%TO.C,TF1*%
X173027300Y-88459100D03*
X165407300Y-88459100D03*
X165407300Y-80839100D03*
X173027300Y-80839100D03*
X178107300Y-88459100D03*
X175567300Y-88459100D03*
X162867300Y-88459100D03*
X160327300Y-88459100D03*
X160327300Y-80839100D03*
X162867300Y-80839100D03*
X175567300Y-80839100D03*
X178107300Y-80839100D03*
%TD*%
D13*
%TO.C,C7*%
X175313500Y-77187800D03*
X170233500Y-77187800D03*
%TD*%
%TO.C,C8*%
X162867400Y-77187800D03*
X167947400Y-77187800D03*
%TD*%
%TO.C,C9*%
X167947400Y-92078600D03*
X162867400Y-92078600D03*
%TD*%
%TO.C,C10*%
X170487300Y-92078600D03*
X175567300Y-92078600D03*
%TD*%
%TO.C,IC6*%
G36*
G01*
X178273500Y-118068100D02*
X178273500Y-120318100D01*
G75*
G02*
X178121100Y-120470500I-152400J0D01*
G01*
X175871100Y-120470500D01*
G75*
G02*
X175718700Y-120318100I0J152400D01*
G01*
X175718700Y-118068100D01*
G75*
G02*
X175871100Y-117915700I152400J0D01*
G01*
X178121100Y-117915700D01*
G75*
G02*
X178273500Y-118068100I0J-152400D01*
G01*
G37*
G36*
G01*
X178273500Y-115528100D02*
X178273500Y-117778100D01*
G75*
G02*
X178121100Y-117930500I-152400J0D01*
G01*
X175871100Y-117930500D01*
G75*
G02*
X175718700Y-117778100I0J152400D01*
G01*
X175718700Y-115528100D01*
G75*
G02*
X175871100Y-115375700I152400J0D01*
G01*
X178121100Y-115375700D01*
G75*
G02*
X178273500Y-115528100I0J-152400D01*
G01*
G37*
G36*
G01*
X178273500Y-112988100D02*
X178273500Y-115238100D01*
G75*
G02*
X178121100Y-115390500I-152400J0D01*
G01*
X175871100Y-115390500D01*
G75*
G02*
X175718700Y-115238100I0J152400D01*
G01*
X175718700Y-112988100D01*
G75*
G02*
X175871100Y-112835700I152400J0D01*
G01*
X178121100Y-112835700D01*
G75*
G02*
X178273500Y-112988100I0J-152400D01*
G01*
G37*
G36*
G01*
X178273500Y-110448100D02*
X178273500Y-112698100D01*
G75*
G02*
X178121100Y-112850500I-152400J0D01*
G01*
X175871100Y-112850500D01*
G75*
G02*
X175718700Y-112698100I0J152400D01*
G01*
X175718700Y-110448100D01*
G75*
G02*
X175871100Y-110295700I152400J0D01*
G01*
X178121100Y-110295700D01*
G75*
G02*
X178273500Y-110448100I0J-152400D01*
G01*
G37*
G36*
G01*
X178273500Y-107908100D02*
X178273500Y-110158100D01*
G75*
G02*
X178121100Y-110310500I-152400J0D01*
G01*
X175871100Y-110310500D01*
G75*
G02*
X175718700Y-110158100I0J152400D01*
G01*
X175718700Y-107908100D01*
G75*
G02*
X175871100Y-107755700I152400J0D01*
G01*
X178121100Y-107755700D01*
G75*
G02*
X178273500Y-107908100I0J-152400D01*
G01*
G37*
G36*
G01*
X178273500Y-105368100D02*
X178273500Y-107618100D01*
G75*
G02*
X178121100Y-107770500I-152400J0D01*
G01*
X175871100Y-107770500D01*
G75*
G02*
X175718700Y-107618100I0J152400D01*
G01*
X175718700Y-105368100D01*
G75*
G02*
X175871100Y-105215700I152400J0D01*
G01*
X178121100Y-105215700D01*
G75*
G02*
X178273500Y-105368100I0J-152400D01*
G01*
G37*
G36*
G01*
X178273500Y-102828100D02*
X178273500Y-105078100D01*
G75*
G02*
X178121100Y-105230500I-152400J0D01*
G01*
X175871100Y-105230500D01*
G75*
G02*
X175718700Y-105078100I0J152400D01*
G01*
X175718700Y-102828100D01*
G75*
G02*
X175871100Y-102675700I152400J0D01*
G01*
X178121100Y-102675700D01*
G75*
G02*
X178273500Y-102828100I0J-152400D01*
G01*
G37*
G36*
G01*
X178273500Y-100288100D02*
X178273500Y-102538100D01*
G75*
G02*
X178121100Y-102690500I-152400J0D01*
G01*
X175871100Y-102690500D01*
G75*
G02*
X175718700Y-102538100I0J152400D01*
G01*
X175718700Y-100288100D01*
G75*
G02*
X175871100Y-100135700I152400J0D01*
G01*
X178121100Y-100135700D01*
G75*
G02*
X178273500Y-100288100I0J-152400D01*
G01*
G37*
G36*
G01*
X178273500Y-97748100D02*
X178273500Y-99998100D01*
G75*
G02*
X178121100Y-100150500I-152400J0D01*
G01*
X175871100Y-100150500D01*
G75*
G02*
X175718700Y-99998100I0J152400D01*
G01*
X175718700Y-97748100D01*
G75*
G02*
X175871100Y-97595700I152400J0D01*
G01*
X178121100Y-97595700D01*
G75*
G02*
X178273500Y-97748100I0J-152400D01*
G01*
G37*
G36*
G01*
X178273500Y-95208100D02*
X178273500Y-97458100D01*
G75*
G02*
X178121100Y-97610500I-152400J0D01*
G01*
X175871100Y-97610500D01*
G75*
G02*
X175718700Y-97458100I0J152400D01*
G01*
X175718700Y-95208100D01*
G75*
G02*
X175871100Y-95055700I152400J0D01*
G01*
X178121100Y-95055700D01*
G75*
G02*
X178273500Y-95208100I0J-152400D01*
G01*
G37*
G36*
G01*
X185893500Y-95208100D02*
X185893500Y-97458100D01*
G75*
G02*
X185741100Y-97610500I-152400J0D01*
G01*
X183491100Y-97610500D01*
G75*
G02*
X183338700Y-97458100I0J152400D01*
G01*
X183338700Y-95208100D01*
G75*
G02*
X183491100Y-95055700I152400J0D01*
G01*
X185741100Y-95055700D01*
G75*
G02*
X185893500Y-95208100I0J-152400D01*
G01*
G37*
G36*
G01*
X185893500Y-97748100D02*
X185893500Y-99998100D01*
G75*
G02*
X185741100Y-100150500I-152400J0D01*
G01*
X183491100Y-100150500D01*
G75*
G02*
X183338700Y-99998100I0J152400D01*
G01*
X183338700Y-97748100D01*
G75*
G02*
X183491100Y-97595700I152400J0D01*
G01*
X185741100Y-97595700D01*
G75*
G02*
X185893500Y-97748100I0J-152400D01*
G01*
G37*
G36*
G01*
X185893500Y-107908100D02*
X185893500Y-110158100D01*
G75*
G02*
X185741100Y-110310500I-152400J0D01*
G01*
X183491100Y-110310500D01*
G75*
G02*
X183338700Y-110158100I0J152400D01*
G01*
X183338700Y-107908100D01*
G75*
G02*
X183491100Y-107755700I152400J0D01*
G01*
X185741100Y-107755700D01*
G75*
G02*
X185893500Y-107908100I0J-152400D01*
G01*
G37*
G36*
G01*
X185893500Y-105368100D02*
X185893500Y-107618100D01*
G75*
G02*
X185741100Y-107770500I-152400J0D01*
G01*
X183491100Y-107770500D01*
G75*
G02*
X183338700Y-107618100I0J152400D01*
G01*
X183338700Y-105368100D01*
G75*
G02*
X183491100Y-105215700I152400J0D01*
G01*
X185741100Y-105215700D01*
G75*
G02*
X185893500Y-105368100I0J-152400D01*
G01*
G37*
G36*
G01*
X185893500Y-110448100D02*
X185893500Y-112698100D01*
G75*
G02*
X185741100Y-112850500I-152400J0D01*
G01*
X183491100Y-112850500D01*
G75*
G02*
X183338700Y-112698100I0J152400D01*
G01*
X183338700Y-110448100D01*
G75*
G02*
X183491100Y-110295700I152400J0D01*
G01*
X185741100Y-110295700D01*
G75*
G02*
X185893500Y-110448100I0J-152400D01*
G01*
G37*
G36*
G01*
X185893500Y-112988100D02*
X185893500Y-115238100D01*
G75*
G02*
X185741100Y-115390500I-152400J0D01*
G01*
X183491100Y-115390500D01*
G75*
G02*
X183338700Y-115238100I0J152400D01*
G01*
X183338700Y-112988100D01*
G75*
G02*
X183491100Y-112835700I152400J0D01*
G01*
X185741100Y-112835700D01*
G75*
G02*
X185893500Y-112988100I0J-152400D01*
G01*
G37*
G36*
G01*
X185893500Y-100288100D02*
X185893500Y-102538100D01*
G75*
G02*
X185741100Y-102690500I-152400J0D01*
G01*
X183491100Y-102690500D01*
G75*
G02*
X183338700Y-102538100I0J152400D01*
G01*
X183338700Y-100288100D01*
G75*
G02*
X183491100Y-100135700I152400J0D01*
G01*
X185741100Y-100135700D01*
G75*
G02*
X185893500Y-100288100I0J-152400D01*
G01*
G37*
G36*
G01*
X185893500Y-102828100D02*
X185893500Y-105078100D01*
G75*
G02*
X185741100Y-105230500I-152400J0D01*
G01*
X183491100Y-105230500D01*
G75*
G02*
X183338700Y-105078100I0J152400D01*
G01*
X183338700Y-102828100D01*
G75*
G02*
X183491100Y-102675700I152400J0D01*
G01*
X185741100Y-102675700D01*
G75*
G02*
X185893500Y-102828100I0J-152400D01*
G01*
G37*
G36*
G01*
X185893500Y-115528100D02*
X185893500Y-117778100D01*
G75*
G02*
X185741100Y-117930500I-152400J0D01*
G01*
X183491100Y-117930500D01*
G75*
G02*
X183338700Y-117778100I0J152400D01*
G01*
X183338700Y-115528100D01*
G75*
G02*
X183491100Y-115375700I152400J0D01*
G01*
X185741100Y-115375700D01*
G75*
G02*
X185893500Y-115528100I0J-152400D01*
G01*
G37*
G36*
G01*
X185893500Y-118068100D02*
X185893500Y-120318100D01*
G75*
G02*
X185741100Y-120470500I-152400J0D01*
G01*
X183491100Y-120470500D01*
G75*
G02*
X183338700Y-120318100I0J152400D01*
G01*
X183338700Y-118068100D01*
G75*
G02*
X183491100Y-117915700I152400J0D01*
G01*
X185741100Y-117915700D01*
G75*
G02*
X185893500Y-118068100I0J-152400D01*
G01*
G37*
%TD*%
%TO.C,LED1*%
X108257500Y-77029200D03*
X105717500Y-77029200D03*
%TD*%
%TO.C,LED2*%
X111591100Y-77029100D03*
X114131100Y-77029100D03*
%TD*%
%TO.C,IC1*%
G36*
G01*
X144904800Y-103525600D02*
X144904800Y-105725600D01*
G75*
G02*
X144752400Y-105878000I-152400J0D01*
G01*
X144152400Y-105878000D01*
G75*
G02*
X144000000Y-105725600I0J152400D01*
G01*
X144000000Y-103525600D01*
G75*
G02*
X144152400Y-103373200I152400J0D01*
G01*
X144752400Y-103373200D01*
G75*
G02*
X144904800Y-103525600I0J-152400D01*
G01*
G37*
G36*
G01*
X143634800Y-103525600D02*
X143634800Y-105725600D01*
G75*
G02*
X143482400Y-105878000I-152400J0D01*
G01*
X142882400Y-105878000D01*
G75*
G02*
X142730000Y-105725600I0J152400D01*
G01*
X142730000Y-103525600D01*
G75*
G02*
X142882400Y-103373200I152400J0D01*
G01*
X143482400Y-103373200D01*
G75*
G02*
X143634800Y-103525600I0J-152400D01*
G01*
G37*
G36*
G01*
X142364800Y-103525600D02*
X142364800Y-105725600D01*
G75*
G02*
X142212400Y-105878000I-152400J0D01*
G01*
X141612400Y-105878000D01*
G75*
G02*
X141460000Y-105725600I0J152400D01*
G01*
X141460000Y-103525600D01*
G75*
G02*
X141612400Y-103373200I152400J0D01*
G01*
X142212400Y-103373200D01*
G75*
G02*
X142364800Y-103525600I0J-152400D01*
G01*
G37*
G36*
G01*
X141094800Y-103525600D02*
X141094800Y-105725600D01*
G75*
G02*
X140942400Y-105878000I-152400J0D01*
G01*
X140342400Y-105878000D01*
G75*
G02*
X140190000Y-105725600I0J152400D01*
G01*
X140190000Y-103525600D01*
G75*
G02*
X140342400Y-103373200I152400J0D01*
G01*
X140942400Y-103373200D01*
G75*
G02*
X141094800Y-103525600I0J-152400D01*
G01*
G37*
G36*
G01*
X139824800Y-103525600D02*
X139824800Y-105725600D01*
G75*
G02*
X139672400Y-105878000I-152400J0D01*
G01*
X139072400Y-105878000D01*
G75*
G02*
X138920000Y-105725600I0J152400D01*
G01*
X138920000Y-103525600D01*
G75*
G02*
X139072400Y-103373200I152400J0D01*
G01*
X139672400Y-103373200D01*
G75*
G02*
X139824800Y-103525600I0J-152400D01*
G01*
G37*
G36*
G01*
X138554800Y-103525600D02*
X138554800Y-105725600D01*
G75*
G02*
X138402400Y-105878000I-152400J0D01*
G01*
X137802400Y-105878000D01*
G75*
G02*
X137650000Y-105725600I0J152400D01*
G01*
X137650000Y-103525600D01*
G75*
G02*
X137802400Y-103373200I152400J0D01*
G01*
X138402400Y-103373200D01*
G75*
G02*
X138554800Y-103525600I0J-152400D01*
G01*
G37*
G36*
G01*
X137284800Y-103525600D02*
X137284800Y-105725600D01*
G75*
G02*
X137132400Y-105878000I-152400J0D01*
G01*
X136532400Y-105878000D01*
G75*
G02*
X136380000Y-105725600I0J152400D01*
G01*
X136380000Y-103525600D01*
G75*
G02*
X136532400Y-103373200I152400J0D01*
G01*
X137132400Y-103373200D01*
G75*
G02*
X137284800Y-103525600I0J-152400D01*
G01*
G37*
G36*
G01*
X136014800Y-103525600D02*
X136014800Y-105725600D01*
G75*
G02*
X135862400Y-105878000I-152400J0D01*
G01*
X135262400Y-105878000D01*
G75*
G02*
X135110000Y-105725600I0J152400D01*
G01*
X135110000Y-103525600D01*
G75*
G02*
X135262400Y-103373200I152400J0D01*
G01*
X135862400Y-103373200D01*
G75*
G02*
X136014800Y-103525600I0J-152400D01*
G01*
G37*
G36*
G01*
X134744800Y-103525600D02*
X134744800Y-105725600D01*
G75*
G02*
X134592400Y-105878000I-152400J0D01*
G01*
X133992400Y-105878000D01*
G75*
G02*
X133840000Y-105725600I0J152400D01*
G01*
X133840000Y-103525600D01*
G75*
G02*
X133992400Y-103373200I152400J0D01*
G01*
X134592400Y-103373200D01*
G75*
G02*
X134744800Y-103525600I0J-152400D01*
G01*
G37*
G36*
G01*
X133474800Y-103525600D02*
X133474800Y-105725600D01*
G75*
G02*
X133322400Y-105878000I-152400J0D01*
G01*
X132722400Y-105878000D01*
G75*
G02*
X132570000Y-105725600I0J152400D01*
G01*
X132570000Y-103525600D01*
G75*
G02*
X132722400Y-103373200I152400J0D01*
G01*
X133322400Y-103373200D01*
G75*
G02*
X133474800Y-103525600I0J-152400D01*
G01*
G37*
G36*
G01*
X132204800Y-103525600D02*
X132204800Y-105725600D01*
G75*
G02*
X132052400Y-105878000I-152400J0D01*
G01*
X131452400Y-105878000D01*
G75*
G02*
X131300000Y-105725600I0J152400D01*
G01*
X131300000Y-103525600D01*
G75*
G02*
X131452400Y-103373200I152400J0D01*
G01*
X132052400Y-103373200D01*
G75*
G02*
X132204800Y-103525600I0J-152400D01*
G01*
G37*
G36*
G01*
X130934800Y-103525600D02*
X130934800Y-105725600D01*
G75*
G02*
X130782400Y-105878000I-152400J0D01*
G01*
X130182400Y-105878000D01*
G75*
G02*
X130030000Y-105725600I0J152400D01*
G01*
X130030000Y-103525600D01*
G75*
G02*
X130182400Y-103373200I152400J0D01*
G01*
X130782400Y-103373200D01*
G75*
G02*
X130934800Y-103525600I0J-152400D01*
G01*
G37*
G36*
G01*
X129664800Y-103525600D02*
X129664800Y-105725600D01*
G75*
G02*
X129512400Y-105878000I-152400J0D01*
G01*
X128912400Y-105878000D01*
G75*
G02*
X128760000Y-105725600I0J152400D01*
G01*
X128760000Y-103525600D01*
G75*
G02*
X128912400Y-103373200I152400J0D01*
G01*
X129512400Y-103373200D01*
G75*
G02*
X129664800Y-103525600I0J-152400D01*
G01*
G37*
G36*
G01*
X128394800Y-103525600D02*
X128394800Y-105725600D01*
G75*
G02*
X128242400Y-105878000I-152400J0D01*
G01*
X127642400Y-105878000D01*
G75*
G02*
X127490000Y-105725600I0J152400D01*
G01*
X127490000Y-103525600D01*
G75*
G02*
X127642400Y-103373200I152400J0D01*
G01*
X128242400Y-103373200D01*
G75*
G02*
X128394800Y-103525600I0J-152400D01*
G01*
G37*
G36*
G01*
X127124800Y-103525600D02*
X127124800Y-105725600D01*
G75*
G02*
X126972400Y-105878000I-152400J0D01*
G01*
X126372400Y-105878000D01*
G75*
G02*
X126220000Y-105725600I0J152400D01*
G01*
X126220000Y-103525600D01*
G75*
G02*
X126372400Y-103373200I152400J0D01*
G01*
X126972400Y-103373200D01*
G75*
G02*
X127124800Y-103525600I0J-152400D01*
G01*
G37*
G36*
G01*
X125854800Y-103525600D02*
X125854800Y-105725600D01*
G75*
G02*
X125702400Y-105878000I-152400J0D01*
G01*
X125102400Y-105878000D01*
G75*
G02*
X124950000Y-105725600I0J152400D01*
G01*
X124950000Y-103525600D01*
G75*
G02*
X125102400Y-103373200I152400J0D01*
G01*
X125702400Y-103373200D01*
G75*
G02*
X125854800Y-103525600I0J-152400D01*
G01*
G37*
G36*
G01*
X124584800Y-103525600D02*
X124584800Y-105725600D01*
G75*
G02*
X124432400Y-105878000I-152400J0D01*
G01*
X123832400Y-105878000D01*
G75*
G02*
X123680000Y-105725600I0J152400D01*
G01*
X123680000Y-103525600D01*
G75*
G02*
X123832400Y-103373200I152400J0D01*
G01*
X124432400Y-103373200D01*
G75*
G02*
X124584800Y-103525600I0J-152400D01*
G01*
G37*
G36*
G01*
X123314800Y-103525600D02*
X123314800Y-105725600D01*
G75*
G02*
X123162400Y-105878000I-152400J0D01*
G01*
X122562400Y-105878000D01*
G75*
G02*
X122410000Y-105725600I0J152400D01*
G01*
X122410000Y-103525600D01*
G75*
G02*
X122562400Y-103373200I152400J0D01*
G01*
X123162400Y-103373200D01*
G75*
G02*
X123314800Y-103525600I0J-152400D01*
G01*
G37*
G36*
G01*
X122044800Y-103525600D02*
X122044800Y-105725600D01*
G75*
G02*
X121892400Y-105878000I-152400J0D01*
G01*
X121292400Y-105878000D01*
G75*
G02*
X121140000Y-105725600I0J152400D01*
G01*
X121140000Y-103525600D01*
G75*
G02*
X121292400Y-103373200I152400J0D01*
G01*
X121892400Y-103373200D01*
G75*
G02*
X122044800Y-103525600I0J-152400D01*
G01*
G37*
G36*
G01*
X120774800Y-103525600D02*
X120774800Y-105725600D01*
G75*
G02*
X120622400Y-105878000I-152400J0D01*
G01*
X120022400Y-105878000D01*
G75*
G02*
X119870000Y-105725600I0J152400D01*
G01*
X119870000Y-103525600D01*
G75*
G02*
X120022400Y-103373200I152400J0D01*
G01*
X120622400Y-103373200D01*
G75*
G02*
X120774800Y-103525600I0J-152400D01*
G01*
G37*
G36*
G01*
X119504800Y-103525600D02*
X119504800Y-105725600D01*
G75*
G02*
X119352400Y-105878000I-152400J0D01*
G01*
X118752400Y-105878000D01*
G75*
G02*
X118600000Y-105725600I0J152400D01*
G01*
X118600000Y-103525600D01*
G75*
G02*
X118752400Y-103373200I152400J0D01*
G01*
X119352400Y-103373200D01*
G75*
G02*
X119504800Y-103525600I0J-152400D01*
G01*
G37*
G36*
G01*
X118234800Y-103525600D02*
X118234800Y-105725600D01*
G75*
G02*
X118082400Y-105878000I-152400J0D01*
G01*
X117482400Y-105878000D01*
G75*
G02*
X117330000Y-105725600I0J152400D01*
G01*
X117330000Y-103525600D01*
G75*
G02*
X117482400Y-103373200I152400J0D01*
G01*
X118082400Y-103373200D01*
G75*
G02*
X118234800Y-103525600I0J-152400D01*
G01*
G37*
G36*
G01*
X118234800Y-88845600D02*
X118234800Y-91045600D01*
G75*
G02*
X118082400Y-91198000I-152400J0D01*
G01*
X117482400Y-91198000D01*
G75*
G02*
X117330000Y-91045600I0J152400D01*
G01*
X117330000Y-88845600D01*
G75*
G02*
X117482400Y-88693200I152400J0D01*
G01*
X118082400Y-88693200D01*
G75*
G02*
X118234800Y-88845600I0J-152400D01*
G01*
G37*
G36*
G01*
X119504800Y-88845600D02*
X119504800Y-91045600D01*
G75*
G02*
X119352400Y-91198000I-152400J0D01*
G01*
X118752400Y-91198000D01*
G75*
G02*
X118600000Y-91045600I0J152400D01*
G01*
X118600000Y-88845600D01*
G75*
G02*
X118752400Y-88693200I152400J0D01*
G01*
X119352400Y-88693200D01*
G75*
G02*
X119504800Y-88845600I0J-152400D01*
G01*
G37*
G36*
G01*
X120774800Y-88845600D02*
X120774800Y-91045600D01*
G75*
G02*
X120622400Y-91198000I-152400J0D01*
G01*
X120022400Y-91198000D01*
G75*
G02*
X119870000Y-91045600I0J152400D01*
G01*
X119870000Y-88845600D01*
G75*
G02*
X120022400Y-88693200I152400J0D01*
G01*
X120622400Y-88693200D01*
G75*
G02*
X120774800Y-88845600I0J-152400D01*
G01*
G37*
G36*
G01*
X122044800Y-88845600D02*
X122044800Y-91045600D01*
G75*
G02*
X121892400Y-91198000I-152400J0D01*
G01*
X121292400Y-91198000D01*
G75*
G02*
X121140000Y-91045600I0J152400D01*
G01*
X121140000Y-88845600D01*
G75*
G02*
X121292400Y-88693200I152400J0D01*
G01*
X121892400Y-88693200D01*
G75*
G02*
X122044800Y-88845600I0J-152400D01*
G01*
G37*
G36*
G01*
X123314800Y-88845600D02*
X123314800Y-91045600D01*
G75*
G02*
X123162400Y-91198000I-152400J0D01*
G01*
X122562400Y-91198000D01*
G75*
G02*
X122410000Y-91045600I0J152400D01*
G01*
X122410000Y-88845600D01*
G75*
G02*
X122562400Y-88693200I152400J0D01*
G01*
X123162400Y-88693200D01*
G75*
G02*
X123314800Y-88845600I0J-152400D01*
G01*
G37*
G36*
G01*
X124584800Y-88845600D02*
X124584800Y-91045600D01*
G75*
G02*
X124432400Y-91198000I-152400J0D01*
G01*
X123832400Y-91198000D01*
G75*
G02*
X123680000Y-91045600I0J152400D01*
G01*
X123680000Y-88845600D01*
G75*
G02*
X123832400Y-88693200I152400J0D01*
G01*
X124432400Y-88693200D01*
G75*
G02*
X124584800Y-88845600I0J-152400D01*
G01*
G37*
G36*
G01*
X125854800Y-88845600D02*
X125854800Y-91045600D01*
G75*
G02*
X125702400Y-91198000I-152400J0D01*
G01*
X125102400Y-91198000D01*
G75*
G02*
X124950000Y-91045600I0J152400D01*
G01*
X124950000Y-88845600D01*
G75*
G02*
X125102400Y-88693200I152400J0D01*
G01*
X125702400Y-88693200D01*
G75*
G02*
X125854800Y-88845600I0J-152400D01*
G01*
G37*
G36*
G01*
X127124800Y-88845600D02*
X127124800Y-91045600D01*
G75*
G02*
X126972400Y-91198000I-152400J0D01*
G01*
X126372400Y-91198000D01*
G75*
G02*
X126220000Y-91045600I0J152400D01*
G01*
X126220000Y-88845600D01*
G75*
G02*
X126372400Y-88693200I152400J0D01*
G01*
X126972400Y-88693200D01*
G75*
G02*
X127124800Y-88845600I0J-152400D01*
G01*
G37*
G36*
G01*
X136014800Y-88845600D02*
X136014800Y-91045600D01*
G75*
G02*
X135862400Y-91198000I-152400J0D01*
G01*
X135262400Y-91198000D01*
G75*
G02*
X135110000Y-91045600I0J152400D01*
G01*
X135110000Y-88845600D01*
G75*
G02*
X135262400Y-88693200I152400J0D01*
G01*
X135862400Y-88693200D01*
G75*
G02*
X136014800Y-88845600I0J-152400D01*
G01*
G37*
G36*
G01*
X133474800Y-88845600D02*
X133474800Y-91045600D01*
G75*
G02*
X133322400Y-91198000I-152400J0D01*
G01*
X132722400Y-91198000D01*
G75*
G02*
X132570000Y-91045600I0J152400D01*
G01*
X132570000Y-88845600D01*
G75*
G02*
X132722400Y-88693200I152400J0D01*
G01*
X133322400Y-88693200D01*
G75*
G02*
X133474800Y-88845600I0J-152400D01*
G01*
G37*
G36*
G01*
X137284800Y-88845600D02*
X137284800Y-91045600D01*
G75*
G02*
X137132400Y-91198000I-152400J0D01*
G01*
X136532400Y-91198000D01*
G75*
G02*
X136380000Y-91045600I0J152400D01*
G01*
X136380000Y-88845600D01*
G75*
G02*
X136532400Y-88693200I152400J0D01*
G01*
X137132400Y-88693200D01*
G75*
G02*
X137284800Y-88845600I0J-152400D01*
G01*
G37*
G36*
G01*
X139824800Y-88845600D02*
X139824800Y-91045600D01*
G75*
G02*
X139672400Y-91198000I-152400J0D01*
G01*
X139072400Y-91198000D01*
G75*
G02*
X138920000Y-91045600I0J152400D01*
G01*
X138920000Y-88845600D01*
G75*
G02*
X139072400Y-88693200I152400J0D01*
G01*
X139672400Y-88693200D01*
G75*
G02*
X139824800Y-88845600I0J-152400D01*
G01*
G37*
G36*
G01*
X134744800Y-88845600D02*
X134744800Y-91045600D01*
G75*
G02*
X134592400Y-91198000I-152400J0D01*
G01*
X133992400Y-91198000D01*
G75*
G02*
X133840000Y-91045600I0J152400D01*
G01*
X133840000Y-88845600D01*
G75*
G02*
X133992400Y-88693200I152400J0D01*
G01*
X134592400Y-88693200D01*
G75*
G02*
X134744800Y-88845600I0J-152400D01*
G01*
G37*
G36*
G01*
X138554800Y-88845600D02*
X138554800Y-91045600D01*
G75*
G02*
X138402400Y-91198000I-152400J0D01*
G01*
X137802400Y-91198000D01*
G75*
G02*
X137650000Y-91045600I0J152400D01*
G01*
X137650000Y-88845600D01*
G75*
G02*
X137802400Y-88693200I152400J0D01*
G01*
X138402400Y-88693200D01*
G75*
G02*
X138554800Y-88845600I0J-152400D01*
G01*
G37*
G36*
G01*
X132204800Y-88845600D02*
X132204800Y-91045600D01*
G75*
G02*
X132052400Y-91198000I-152400J0D01*
G01*
X131452400Y-91198000D01*
G75*
G02*
X131300000Y-91045600I0J152400D01*
G01*
X131300000Y-88845600D01*
G75*
G02*
X131452400Y-88693200I152400J0D01*
G01*
X132052400Y-88693200D01*
G75*
G02*
X132204800Y-88845600I0J-152400D01*
G01*
G37*
G36*
G01*
X130934800Y-88845600D02*
X130934800Y-91045600D01*
G75*
G02*
X130782400Y-91198000I-152400J0D01*
G01*
X130182400Y-91198000D01*
G75*
G02*
X130030000Y-91045600I0J152400D01*
G01*
X130030000Y-88845600D01*
G75*
G02*
X130182400Y-88693200I152400J0D01*
G01*
X130782400Y-88693200D01*
G75*
G02*
X130934800Y-88845600I0J-152400D01*
G01*
G37*
G36*
G01*
X128394800Y-88845600D02*
X128394800Y-91045600D01*
G75*
G02*
X128242400Y-91198000I-152400J0D01*
G01*
X127642400Y-91198000D01*
G75*
G02*
X127490000Y-91045600I0J152400D01*
G01*
X127490000Y-88845600D01*
G75*
G02*
X127642400Y-88693200I152400J0D01*
G01*
X128242400Y-88693200D01*
G75*
G02*
X128394800Y-88845600I0J-152400D01*
G01*
G37*
G36*
G01*
X141094800Y-88845600D02*
X141094800Y-91045600D01*
G75*
G02*
X140942400Y-91198000I-152400J0D01*
G01*
X140342400Y-91198000D01*
G75*
G02*
X140190000Y-91045600I0J152400D01*
G01*
X140190000Y-88845600D01*
G75*
G02*
X140342400Y-88693200I152400J0D01*
G01*
X140942400Y-88693200D01*
G75*
G02*
X141094800Y-88845600I0J-152400D01*
G01*
G37*
G36*
G01*
X142364800Y-88845600D02*
X142364800Y-91045600D01*
G75*
G02*
X142212400Y-91198000I-152400J0D01*
G01*
X141612400Y-91198000D01*
G75*
G02*
X141460000Y-91045600I0J152400D01*
G01*
X141460000Y-88845600D01*
G75*
G02*
X141612400Y-88693200I152400J0D01*
G01*
X142212400Y-88693200D01*
G75*
G02*
X142364800Y-88845600I0J-152400D01*
G01*
G37*
G36*
G01*
X144904800Y-88845600D02*
X144904800Y-91045600D01*
G75*
G02*
X144752400Y-91198000I-152400J0D01*
G01*
X144152400Y-91198000D01*
G75*
G02*
X144000000Y-91045600I0J152400D01*
G01*
X144000000Y-88845600D01*
G75*
G02*
X144152400Y-88693200I152400J0D01*
G01*
X144752400Y-88693200D01*
G75*
G02*
X144904800Y-88845600I0J-152400D01*
G01*
G37*
G36*
G01*
X129664800Y-88845600D02*
X129664800Y-91045600D01*
G75*
G02*
X129512400Y-91198000I-152400J0D01*
G01*
X128912400Y-91198000D01*
G75*
G02*
X128760000Y-91045600I0J152400D01*
G01*
X128760000Y-88845600D01*
G75*
G02*
X128912400Y-88693200I152400J0D01*
G01*
X129512400Y-88693200D01*
G75*
G02*
X129664800Y-88845600I0J-152400D01*
G01*
G37*
G36*
G01*
X143634800Y-88845600D02*
X143634800Y-91045600D01*
G75*
G02*
X143482400Y-91198000I-152400J0D01*
G01*
X142882400Y-91198000D01*
G75*
G02*
X142730000Y-91045600I0J152400D01*
G01*
X142730000Y-88845600D01*
G75*
G02*
X142882400Y-88693200I152400J0D01*
G01*
X143482400Y-88693200D01*
G75*
G02*
X143634800Y-88845600I0J-152400D01*
G01*
G37*
%TD*%
D12*
%TO.C,CON1*%
X194501100Y-107003600D03*
X102501100Y-107003600D03*
G36*
G01*
X122119400Y-135936400D02*
X122119400Y-127808400D01*
G75*
G02*
X122271800Y-127656000I152400J0D01*
G01*
X123770400Y-127656000D01*
G75*
G02*
X123922800Y-127808400I0J-152400D01*
G01*
X123922800Y-135936400D01*
G75*
G02*
X123770400Y-136088800I-152400J0D01*
G01*
X122271800Y-136088800D01*
G75*
G02*
X122119400Y-135936400I0J152400D01*
G01*
G37*
G36*
G01*
X124659400Y-135936400D02*
X124659400Y-127808400D01*
G75*
G02*
X124811800Y-127656000I152400J0D01*
G01*
X126310400Y-127656000D01*
G75*
G02*
X126462800Y-127808400I0J-152400D01*
G01*
X126462800Y-135936400D01*
G75*
G02*
X126310400Y-136088800I-152400J0D01*
G01*
X124811800Y-136088800D01*
G75*
G02*
X124659400Y-135936400I0J152400D01*
G01*
G37*
G36*
G01*
X127199400Y-135936400D02*
X127199400Y-127808400D01*
G75*
G02*
X127351800Y-127656000I152400J0D01*
G01*
X128850400Y-127656000D01*
G75*
G02*
X129002800Y-127808400I0J-152400D01*
G01*
X129002800Y-135936400D01*
G75*
G02*
X128850400Y-136088800I-152400J0D01*
G01*
X127351800Y-136088800D01*
G75*
G02*
X127199400Y-135936400I0J152400D01*
G01*
G37*
G36*
G01*
X129739400Y-134941100D02*
X129739400Y-127803700D01*
G75*
G02*
X129891800Y-127651300I152400J0D01*
G01*
X131390400Y-127651300D01*
G75*
G02*
X131542800Y-127803700I0J-152400D01*
G01*
X131542800Y-134941100D01*
G75*
G02*
X131390400Y-135093500I-152400J0D01*
G01*
X129891800Y-135093500D01*
G75*
G02*
X129739400Y-134941100I0J152400D01*
G01*
G37*
G36*
G01*
X132279400Y-135936400D02*
X132279400Y-127808400D01*
G75*
G02*
X132431800Y-127656000I152400J0D01*
G01*
X133930400Y-127656000D01*
G75*
G02*
X134082800Y-127808400I0J-152400D01*
G01*
X134082800Y-135936400D01*
G75*
G02*
X133930400Y-136088800I-152400J0D01*
G01*
X132431800Y-136088800D01*
G75*
G02*
X132279400Y-135936400I0J152400D01*
G01*
G37*
G36*
G01*
X134819400Y-135936400D02*
X134819400Y-127808400D01*
G75*
G02*
X134971800Y-127656000I152400J0D01*
G01*
X136470400Y-127656000D01*
G75*
G02*
X136622800Y-127808400I0J-152400D01*
G01*
X136622800Y-135936400D01*
G75*
G02*
X136470400Y-136088800I-152400J0D01*
G01*
X134971800Y-136088800D01*
G75*
G02*
X134819400Y-135936400I0J152400D01*
G01*
G37*
G36*
G01*
X137359400Y-135936400D02*
X137359400Y-127808400D01*
G75*
G02*
X137511800Y-127656000I152400J0D01*
G01*
X139010400Y-127656000D01*
G75*
G02*
X139162800Y-127808400I0J-152400D01*
G01*
X139162800Y-135936400D01*
G75*
G02*
X139010400Y-136088800I-152400J0D01*
G01*
X137511800Y-136088800D01*
G75*
G02*
X137359400Y-135936400I0J152400D01*
G01*
G37*
G36*
G01*
X139899400Y-135936400D02*
X139899400Y-127808400D01*
G75*
G02*
X140051800Y-127656000I152400J0D01*
G01*
X141550400Y-127656000D01*
G75*
G02*
X141702800Y-127808400I0J-152400D01*
G01*
X141702800Y-135936400D01*
G75*
G02*
X141550400Y-136088800I-152400J0D01*
G01*
X140051800Y-136088800D01*
G75*
G02*
X139899400Y-135936400I0J152400D01*
G01*
G37*
G36*
G01*
X142439400Y-135936400D02*
X142439400Y-127808400D01*
G75*
G02*
X142591800Y-127656000I152400J0D01*
G01*
X144090400Y-127656000D01*
G75*
G02*
X144242800Y-127808400I0J-152400D01*
G01*
X144242800Y-135936400D01*
G75*
G02*
X144090400Y-136088800I-152400J0D01*
G01*
X142591800Y-136088800D01*
G75*
G02*
X142439400Y-135936400I0J152400D01*
G01*
G37*
G36*
G01*
X144979400Y-135936400D02*
X144979400Y-127808400D01*
G75*
G02*
X145131800Y-127656000I152400J0D01*
G01*
X146630400Y-127656000D01*
G75*
G02*
X146782800Y-127808400I0J-152400D01*
G01*
X146782800Y-135936400D01*
G75*
G02*
X146630400Y-136088800I-152400J0D01*
G01*
X145131800Y-136088800D01*
G75*
G02*
X144979400Y-135936400I0J152400D01*
G01*
G37*
G36*
G01*
X147519400Y-135936400D02*
X147519400Y-127808400D01*
G75*
G02*
X147671800Y-127656000I152400J0D01*
G01*
X149170400Y-127656000D01*
G75*
G02*
X149322800Y-127808400I0J-152400D01*
G01*
X149322800Y-135936400D01*
G75*
G02*
X149170400Y-136088800I-152400J0D01*
G01*
X147671800Y-136088800D01*
G75*
G02*
X147519400Y-135936400I0J152400D01*
G01*
G37*
G36*
G01*
X150059400Y-135936400D02*
X150059400Y-127808400D01*
G75*
G02*
X150211800Y-127656000I152400J0D01*
G01*
X151710400Y-127656000D01*
G75*
G02*
X151862800Y-127808400I0J-152400D01*
G01*
X151862800Y-135936400D01*
G75*
G02*
X151710400Y-136088800I-152400J0D01*
G01*
X150211800Y-136088800D01*
G75*
G02*
X150059400Y-135936400I0J152400D01*
G01*
G37*
G36*
G01*
X152599400Y-135936400D02*
X152599400Y-127808400D01*
G75*
G02*
X152751800Y-127656000I152400J0D01*
G01*
X154250400Y-127656000D01*
G75*
G02*
X154402800Y-127808400I0J-152400D01*
G01*
X154402800Y-135936400D01*
G75*
G02*
X154250400Y-136088800I-152400J0D01*
G01*
X152751800Y-136088800D01*
G75*
G02*
X152599400Y-135936400I0J152400D01*
G01*
G37*
G36*
G01*
X155139400Y-135936400D02*
X155139400Y-127808400D01*
G75*
G02*
X155291800Y-127656000I152400J0D01*
G01*
X156790400Y-127656000D01*
G75*
G02*
X156942800Y-127808400I0J-152400D01*
G01*
X156942800Y-135936400D01*
G75*
G02*
X156790400Y-136088800I-152400J0D01*
G01*
X155291800Y-136088800D01*
G75*
G02*
X155139400Y-135936400I0J152400D01*
G01*
G37*
G36*
G01*
X157679400Y-135936400D02*
X157679400Y-127808400D01*
G75*
G02*
X157831800Y-127656000I152400J0D01*
G01*
X159330400Y-127656000D01*
G75*
G02*
X159482800Y-127808400I0J-152400D01*
G01*
X159482800Y-135936400D01*
G75*
G02*
X159330400Y-136088800I-152400J0D01*
G01*
X157831800Y-136088800D01*
G75*
G02*
X157679400Y-135936400I0J152400D01*
G01*
G37*
G36*
G01*
X160219400Y-135936400D02*
X160219400Y-127808400D01*
G75*
G02*
X160371800Y-127656000I152400J0D01*
G01*
X161870400Y-127656000D01*
G75*
G02*
X162022800Y-127808400I0J-152400D01*
G01*
X162022800Y-135936400D01*
G75*
G02*
X161870400Y-136088800I-152400J0D01*
G01*
X160371800Y-136088800D01*
G75*
G02*
X160219400Y-135936400I0J152400D01*
G01*
G37*
G36*
G01*
X162759400Y-135936400D02*
X162759400Y-127808400D01*
G75*
G02*
X162911800Y-127656000I152400J0D01*
G01*
X164410400Y-127656000D01*
G75*
G02*
X164562800Y-127808400I0J-152400D01*
G01*
X164562800Y-135936400D01*
G75*
G02*
X164410400Y-136088800I-152400J0D01*
G01*
X162911800Y-136088800D01*
G75*
G02*
X162759400Y-135936400I0J152400D01*
G01*
G37*
G36*
G01*
X165299400Y-135936400D02*
X165299400Y-127808400D01*
G75*
G02*
X165451800Y-127656000I152400J0D01*
G01*
X166950400Y-127656000D01*
G75*
G02*
X167102800Y-127808400I0J-152400D01*
G01*
X167102800Y-135936400D01*
G75*
G02*
X166950400Y-136088800I-152400J0D01*
G01*
X165451800Y-136088800D01*
G75*
G02*
X165299400Y-135936400I0J152400D01*
G01*
G37*
G36*
G01*
X167839400Y-135936400D02*
X167839400Y-127808400D01*
G75*
G02*
X167991800Y-127656000I152400J0D01*
G01*
X169490400Y-127656000D01*
G75*
G02*
X169642800Y-127808400I0J-152400D01*
G01*
X169642800Y-135936400D01*
G75*
G02*
X169490400Y-136088800I-152400J0D01*
G01*
X167991800Y-136088800D01*
G75*
G02*
X167839400Y-135936400I0J152400D01*
G01*
G37*
G36*
G01*
X170379400Y-135936400D02*
X170379400Y-127808400D01*
G75*
G02*
X170531800Y-127656000I152400J0D01*
G01*
X172030400Y-127656000D01*
G75*
G02*
X172182800Y-127808400I0J-152400D01*
G01*
X172182800Y-135936400D01*
G75*
G02*
X172030400Y-136088800I-152400J0D01*
G01*
X170531800Y-136088800D01*
G75*
G02*
X170379400Y-135936400I0J152400D01*
G01*
G37*
G36*
G01*
X172919400Y-135936400D02*
X172919400Y-127808400D01*
G75*
G02*
X173071800Y-127656000I152400J0D01*
G01*
X174570400Y-127656000D01*
G75*
G02*
X174722800Y-127808400I0J-152400D01*
G01*
X174722800Y-135936400D01*
G75*
G02*
X174570400Y-136088800I-152400J0D01*
G01*
X173071800Y-136088800D01*
G75*
G02*
X172919400Y-135936400I0J152400D01*
G01*
G37*
G36*
G01*
X175459400Y-135936400D02*
X175459400Y-127808400D01*
G75*
G02*
X175611800Y-127656000I152400J0D01*
G01*
X177110400Y-127656000D01*
G75*
G02*
X177262800Y-127808400I0J-152400D01*
G01*
X177262800Y-135936400D01*
G75*
G02*
X177110400Y-136088800I-152400J0D01*
G01*
X175611800Y-136088800D01*
G75*
G02*
X175459400Y-135936400I0J152400D01*
G01*
G37*
G36*
G01*
X177999400Y-135936400D02*
X177999400Y-127808400D01*
G75*
G02*
X178151800Y-127656000I152400J0D01*
G01*
X179650400Y-127656000D01*
G75*
G02*
X179802800Y-127808400I0J-152400D01*
G01*
X179802800Y-135936400D01*
G75*
G02*
X179650400Y-136088800I-152400J0D01*
G01*
X178151800Y-136088800D01*
G75*
G02*
X177999400Y-135936400I0J152400D01*
G01*
G37*
G36*
G01*
X180539400Y-135936400D02*
X180539400Y-127808400D01*
G75*
G02*
X180691800Y-127656000I152400J0D01*
G01*
X182190400Y-127656000D01*
G75*
G02*
X182342800Y-127808400I0J-152400D01*
G01*
X182342800Y-135936400D01*
G75*
G02*
X182190400Y-136088800I-152400J0D01*
G01*
X180691800Y-136088800D01*
G75*
G02*
X180539400Y-135936400I0J152400D01*
G01*
G37*
G36*
G01*
X183079400Y-135936400D02*
X183079400Y-127808400D01*
G75*
G02*
X183231800Y-127656000I152400J0D01*
G01*
X184730400Y-127656000D01*
G75*
G02*
X184882800Y-127808400I0J-152400D01*
G01*
X184882800Y-135936400D01*
G75*
G02*
X184730400Y-136088800I-152400J0D01*
G01*
X183231800Y-136088800D01*
G75*
G02*
X183079400Y-135936400I0J152400D01*
G01*
G37*
%TD*%
D15*
X129847400Y-76997300D03*
X157628600Y-76997300D03*
X127307400Y-94110600D03*
X114766100Y-105223200D03*
X104923600Y-103000500D03*
X129847400Y-103635600D03*
X146039900Y-109985700D03*
X139848600Y-110938100D03*
X120957400Y-111731800D03*
X130482400Y-109350600D03*
X151119900Y-117097600D03*
X166201100Y-115383100D03*
X135086100Y-78870600D03*
X121909900Y-83950600D03*
X117782400Y-107128000D03*
X108568000Y-74647900D03*
X111280400Y-74647900D03*
X190331100Y-82045600D03*
X190331100Y-86014400D03*
X193188600Y-85061900D03*
X193188600Y-82998100D03*
X149691100Y-78997600D03*
X134451100Y-96491800D03*
X133181100Y-97603100D03*
X193188600Y-79029400D03*
X190331100Y-79981900D03*
X193188600Y-81093100D03*
X190331100Y-83950600D03*
X111591100Y-92840600D03*
X109527400Y-92840600D03*
X144611100Y-96714000D03*
X152231200Y-106493100D03*
X156199900Y-105540600D03*
X158739900Y-105540600D03*
X162549900Y-107763100D03*
X180012400Y-104905600D03*
X162391200Y-124431800D03*
X160962400Y-106175600D03*
X159851200Y-124431800D03*
X156041200Y-107763100D03*
X157311200Y-124431800D03*
X156199900Y-103318100D03*
X154771200Y-124431900D03*
X151913600Y-104270600D03*
X142706100Y-107445500D03*
X138261100Y-98555600D03*
X125402400Y-101095600D03*
X125719900Y-95380600D03*
X124767400Y-97920600D03*
X123814900Y-99825600D03*
X173821100Y-126368600D03*
X179345600Y-98873100D03*
X181377600Y-98873100D03*
X180171100Y-101730600D03*
X166359800Y-124431800D03*
X162549900Y-114271800D03*
X152548600Y-124431900D03*
X122544900Y-77092600D03*
X124767400Y-77092600D03*
X136991100Y-95380600D03*
X135721100Y-98555600D03*
X130164900Y-85538100D03*
X131752400Y-122685600D03*
X135721100Y-124431900D03*
X129847400Y-121098100D03*
X127942400Y-119510600D03*
X138261100Y-124431900D03*
X126037400Y-117923100D03*
X120322400Y-96015600D03*
X140801100Y-124431900D03*
X121592300Y-94110600D03*
X122862400Y-96015600D03*
X143341100Y-124431900D03*
X124132400Y-94110600D03*
X141118600Y-117923100D03*
X128577400Y-100778100D03*
X147151100Y-124431900D03*
X142388600Y-115700600D03*
X127624800Y-96650600D03*
X143658600Y-117605600D03*
X129212400Y-95063100D03*
X149691000Y-124431900D03*
X144928600Y-115700600D03*
X130164900Y-92840600D03*
X146516100Y-117288100D03*
M02*
