%TF.GenerationSoftware,KiCad,Pcbnew,5.1.8-4.fc33*%
%TF.CreationDate,2021-01-04T09:43:00+01:00*%
%TF.ProjectId,obsonet_1,6f62736f-6e65-4745-9f31-2e6b69636164,rev?*%
%TF.SameCoordinates,Original*%
%TF.FileFunction,Legend,Bot*%
%TF.FilePolarity,Positive*%
%FSLAX46Y46*%
G04 Gerber Fmt 4.6, Leading zero omitted, Abs format (unit mm)*
G04 Created by KiCad (PCBNEW 5.1.8-4.fc33) date 2021-01-04 09:43:00*
%MOMM*%
%LPD*%
G01*
G04 APERTURE LIST*
%ADD10C,0.152400*%
%ADD11C,0.304800*%
%ADD12C,0.812800*%
%ADD13C,0.127000*%
%ADD14C,0.050800*%
%ADD15C,0.081280*%
%ADD16C,0.096520*%
%ADD17C,0.101600*%
%ADD18C,0.177800*%
G04 APERTURE END LIST*
D10*
%TO.C,Q1*%
X102732900Y-79346800D02*
X115178900Y-79346800D01*
X115178900Y-89506800D02*
X102732900Y-89506800D01*
D11*
X105018900Y-83487000D02*
X106288900Y-83487000D01*
D10*
X105018900Y-83487000D02*
X105018900Y-82394800D01*
D11*
X105018900Y-85366600D02*
X106288900Y-85366600D01*
D10*
X105018900Y-85366600D02*
X105018900Y-86458800D01*
D11*
X103748900Y-83487000D02*
X105018900Y-83487000D01*
X103748900Y-85366600D02*
X105018900Y-85366600D01*
X103748900Y-84731600D02*
X103748900Y-84096600D01*
X106288900Y-84731600D02*
X103748900Y-84731600D01*
X106288900Y-84096600D02*
X106288900Y-84731600D01*
X103748900Y-84096600D02*
X106288900Y-84096600D01*
D10*
X102097900Y-83410800D02*
X102097900Y-79981800D01*
X102097900Y-88871800D02*
X102097900Y-85442800D01*
D12*
X115178900Y-79346800D02*
X115178900Y-89506800D01*
D10*
X102097900Y-79981800D02*
G75*
G02*
X102732900Y-79346800I635000J0D01*
G01*
X102732900Y-89506800D02*
G75*
G02*
X102097900Y-88871800I0J635000D01*
G01*
D13*
%TO.C,SW1*%
X146697400Y-79950100D02*
G75*
G03*
X146697400Y-79950100I-2245000J0D01*
G01*
X140959900Y-82490100D02*
G75*
G03*
X140959900Y-82490100I-317500J0D01*
G01*
X140959900Y-77410100D02*
G75*
G03*
X140959900Y-77410100I-317500J0D01*
G01*
X148579900Y-77410100D02*
G75*
G03*
X148579900Y-77410100I-317500J0D01*
G01*
X148579900Y-82490100D02*
G75*
G03*
X148579900Y-82490100I-317500J0D01*
G01*
X140007400Y-76775100D02*
X140007400Y-83125100D01*
X148897400Y-76775100D02*
X140007400Y-76775100D01*
X148897400Y-83125100D02*
X148897400Y-76775100D01*
X140007400Y-83125100D02*
X148897400Y-83125100D01*
%TO.C,IC4*%
X137534900Y-101226800D02*
G75*
G03*
X137534900Y-101226800I-1500000J0D01*
G01*
D14*
X137894900Y-90126800D02*
X137894900Y-90626800D01*
X138894900Y-90876800D02*
X138394900Y-90876800D01*
X138894900Y-103376800D02*
X138394900Y-103376800D01*
X138144900Y-104126800D02*
X138144900Y-103626800D01*
X119644900Y-103626800D02*
X119644900Y-104126800D01*
X118894900Y-103376800D02*
X119394900Y-103376800D01*
X118894900Y-90876800D02*
X119394900Y-90876800D01*
X119644900Y-90126800D02*
X119644900Y-90626800D01*
X138394900Y-103376800D02*
X138394900Y-90876800D01*
X138144900Y-103626800D02*
X138394900Y-103376800D01*
X119644900Y-103626800D02*
X138144900Y-103626800D01*
X119394900Y-103376800D02*
X119644900Y-103626800D01*
X119394900Y-90876800D02*
X119394900Y-103376800D01*
X119644900Y-90626800D02*
X119394900Y-90876800D01*
X137894900Y-90626800D02*
X119644900Y-90626800D01*
X138144900Y-90626800D02*
X137894900Y-90626800D01*
X138394900Y-90876800D02*
X138144900Y-90626800D01*
D13*
X138894900Y-90876800D02*
X138894900Y-90551800D01*
X138894900Y-103376800D02*
X138894900Y-90876800D01*
X138894900Y-103701800D02*
X138894900Y-103376800D01*
X138469900Y-104126800D02*
X138894900Y-103701800D01*
X138144900Y-104126800D02*
X138469900Y-104126800D01*
X119644900Y-104126800D02*
X138144900Y-104126800D01*
X119319900Y-104126800D02*
X119644900Y-104126800D01*
X118894900Y-103701800D02*
X119319900Y-104126800D01*
X118894900Y-103376800D02*
X118894900Y-103701800D01*
X118894900Y-90876800D02*
X118894900Y-103376800D01*
X118894900Y-90551800D02*
X118894900Y-90876800D01*
X119319900Y-90126800D02*
X118894900Y-90551800D01*
X119644900Y-90126800D02*
X119319900Y-90126800D01*
X137894900Y-90126800D02*
X119644900Y-90126800D01*
X138469900Y-90126800D02*
X137894900Y-90126800D01*
X138894900Y-90551800D02*
X138469900Y-90126800D01*
%TO.C,C1*%
D15*
X122544114Y-110096082D02*
X122590076Y-110050120D01*
X122636038Y-109912234D01*
X122636038Y-109820310D01*
X122590076Y-109682425D01*
X122498152Y-109590501D01*
X122406228Y-109544539D01*
X122222380Y-109498577D01*
X122084495Y-109498577D01*
X121900647Y-109544539D01*
X121808723Y-109590501D01*
X121716800Y-109682425D01*
X121670838Y-109820310D01*
X121670838Y-109912234D01*
X121716800Y-110050120D01*
X121762761Y-110096082D01*
X122636038Y-111015320D02*
X122636038Y-110463777D01*
X122636038Y-110739548D02*
X121670838Y-110739548D01*
X121808723Y-110647625D01*
X121900647Y-110555701D01*
X121946609Y-110463777D01*
%TO.C,C4*%
X167779917Y-105018114D02*
X167825879Y-105064076D01*
X167963765Y-105110038D01*
X168055689Y-105110038D01*
X168193574Y-105064076D01*
X168285498Y-104972152D01*
X168331460Y-104880228D01*
X168377422Y-104696380D01*
X168377422Y-104558495D01*
X168331460Y-104374647D01*
X168285498Y-104282723D01*
X168193574Y-104190800D01*
X168055689Y-104144838D01*
X167963765Y-104144838D01*
X167825879Y-104190800D01*
X167779917Y-104236761D01*
X166952603Y-104466571D02*
X166952603Y-105110038D01*
X167182412Y-104098876D02*
X167412222Y-104788304D01*
X166814717Y-104788304D01*
%TO.C,R2*%
D16*
X116503595Y-75126547D02*
X116905761Y-74552023D01*
X117193023Y-75126547D02*
X117193023Y-73920047D01*
X116733404Y-73920047D01*
X116618499Y-73977500D01*
X116561047Y-74034952D01*
X116503595Y-74149857D01*
X116503595Y-74322214D01*
X116561047Y-74437119D01*
X116618499Y-74494571D01*
X116733404Y-74552023D01*
X117193023Y-74552023D01*
X116043976Y-74034952D02*
X115986523Y-73977500D01*
X115871618Y-73920047D01*
X115584357Y-73920047D01*
X115469452Y-73977500D01*
X115411999Y-74034952D01*
X115354547Y-74149857D01*
X115354547Y-74264761D01*
X115411999Y-74437119D01*
X116101428Y-75126547D01*
X115354547Y-75126547D01*
%TO.C,R3*%
X103803595Y-75380547D02*
X104205761Y-74806023D01*
X104493023Y-75380547D02*
X104493023Y-74174047D01*
X104033404Y-74174047D01*
X103918499Y-74231500D01*
X103861047Y-74288952D01*
X103803595Y-74403857D01*
X103803595Y-74576214D01*
X103861047Y-74691119D01*
X103918499Y-74748571D01*
X104033404Y-74806023D01*
X104493023Y-74806023D01*
X103401428Y-74174047D02*
X102654547Y-74174047D01*
X103056714Y-74633666D01*
X102884357Y-74633666D01*
X102769452Y-74691119D01*
X102711999Y-74748571D01*
X102654547Y-74863476D01*
X102654547Y-75150738D01*
X102711999Y-75265642D01*
X102769452Y-75323095D01*
X102884357Y-75380547D01*
X103229071Y-75380547D01*
X103343976Y-75323095D01*
X103401428Y-75265642D01*
%TO.C,R4*%
D17*
X133800547Y-80089102D02*
X133226023Y-79686936D01*
X133800547Y-79399674D02*
X132594047Y-79399674D01*
X132594047Y-79859293D01*
X132651500Y-79974198D01*
X132708952Y-80031650D01*
X132823857Y-80089102D01*
X132996214Y-80089102D01*
X133111119Y-80031650D01*
X133168571Y-79974198D01*
X133226023Y-79859293D01*
X133226023Y-79399674D01*
X132996214Y-81123245D02*
X133800547Y-81123245D01*
X132536595Y-80835983D02*
X133398380Y-80548721D01*
X133398380Y-81295602D01*
%TO.C,R5*%
X129990547Y-80124402D02*
X129416023Y-79722236D01*
X129990547Y-79434974D02*
X128784047Y-79434974D01*
X128784047Y-79894593D01*
X128841500Y-80009498D01*
X128898952Y-80066950D01*
X129013857Y-80124402D01*
X129186214Y-80124402D01*
X129301119Y-80066950D01*
X129358571Y-80009498D01*
X129416023Y-79894593D01*
X129416023Y-79434974D01*
X128784047Y-81215998D02*
X128784047Y-80641474D01*
X129358571Y-80584021D01*
X129301119Y-80641474D01*
X129243666Y-80756379D01*
X129243666Y-81043640D01*
X129301119Y-81158545D01*
X129358571Y-81215998D01*
X129473476Y-81273450D01*
X129760738Y-81273450D01*
X129875642Y-81215998D01*
X129933095Y-81158545D01*
X129990547Y-81043640D01*
X129990547Y-80756379D01*
X129933095Y-80641474D01*
X129875642Y-80584021D01*
%TO.C,R6*%
X144722547Y-108029102D02*
X144148023Y-107626936D01*
X144722547Y-107339674D02*
X143516047Y-107339674D01*
X143516047Y-107799293D01*
X143573500Y-107914198D01*
X143630952Y-107971650D01*
X143745857Y-108029102D01*
X143918214Y-108029102D01*
X144033119Y-107971650D01*
X144090571Y-107914198D01*
X144148023Y-107799293D01*
X144148023Y-107339674D01*
X143516047Y-109063245D02*
X143516047Y-108833436D01*
X143573500Y-108718531D01*
X143630952Y-108661079D01*
X143803309Y-108546174D01*
X144033119Y-108488721D01*
X144492738Y-108488721D01*
X144607642Y-108546174D01*
X144665095Y-108603626D01*
X144722547Y-108718531D01*
X144722547Y-108948340D01*
X144665095Y-109063245D01*
X144607642Y-109120698D01*
X144492738Y-109178150D01*
X144205476Y-109178150D01*
X144090571Y-109120698D01*
X144033119Y-109063245D01*
X143975666Y-108948340D01*
X143975666Y-108718531D01*
X144033119Y-108603626D01*
X144090571Y-108546174D01*
X144205476Y-108488721D01*
%TO.C,R7*%
X154882547Y-81359102D02*
X154308023Y-80956936D01*
X154882547Y-80669674D02*
X153676047Y-80669674D01*
X153676047Y-81129293D01*
X153733500Y-81244198D01*
X153790952Y-81301650D01*
X153905857Y-81359102D01*
X154078214Y-81359102D01*
X154193119Y-81301650D01*
X154250571Y-81244198D01*
X154308023Y-81129293D01*
X154308023Y-80669674D01*
X153676047Y-81761269D02*
X153676047Y-82565602D01*
X154882547Y-82048531D01*
%TO.C,IC2*%
D16*
X157168547Y-99656452D02*
X155962047Y-99656452D01*
X157053642Y-100920404D02*
X157111095Y-100862952D01*
X157168547Y-100690595D01*
X157168547Y-100575690D01*
X157111095Y-100403333D01*
X156996190Y-100288428D01*
X156881285Y-100230976D01*
X156651476Y-100173523D01*
X156479119Y-100173523D01*
X156249309Y-100230976D01*
X156134404Y-100288428D01*
X156019500Y-100403333D01*
X155962047Y-100575690D01*
X155962047Y-100690595D01*
X156019500Y-100862952D01*
X156076952Y-100920404D01*
X156076952Y-101380023D02*
X156019500Y-101437476D01*
X155962047Y-101552381D01*
X155962047Y-101839642D01*
X156019500Y-101954547D01*
X156076952Y-102012000D01*
X156191857Y-102069452D01*
X156306761Y-102069452D01*
X156479119Y-102012000D01*
X157168547Y-101322571D01*
X157168547Y-102069452D01*
%TO.C,Q1*%
D13*
X116465954Y-79051452D02*
X116580859Y-78994000D01*
X116695764Y-78879095D01*
X116868121Y-78706738D01*
X116983026Y-78649285D01*
X117097930Y-78649285D01*
X117040478Y-78936547D02*
X117155383Y-78879095D01*
X117270288Y-78764190D01*
X117327740Y-78534380D01*
X117327740Y-78132214D01*
X117270288Y-77902404D01*
X117155383Y-77787500D01*
X117040478Y-77730047D01*
X116810669Y-77730047D01*
X116695764Y-77787500D01*
X116580859Y-77902404D01*
X116523407Y-78132214D01*
X116523407Y-78534380D01*
X116580859Y-78764190D01*
X116695764Y-78879095D01*
X116810669Y-78936547D01*
X117040478Y-78936547D01*
X115374359Y-78936547D02*
X116063788Y-78936547D01*
X115719073Y-78936547D02*
X115719073Y-77730047D01*
X115833978Y-77902404D01*
X115948883Y-78017309D01*
X116063788Y-78074761D01*
%TO.C,IC3*%
D16*
X148647452Y-114465547D02*
X149853952Y-114465547D01*
X148762357Y-113201595D02*
X148704904Y-113259047D01*
X148647452Y-113431404D01*
X148647452Y-113546309D01*
X148704904Y-113718666D01*
X148819809Y-113833571D01*
X148934714Y-113891023D01*
X149164523Y-113948476D01*
X149336880Y-113948476D01*
X149566690Y-113891023D01*
X149681595Y-113833571D01*
X149796500Y-113718666D01*
X149853952Y-113546309D01*
X149853952Y-113431404D01*
X149796500Y-113259047D01*
X149739047Y-113201595D01*
X149853952Y-112799428D02*
X149853952Y-112052547D01*
X149394333Y-112454714D01*
X149394333Y-112282357D01*
X149336880Y-112167452D01*
X149279428Y-112109999D01*
X149164523Y-112052547D01*
X148877261Y-112052547D01*
X148762357Y-112109999D01*
X148704904Y-112167452D01*
X148647452Y-112282357D01*
X148647452Y-112627071D01*
X148704904Y-112741976D01*
X148762357Y-112799428D01*
D17*
X151256949Y-112944347D02*
X151946378Y-112944347D01*
X151601663Y-112944347D02*
X151601663Y-111737847D01*
X151716568Y-111910204D01*
X151831473Y-112025109D01*
X151946378Y-112082561D01*
%TO.C,SW1*%
D16*
X147549047Y-76152195D02*
X147376690Y-76209647D01*
X147089428Y-76209647D01*
X146974523Y-76152195D01*
X146917071Y-76094742D01*
X146859618Y-75979838D01*
X146859618Y-75864933D01*
X146917071Y-75750028D01*
X146974523Y-75692576D01*
X147089428Y-75635123D01*
X147319238Y-75577671D01*
X147434142Y-75520219D01*
X147491595Y-75462766D01*
X147549047Y-75347861D01*
X147549047Y-75232957D01*
X147491595Y-75118052D01*
X147434142Y-75060600D01*
X147319238Y-75003147D01*
X147031976Y-75003147D01*
X146859618Y-75060600D01*
X146457452Y-75003147D02*
X146170190Y-76209647D01*
X145940380Y-75347861D01*
X145710571Y-76209647D01*
X145423309Y-75003147D01*
X144963690Y-76209647D02*
X144963690Y-75003147D01*
X144561523Y-75003147D02*
X143872095Y-75003147D01*
X144216809Y-76209647D02*
X144216809Y-75003147D01*
X142780499Y-76094742D02*
X142837952Y-76152195D01*
X143010309Y-76209647D01*
X143125214Y-76209647D01*
X143297571Y-76152195D01*
X143412476Y-76037290D01*
X143469928Y-75922385D01*
X143527380Y-75692576D01*
X143527380Y-75520219D01*
X143469928Y-75290409D01*
X143412476Y-75175504D01*
X143297571Y-75060600D01*
X143125214Y-75003147D01*
X143010309Y-75003147D01*
X142837952Y-75060600D01*
X142780499Y-75118052D01*
X142263428Y-76209647D02*
X142263428Y-75003147D01*
X142263428Y-75577671D02*
X141573999Y-75577671D01*
X141573999Y-76209647D02*
X141573999Y-75003147D01*
%TO.C,IC5*%
X146500547Y-92290452D02*
X145294047Y-92290452D01*
X146385642Y-93554404D02*
X146443095Y-93496952D01*
X146500547Y-93324595D01*
X146500547Y-93209690D01*
X146443095Y-93037333D01*
X146328190Y-92922428D01*
X146213285Y-92864976D01*
X145983476Y-92807523D01*
X145811119Y-92807523D01*
X145581309Y-92864976D01*
X145466404Y-92922428D01*
X145351500Y-93037333D01*
X145294047Y-93209690D01*
X145294047Y-93324595D01*
X145351500Y-93496952D01*
X145408952Y-93554404D01*
X145294047Y-94646000D02*
X145294047Y-94071476D01*
X145868571Y-94014023D01*
X145811119Y-94071476D01*
X145753666Y-94186381D01*
X145753666Y-94473642D01*
X145811119Y-94588547D01*
X145868571Y-94646000D01*
X145983476Y-94703452D01*
X146270738Y-94703452D01*
X146385642Y-94646000D01*
X146443095Y-94588547D01*
X146500547Y-94473642D01*
X146500547Y-94186381D01*
X146443095Y-94071476D01*
X146385642Y-94014023D01*
D17*
X147605749Y-91195647D02*
X148295178Y-91195647D01*
X147950463Y-91195647D02*
X147950463Y-89989147D01*
X148065368Y-90161504D01*
X148180273Y-90276409D01*
X148295178Y-90333861D01*
%TO.C,IC4*%
D18*
X142753503Y-89073566D02*
X142753503Y-87384466D01*
X140983970Y-88912700D02*
X141064403Y-88993133D01*
X141305703Y-89073566D01*
X141466570Y-89073566D01*
X141707870Y-88993133D01*
X141868736Y-88832266D01*
X141949170Y-88671400D01*
X142029603Y-88349666D01*
X142029603Y-88108366D01*
X141949170Y-87786633D01*
X141868736Y-87625766D01*
X141707870Y-87464900D01*
X141466570Y-87384466D01*
X141305703Y-87384466D01*
X141064403Y-87464900D01*
X140983970Y-87545333D01*
X139536170Y-87947500D02*
X139536170Y-89073566D01*
X139938336Y-87304033D02*
X140340503Y-88510533D01*
X139294870Y-88510533D01*
%TD*%
M02*
