%FSLAX45Y45*%
G04 Gerber Fmt 4.5, Leading zero omitted, Abs format (unit mm)*
G04 Created by KiCad (PCBNEW 5.1.8-4.fc33) date 2021-01-03 23:47:01*
%MOMM*%
%LPD*%
G01*
G04 APERTURE LIST*
%ADD10C,0.200000*%
%ADD11C,0.300000*%
G04 APERTURE END LIST*
D10*
X10457360Y-10265050D02*
X10527360Y-10335050D01*
X10527360Y-10265050D02*
X10457360Y-10335050D01*
X10821800Y-7429790D02*
X10891800Y-7499790D01*
X10891800Y-7429790D02*
X10821800Y-7499790D01*
X10917740Y-9249060D02*
X10987740Y-9319060D01*
X10987740Y-9249060D02*
X10917740Y-9319060D01*
X11093040Y-7429790D02*
X11163040Y-7499790D01*
X11163040Y-7429790D02*
X11093040Y-7499790D01*
X11124110Y-9249060D02*
X11194110Y-9319060D01*
X11194110Y-9249060D02*
X11124110Y-9319060D01*
X11441610Y-10487320D02*
X11511610Y-10557320D01*
X11511610Y-10487320D02*
X11441610Y-10557320D01*
X11743240Y-10677800D02*
X11813240Y-10747800D01*
X11813240Y-10677800D02*
X11743240Y-10747800D01*
X11997240Y-9566560D02*
X12067240Y-9636560D01*
X12067240Y-9566560D02*
X11997240Y-9636560D01*
X12060740Y-11138180D02*
X12130740Y-11208180D01*
X12130740Y-11138180D02*
X12060740Y-11208180D01*
X12124230Y-9376060D02*
X12194230Y-9446060D01*
X12194230Y-9376060D02*
X12124230Y-9446060D01*
X12155990Y-8360060D02*
X12225990Y-8430060D01*
X12225990Y-8360060D02*
X12155990Y-8430060D01*
X12219490Y-7674260D02*
X12289490Y-7744260D01*
X12289490Y-7674260D02*
X12219490Y-7744260D01*
X12251240Y-9566560D02*
X12321240Y-9636560D01*
X12321240Y-9566560D02*
X12251240Y-9636560D01*
X12346490Y-9947560D02*
X12416490Y-10017560D01*
X12416490Y-9947560D02*
X12346490Y-10017560D01*
X12378240Y-9376060D02*
X12448240Y-9446060D01*
X12448240Y-9376060D02*
X12378240Y-9446060D01*
X12441740Y-7674260D02*
X12511740Y-7744260D01*
X12511740Y-7674260D02*
X12441740Y-7744260D01*
X12441740Y-9757060D02*
X12511740Y-9827060D01*
X12511740Y-9757060D02*
X12441740Y-9827060D01*
X12505240Y-10074560D02*
X12575240Y-10144560D01*
X12575240Y-10074560D02*
X12505240Y-10144560D01*
X12536990Y-9503060D02*
X12606990Y-9573060D01*
X12606990Y-9503060D02*
X12536990Y-9573060D01*
X12568740Y-11757310D02*
X12638740Y-11827310D01*
X12638740Y-11757310D02*
X12568740Y-11827310D01*
X12695740Y-9376060D02*
X12765740Y-9446060D01*
X12765740Y-9376060D02*
X12695740Y-9446060D01*
X12727480Y-9630060D02*
X12797480Y-9700060D01*
X12797480Y-9630060D02*
X12727480Y-9700060D01*
X12759240Y-11916060D02*
X12829240Y-11986060D01*
X12829240Y-11916060D02*
X12759240Y-11986060D01*
X12822740Y-10042810D02*
X12892740Y-10112810D01*
X12892740Y-10042810D02*
X12822740Y-10112810D01*
X12886240Y-9471310D02*
X12956240Y-9541310D01*
X12956240Y-9471310D02*
X12886240Y-9541310D01*
X12949740Y-7664730D02*
X13019740Y-7734730D01*
X13019740Y-7664730D02*
X12949740Y-7734730D01*
X12949740Y-10328560D02*
X13019740Y-10398560D01*
X13019740Y-10328560D02*
X12949740Y-10398560D01*
X12949740Y-12074810D02*
X13019740Y-12144810D01*
X13019740Y-12074810D02*
X12949740Y-12144810D01*
X12981490Y-8518810D02*
X13051490Y-8588810D01*
X13051490Y-8518810D02*
X12981490Y-8588810D01*
X12981490Y-9249060D02*
X13051490Y-9319060D01*
X13051490Y-9249060D02*
X12981490Y-9319060D01*
X13013240Y-10900060D02*
X13083240Y-10970060D01*
X13083240Y-10900060D02*
X13013240Y-10970060D01*
X13140240Y-12233560D02*
X13210240Y-12303560D01*
X13210240Y-12233560D02*
X13140240Y-12303560D01*
X13283110Y-9725310D02*
X13353110Y-9795310D01*
X13353110Y-9725310D02*
X13283110Y-9795310D01*
X13410110Y-9614180D02*
X13480110Y-9684180D01*
X13480110Y-9614180D02*
X13410110Y-9684180D01*
X13473610Y-7852060D02*
X13543610Y-7922060D01*
X13543610Y-7852060D02*
X13473610Y-7922060D01*
X13537110Y-9820560D02*
X13607110Y-9890560D01*
X13607110Y-9820560D02*
X13537110Y-9890560D01*
X13537110Y-12408190D02*
X13607110Y-12478190D01*
X13607110Y-12408190D02*
X13537110Y-12478190D01*
X13664110Y-9503060D02*
X13734110Y-9573060D01*
X13734110Y-9503060D02*
X13664110Y-9573060D01*
X13791110Y-9820560D02*
X13861110Y-9890560D01*
X13861110Y-9820560D02*
X13791110Y-9890560D01*
X13791110Y-12408190D02*
X13861110Y-12478190D01*
X13861110Y-12408190D02*
X13791110Y-12478190D01*
X13949860Y-11058810D02*
X14019860Y-11128810D01*
X14019860Y-11058810D02*
X13949860Y-11128810D01*
X14045110Y-12408190D02*
X14115110Y-12478190D01*
X14115110Y-12408190D02*
X14045110Y-12478190D01*
X14076860Y-11757310D02*
X14146860Y-11827310D01*
X14146860Y-11757310D02*
X14076860Y-11827310D01*
X14203860Y-11535060D02*
X14273860Y-11605060D01*
X14273860Y-11535060D02*
X14203860Y-11605060D01*
X14235610Y-10709550D02*
X14305610Y-10779550D01*
X14305610Y-10709550D02*
X14235610Y-10779550D01*
X14299110Y-12408190D02*
X14369110Y-12478190D01*
X14369110Y-12408190D02*
X14299110Y-12478190D01*
X14330860Y-11725560D02*
X14400860Y-11795560D01*
X14400860Y-11725560D02*
X14330860Y-11795560D01*
X14426110Y-9636400D02*
X14496110Y-9706400D01*
X14496110Y-9636400D02*
X14426110Y-9706400D01*
X14457860Y-11535060D02*
X14527860Y-11605060D01*
X14527860Y-11535060D02*
X14457860Y-11605060D01*
X14568990Y-10963570D02*
X14638990Y-11033570D01*
X14638990Y-10963570D02*
X14568990Y-11033570D01*
X14616610Y-11693810D02*
X14686610Y-11763810D01*
X14686610Y-11693810D02*
X14616610Y-11763810D01*
X14680110Y-12408190D02*
X14750110Y-12478190D01*
X14750110Y-12408190D02*
X14680110Y-12478190D01*
X14934100Y-12408190D02*
X15004100Y-12478190D01*
X15004100Y-12408190D02*
X14934100Y-12478190D01*
X14934110Y-7864760D02*
X15004110Y-7934760D01*
X15004110Y-7864760D02*
X14934110Y-7934760D01*
X15076990Y-11674760D02*
X15146990Y-11744760D01*
X15146990Y-11674760D02*
X15076990Y-11744760D01*
X15156360Y-10392060D02*
X15226360Y-10462060D01*
X15226360Y-10392060D02*
X15156360Y-10462060D01*
X15188120Y-10614310D02*
X15258120Y-10684310D01*
X15258120Y-10614310D02*
X15188120Y-10684310D01*
X15219860Y-12408190D02*
X15289860Y-12478190D01*
X15289860Y-12408190D02*
X15219860Y-12478190D01*
X15442120Y-12408190D02*
X15512120Y-12478190D01*
X15512120Y-12408190D02*
X15442120Y-12478190D01*
X15569120Y-10741310D02*
X15639120Y-10811310D01*
X15639120Y-10741310D02*
X15569120Y-10811310D01*
X15584990Y-10296810D02*
X15654990Y-10366810D01*
X15654990Y-10296810D02*
X15584990Y-10366810D01*
X15584990Y-10519060D02*
X15654990Y-10589060D01*
X15654990Y-10519060D02*
X15584990Y-10589060D01*
X15696120Y-12408180D02*
X15766120Y-12478180D01*
X15766120Y-12408180D02*
X15696120Y-12478180D01*
X15727860Y-7664730D02*
X15797860Y-7734730D01*
X15797860Y-7664730D02*
X15727860Y-7734730D01*
X15838990Y-10519060D02*
X15908990Y-10589060D01*
X15908990Y-10519060D02*
X15838990Y-10589060D01*
X15950120Y-12408180D02*
X16020120Y-12478180D01*
X16020120Y-12408180D02*
X15950120Y-12478180D01*
X16061240Y-10582560D02*
X16131240Y-10652560D01*
X16131240Y-10582560D02*
X16061240Y-10652560D01*
X16204120Y-12408180D02*
X16274120Y-12478180D01*
X16274120Y-12408180D02*
X16204120Y-12478180D01*
X16219990Y-10741310D02*
X16289990Y-10811310D01*
X16289990Y-10741310D02*
X16219990Y-10811310D01*
X16219990Y-11392180D02*
X16289990Y-11462180D01*
X16289990Y-11392180D02*
X16219990Y-11462180D01*
X16585110Y-11503310D02*
X16655110Y-11573310D01*
X16655110Y-11503310D02*
X16585110Y-11573310D01*
X16600980Y-12408180D02*
X16670980Y-12478180D01*
X16670980Y-12408180D02*
X16600980Y-12478180D01*
X17347110Y-12601860D02*
X17417110Y-12671860D01*
X17417110Y-12601860D02*
X17347110Y-12671860D01*
X17899560Y-9852310D02*
X17969560Y-9922310D01*
X17969560Y-9852310D02*
X17899560Y-9922310D01*
X17966240Y-10455560D02*
X18036240Y-10525560D01*
X18036240Y-10455560D02*
X17966240Y-10525560D01*
X17982110Y-10138060D02*
X18052110Y-10208060D01*
X18052110Y-10138060D02*
X17982110Y-10208060D01*
X18102760Y-9852310D02*
X18172760Y-9922310D01*
X18172760Y-9852310D02*
X18102760Y-9922310D01*
X18998110Y-7963190D02*
X19068110Y-8033190D01*
X19068110Y-7963190D02*
X18998110Y-8033190D01*
X18998110Y-8169560D02*
X19068110Y-8239560D01*
X19068110Y-8169560D02*
X18998110Y-8239560D01*
X18998110Y-8360060D02*
X19068110Y-8430060D01*
X19068110Y-8360060D02*
X18998110Y-8430060D01*
X18998110Y-8566440D02*
X19068110Y-8636440D01*
X19068110Y-8566440D02*
X18998110Y-8636440D01*
X19283860Y-7867940D02*
X19353860Y-7937940D01*
X19353860Y-7867940D02*
X19283860Y-7937940D01*
X19283860Y-8074310D02*
X19353860Y-8144310D01*
X19353860Y-8074310D02*
X19283860Y-8144310D01*
X19283860Y-8264810D02*
X19353860Y-8334810D01*
X19353860Y-8264810D02*
X19283860Y-8334810D01*
X19283860Y-8471190D02*
X19353860Y-8541190D01*
X19353860Y-8471190D02*
X19283860Y-8541190D01*
X15997730Y-8048910D02*
X16067730Y-8118910D01*
X16067730Y-8048910D02*
X15997730Y-8118910D01*
X15997730Y-8810910D02*
X16067730Y-8880910D01*
X16067730Y-8810910D02*
X15997730Y-8880910D01*
X16251730Y-8048910D02*
X16321730Y-8118910D01*
X16321730Y-8048910D02*
X16251730Y-8118910D01*
X16251730Y-8810910D02*
X16321730Y-8880910D01*
X16321730Y-8810910D02*
X16251730Y-8880910D01*
X16505730Y-8048910D02*
X16575730Y-8118910D01*
X16575730Y-8048910D02*
X16505730Y-8118910D01*
X16505730Y-8810910D02*
X16575730Y-8880910D01*
X16575730Y-8810910D02*
X16505730Y-8880910D01*
X17267730Y-8048910D02*
X17337730Y-8118910D01*
X17337730Y-8048910D02*
X17267730Y-8118910D01*
X17267730Y-8810910D02*
X17337730Y-8880910D01*
X17337730Y-8810910D02*
X17267730Y-8880910D01*
X17521730Y-8048910D02*
X17591730Y-8118910D01*
X17591730Y-8048910D02*
X17521730Y-8118910D01*
X17521730Y-8810910D02*
X17591730Y-8880910D01*
X17591730Y-8810910D02*
X17521730Y-8880910D01*
X17775730Y-8048910D02*
X17845730Y-8118910D01*
X17845730Y-8048910D02*
X17775730Y-8118910D01*
X17775730Y-8810910D02*
X17845730Y-8880910D01*
X17845730Y-8810910D02*
X17775730Y-8880910D01*
X10616750Y-7702920D02*
G75*
G03*
X10616750Y-7702920I-45000J0D01*
G01*
X10870750Y-7702920D02*
G75*
G03*
X10870750Y-7702920I-45000J0D01*
G01*
X18411350Y-7807690D02*
G75*
G03*
X18411350Y-7807690I-45000J0D01*
G01*
X18411350Y-8061690D02*
G75*
G03*
X18411350Y-8061690I-45000J0D01*
G01*
X18411350Y-8315690D02*
G75*
G03*
X18411350Y-8315690I-45000J0D01*
G01*
X18411350Y-8569690D02*
G75*
G03*
X18411350Y-8569690I-45000J0D01*
G01*
X18665350Y-7934690D02*
G75*
G03*
X18665350Y-7934690I-45000J0D01*
G01*
X18665350Y-8188690D02*
G75*
G03*
X18665350Y-8188690I-45000J0D01*
G01*
X18665350Y-8442690D02*
G75*
G03*
X18665350Y-8442690I-45000J0D01*
G01*
X18665350Y-8696690D02*
G75*
G03*
X18665350Y-8696690I-45000J0D01*
G01*
X11204110Y-12141560D02*
G75*
G03*
X11204110Y-12141560I-45000J0D01*
G01*
X11458110Y-12141560D02*
G75*
G03*
X11458110Y-12141560I-45000J0D01*
G01*
X16331740Y-7718780D02*
G75*
G03*
X16331740Y-7718780I-45000J0D01*
G01*
X16839740Y-7718780D02*
G75*
G03*
X16839740Y-7718780I-45000J0D01*
G01*
X17093730Y-9207860D02*
G75*
G03*
X17093730Y-9207860I-45000J0D01*
G01*
X17601730Y-9207860D02*
G75*
G03*
X17601730Y-9207860I-45000J0D01*
G01*
X11204110Y-7702910D02*
G75*
G03*
X11204110Y-7702910I-45000J0D01*
G01*
X11458110Y-7702910D02*
G75*
G03*
X11458110Y-7702910I-45000J0D01*
G01*
X16331740Y-9207860D02*
G75*
G03*
X16331740Y-9207860I-45000J0D01*
G01*
X16839740Y-9207860D02*
G75*
G03*
X16839740Y-9207860I-45000J0D01*
G01*
X17068350Y-7718780D02*
G75*
G03*
X17068350Y-7718780I-45000J0D01*
G01*
X17576350Y-7718780D02*
G75*
G03*
X17576350Y-7718780I-45000J0D01*
G01*
X17699610Y-9558310D02*
X17699610Y-9708310D01*
X17624610Y-9633310D02*
X17774610Y-9633310D01*
X17699610Y-9812310D02*
X17699610Y-9962310D01*
X17624610Y-9887310D02*
X17774610Y-9887310D01*
X17699610Y-10066310D02*
X17699610Y-10216310D01*
X17624610Y-10141310D02*
X17774610Y-10141310D01*
X17699610Y-10320310D02*
X17699610Y-10470310D01*
X17624610Y-10395310D02*
X17774610Y-10395310D01*
X17699610Y-10574310D02*
X17699610Y-10724310D01*
X17624610Y-10649310D02*
X17774610Y-10649310D01*
X17699610Y-10828310D02*
X17699610Y-10978310D01*
X17624610Y-10903310D02*
X17774610Y-10903310D01*
X17699610Y-11082310D02*
X17699610Y-11232310D01*
X17624610Y-11157310D02*
X17774610Y-11157310D01*
X17699610Y-11336310D02*
X17699610Y-11486310D01*
X17624610Y-11411310D02*
X17774610Y-11411310D01*
X17699610Y-11590310D02*
X17699610Y-11740310D01*
X17624610Y-11665310D02*
X17774610Y-11665310D01*
X17699610Y-11844310D02*
X17699610Y-11994310D01*
X17624610Y-11919310D02*
X17774610Y-11919310D01*
X18461610Y-9558310D02*
X18461610Y-9708310D01*
X18386610Y-9633310D02*
X18536610Y-9633310D01*
X18461610Y-9812310D02*
X18461610Y-9962310D01*
X18386610Y-9887310D02*
X18536610Y-9887310D01*
X18461610Y-10066310D02*
X18461610Y-10216310D01*
X18386610Y-10141310D02*
X18536610Y-10141310D01*
X18461610Y-10320310D02*
X18461610Y-10470310D01*
X18386610Y-10395310D02*
X18536610Y-10395310D01*
X18461610Y-10574310D02*
X18461610Y-10724310D01*
X18386610Y-10649310D02*
X18536610Y-10649310D01*
X18461610Y-10828310D02*
X18461610Y-10978310D01*
X18386610Y-10903310D02*
X18536610Y-10903310D01*
X18461610Y-11082310D02*
X18461610Y-11232310D01*
X18386610Y-11157310D02*
X18536610Y-11157310D01*
X18461610Y-11336310D02*
X18461610Y-11486310D01*
X18386610Y-11411310D02*
X18536610Y-11411310D01*
X18461610Y-11590310D02*
X18461610Y-11740310D01*
X18386610Y-11665310D02*
X18536610Y-11665310D01*
X18461610Y-11844310D02*
X18461610Y-11994310D01*
X18386610Y-11919310D02*
X18536610Y-11919310D01*
D11*
X10226378Y-14176234D02*
X10226378Y-13876234D01*
X10297807Y-13876234D01*
X10340664Y-13890520D01*
X10369236Y-13919091D01*
X10383521Y-13947663D01*
X10397807Y-14004806D01*
X10397807Y-14047663D01*
X10383521Y-14104806D01*
X10369236Y-14133377D01*
X10340664Y-14161949D01*
X10297807Y-14176234D01*
X10226378Y-14176234D01*
X10526378Y-14176234D02*
X10526378Y-13976234D01*
X10526378Y-14033377D02*
X10540664Y-14004806D01*
X10554950Y-13990520D01*
X10583521Y-13976234D01*
X10612093Y-13976234D01*
X10712093Y-14176234D02*
X10712093Y-13976234D01*
X10712093Y-13876234D02*
X10697807Y-13890520D01*
X10712093Y-13904806D01*
X10726378Y-13890520D01*
X10712093Y-13876234D01*
X10712093Y-13904806D01*
X10897807Y-14176234D02*
X10869236Y-14161949D01*
X10854950Y-14133377D01*
X10854950Y-13876234D01*
X11054950Y-14176234D02*
X11026378Y-14161949D01*
X11012093Y-14133377D01*
X11012093Y-13876234D01*
X11397807Y-14176234D02*
X11397807Y-13876234D01*
X11497807Y-14090520D01*
X11597807Y-13876234D01*
X11597807Y-14176234D01*
X11869236Y-14176234D02*
X11869236Y-14019091D01*
X11854950Y-13990520D01*
X11826378Y-13976234D01*
X11769236Y-13976234D01*
X11740664Y-13990520D01*
X11869236Y-14161949D02*
X11840664Y-14176234D01*
X11769236Y-14176234D01*
X11740664Y-14161949D01*
X11726378Y-14133377D01*
X11726378Y-14104806D01*
X11740664Y-14076234D01*
X11769236Y-14061949D01*
X11840664Y-14061949D01*
X11869236Y-14047663D01*
X12012093Y-13976234D02*
X12012093Y-14276234D01*
X12012093Y-13990520D02*
X12040664Y-13976234D01*
X12097807Y-13976234D01*
X12126378Y-13990520D01*
X12140664Y-14004806D01*
X12154950Y-14033377D01*
X12154950Y-14119091D01*
X12140664Y-14147663D01*
X12126378Y-14161949D01*
X12097807Y-14176234D01*
X12040664Y-14176234D01*
X12012093Y-14161949D01*
X12283521Y-14147663D02*
X12297807Y-14161949D01*
X12283521Y-14176234D01*
X12269236Y-14161949D01*
X12283521Y-14147663D01*
X12283521Y-14176234D01*
X12283521Y-13990520D02*
X12297807Y-14004806D01*
X12283521Y-14019091D01*
X12269236Y-14004806D01*
X12283521Y-13990520D01*
X12283521Y-14019091D01*
X9869950Y-14635520D02*
X9939950Y-14705520D01*
X9939950Y-14635520D02*
X9869950Y-14705520D01*
X10283521Y-14506234D02*
X10312093Y-14506234D01*
X10340664Y-14520520D01*
X10354950Y-14534806D01*
X10369236Y-14563377D01*
X10383521Y-14620520D01*
X10383521Y-14691949D01*
X10369236Y-14749091D01*
X10354950Y-14777663D01*
X10340664Y-14791949D01*
X10312093Y-14806234D01*
X10283521Y-14806234D01*
X10254950Y-14791949D01*
X10240664Y-14777663D01*
X10226378Y-14749091D01*
X10212093Y-14691949D01*
X10212093Y-14620520D01*
X10226378Y-14563377D01*
X10240664Y-14534806D01*
X10254950Y-14520520D01*
X10283521Y-14506234D01*
X10512093Y-14777663D02*
X10526378Y-14791949D01*
X10512093Y-14806234D01*
X10497807Y-14791949D01*
X10512093Y-14777663D01*
X10512093Y-14806234D01*
X10626378Y-14506234D02*
X10826378Y-14506234D01*
X10697807Y-14806234D01*
X10997807Y-14506234D02*
X11026378Y-14506234D01*
X11054950Y-14520520D01*
X11069236Y-14534806D01*
X11083521Y-14563377D01*
X11097807Y-14620520D01*
X11097807Y-14691949D01*
X11083521Y-14749091D01*
X11069236Y-14777663D01*
X11054950Y-14791949D01*
X11026378Y-14806234D01*
X10997807Y-14806234D01*
X10969236Y-14791949D01*
X10954950Y-14777663D01*
X10940664Y-14749091D01*
X10926378Y-14691949D01*
X10926378Y-14620520D01*
X10940664Y-14563377D01*
X10954950Y-14534806D01*
X10969236Y-14520520D01*
X10997807Y-14506234D01*
X11226378Y-14806234D02*
X11226378Y-14606234D01*
X11226378Y-14634806D02*
X11240664Y-14620520D01*
X11269236Y-14606234D01*
X11312093Y-14606234D01*
X11340664Y-14620520D01*
X11354950Y-14649091D01*
X11354950Y-14806234D01*
X11354950Y-14649091D02*
X11369236Y-14620520D01*
X11397807Y-14606234D01*
X11440664Y-14606234D01*
X11469236Y-14620520D01*
X11483521Y-14649091D01*
X11483521Y-14806234D01*
X11626378Y-14806234D02*
X11626378Y-14606234D01*
X11626378Y-14634806D02*
X11640664Y-14620520D01*
X11669236Y-14606234D01*
X11712093Y-14606234D01*
X11740664Y-14620520D01*
X11754950Y-14649091D01*
X11754950Y-14806234D01*
X11754950Y-14649091D02*
X11769236Y-14620520D01*
X11797807Y-14606234D01*
X11840664Y-14606234D01*
X11869236Y-14620520D01*
X11883521Y-14649091D01*
X11883521Y-14806234D01*
X12469236Y-14491949D02*
X12212093Y-14877663D01*
X12854950Y-14506234D02*
X12883521Y-14506234D01*
X12912093Y-14520520D01*
X12926378Y-14534806D01*
X12940664Y-14563377D01*
X12954950Y-14620520D01*
X12954950Y-14691949D01*
X12940664Y-14749091D01*
X12926378Y-14777663D01*
X12912093Y-14791949D01*
X12883521Y-14806234D01*
X12854950Y-14806234D01*
X12826378Y-14791949D01*
X12812093Y-14777663D01*
X12797807Y-14749091D01*
X12783521Y-14691949D01*
X12783521Y-14620520D01*
X12797807Y-14563377D01*
X12812093Y-14534806D01*
X12826378Y-14520520D01*
X12854950Y-14506234D01*
X13083521Y-14777663D02*
X13097807Y-14791949D01*
X13083521Y-14806234D01*
X13069236Y-14791949D01*
X13083521Y-14777663D01*
X13083521Y-14806234D01*
X13283521Y-14506234D02*
X13312093Y-14506234D01*
X13340664Y-14520520D01*
X13354950Y-14534806D01*
X13369236Y-14563377D01*
X13383521Y-14620520D01*
X13383521Y-14691949D01*
X13369236Y-14749091D01*
X13354950Y-14777663D01*
X13340664Y-14791949D01*
X13312093Y-14806234D01*
X13283521Y-14806234D01*
X13254950Y-14791949D01*
X13240664Y-14777663D01*
X13226378Y-14749091D01*
X13212093Y-14691949D01*
X13212093Y-14620520D01*
X13226378Y-14563377D01*
X13240664Y-14534806D01*
X13254950Y-14520520D01*
X13283521Y-14506234D01*
X13497807Y-14534806D02*
X13512093Y-14520520D01*
X13540664Y-14506234D01*
X13612093Y-14506234D01*
X13640664Y-14520520D01*
X13654950Y-14534806D01*
X13669236Y-14563377D01*
X13669236Y-14591949D01*
X13654950Y-14634806D01*
X13483521Y-14806234D01*
X13669236Y-14806234D01*
X13840664Y-14634806D02*
X13812093Y-14620520D01*
X13797807Y-14606234D01*
X13783521Y-14577663D01*
X13783521Y-14563377D01*
X13797807Y-14534806D01*
X13812093Y-14520520D01*
X13840664Y-14506234D01*
X13897807Y-14506234D01*
X13926378Y-14520520D01*
X13940664Y-14534806D01*
X13954950Y-14563377D01*
X13954950Y-14577663D01*
X13940664Y-14606234D01*
X13926378Y-14620520D01*
X13897807Y-14634806D01*
X13840664Y-14634806D01*
X13812093Y-14649091D01*
X13797807Y-14663377D01*
X13783521Y-14691949D01*
X13783521Y-14749091D01*
X13797807Y-14777663D01*
X13812093Y-14791949D01*
X13840664Y-14806234D01*
X13897807Y-14806234D01*
X13926378Y-14791949D01*
X13940664Y-14777663D01*
X13954950Y-14749091D01*
X13954950Y-14691949D01*
X13940664Y-14663377D01*
X13926378Y-14649091D01*
X13897807Y-14634806D01*
X14069236Y-14506234D02*
X14069236Y-14563377D01*
X14183521Y-14506234D02*
X14183521Y-14563377D01*
X14626378Y-14920520D02*
X14612093Y-14906234D01*
X14583521Y-14863377D01*
X14569236Y-14834806D01*
X14554950Y-14791949D01*
X14540664Y-14720520D01*
X14540664Y-14663377D01*
X14554950Y-14591949D01*
X14569236Y-14549091D01*
X14583521Y-14520520D01*
X14612093Y-14477663D01*
X14626378Y-14463377D01*
X14754950Y-14806234D02*
X14812093Y-14806234D01*
X14840664Y-14791949D01*
X14854950Y-14777663D01*
X14883521Y-14734806D01*
X14897807Y-14677663D01*
X14897807Y-14563377D01*
X14883521Y-14534806D01*
X14869236Y-14520520D01*
X14840664Y-14506234D01*
X14783521Y-14506234D01*
X14754950Y-14520520D01*
X14740664Y-14534806D01*
X14726378Y-14563377D01*
X14726378Y-14634806D01*
X14740664Y-14663377D01*
X14754950Y-14677663D01*
X14783521Y-14691949D01*
X14840664Y-14691949D01*
X14869236Y-14677663D01*
X14883521Y-14663377D01*
X14897807Y-14634806D01*
X14997807Y-14506234D02*
X15197807Y-14506234D01*
X15069236Y-14806234D01*
X15540664Y-14806234D02*
X15540664Y-14506234D01*
X15669236Y-14806234D02*
X15669236Y-14649091D01*
X15654950Y-14620520D01*
X15626378Y-14606234D01*
X15583521Y-14606234D01*
X15554950Y-14620520D01*
X15540664Y-14634806D01*
X15854950Y-14806234D02*
X15826378Y-14791949D01*
X15812093Y-14777663D01*
X15797807Y-14749091D01*
X15797807Y-14663377D01*
X15812093Y-14634806D01*
X15826378Y-14620520D01*
X15854950Y-14606234D01*
X15897807Y-14606234D01*
X15926378Y-14620520D01*
X15940664Y-14634806D01*
X15954950Y-14663377D01*
X15954950Y-14749091D01*
X15940664Y-14777663D01*
X15926378Y-14791949D01*
X15897807Y-14806234D01*
X15854950Y-14806234D01*
X16126378Y-14806234D02*
X16097807Y-14791949D01*
X16083521Y-14763377D01*
X16083521Y-14506234D01*
X16354950Y-14791949D02*
X16326378Y-14806234D01*
X16269236Y-14806234D01*
X16240664Y-14791949D01*
X16226378Y-14763377D01*
X16226378Y-14649091D01*
X16240664Y-14620520D01*
X16269236Y-14606234D01*
X16326378Y-14606234D01*
X16354950Y-14620520D01*
X16369236Y-14649091D01*
X16369236Y-14677663D01*
X16226378Y-14706234D01*
X16483521Y-14791949D02*
X16512093Y-14806234D01*
X16569236Y-14806234D01*
X16597807Y-14791949D01*
X16612093Y-14763377D01*
X16612093Y-14749091D01*
X16597807Y-14720520D01*
X16569236Y-14706234D01*
X16526378Y-14706234D01*
X16497807Y-14691949D01*
X16483521Y-14663377D01*
X16483521Y-14649091D01*
X16497807Y-14620520D01*
X16526378Y-14606234D01*
X16569236Y-14606234D01*
X16597807Y-14620520D01*
X16712093Y-14920520D02*
X16726378Y-14906234D01*
X16754950Y-14863377D01*
X16769236Y-14834806D01*
X16783521Y-14791949D01*
X16797807Y-14720520D01*
X16797807Y-14663377D01*
X16783521Y-14591949D01*
X16769236Y-14549091D01*
X16754950Y-14520520D01*
X16726378Y-14477663D01*
X16712093Y-14463377D01*
X9939950Y-15066520D02*
G75*
G03*
X9939950Y-15066520I-45000J0D01*
G01*
X10283521Y-14902234D02*
X10312093Y-14902234D01*
X10340664Y-14916520D01*
X10354950Y-14930806D01*
X10369236Y-14959377D01*
X10383521Y-15016520D01*
X10383521Y-15087949D01*
X10369236Y-15145091D01*
X10354950Y-15173663D01*
X10340664Y-15187949D01*
X10312093Y-15202234D01*
X10283521Y-15202234D01*
X10254950Y-15187949D01*
X10240664Y-15173663D01*
X10226378Y-15145091D01*
X10212093Y-15087949D01*
X10212093Y-15016520D01*
X10226378Y-14959377D01*
X10240664Y-14930806D01*
X10254950Y-14916520D01*
X10283521Y-14902234D01*
X10512093Y-15173663D02*
X10526378Y-15187949D01*
X10512093Y-15202234D01*
X10497807Y-15187949D01*
X10512093Y-15173663D01*
X10512093Y-15202234D01*
X10669236Y-15202234D02*
X10726378Y-15202234D01*
X10754950Y-15187949D01*
X10769236Y-15173663D01*
X10797807Y-15130806D01*
X10812093Y-15073663D01*
X10812093Y-14959377D01*
X10797807Y-14930806D01*
X10783521Y-14916520D01*
X10754950Y-14902234D01*
X10697807Y-14902234D01*
X10669236Y-14916520D01*
X10654950Y-14930806D01*
X10640664Y-14959377D01*
X10640664Y-15030806D01*
X10654950Y-15059377D01*
X10669236Y-15073663D01*
X10697807Y-15087949D01*
X10754950Y-15087949D01*
X10783521Y-15073663D01*
X10797807Y-15059377D01*
X10812093Y-15030806D01*
X10997807Y-14902234D02*
X11026378Y-14902234D01*
X11054950Y-14916520D01*
X11069236Y-14930806D01*
X11083521Y-14959377D01*
X11097807Y-15016520D01*
X11097807Y-15087949D01*
X11083521Y-15145091D01*
X11069236Y-15173663D01*
X11054950Y-15187949D01*
X11026378Y-15202234D01*
X10997807Y-15202234D01*
X10969236Y-15187949D01*
X10954950Y-15173663D01*
X10940664Y-15145091D01*
X10926378Y-15087949D01*
X10926378Y-15016520D01*
X10940664Y-14959377D01*
X10954950Y-14930806D01*
X10969236Y-14916520D01*
X10997807Y-14902234D01*
X11226378Y-15202234D02*
X11226378Y-15002234D01*
X11226378Y-15030806D02*
X11240664Y-15016520D01*
X11269236Y-15002234D01*
X11312093Y-15002234D01*
X11340664Y-15016520D01*
X11354950Y-15045091D01*
X11354950Y-15202234D01*
X11354950Y-15045091D02*
X11369236Y-15016520D01*
X11397807Y-15002234D01*
X11440664Y-15002234D01*
X11469236Y-15016520D01*
X11483521Y-15045091D01*
X11483521Y-15202234D01*
X11626378Y-15202234D02*
X11626378Y-15002234D01*
X11626378Y-15030806D02*
X11640664Y-15016520D01*
X11669236Y-15002234D01*
X11712093Y-15002234D01*
X11740664Y-15016520D01*
X11754950Y-15045091D01*
X11754950Y-15202234D01*
X11754950Y-15045091D02*
X11769236Y-15016520D01*
X11797807Y-15002234D01*
X11840664Y-15002234D01*
X11869236Y-15016520D01*
X11883521Y-15045091D01*
X11883521Y-15202234D01*
X12469236Y-14887949D02*
X12212093Y-15273663D01*
X12854950Y-14902234D02*
X12883521Y-14902234D01*
X12912093Y-14916520D01*
X12926378Y-14930806D01*
X12940664Y-14959377D01*
X12954950Y-15016520D01*
X12954950Y-15087949D01*
X12940664Y-15145091D01*
X12926378Y-15173663D01*
X12912093Y-15187949D01*
X12883521Y-15202234D01*
X12854950Y-15202234D01*
X12826378Y-15187949D01*
X12812093Y-15173663D01*
X12797807Y-15145091D01*
X12783521Y-15087949D01*
X12783521Y-15016520D01*
X12797807Y-14959377D01*
X12812093Y-14930806D01*
X12826378Y-14916520D01*
X12854950Y-14902234D01*
X13083521Y-15173663D02*
X13097807Y-15187949D01*
X13083521Y-15202234D01*
X13069236Y-15187949D01*
X13083521Y-15173663D01*
X13083521Y-15202234D01*
X13283521Y-14902234D02*
X13312093Y-14902234D01*
X13340664Y-14916520D01*
X13354950Y-14930806D01*
X13369236Y-14959377D01*
X13383521Y-15016520D01*
X13383521Y-15087949D01*
X13369236Y-15145091D01*
X13354950Y-15173663D01*
X13340664Y-15187949D01*
X13312093Y-15202234D01*
X13283521Y-15202234D01*
X13254950Y-15187949D01*
X13240664Y-15173663D01*
X13226378Y-15145091D01*
X13212093Y-15087949D01*
X13212093Y-15016520D01*
X13226378Y-14959377D01*
X13240664Y-14930806D01*
X13254950Y-14916520D01*
X13283521Y-14902234D01*
X13483521Y-14902234D02*
X13669236Y-14902234D01*
X13569236Y-15016520D01*
X13612093Y-15016520D01*
X13640664Y-15030806D01*
X13654950Y-15045091D01*
X13669236Y-15073663D01*
X13669236Y-15145091D01*
X13654950Y-15173663D01*
X13640664Y-15187949D01*
X13612093Y-15202234D01*
X13526378Y-15202234D01*
X13497807Y-15187949D01*
X13483521Y-15173663D01*
X13940664Y-14902234D02*
X13797807Y-14902234D01*
X13783521Y-15045091D01*
X13797807Y-15030806D01*
X13826378Y-15016520D01*
X13897807Y-15016520D01*
X13926378Y-15030806D01*
X13940664Y-15045091D01*
X13954950Y-15073663D01*
X13954950Y-15145091D01*
X13940664Y-15173663D01*
X13926378Y-15187949D01*
X13897807Y-15202234D01*
X13826378Y-15202234D01*
X13797807Y-15187949D01*
X13783521Y-15173663D01*
X14069236Y-14902234D02*
X14069236Y-14959377D01*
X14183521Y-14902234D02*
X14183521Y-14959377D01*
X14626378Y-15316520D02*
X14612093Y-15302234D01*
X14583521Y-15259377D01*
X14569236Y-15230806D01*
X14554950Y-15187949D01*
X14540664Y-15116520D01*
X14540664Y-15059377D01*
X14554950Y-14987949D01*
X14569236Y-14945091D01*
X14583521Y-14916520D01*
X14612093Y-14873663D01*
X14626378Y-14859377D01*
X14726378Y-14930806D02*
X14740664Y-14916520D01*
X14769236Y-14902234D01*
X14840664Y-14902234D01*
X14869236Y-14916520D01*
X14883521Y-14930806D01*
X14897807Y-14959377D01*
X14897807Y-14987949D01*
X14883521Y-15030806D01*
X14712093Y-15202234D01*
X14897807Y-15202234D01*
X15012093Y-14930806D02*
X15026378Y-14916520D01*
X15054950Y-14902234D01*
X15126378Y-14902234D01*
X15154950Y-14916520D01*
X15169236Y-14930806D01*
X15183521Y-14959377D01*
X15183521Y-14987949D01*
X15169236Y-15030806D01*
X14997807Y-15202234D01*
X15183521Y-15202234D01*
X15540664Y-15202234D02*
X15540664Y-14902234D01*
X15669236Y-15202234D02*
X15669236Y-15045091D01*
X15654950Y-15016520D01*
X15626378Y-15002234D01*
X15583521Y-15002234D01*
X15554950Y-15016520D01*
X15540664Y-15030806D01*
X15854950Y-15202234D02*
X15826378Y-15187949D01*
X15812093Y-15173663D01*
X15797807Y-15145091D01*
X15797807Y-15059377D01*
X15812093Y-15030806D01*
X15826378Y-15016520D01*
X15854950Y-15002234D01*
X15897807Y-15002234D01*
X15926378Y-15016520D01*
X15940664Y-15030806D01*
X15954950Y-15059377D01*
X15954950Y-15145091D01*
X15940664Y-15173663D01*
X15926378Y-15187949D01*
X15897807Y-15202234D01*
X15854950Y-15202234D01*
X16126378Y-15202234D02*
X16097807Y-15187949D01*
X16083521Y-15159377D01*
X16083521Y-14902234D01*
X16354950Y-15187949D02*
X16326378Y-15202234D01*
X16269236Y-15202234D01*
X16240664Y-15187949D01*
X16226378Y-15159377D01*
X16226378Y-15045091D01*
X16240664Y-15016520D01*
X16269236Y-15002234D01*
X16326378Y-15002234D01*
X16354950Y-15016520D01*
X16369236Y-15045091D01*
X16369236Y-15073663D01*
X16226378Y-15102234D01*
X16483521Y-15187949D02*
X16512093Y-15202234D01*
X16569236Y-15202234D01*
X16597807Y-15187949D01*
X16612093Y-15159377D01*
X16612093Y-15145091D01*
X16597807Y-15116520D01*
X16569236Y-15102234D01*
X16526378Y-15102234D01*
X16497807Y-15087949D01*
X16483521Y-15059377D01*
X16483521Y-15045091D01*
X16497807Y-15016520D01*
X16526378Y-15002234D01*
X16569236Y-15002234D01*
X16597807Y-15016520D01*
X16712093Y-15316520D02*
X16726378Y-15302234D01*
X16754950Y-15259377D01*
X16769236Y-15230806D01*
X16783521Y-15187949D01*
X16797807Y-15116520D01*
X16797807Y-15059377D01*
X16783521Y-14987949D01*
X16769236Y-14945091D01*
X16754950Y-14916520D01*
X16726378Y-14873663D01*
X16712093Y-14859377D01*
X9864950Y-15387520D02*
X9864950Y-15537520D01*
X9789950Y-15462520D02*
X9939950Y-15462520D01*
X10383521Y-15598234D02*
X10212093Y-15598234D01*
X10297807Y-15598234D02*
X10297807Y-15298234D01*
X10269236Y-15341091D01*
X10240664Y-15369663D01*
X10212093Y-15383949D01*
X10512093Y-15569663D02*
X10526378Y-15583949D01*
X10512093Y-15598234D01*
X10497807Y-15583949D01*
X10512093Y-15569663D01*
X10512093Y-15598234D01*
X10797807Y-15298234D02*
X10654950Y-15298234D01*
X10640664Y-15441091D01*
X10654950Y-15426806D01*
X10683521Y-15412520D01*
X10754950Y-15412520D01*
X10783521Y-15426806D01*
X10797807Y-15441091D01*
X10812093Y-15469663D01*
X10812093Y-15541091D01*
X10797807Y-15569663D01*
X10783521Y-15583949D01*
X10754950Y-15598234D01*
X10683521Y-15598234D01*
X10654950Y-15583949D01*
X10640664Y-15569663D01*
X10997807Y-15298234D02*
X11026378Y-15298234D01*
X11054950Y-15312520D01*
X11069236Y-15326806D01*
X11083521Y-15355377D01*
X11097807Y-15412520D01*
X11097807Y-15483949D01*
X11083521Y-15541091D01*
X11069236Y-15569663D01*
X11054950Y-15583949D01*
X11026378Y-15598234D01*
X10997807Y-15598234D01*
X10969236Y-15583949D01*
X10954950Y-15569663D01*
X10940664Y-15541091D01*
X10926378Y-15483949D01*
X10926378Y-15412520D01*
X10940664Y-15355377D01*
X10954950Y-15326806D01*
X10969236Y-15312520D01*
X10997807Y-15298234D01*
X11226378Y-15598234D02*
X11226378Y-15398234D01*
X11226378Y-15426806D02*
X11240664Y-15412520D01*
X11269236Y-15398234D01*
X11312093Y-15398234D01*
X11340664Y-15412520D01*
X11354950Y-15441091D01*
X11354950Y-15598234D01*
X11354950Y-15441091D02*
X11369236Y-15412520D01*
X11397807Y-15398234D01*
X11440664Y-15398234D01*
X11469236Y-15412520D01*
X11483521Y-15441091D01*
X11483521Y-15598234D01*
X11626378Y-15598234D02*
X11626378Y-15398234D01*
X11626378Y-15426806D02*
X11640664Y-15412520D01*
X11669236Y-15398234D01*
X11712093Y-15398234D01*
X11740664Y-15412520D01*
X11754950Y-15441091D01*
X11754950Y-15598234D01*
X11754950Y-15441091D02*
X11769236Y-15412520D01*
X11797807Y-15398234D01*
X11840664Y-15398234D01*
X11869236Y-15412520D01*
X11883521Y-15441091D01*
X11883521Y-15598234D01*
X12469236Y-15283949D02*
X12212093Y-15669663D01*
X12854950Y-15298234D02*
X12883521Y-15298234D01*
X12912093Y-15312520D01*
X12926378Y-15326806D01*
X12940664Y-15355377D01*
X12954950Y-15412520D01*
X12954950Y-15483949D01*
X12940664Y-15541091D01*
X12926378Y-15569663D01*
X12912093Y-15583949D01*
X12883521Y-15598234D01*
X12854950Y-15598234D01*
X12826378Y-15583949D01*
X12812093Y-15569663D01*
X12797807Y-15541091D01*
X12783521Y-15483949D01*
X12783521Y-15412520D01*
X12797807Y-15355377D01*
X12812093Y-15326806D01*
X12826378Y-15312520D01*
X12854950Y-15298234D01*
X13083521Y-15569663D02*
X13097807Y-15583949D01*
X13083521Y-15598234D01*
X13069236Y-15583949D01*
X13083521Y-15569663D01*
X13083521Y-15598234D01*
X13283521Y-15298234D02*
X13312093Y-15298234D01*
X13340664Y-15312520D01*
X13354950Y-15326806D01*
X13369236Y-15355377D01*
X13383521Y-15412520D01*
X13383521Y-15483949D01*
X13369236Y-15541091D01*
X13354950Y-15569663D01*
X13340664Y-15583949D01*
X13312093Y-15598234D01*
X13283521Y-15598234D01*
X13254950Y-15583949D01*
X13240664Y-15569663D01*
X13226378Y-15541091D01*
X13212093Y-15483949D01*
X13212093Y-15412520D01*
X13226378Y-15355377D01*
X13240664Y-15326806D01*
X13254950Y-15312520D01*
X13283521Y-15298234D01*
X13654950Y-15298234D02*
X13512093Y-15298234D01*
X13497807Y-15441091D01*
X13512093Y-15426806D01*
X13540664Y-15412520D01*
X13612093Y-15412520D01*
X13640664Y-15426806D01*
X13654950Y-15441091D01*
X13669236Y-15469663D01*
X13669236Y-15541091D01*
X13654950Y-15569663D01*
X13640664Y-15583949D01*
X13612093Y-15598234D01*
X13540664Y-15598234D01*
X13512093Y-15583949D01*
X13497807Y-15569663D01*
X13812093Y-15598234D02*
X13869236Y-15598234D01*
X13897807Y-15583949D01*
X13912093Y-15569663D01*
X13940664Y-15526806D01*
X13954950Y-15469663D01*
X13954950Y-15355377D01*
X13940664Y-15326806D01*
X13926378Y-15312520D01*
X13897807Y-15298234D01*
X13840664Y-15298234D01*
X13812093Y-15312520D01*
X13797807Y-15326806D01*
X13783521Y-15355377D01*
X13783521Y-15426806D01*
X13797807Y-15455377D01*
X13812093Y-15469663D01*
X13840664Y-15483949D01*
X13897807Y-15483949D01*
X13926378Y-15469663D01*
X13940664Y-15455377D01*
X13954950Y-15426806D01*
X14069236Y-15298234D02*
X14069236Y-15355377D01*
X14183521Y-15298234D02*
X14183521Y-15355377D01*
X14626378Y-15712520D02*
X14612093Y-15698234D01*
X14583521Y-15655377D01*
X14569236Y-15626806D01*
X14554950Y-15583949D01*
X14540664Y-15512520D01*
X14540664Y-15455377D01*
X14554950Y-15383949D01*
X14569236Y-15341091D01*
X14583521Y-15312520D01*
X14612093Y-15269663D01*
X14626378Y-15255377D01*
X14726378Y-15326806D02*
X14740664Y-15312520D01*
X14769236Y-15298234D01*
X14840664Y-15298234D01*
X14869236Y-15312520D01*
X14883521Y-15326806D01*
X14897807Y-15355377D01*
X14897807Y-15383949D01*
X14883521Y-15426806D01*
X14712093Y-15598234D01*
X14897807Y-15598234D01*
X15083521Y-15298234D02*
X15112093Y-15298234D01*
X15140664Y-15312520D01*
X15154950Y-15326806D01*
X15169236Y-15355377D01*
X15183521Y-15412520D01*
X15183521Y-15483949D01*
X15169236Y-15541091D01*
X15154950Y-15569663D01*
X15140664Y-15583949D01*
X15112093Y-15598234D01*
X15083521Y-15598234D01*
X15054950Y-15583949D01*
X15040664Y-15569663D01*
X15026378Y-15541091D01*
X15012093Y-15483949D01*
X15012093Y-15412520D01*
X15026378Y-15355377D01*
X15040664Y-15326806D01*
X15054950Y-15312520D01*
X15083521Y-15298234D01*
X15540664Y-15598234D02*
X15540664Y-15298234D01*
X15669236Y-15598234D02*
X15669236Y-15441091D01*
X15654950Y-15412520D01*
X15626378Y-15398234D01*
X15583521Y-15398234D01*
X15554950Y-15412520D01*
X15540664Y-15426806D01*
X15854950Y-15598234D02*
X15826378Y-15583949D01*
X15812093Y-15569663D01*
X15797807Y-15541091D01*
X15797807Y-15455377D01*
X15812093Y-15426806D01*
X15826378Y-15412520D01*
X15854950Y-15398234D01*
X15897807Y-15398234D01*
X15926378Y-15412520D01*
X15940664Y-15426806D01*
X15954950Y-15455377D01*
X15954950Y-15541091D01*
X15940664Y-15569663D01*
X15926378Y-15583949D01*
X15897807Y-15598234D01*
X15854950Y-15598234D01*
X16126378Y-15598234D02*
X16097807Y-15583949D01*
X16083521Y-15555377D01*
X16083521Y-15298234D01*
X16354950Y-15583949D02*
X16326378Y-15598234D01*
X16269236Y-15598234D01*
X16240664Y-15583949D01*
X16226378Y-15555377D01*
X16226378Y-15441091D01*
X16240664Y-15412520D01*
X16269236Y-15398234D01*
X16326378Y-15398234D01*
X16354950Y-15412520D01*
X16369236Y-15441091D01*
X16369236Y-15469663D01*
X16226378Y-15498234D01*
X16483521Y-15583949D02*
X16512093Y-15598234D01*
X16569236Y-15598234D01*
X16597807Y-15583949D01*
X16612093Y-15555377D01*
X16612093Y-15541091D01*
X16597807Y-15512520D01*
X16569236Y-15498234D01*
X16526378Y-15498234D01*
X16497807Y-15483949D01*
X16483521Y-15455377D01*
X16483521Y-15441091D01*
X16497807Y-15412520D01*
X16526378Y-15398234D01*
X16569236Y-15398234D01*
X16597807Y-15412520D01*
X16712093Y-15712520D02*
X16726378Y-15698234D01*
X16754950Y-15655377D01*
X16769236Y-15626806D01*
X16783521Y-15583949D01*
X16797807Y-15512520D01*
X16797807Y-15455377D01*
X16783521Y-15383949D01*
X16769236Y-15341091D01*
X16754950Y-15312520D01*
X16726378Y-15269663D01*
X16712093Y-15255377D01*
M02*
