M48
; DRILL file {KiCad 5.1.8-4.fc33} date Sun Jan  3 23:47:10 2021
; FORMAT={-:-/ absolute / metric / decimal}
; #@! TF.CreationDate,2021-01-03T23:47:10+01:00
; #@! TF.GenerationSoftware,Kicad,Pcbnew,5.1.8-4.fc33
; #@! TF.FileFunction,Plated,1,2,PTH
FMAT,2
METRIC
T1C0.700
T2C0.900
T3C1.500
%
G90
G05
T1
X104.924Y-103.001
X108.568Y-74.648
X109.527Y-92.841
X111.28Y-74.648
X111.591Y-92.841
X114.766Y-105.223
X117.782Y-107.128
X120.322Y-96.016
X120.957Y-111.732
X121.592Y-94.111
X121.91Y-83.951
X122.545Y-77.093
X122.862Y-96.016
X123.815Y-99.826
X124.132Y-94.111
X124.767Y-77.093
X124.767Y-97.921
X125.402Y-101.096
X125.72Y-95.381
X126.037Y-117.923
X127.307Y-94.111
X127.625Y-96.651
X127.942Y-119.511
X128.577Y-100.778
X129.212Y-95.063
X129.847Y-76.997
X129.847Y-103.636
X129.847Y-121.098
X130.165Y-85.538
X130.165Y-92.841
X130.482Y-109.351
X131.752Y-122.686
X133.181Y-97.603
X134.451Y-96.492
X135.086Y-78.871
X135.721Y-98.556
X135.721Y-124.432
X136.991Y-95.381
X138.261Y-98.556
X138.261Y-124.432
X139.849Y-110.938
X140.801Y-124.432
X141.119Y-117.923
X142.389Y-115.701
X142.706Y-107.445
X143.341Y-124.432
X143.659Y-117.606
X144.611Y-96.714
X144.929Y-115.701
X146.04Y-109.986
X146.516Y-117.288
X147.151Y-124.432
X149.691Y-124.432
X149.691Y-78.998
X151.12Y-117.098
X151.914Y-104.271
X152.231Y-106.493
X152.549Y-124.432
X154.771Y-124.432
X156.041Y-107.763
X156.2Y-103.318
X156.2Y-105.541
X157.311Y-124.432
X157.629Y-76.997
X158.74Y-105.541
X159.851Y-124.432
X160.962Y-106.176
X162.391Y-124.432
X162.55Y-107.763
X162.55Y-114.272
X166.201Y-115.383
X166.36Y-124.432
X173.821Y-126.369
X179.346Y-98.873
X180.012Y-104.906
X180.171Y-101.731
X181.378Y-98.873
X190.331Y-79.982
X190.331Y-82.046
X190.331Y-83.951
X190.331Y-86.014
X193.189Y-79.029
X193.189Y-81.093
X193.189Y-82.998
X193.189Y-85.062
X160.327Y-80.839
X160.327Y-88.459
X162.867Y-80.839
X162.867Y-88.459
X165.407Y-80.839
X165.407Y-88.459
X173.027Y-80.839
X173.027Y-88.459
X175.567Y-80.839
X175.567Y-88.459
X178.107Y-80.839
X178.107Y-88.459
T2
X105.718Y-77.029
X108.257Y-77.029
X183.663Y-78.077
X183.663Y-80.617
X183.663Y-83.157
X183.663Y-85.697
X186.203Y-79.347
X186.203Y-81.887
X186.203Y-84.427
X186.203Y-86.967
X111.591Y-121.416
X114.131Y-121.416
X162.867Y-77.188
X167.947Y-77.188
X170.487Y-92.079
X175.567Y-92.079
X111.591Y-77.029
X114.131Y-77.029
X162.867Y-92.079
X167.947Y-92.079
X170.233Y-77.188
X175.314Y-77.188
T3
X176.996Y-96.333
X176.996Y-98.873
X176.996Y-101.413
X176.996Y-103.953
X176.996Y-106.493
X176.996Y-109.033
X176.996Y-111.573
X176.996Y-114.113
X176.996Y-116.653
X176.996Y-119.193
X184.616Y-96.333
X184.616Y-98.873
X184.616Y-101.413
X184.616Y-103.953
X184.616Y-106.493
X184.616Y-109.033
X184.616Y-111.573
X184.616Y-114.113
X184.616Y-116.653
X184.616Y-119.193
T0
M30
