%FSLAX45Y45*%
G04 Gerber Fmt 4.5, Leading zero omitted, Abs format (unit mm)*
G04 Created by KiCad (PCBNEW 5.1.8-4.fc33) date 2021-01-03 23:47:01*
%MOMM*%
%LPD*%
G01*
G04 APERTURE LIST*
%ADD10C,0.200000*%
%ADD11C,0.300000*%
G04 APERTURE END LIST*
D10*
X19455150Y-7359790D02*
X19665150Y-7569790D01*
X19665150Y-7359790D02*
X19455150Y-7569790D01*
X19455150Y-8934590D02*
X19665150Y-9144590D01*
X19665150Y-8934590D02*
X19455150Y-9144590D01*
X10415110Y-10700360D02*
G75*
G03*
X10415110Y-10700360I-165000J0D01*
G01*
X19615110Y-10700360D02*
G75*
G03*
X19615110Y-10700360I-165000J0D01*
G01*
X19420350Y-7680690D02*
G75*
G03*
X19420350Y-7680690I-165000J0D01*
G01*
X19420350Y-8823690D02*
G75*
G03*
X19420350Y-8823690I-165000J0D01*
G01*
D11*
X10226378Y-14176234D02*
X10226378Y-13876234D01*
X10297807Y-13876234D01*
X10340664Y-13890520D01*
X10369236Y-13919091D01*
X10383521Y-13947663D01*
X10397807Y-14004806D01*
X10397807Y-14047663D01*
X10383521Y-14104806D01*
X10369236Y-14133377D01*
X10340664Y-14161949D01*
X10297807Y-14176234D01*
X10226378Y-14176234D01*
X10526378Y-14176234D02*
X10526378Y-13976234D01*
X10526378Y-14033377D02*
X10540664Y-14004806D01*
X10554950Y-13990520D01*
X10583521Y-13976234D01*
X10612093Y-13976234D01*
X10712093Y-14176234D02*
X10712093Y-13976234D01*
X10712093Y-13876234D02*
X10697807Y-13890520D01*
X10712093Y-13904806D01*
X10726378Y-13890520D01*
X10712093Y-13876234D01*
X10712093Y-13904806D01*
X10897807Y-14176234D02*
X10869236Y-14161949D01*
X10854950Y-14133377D01*
X10854950Y-13876234D01*
X11054950Y-14176234D02*
X11026378Y-14161949D01*
X11012093Y-14133377D01*
X11012093Y-13876234D01*
X11397807Y-14176234D02*
X11397807Y-13876234D01*
X11497807Y-14090520D01*
X11597807Y-13876234D01*
X11597807Y-14176234D01*
X11869236Y-14176234D02*
X11869236Y-14019091D01*
X11854950Y-13990520D01*
X11826378Y-13976234D01*
X11769236Y-13976234D01*
X11740664Y-13990520D01*
X11869236Y-14161949D02*
X11840664Y-14176234D01*
X11769236Y-14176234D01*
X11740664Y-14161949D01*
X11726378Y-14133377D01*
X11726378Y-14104806D01*
X11740664Y-14076234D01*
X11769236Y-14061949D01*
X11840664Y-14061949D01*
X11869236Y-14047663D01*
X12012093Y-13976234D02*
X12012093Y-14276234D01*
X12012093Y-13990520D02*
X12040664Y-13976234D01*
X12097807Y-13976234D01*
X12126378Y-13990520D01*
X12140664Y-14004806D01*
X12154950Y-14033377D01*
X12154950Y-14119091D01*
X12140664Y-14147663D01*
X12126378Y-14161949D01*
X12097807Y-14176234D01*
X12040664Y-14176234D01*
X12012093Y-14161949D01*
X12283521Y-14147663D02*
X12297807Y-14161949D01*
X12283521Y-14176234D01*
X12269236Y-14161949D01*
X12283521Y-14147663D01*
X12283521Y-14176234D01*
X12283521Y-13990520D02*
X12297807Y-14004806D01*
X12283521Y-14019091D01*
X12269236Y-14004806D01*
X12283521Y-13990520D01*
X12283521Y-14019091D01*
X9729950Y-14565520D02*
X9939950Y-14775520D01*
X9939950Y-14565520D02*
X9729950Y-14775520D01*
X10212093Y-14534806D02*
X10226378Y-14520520D01*
X10254950Y-14506234D01*
X10326378Y-14506234D01*
X10354950Y-14520520D01*
X10369236Y-14534806D01*
X10383521Y-14563377D01*
X10383521Y-14591949D01*
X10369236Y-14634806D01*
X10197807Y-14806234D01*
X10383521Y-14806234D01*
X10512093Y-14777663D02*
X10526378Y-14791949D01*
X10512093Y-14806234D01*
X10497807Y-14791949D01*
X10512093Y-14777663D01*
X10512093Y-14806234D01*
X10812093Y-14806234D02*
X10640664Y-14806234D01*
X10726378Y-14806234D02*
X10726378Y-14506234D01*
X10697807Y-14549091D01*
X10669236Y-14577663D01*
X10640664Y-14591949D01*
X10997807Y-14506234D02*
X11026378Y-14506234D01*
X11054950Y-14520520D01*
X11069236Y-14534806D01*
X11083521Y-14563377D01*
X11097807Y-14620520D01*
X11097807Y-14691949D01*
X11083521Y-14749091D01*
X11069236Y-14777663D01*
X11054950Y-14791949D01*
X11026378Y-14806234D01*
X10997807Y-14806234D01*
X10969236Y-14791949D01*
X10954950Y-14777663D01*
X10940664Y-14749091D01*
X10926378Y-14691949D01*
X10926378Y-14620520D01*
X10940664Y-14563377D01*
X10954950Y-14534806D01*
X10969236Y-14520520D01*
X10997807Y-14506234D01*
X11226378Y-14806234D02*
X11226378Y-14606234D01*
X11226378Y-14634806D02*
X11240664Y-14620520D01*
X11269236Y-14606234D01*
X11312093Y-14606234D01*
X11340664Y-14620520D01*
X11354950Y-14649091D01*
X11354950Y-14806234D01*
X11354950Y-14649091D02*
X11369236Y-14620520D01*
X11397807Y-14606234D01*
X11440664Y-14606234D01*
X11469236Y-14620520D01*
X11483521Y-14649091D01*
X11483521Y-14806234D01*
X11626378Y-14806234D02*
X11626378Y-14606234D01*
X11626378Y-14634806D02*
X11640664Y-14620520D01*
X11669236Y-14606234D01*
X11712093Y-14606234D01*
X11740664Y-14620520D01*
X11754950Y-14649091D01*
X11754950Y-14806234D01*
X11754950Y-14649091D02*
X11769236Y-14620520D01*
X11797807Y-14606234D01*
X11840664Y-14606234D01*
X11869236Y-14620520D01*
X11883521Y-14649091D01*
X11883521Y-14806234D01*
X12469236Y-14491949D02*
X12212093Y-14877663D01*
X12854950Y-14506234D02*
X12883521Y-14506234D01*
X12912093Y-14520520D01*
X12926378Y-14534806D01*
X12940664Y-14563377D01*
X12954950Y-14620520D01*
X12954950Y-14691949D01*
X12940664Y-14749091D01*
X12926378Y-14777663D01*
X12912093Y-14791949D01*
X12883521Y-14806234D01*
X12854950Y-14806234D01*
X12826378Y-14791949D01*
X12812093Y-14777663D01*
X12797807Y-14749091D01*
X12783521Y-14691949D01*
X12783521Y-14620520D01*
X12797807Y-14563377D01*
X12812093Y-14534806D01*
X12826378Y-14520520D01*
X12854950Y-14506234D01*
X13083521Y-14777663D02*
X13097807Y-14791949D01*
X13083521Y-14806234D01*
X13069236Y-14791949D01*
X13083521Y-14777663D01*
X13083521Y-14806234D01*
X13283521Y-14506234D02*
X13312093Y-14506234D01*
X13340664Y-14520520D01*
X13354950Y-14534806D01*
X13369236Y-14563377D01*
X13383521Y-14620520D01*
X13383521Y-14691949D01*
X13369236Y-14749091D01*
X13354950Y-14777663D01*
X13340664Y-14791949D01*
X13312093Y-14806234D01*
X13283521Y-14806234D01*
X13254950Y-14791949D01*
X13240664Y-14777663D01*
X13226378Y-14749091D01*
X13212093Y-14691949D01*
X13212093Y-14620520D01*
X13226378Y-14563377D01*
X13240664Y-14534806D01*
X13254950Y-14520520D01*
X13283521Y-14506234D01*
X13554950Y-14634806D02*
X13526378Y-14620520D01*
X13512093Y-14606234D01*
X13497807Y-14577663D01*
X13497807Y-14563377D01*
X13512093Y-14534806D01*
X13526378Y-14520520D01*
X13554950Y-14506234D01*
X13612093Y-14506234D01*
X13640664Y-14520520D01*
X13654950Y-14534806D01*
X13669236Y-14563377D01*
X13669236Y-14577663D01*
X13654950Y-14606234D01*
X13640664Y-14620520D01*
X13612093Y-14634806D01*
X13554950Y-14634806D01*
X13526378Y-14649091D01*
X13512093Y-14663377D01*
X13497807Y-14691949D01*
X13497807Y-14749091D01*
X13512093Y-14777663D01*
X13526378Y-14791949D01*
X13554950Y-14806234D01*
X13612093Y-14806234D01*
X13640664Y-14791949D01*
X13654950Y-14777663D01*
X13669236Y-14749091D01*
X13669236Y-14691949D01*
X13654950Y-14663377D01*
X13640664Y-14649091D01*
X13612093Y-14634806D01*
X13769236Y-14506234D02*
X13954950Y-14506234D01*
X13854950Y-14620520D01*
X13897807Y-14620520D01*
X13926378Y-14634806D01*
X13940664Y-14649091D01*
X13954950Y-14677663D01*
X13954950Y-14749091D01*
X13940664Y-14777663D01*
X13926378Y-14791949D01*
X13897807Y-14806234D01*
X13812093Y-14806234D01*
X13783521Y-14791949D01*
X13769236Y-14777663D01*
X14069236Y-14506234D02*
X14069236Y-14563377D01*
X14183521Y-14506234D02*
X14183521Y-14563377D01*
X14626378Y-14920520D02*
X14612093Y-14906234D01*
X14583521Y-14863377D01*
X14569236Y-14834806D01*
X14554950Y-14791949D01*
X14540664Y-14720520D01*
X14540664Y-14663377D01*
X14554950Y-14591949D01*
X14569236Y-14549091D01*
X14583521Y-14520520D01*
X14612093Y-14477663D01*
X14626378Y-14463377D01*
X14726378Y-14534806D02*
X14740664Y-14520520D01*
X14769236Y-14506234D01*
X14840664Y-14506234D01*
X14869236Y-14520520D01*
X14883521Y-14534806D01*
X14897807Y-14563377D01*
X14897807Y-14591949D01*
X14883521Y-14634806D01*
X14712093Y-14806234D01*
X14897807Y-14806234D01*
X15254950Y-14806234D02*
X15254950Y-14506234D01*
X15383521Y-14806234D02*
X15383521Y-14649091D01*
X15369236Y-14620520D01*
X15340664Y-14606234D01*
X15297807Y-14606234D01*
X15269236Y-14620520D01*
X15254950Y-14634806D01*
X15569236Y-14806234D02*
X15540664Y-14791949D01*
X15526378Y-14777663D01*
X15512093Y-14749091D01*
X15512093Y-14663377D01*
X15526378Y-14634806D01*
X15540664Y-14620520D01*
X15569236Y-14606234D01*
X15612093Y-14606234D01*
X15640664Y-14620520D01*
X15654950Y-14634806D01*
X15669236Y-14663377D01*
X15669236Y-14749091D01*
X15654950Y-14777663D01*
X15640664Y-14791949D01*
X15612093Y-14806234D01*
X15569236Y-14806234D01*
X15840664Y-14806234D02*
X15812093Y-14791949D01*
X15797807Y-14763377D01*
X15797807Y-14506234D01*
X16069236Y-14791949D02*
X16040664Y-14806234D01*
X15983521Y-14806234D01*
X15954950Y-14791949D01*
X15940664Y-14763377D01*
X15940664Y-14649091D01*
X15954950Y-14620520D01*
X15983521Y-14606234D01*
X16040664Y-14606234D01*
X16069236Y-14620520D01*
X16083521Y-14649091D01*
X16083521Y-14677663D01*
X15940664Y-14706234D01*
X16197807Y-14791949D02*
X16226378Y-14806234D01*
X16283521Y-14806234D01*
X16312093Y-14791949D01*
X16326378Y-14763377D01*
X16326378Y-14749091D01*
X16312093Y-14720520D01*
X16283521Y-14706234D01*
X16240664Y-14706234D01*
X16212093Y-14691949D01*
X16197807Y-14663377D01*
X16197807Y-14649091D01*
X16212093Y-14620520D01*
X16240664Y-14606234D01*
X16283521Y-14606234D01*
X16312093Y-14620520D01*
X16426378Y-14920520D02*
X16440664Y-14906234D01*
X16469236Y-14863377D01*
X16483521Y-14834806D01*
X16497807Y-14791949D01*
X16512093Y-14720520D01*
X16512093Y-14663377D01*
X16497807Y-14591949D01*
X16483521Y-14549091D01*
X16469236Y-14520520D01*
X16440664Y-14477663D01*
X16426378Y-14463377D01*
X16969236Y-14920520D02*
X16954950Y-14906234D01*
X16926378Y-14863377D01*
X16912093Y-14834806D01*
X16897807Y-14791949D01*
X16883521Y-14720520D01*
X16883521Y-14663377D01*
X16897807Y-14591949D01*
X16912093Y-14549091D01*
X16926378Y-14520520D01*
X16954950Y-14477663D01*
X16969236Y-14463377D01*
X17083521Y-14606234D02*
X17083521Y-14806234D01*
X17083521Y-14634806D02*
X17097807Y-14620520D01*
X17126378Y-14606234D01*
X17169236Y-14606234D01*
X17197807Y-14620520D01*
X17212093Y-14649091D01*
X17212093Y-14806234D01*
X17397807Y-14806234D02*
X17369236Y-14791949D01*
X17354950Y-14777663D01*
X17340664Y-14749091D01*
X17340664Y-14663377D01*
X17354950Y-14634806D01*
X17369236Y-14620520D01*
X17397807Y-14606234D01*
X17440664Y-14606234D01*
X17469236Y-14620520D01*
X17483521Y-14634806D01*
X17497807Y-14663377D01*
X17497807Y-14749091D01*
X17483521Y-14777663D01*
X17469236Y-14791949D01*
X17440664Y-14806234D01*
X17397807Y-14806234D01*
X17583521Y-14606234D02*
X17697807Y-14606234D01*
X17626378Y-14506234D02*
X17626378Y-14763377D01*
X17640664Y-14791949D01*
X17669236Y-14806234D01*
X17697807Y-14806234D01*
X18026378Y-14606234D02*
X18026378Y-14906234D01*
X18026378Y-14620520D02*
X18054950Y-14606234D01*
X18112093Y-14606234D01*
X18140664Y-14620520D01*
X18154950Y-14634806D01*
X18169236Y-14663377D01*
X18169236Y-14749091D01*
X18154950Y-14777663D01*
X18140664Y-14791949D01*
X18112093Y-14806234D01*
X18054950Y-14806234D01*
X18026378Y-14791949D01*
X18340664Y-14806234D02*
X18312093Y-14791949D01*
X18297807Y-14763377D01*
X18297807Y-14506234D01*
X18583521Y-14806234D02*
X18583521Y-14649091D01*
X18569236Y-14620520D01*
X18540664Y-14606234D01*
X18483521Y-14606234D01*
X18454950Y-14620520D01*
X18583521Y-14791949D02*
X18554950Y-14806234D01*
X18483521Y-14806234D01*
X18454950Y-14791949D01*
X18440664Y-14763377D01*
X18440664Y-14734806D01*
X18454950Y-14706234D01*
X18483521Y-14691949D01*
X18554950Y-14691949D01*
X18583521Y-14677663D01*
X18683521Y-14606234D02*
X18797807Y-14606234D01*
X18726378Y-14506234D02*
X18726378Y-14763377D01*
X18740664Y-14791949D01*
X18769236Y-14806234D01*
X18797807Y-14806234D01*
X19012093Y-14791949D02*
X18983521Y-14806234D01*
X18926378Y-14806234D01*
X18897807Y-14791949D01*
X18883521Y-14763377D01*
X18883521Y-14649091D01*
X18897807Y-14620520D01*
X18926378Y-14606234D01*
X18983521Y-14606234D01*
X19012093Y-14620520D01*
X19026378Y-14649091D01*
X19026378Y-14677663D01*
X18883521Y-14706234D01*
X19283521Y-14806234D02*
X19283521Y-14506234D01*
X19283521Y-14791949D02*
X19254950Y-14806234D01*
X19197807Y-14806234D01*
X19169236Y-14791949D01*
X19154950Y-14777663D01*
X19140664Y-14749091D01*
X19140664Y-14663377D01*
X19154950Y-14634806D01*
X19169236Y-14620520D01*
X19197807Y-14606234D01*
X19254950Y-14606234D01*
X19283521Y-14620520D01*
X19397807Y-14920520D02*
X19412093Y-14906234D01*
X19440664Y-14863377D01*
X19454950Y-14834806D01*
X19469236Y-14791949D01*
X19483521Y-14720520D01*
X19483521Y-14663377D01*
X19469236Y-14591949D01*
X19454950Y-14549091D01*
X19440664Y-14520520D01*
X19412093Y-14477663D01*
X19397807Y-14463377D01*
X9939950Y-15066520D02*
G75*
G03*
X9939950Y-15066520I-165000J0D01*
G01*
X10197807Y-14902234D02*
X10383521Y-14902234D01*
X10283521Y-15016520D01*
X10326378Y-15016520D01*
X10354950Y-15030806D01*
X10369236Y-15045091D01*
X10383521Y-15073663D01*
X10383521Y-15145091D01*
X10369236Y-15173663D01*
X10354950Y-15187949D01*
X10326378Y-15202234D01*
X10240664Y-15202234D01*
X10212093Y-15187949D01*
X10197807Y-15173663D01*
X10512093Y-15173663D02*
X10526378Y-15187949D01*
X10512093Y-15202234D01*
X10497807Y-15187949D01*
X10512093Y-15173663D01*
X10512093Y-15202234D01*
X10626378Y-14902234D02*
X10812093Y-14902234D01*
X10712093Y-15016520D01*
X10754950Y-15016520D01*
X10783521Y-15030806D01*
X10797807Y-15045091D01*
X10812093Y-15073663D01*
X10812093Y-15145091D01*
X10797807Y-15173663D01*
X10783521Y-15187949D01*
X10754950Y-15202234D01*
X10669236Y-15202234D01*
X10640664Y-15187949D01*
X10626378Y-15173663D01*
X10997807Y-14902234D02*
X11026378Y-14902234D01*
X11054950Y-14916520D01*
X11069236Y-14930806D01*
X11083521Y-14959377D01*
X11097807Y-15016520D01*
X11097807Y-15087949D01*
X11083521Y-15145091D01*
X11069236Y-15173663D01*
X11054950Y-15187949D01*
X11026378Y-15202234D01*
X10997807Y-15202234D01*
X10969236Y-15187949D01*
X10954950Y-15173663D01*
X10940664Y-15145091D01*
X10926378Y-15087949D01*
X10926378Y-15016520D01*
X10940664Y-14959377D01*
X10954950Y-14930806D01*
X10969236Y-14916520D01*
X10997807Y-14902234D01*
X11226378Y-15202234D02*
X11226378Y-15002234D01*
X11226378Y-15030806D02*
X11240664Y-15016520D01*
X11269236Y-15002234D01*
X11312093Y-15002234D01*
X11340664Y-15016520D01*
X11354950Y-15045091D01*
X11354950Y-15202234D01*
X11354950Y-15045091D02*
X11369236Y-15016520D01*
X11397807Y-15002234D01*
X11440664Y-15002234D01*
X11469236Y-15016520D01*
X11483521Y-15045091D01*
X11483521Y-15202234D01*
X11626378Y-15202234D02*
X11626378Y-15002234D01*
X11626378Y-15030806D02*
X11640664Y-15016520D01*
X11669236Y-15002234D01*
X11712093Y-15002234D01*
X11740664Y-15016520D01*
X11754950Y-15045091D01*
X11754950Y-15202234D01*
X11754950Y-15045091D02*
X11769236Y-15016520D01*
X11797807Y-15002234D01*
X11840664Y-15002234D01*
X11869236Y-15016520D01*
X11883521Y-15045091D01*
X11883521Y-15202234D01*
X12469236Y-14887949D02*
X12212093Y-15273663D01*
X12854950Y-14902234D02*
X12883521Y-14902234D01*
X12912093Y-14916520D01*
X12926378Y-14930806D01*
X12940664Y-14959377D01*
X12954950Y-15016520D01*
X12954950Y-15087949D01*
X12940664Y-15145091D01*
X12926378Y-15173663D01*
X12912093Y-15187949D01*
X12883521Y-15202234D01*
X12854950Y-15202234D01*
X12826378Y-15187949D01*
X12812093Y-15173663D01*
X12797807Y-15145091D01*
X12783521Y-15087949D01*
X12783521Y-15016520D01*
X12797807Y-14959377D01*
X12812093Y-14930806D01*
X12826378Y-14916520D01*
X12854950Y-14902234D01*
X13083521Y-15173663D02*
X13097807Y-15187949D01*
X13083521Y-15202234D01*
X13069236Y-15187949D01*
X13083521Y-15173663D01*
X13083521Y-15202234D01*
X13383521Y-15202234D02*
X13212093Y-15202234D01*
X13297807Y-15202234D02*
X13297807Y-14902234D01*
X13269236Y-14945091D01*
X13240664Y-14973663D01*
X13212093Y-14987949D01*
X13483521Y-14902234D02*
X13669236Y-14902234D01*
X13569236Y-15016520D01*
X13612093Y-15016520D01*
X13640664Y-15030806D01*
X13654950Y-15045091D01*
X13669236Y-15073663D01*
X13669236Y-15145091D01*
X13654950Y-15173663D01*
X13640664Y-15187949D01*
X13612093Y-15202234D01*
X13526378Y-15202234D01*
X13497807Y-15187949D01*
X13483521Y-15173663D01*
X13854950Y-14902234D02*
X13883521Y-14902234D01*
X13912093Y-14916520D01*
X13926378Y-14930806D01*
X13940664Y-14959377D01*
X13954950Y-15016520D01*
X13954950Y-15087949D01*
X13940664Y-15145091D01*
X13926378Y-15173663D01*
X13912093Y-15187949D01*
X13883521Y-15202234D01*
X13854950Y-15202234D01*
X13826378Y-15187949D01*
X13812093Y-15173663D01*
X13797807Y-15145091D01*
X13783521Y-15087949D01*
X13783521Y-15016520D01*
X13797807Y-14959377D01*
X13812093Y-14930806D01*
X13826378Y-14916520D01*
X13854950Y-14902234D01*
X14069236Y-14902234D02*
X14069236Y-14959377D01*
X14183521Y-14902234D02*
X14183521Y-14959377D01*
X14626378Y-15316520D02*
X14612093Y-15302234D01*
X14583521Y-15259377D01*
X14569236Y-15230806D01*
X14554950Y-15187949D01*
X14540664Y-15116520D01*
X14540664Y-15059377D01*
X14554950Y-14987949D01*
X14569236Y-14945091D01*
X14583521Y-14916520D01*
X14612093Y-14873663D01*
X14626378Y-14859377D01*
X14869236Y-15002234D02*
X14869236Y-15202234D01*
X14797807Y-14887949D02*
X14726378Y-15102234D01*
X14912093Y-15102234D01*
X15254950Y-15202234D02*
X15254950Y-14902234D01*
X15383521Y-15202234D02*
X15383521Y-15045091D01*
X15369236Y-15016520D01*
X15340664Y-15002234D01*
X15297807Y-15002234D01*
X15269236Y-15016520D01*
X15254950Y-15030806D01*
X15569236Y-15202234D02*
X15540664Y-15187949D01*
X15526378Y-15173663D01*
X15512093Y-15145091D01*
X15512093Y-15059377D01*
X15526378Y-15030806D01*
X15540664Y-15016520D01*
X15569236Y-15002234D01*
X15612093Y-15002234D01*
X15640664Y-15016520D01*
X15654950Y-15030806D01*
X15669236Y-15059377D01*
X15669236Y-15145091D01*
X15654950Y-15173663D01*
X15640664Y-15187949D01*
X15612093Y-15202234D01*
X15569236Y-15202234D01*
X15840664Y-15202234D02*
X15812093Y-15187949D01*
X15797807Y-15159377D01*
X15797807Y-14902234D01*
X16069236Y-15187949D02*
X16040664Y-15202234D01*
X15983521Y-15202234D01*
X15954950Y-15187949D01*
X15940664Y-15159377D01*
X15940664Y-15045091D01*
X15954950Y-15016520D01*
X15983521Y-15002234D01*
X16040664Y-15002234D01*
X16069236Y-15016520D01*
X16083521Y-15045091D01*
X16083521Y-15073663D01*
X15940664Y-15102234D01*
X16197807Y-15187949D02*
X16226378Y-15202234D01*
X16283521Y-15202234D01*
X16312093Y-15187949D01*
X16326378Y-15159377D01*
X16326378Y-15145091D01*
X16312093Y-15116520D01*
X16283521Y-15102234D01*
X16240664Y-15102234D01*
X16212093Y-15087949D01*
X16197807Y-15059377D01*
X16197807Y-15045091D01*
X16212093Y-15016520D01*
X16240664Y-15002234D01*
X16283521Y-15002234D01*
X16312093Y-15016520D01*
X16426378Y-15316520D02*
X16440664Y-15302234D01*
X16469236Y-15259377D01*
X16483521Y-15230806D01*
X16497807Y-15187949D01*
X16512093Y-15116520D01*
X16512093Y-15059377D01*
X16497807Y-14987949D01*
X16483521Y-14945091D01*
X16469236Y-14916520D01*
X16440664Y-14873663D01*
X16426378Y-14859377D01*
X16969236Y-15316520D02*
X16954950Y-15302234D01*
X16926378Y-15259377D01*
X16912093Y-15230806D01*
X16897807Y-15187949D01*
X16883521Y-15116520D01*
X16883521Y-15059377D01*
X16897807Y-14987949D01*
X16912093Y-14945091D01*
X16926378Y-14916520D01*
X16954950Y-14873663D01*
X16969236Y-14859377D01*
X17083521Y-15002234D02*
X17083521Y-15202234D01*
X17083521Y-15030806D02*
X17097807Y-15016520D01*
X17126378Y-15002234D01*
X17169236Y-15002234D01*
X17197807Y-15016520D01*
X17212093Y-15045091D01*
X17212093Y-15202234D01*
X17397807Y-15202234D02*
X17369236Y-15187949D01*
X17354950Y-15173663D01*
X17340664Y-15145091D01*
X17340664Y-15059377D01*
X17354950Y-15030806D01*
X17369236Y-15016520D01*
X17397807Y-15002234D01*
X17440664Y-15002234D01*
X17469236Y-15016520D01*
X17483521Y-15030806D01*
X17497807Y-15059377D01*
X17497807Y-15145091D01*
X17483521Y-15173663D01*
X17469236Y-15187949D01*
X17440664Y-15202234D01*
X17397807Y-15202234D01*
X17583521Y-15002234D02*
X17697807Y-15002234D01*
X17626378Y-14902234D02*
X17626378Y-15159377D01*
X17640664Y-15187949D01*
X17669236Y-15202234D01*
X17697807Y-15202234D01*
X18026378Y-15002234D02*
X18026378Y-15302234D01*
X18026378Y-15016520D02*
X18054950Y-15002234D01*
X18112093Y-15002234D01*
X18140664Y-15016520D01*
X18154950Y-15030806D01*
X18169236Y-15059377D01*
X18169236Y-15145091D01*
X18154950Y-15173663D01*
X18140664Y-15187949D01*
X18112093Y-15202234D01*
X18054950Y-15202234D01*
X18026378Y-15187949D01*
X18340664Y-15202234D02*
X18312093Y-15187949D01*
X18297807Y-15159377D01*
X18297807Y-14902234D01*
X18583521Y-15202234D02*
X18583521Y-15045091D01*
X18569236Y-15016520D01*
X18540664Y-15002234D01*
X18483521Y-15002234D01*
X18454950Y-15016520D01*
X18583521Y-15187949D02*
X18554950Y-15202234D01*
X18483521Y-15202234D01*
X18454950Y-15187949D01*
X18440664Y-15159377D01*
X18440664Y-15130806D01*
X18454950Y-15102234D01*
X18483521Y-15087949D01*
X18554950Y-15087949D01*
X18583521Y-15073663D01*
X18683521Y-15002234D02*
X18797807Y-15002234D01*
X18726378Y-14902234D02*
X18726378Y-15159377D01*
X18740664Y-15187949D01*
X18769236Y-15202234D01*
X18797807Y-15202234D01*
X19012093Y-15187949D02*
X18983521Y-15202234D01*
X18926378Y-15202234D01*
X18897807Y-15187949D01*
X18883521Y-15159377D01*
X18883521Y-15045091D01*
X18897807Y-15016520D01*
X18926378Y-15002234D01*
X18983521Y-15002234D01*
X19012093Y-15016520D01*
X19026378Y-15045091D01*
X19026378Y-15073663D01*
X18883521Y-15102234D01*
X19283521Y-15202234D02*
X19283521Y-14902234D01*
X19283521Y-15187949D02*
X19254950Y-15202234D01*
X19197807Y-15202234D01*
X19169236Y-15187949D01*
X19154950Y-15173663D01*
X19140664Y-15145091D01*
X19140664Y-15059377D01*
X19154950Y-15030806D01*
X19169236Y-15016520D01*
X19197807Y-15002234D01*
X19254950Y-15002234D01*
X19283521Y-15016520D01*
X19397807Y-15316520D02*
X19412093Y-15302234D01*
X19440664Y-15259377D01*
X19454950Y-15230806D01*
X19469236Y-15187949D01*
X19483521Y-15116520D01*
X19483521Y-15059377D01*
X19469236Y-14987949D01*
X19454950Y-14945091D01*
X19440664Y-14916520D01*
X19412093Y-14873663D01*
X19397807Y-14859377D01*
M02*
