%TF.GenerationSoftware,KiCad,Pcbnew,5.1.8-4.fc33*%
%TF.CreationDate,2021-01-04T09:43:00+01:00*%
%TF.ProjectId,obsonet_1,6f62736f-6e65-4745-9f31-2e6b69636164,rev?*%
%TF.SameCoordinates,Original*%
%TF.FileFunction,Soldermask,Bot*%
%TF.FilePolarity,Negative*%
%FSLAX46Y46*%
G04 Gerber Fmt 4.6, Leading zero omitted, Abs format (unit mm)*
G04 Created by KiCad (PCBNEW 5.1.8-4.fc33) date 2021-01-04 09:43:00*
%MOMM*%
%LPD*%
G01*
G04 APERTURE LIST*
%ADD10C,2.104800*%
%ADD11C,2.100000*%
%ADD12C,3.300000*%
%ADD13C,1.712800*%
%ADD14O,1.512800X2.720800*%
%ADD15C,1.106400*%
G04 APERTURE END LIST*
%TO.C,C1*%
G36*
G01*
X125291100Y-109864200D02*
X123291100Y-109864200D01*
G75*
G02*
X123138700Y-109711800I0J152400D01*
G01*
X123138700Y-108211800D01*
G75*
G02*
X123291100Y-108059400I152400J0D01*
G01*
X125291100Y-108059400D01*
G75*
G02*
X125443500Y-108211800I0J-152400D01*
G01*
X125443500Y-109711800D01*
G75*
G02*
X125291100Y-109864200I-152400J0D01*
G01*
G37*
G36*
G01*
X125291100Y-112864200D02*
X123291100Y-112864200D01*
G75*
G02*
X123138700Y-112711800I0J152400D01*
G01*
X123138700Y-111211800D01*
G75*
G02*
X123291100Y-111059400I152400J0D01*
G01*
X125291100Y-111059400D01*
G75*
G02*
X125443500Y-111211800I0J-152400D01*
G01*
X125443500Y-112711800D01*
G75*
G02*
X125291100Y-112864200I-152400J0D01*
G01*
G37*
%TD*%
%TO.C,C4*%
G36*
G01*
X168227500Y-107810600D02*
X168227500Y-105810600D01*
G75*
G02*
X168379900Y-105658200I152400J0D01*
G01*
X169879900Y-105658200D01*
G75*
G02*
X170032300Y-105810600I0J-152400D01*
G01*
X170032300Y-107810600D01*
G75*
G02*
X169879900Y-107963000I-152400J0D01*
G01*
X168379900Y-107963000D01*
G75*
G02*
X168227500Y-107810600I0J152400D01*
G01*
G37*
G36*
G01*
X165227500Y-107810600D02*
X165227500Y-105810600D01*
G75*
G02*
X165379900Y-105658200I152400J0D01*
G01*
X166879900Y-105658200D01*
G75*
G02*
X167032300Y-105810600I0J-152400D01*
G01*
X167032300Y-107810600D01*
G75*
G02*
X166879900Y-107963000I-152400J0D01*
G01*
X165379900Y-107963000D01*
G75*
G02*
X165227500Y-107810600I0J152400D01*
G01*
G37*
%TD*%
D10*
%TO.C,C6*%
X111591100Y-121415600D03*
X114131100Y-121415600D03*
%TD*%
%TO.C,R2*%
G36*
G01*
X115076800Y-73746400D02*
X115076800Y-75549400D01*
G75*
G02*
X114924400Y-75701800I-152400J0D01*
G01*
X113324400Y-75701800D01*
G75*
G02*
X113172000Y-75549400I0J152400D01*
G01*
X113172000Y-73746400D01*
G75*
G02*
X113324400Y-73594000I152400J0D01*
G01*
X114924400Y-73594000D01*
G75*
G02*
X115076800Y-73746400I0J-152400D01*
G01*
G37*
G36*
G01*
X112232800Y-73746400D02*
X112232800Y-75549400D01*
G75*
G02*
X112080400Y-75701800I-152400J0D01*
G01*
X110480400Y-75701800D01*
G75*
G02*
X110328000Y-75549400I0J152400D01*
G01*
X110328000Y-73746400D01*
G75*
G02*
X110480400Y-73594000I152400J0D01*
G01*
X112080400Y-73594000D01*
G75*
G02*
X112232800Y-73746400I0J-152400D01*
G01*
G37*
%TD*%
%TO.C,R3*%
G36*
G01*
X104771600Y-75549400D02*
X104771600Y-73746400D01*
G75*
G02*
X104924000Y-73594000I152400J0D01*
G01*
X106524000Y-73594000D01*
G75*
G02*
X106676400Y-73746400I0J-152400D01*
G01*
X106676400Y-75549400D01*
G75*
G02*
X106524000Y-75701800I-152400J0D01*
G01*
X104924000Y-75701800D01*
G75*
G02*
X104771600Y-75549400I0J152400D01*
G01*
G37*
G36*
G01*
X107615600Y-75549400D02*
X107615600Y-73746400D01*
G75*
G02*
X107768000Y-73594000I152400J0D01*
G01*
X109368000Y-73594000D01*
G75*
G02*
X109520400Y-73746400I0J-152400D01*
G01*
X109520400Y-75549400D01*
G75*
G02*
X109368000Y-75701800I-152400J0D01*
G01*
X107768000Y-75701800D01*
G75*
G02*
X107615600Y-75549400I0J152400D01*
G01*
G37*
%TD*%
%TO.C,R4*%
G36*
G01*
X135828800Y-82673700D02*
X134025800Y-82673700D01*
G75*
G02*
X133873400Y-82521300I0J152400D01*
G01*
X133873400Y-80921300D01*
G75*
G02*
X134025800Y-80768900I152400J0D01*
G01*
X135828800Y-80768900D01*
G75*
G02*
X135981200Y-80921300I0J-152400D01*
G01*
X135981200Y-82521300D01*
G75*
G02*
X135828800Y-82673700I-152400J0D01*
G01*
G37*
G36*
G01*
X135828800Y-79829700D02*
X134025800Y-79829700D01*
G75*
G02*
X133873400Y-79677300I0J152400D01*
G01*
X133873400Y-78077300D01*
G75*
G02*
X134025800Y-77924900I152400J0D01*
G01*
X135828800Y-77924900D01*
G75*
G02*
X135981200Y-78077300I0J-152400D01*
G01*
X135981200Y-79677300D01*
G75*
G02*
X135828800Y-79829700I-152400J0D01*
G01*
G37*
%TD*%
%TO.C,R5*%
G36*
G01*
X132336300Y-82673700D02*
X130533300Y-82673700D01*
G75*
G02*
X130380900Y-82521300I0J152400D01*
G01*
X130380900Y-80921300D01*
G75*
G02*
X130533300Y-80768900I152400J0D01*
G01*
X132336300Y-80768900D01*
G75*
G02*
X132488700Y-80921300I0J-152400D01*
G01*
X132488700Y-82521300D01*
G75*
G02*
X132336300Y-82673700I-152400J0D01*
G01*
G37*
G36*
G01*
X132336300Y-79829700D02*
X130533300Y-79829700D01*
G75*
G02*
X130380900Y-79677300I0J152400D01*
G01*
X130380900Y-78077300D01*
G75*
G02*
X130533300Y-77924900I152400J0D01*
G01*
X132336300Y-77924900D01*
G75*
G02*
X132488700Y-78077300I0J-152400D01*
G01*
X132488700Y-79677300D01*
G75*
G02*
X132336300Y-79829700I-152400J0D01*
G01*
G37*
%TD*%
%TO.C,R6*%
G36*
G01*
X146941400Y-110772500D02*
X145138400Y-110772500D01*
G75*
G02*
X144986000Y-110620100I0J152400D01*
G01*
X144986000Y-109020100D01*
G75*
G02*
X145138400Y-108867700I152400J0D01*
G01*
X146941400Y-108867700D01*
G75*
G02*
X147093800Y-109020100I0J-152400D01*
G01*
X147093800Y-110620100D01*
G75*
G02*
X146941400Y-110772500I-152400J0D01*
G01*
G37*
G36*
G01*
X146941400Y-107928500D02*
X145138400Y-107928500D01*
G75*
G02*
X144986000Y-107776100I0J152400D01*
G01*
X144986000Y-106176100D01*
G75*
G02*
X145138400Y-106023700I152400J0D01*
G01*
X146941400Y-106023700D01*
G75*
G02*
X147093800Y-106176100I0J-152400D01*
G01*
X147093800Y-107776100D01*
G75*
G02*
X146941400Y-107928500I-152400J0D01*
G01*
G37*
%TD*%
%TO.C,R7*%
G36*
G01*
X157260200Y-83975500D02*
X155457200Y-83975500D01*
G75*
G02*
X155304800Y-83823100I0J152400D01*
G01*
X155304800Y-82223100D01*
G75*
G02*
X155457200Y-82070700I152400J0D01*
G01*
X157260200Y-82070700D01*
G75*
G02*
X157412600Y-82223100I0J-152400D01*
G01*
X157412600Y-83823100D01*
G75*
G02*
X157260200Y-83975500I-152400J0D01*
G01*
G37*
G36*
G01*
X157260200Y-81131500D02*
X155457200Y-81131500D01*
G75*
G02*
X155304800Y-80979100I0J152400D01*
G01*
X155304800Y-79379100D01*
G75*
G02*
X155457200Y-79226700I152400J0D01*
G01*
X157260200Y-79226700D01*
G75*
G02*
X157412600Y-79379100I0J-152400D01*
G01*
X157412600Y-80979100D01*
G75*
G02*
X157260200Y-81131500I-152400J0D01*
G01*
G37*
%TD*%
D11*
%TO.C,CON2*%
X195601500Y-74647900D03*
X195601500Y-90395900D03*
D12*
X192553500Y-76806900D03*
X192553500Y-88236900D03*
D13*
X183663500Y-78076900D03*
X186203500Y-79346900D03*
X186203500Y-86966900D03*
X183663500Y-85696900D03*
X186203500Y-84426900D03*
X183663500Y-83156900D03*
X186203500Y-81886900D03*
X183663500Y-80616900D03*
%TD*%
%TO.C,IC2*%
G36*
G01*
X161462500Y-101779300D02*
X161462500Y-99579300D01*
G75*
G02*
X161614900Y-99426900I152400J0D01*
G01*
X162214900Y-99426900D01*
G75*
G02*
X162367300Y-99579300I0J-152400D01*
G01*
X162367300Y-101779300D01*
G75*
G02*
X162214900Y-101931700I-152400J0D01*
G01*
X161614900Y-101931700D01*
G75*
G02*
X161462500Y-101779300I0J152400D01*
G01*
G37*
G36*
G01*
X160192500Y-101779300D02*
X160192500Y-99579300D01*
G75*
G02*
X160344900Y-99426900I152400J0D01*
G01*
X160944900Y-99426900D01*
G75*
G02*
X161097300Y-99579300I0J-152400D01*
G01*
X161097300Y-101779300D01*
G75*
G02*
X160944900Y-101931700I-152400J0D01*
G01*
X160344900Y-101931700D01*
G75*
G02*
X160192500Y-101779300I0J152400D01*
G01*
G37*
G36*
G01*
X157652500Y-101779300D02*
X157652500Y-99579300D01*
G75*
G02*
X157804900Y-99426900I152400J0D01*
G01*
X158404900Y-99426900D01*
G75*
G02*
X158557300Y-99579300I0J-152400D01*
G01*
X158557300Y-101779300D01*
G75*
G02*
X158404900Y-101931700I-152400J0D01*
G01*
X157804900Y-101931700D01*
G75*
G02*
X157652500Y-101779300I0J152400D01*
G01*
G37*
G36*
G01*
X161462500Y-96579300D02*
X161462500Y-94379300D01*
G75*
G02*
X161614900Y-94226900I152400J0D01*
G01*
X162214900Y-94226900D01*
G75*
G02*
X162367300Y-94379300I0J-152400D01*
G01*
X162367300Y-96579300D01*
G75*
G02*
X162214900Y-96731700I-152400J0D01*
G01*
X161614900Y-96731700D01*
G75*
G02*
X161462500Y-96579300I0J152400D01*
G01*
G37*
G36*
G01*
X160192500Y-96579300D02*
X160192500Y-94379300D01*
G75*
G02*
X160344900Y-94226900I152400J0D01*
G01*
X160944900Y-94226900D01*
G75*
G02*
X161097300Y-94379300I0J-152400D01*
G01*
X161097300Y-96579300D01*
G75*
G02*
X160944900Y-96731700I-152400J0D01*
G01*
X160344900Y-96731700D01*
G75*
G02*
X160192500Y-96579300I0J152400D01*
G01*
G37*
G36*
G01*
X157652500Y-96579300D02*
X157652500Y-94379300D01*
G75*
G02*
X157804900Y-94226900I152400J0D01*
G01*
X158404900Y-94226900D01*
G75*
G02*
X158557300Y-94379300I0J-152400D01*
G01*
X158557300Y-96579300D01*
G75*
G02*
X158404900Y-96731700I-152400J0D01*
G01*
X157804900Y-96731700D01*
G75*
G02*
X157652500Y-96579300I0J152400D01*
G01*
G37*
G36*
G01*
X158922500Y-101779300D02*
X158922500Y-99579300D01*
G75*
G02*
X159074900Y-99426900I152400J0D01*
G01*
X159674900Y-99426900D01*
G75*
G02*
X159827300Y-99579300I0J-152400D01*
G01*
X159827300Y-101779300D01*
G75*
G02*
X159674900Y-101931700I-152400J0D01*
G01*
X159074900Y-101931700D01*
G75*
G02*
X158922500Y-101779300I0J152400D01*
G01*
G37*
G36*
G01*
X158922500Y-96579300D02*
X158922500Y-94379300D01*
G75*
G02*
X159074900Y-94226900I152400J0D01*
G01*
X159674900Y-94226900D01*
G75*
G02*
X159827300Y-94379300I0J-152400D01*
G01*
X159827300Y-96579300D01*
G75*
G02*
X159674900Y-96731700I-152400J0D01*
G01*
X159074900Y-96731700D01*
G75*
G02*
X158922500Y-96579300I0J152400D01*
G01*
G37*
%TD*%
%TO.C,Q1*%
G36*
G01*
X99430900Y-83639400D02*
X102224900Y-83639400D01*
G75*
G02*
X102377300Y-83791800I0J-152400D01*
G01*
X102377300Y-85061800D01*
G75*
G02*
X102224900Y-85214200I-152400J0D01*
G01*
X99430900Y-85214200D01*
G75*
G02*
X99278500Y-85061800I0J152400D01*
G01*
X99278500Y-83791800D01*
G75*
G02*
X99430900Y-83639400I152400J0D01*
G01*
G37*
G36*
G01*
X115559900Y-86052400D02*
X118099900Y-86052400D01*
G75*
G02*
X118252300Y-86204800I0J-152400D01*
G01*
X118252300Y-87474800D01*
G75*
G02*
X118099900Y-87627200I-152400J0D01*
G01*
X115559900Y-87627200D01*
G75*
G02*
X115407500Y-87474800I0J152400D01*
G01*
X115407500Y-86204800D01*
G75*
G02*
X115559900Y-86052400I152400J0D01*
G01*
G37*
G36*
G01*
X115559900Y-81226400D02*
X118099900Y-81226400D01*
G75*
G02*
X118252300Y-81378800I0J-152400D01*
G01*
X118252300Y-82648800D01*
G75*
G02*
X118099900Y-82801200I-152400J0D01*
G01*
X115559900Y-82801200D01*
G75*
G02*
X115407500Y-82648800I0J152400D01*
G01*
X115407500Y-81378800D01*
G75*
G02*
X115559900Y-81226400I152400J0D01*
G01*
G37*
%TD*%
D14*
%TO.C,TF1*%
X173027300Y-88459100D03*
X165407300Y-88459100D03*
X165407300Y-80839100D03*
X173027300Y-80839100D03*
X178107300Y-88459100D03*
X175567300Y-88459100D03*
X162867300Y-88459100D03*
X160327300Y-88459100D03*
X160327300Y-80839100D03*
X162867300Y-80839100D03*
X175567300Y-80839100D03*
X178107300Y-80839100D03*
%TD*%
D13*
%TO.C,C7*%
X175313500Y-77187800D03*
X170233500Y-77187800D03*
%TD*%
%TO.C,C8*%
X162867400Y-77187800D03*
X167947400Y-77187800D03*
%TD*%
%TO.C,C9*%
X167947400Y-92078600D03*
X162867400Y-92078600D03*
%TD*%
%TO.C,C10*%
X170487300Y-92078600D03*
X175567300Y-92078600D03*
%TD*%
%TO.C,IC3*%
G36*
G01*
X150208700Y-120441800D02*
X150208700Y-118241800D01*
G75*
G02*
X150361100Y-118089400I152400J0D01*
G01*
X151561100Y-118089400D01*
G75*
G02*
X151713500Y-118241800I0J-152400D01*
G01*
X151713500Y-120441800D01*
G75*
G02*
X151561100Y-120594200I-152400J0D01*
G01*
X150361100Y-120594200D01*
G75*
G02*
X150208700Y-120441800I0J152400D01*
G01*
G37*
G36*
G01*
X152748700Y-120441800D02*
X152748700Y-118241800D01*
G75*
G02*
X152901100Y-118089400I152400J0D01*
G01*
X154101100Y-118089400D01*
G75*
G02*
X154253500Y-118241800I0J-152400D01*
G01*
X154253500Y-120441800D01*
G75*
G02*
X154101100Y-120594200I-152400J0D01*
G01*
X152901100Y-120594200D01*
G75*
G02*
X152748700Y-120441800I0J152400D01*
G01*
G37*
G36*
G01*
X155288700Y-120441800D02*
X155288700Y-118241800D01*
G75*
G02*
X155441100Y-118089400I152400J0D01*
G01*
X156641100Y-118089400D01*
G75*
G02*
X156793500Y-118241800I0J-152400D01*
G01*
X156793500Y-120441800D01*
G75*
G02*
X156641100Y-120594200I-152400J0D01*
G01*
X155441100Y-120594200D01*
G75*
G02*
X155288700Y-120441800I0J152400D01*
G01*
G37*
G36*
G01*
X157828700Y-120441800D02*
X157828700Y-118241800D01*
G75*
G02*
X157981100Y-118089400I152400J0D01*
G01*
X159181100Y-118089400D01*
G75*
G02*
X159333500Y-118241800I0J-152400D01*
G01*
X159333500Y-120441800D01*
G75*
G02*
X159181100Y-120594200I-152400J0D01*
G01*
X157981100Y-120594200D01*
G75*
G02*
X157828700Y-120441800I0J152400D01*
G01*
G37*
G36*
G01*
X160368700Y-120441800D02*
X160368700Y-118241800D01*
G75*
G02*
X160521100Y-118089400I152400J0D01*
G01*
X161721100Y-118089400D01*
G75*
G02*
X161873500Y-118241800I0J-152400D01*
G01*
X161873500Y-120441800D01*
G75*
G02*
X161721100Y-120594200I-152400J0D01*
G01*
X160521100Y-120594200D01*
G75*
G02*
X160368700Y-120441800I0J152400D01*
G01*
G37*
G36*
G01*
X162908700Y-120441800D02*
X162908700Y-118241800D01*
G75*
G02*
X163061100Y-118089400I152400J0D01*
G01*
X164261100Y-118089400D01*
G75*
G02*
X164413500Y-118241800I0J-152400D01*
G01*
X164413500Y-120441800D01*
G75*
G02*
X164261100Y-120594200I-152400J0D01*
G01*
X163061100Y-120594200D01*
G75*
G02*
X162908700Y-120441800I0J152400D01*
G01*
G37*
G36*
G01*
X165448700Y-120441800D02*
X165448700Y-118241800D01*
G75*
G02*
X165601100Y-118089400I152400J0D01*
G01*
X166801100Y-118089400D01*
G75*
G02*
X166953500Y-118241800I0J-152400D01*
G01*
X166953500Y-120441800D01*
G75*
G02*
X166801100Y-120594200I-152400J0D01*
G01*
X165601100Y-120594200D01*
G75*
G02*
X165448700Y-120441800I0J152400D01*
G01*
G37*
G36*
G01*
X167988700Y-120441800D02*
X167988700Y-118241800D01*
G75*
G02*
X168141100Y-118089400I152400J0D01*
G01*
X169341100Y-118089400D01*
G75*
G02*
X169493500Y-118241800I0J-152400D01*
G01*
X169493500Y-120441800D01*
G75*
G02*
X169341100Y-120594200I-152400J0D01*
G01*
X168141100Y-120594200D01*
G75*
G02*
X167988700Y-120441800I0J152400D01*
G01*
G37*
G36*
G01*
X167988700Y-112841800D02*
X167988700Y-110641800D01*
G75*
G02*
X168141100Y-110489400I152400J0D01*
G01*
X169341100Y-110489400D01*
G75*
G02*
X169493500Y-110641800I0J-152400D01*
G01*
X169493500Y-112841800D01*
G75*
G02*
X169341100Y-112994200I-152400J0D01*
G01*
X168141100Y-112994200D01*
G75*
G02*
X167988700Y-112841800I0J152400D01*
G01*
G37*
G36*
G01*
X165448700Y-112841800D02*
X165448700Y-110641800D01*
G75*
G02*
X165601100Y-110489400I152400J0D01*
G01*
X166801100Y-110489400D01*
G75*
G02*
X166953500Y-110641800I0J-152400D01*
G01*
X166953500Y-112841800D01*
G75*
G02*
X166801100Y-112994200I-152400J0D01*
G01*
X165601100Y-112994200D01*
G75*
G02*
X165448700Y-112841800I0J152400D01*
G01*
G37*
G36*
G01*
X162908700Y-112841800D02*
X162908700Y-110641800D01*
G75*
G02*
X163061100Y-110489400I152400J0D01*
G01*
X164261100Y-110489400D01*
G75*
G02*
X164413500Y-110641800I0J-152400D01*
G01*
X164413500Y-112841800D01*
G75*
G02*
X164261100Y-112994200I-152400J0D01*
G01*
X163061100Y-112994200D01*
G75*
G02*
X162908700Y-112841800I0J152400D01*
G01*
G37*
G36*
G01*
X160368700Y-112841800D02*
X160368700Y-110641800D01*
G75*
G02*
X160521100Y-110489400I152400J0D01*
G01*
X161721100Y-110489400D01*
G75*
G02*
X161873500Y-110641800I0J-152400D01*
G01*
X161873500Y-112841800D01*
G75*
G02*
X161721100Y-112994200I-152400J0D01*
G01*
X160521100Y-112994200D01*
G75*
G02*
X160368700Y-112841800I0J152400D01*
G01*
G37*
G36*
G01*
X157828700Y-112841800D02*
X157828700Y-110641800D01*
G75*
G02*
X157981100Y-110489400I152400J0D01*
G01*
X159181100Y-110489400D01*
G75*
G02*
X159333500Y-110641800I0J-152400D01*
G01*
X159333500Y-112841800D01*
G75*
G02*
X159181100Y-112994200I-152400J0D01*
G01*
X157981100Y-112994200D01*
G75*
G02*
X157828700Y-112841800I0J152400D01*
G01*
G37*
G36*
G01*
X155288700Y-112841800D02*
X155288700Y-110641800D01*
G75*
G02*
X155441100Y-110489400I152400J0D01*
G01*
X156641100Y-110489400D01*
G75*
G02*
X156793500Y-110641800I0J-152400D01*
G01*
X156793500Y-112841800D01*
G75*
G02*
X156641100Y-112994200I-152400J0D01*
G01*
X155441100Y-112994200D01*
G75*
G02*
X155288700Y-112841800I0J152400D01*
G01*
G37*
G36*
G01*
X152748700Y-112841800D02*
X152748700Y-110641800D01*
G75*
G02*
X152901100Y-110489400I152400J0D01*
G01*
X154101100Y-110489400D01*
G75*
G02*
X154253500Y-110641800I0J-152400D01*
G01*
X154253500Y-112841800D01*
G75*
G02*
X154101100Y-112994200I-152400J0D01*
G01*
X152901100Y-112994200D01*
G75*
G02*
X152748700Y-112841800I0J152400D01*
G01*
G37*
G36*
G01*
X150208700Y-112841800D02*
X150208700Y-110641800D01*
G75*
G02*
X150361100Y-110489400I152400J0D01*
G01*
X151561100Y-110489400D01*
G75*
G02*
X151713500Y-110641800I0J-152400D01*
G01*
X151713500Y-112841800D01*
G75*
G02*
X151561100Y-112994200I-152400J0D01*
G01*
X150361100Y-112994200D01*
G75*
G02*
X150208700Y-112841800I0J152400D01*
G01*
G37*
%TD*%
%TO.C,IC6*%
G36*
G01*
X178273500Y-118068100D02*
X178273500Y-120318100D01*
G75*
G02*
X178121100Y-120470500I-152400J0D01*
G01*
X175871100Y-120470500D01*
G75*
G02*
X175718700Y-120318100I0J152400D01*
G01*
X175718700Y-118068100D01*
G75*
G02*
X175871100Y-117915700I152400J0D01*
G01*
X178121100Y-117915700D01*
G75*
G02*
X178273500Y-118068100I0J-152400D01*
G01*
G37*
G36*
G01*
X178273500Y-115528100D02*
X178273500Y-117778100D01*
G75*
G02*
X178121100Y-117930500I-152400J0D01*
G01*
X175871100Y-117930500D01*
G75*
G02*
X175718700Y-117778100I0J152400D01*
G01*
X175718700Y-115528100D01*
G75*
G02*
X175871100Y-115375700I152400J0D01*
G01*
X178121100Y-115375700D01*
G75*
G02*
X178273500Y-115528100I0J-152400D01*
G01*
G37*
G36*
G01*
X178273500Y-112988100D02*
X178273500Y-115238100D01*
G75*
G02*
X178121100Y-115390500I-152400J0D01*
G01*
X175871100Y-115390500D01*
G75*
G02*
X175718700Y-115238100I0J152400D01*
G01*
X175718700Y-112988100D01*
G75*
G02*
X175871100Y-112835700I152400J0D01*
G01*
X178121100Y-112835700D01*
G75*
G02*
X178273500Y-112988100I0J-152400D01*
G01*
G37*
G36*
G01*
X178273500Y-110448100D02*
X178273500Y-112698100D01*
G75*
G02*
X178121100Y-112850500I-152400J0D01*
G01*
X175871100Y-112850500D01*
G75*
G02*
X175718700Y-112698100I0J152400D01*
G01*
X175718700Y-110448100D01*
G75*
G02*
X175871100Y-110295700I152400J0D01*
G01*
X178121100Y-110295700D01*
G75*
G02*
X178273500Y-110448100I0J-152400D01*
G01*
G37*
G36*
G01*
X178273500Y-107908100D02*
X178273500Y-110158100D01*
G75*
G02*
X178121100Y-110310500I-152400J0D01*
G01*
X175871100Y-110310500D01*
G75*
G02*
X175718700Y-110158100I0J152400D01*
G01*
X175718700Y-107908100D01*
G75*
G02*
X175871100Y-107755700I152400J0D01*
G01*
X178121100Y-107755700D01*
G75*
G02*
X178273500Y-107908100I0J-152400D01*
G01*
G37*
G36*
G01*
X178273500Y-105368100D02*
X178273500Y-107618100D01*
G75*
G02*
X178121100Y-107770500I-152400J0D01*
G01*
X175871100Y-107770500D01*
G75*
G02*
X175718700Y-107618100I0J152400D01*
G01*
X175718700Y-105368100D01*
G75*
G02*
X175871100Y-105215700I152400J0D01*
G01*
X178121100Y-105215700D01*
G75*
G02*
X178273500Y-105368100I0J-152400D01*
G01*
G37*
G36*
G01*
X178273500Y-102828100D02*
X178273500Y-105078100D01*
G75*
G02*
X178121100Y-105230500I-152400J0D01*
G01*
X175871100Y-105230500D01*
G75*
G02*
X175718700Y-105078100I0J152400D01*
G01*
X175718700Y-102828100D01*
G75*
G02*
X175871100Y-102675700I152400J0D01*
G01*
X178121100Y-102675700D01*
G75*
G02*
X178273500Y-102828100I0J-152400D01*
G01*
G37*
G36*
G01*
X178273500Y-100288100D02*
X178273500Y-102538100D01*
G75*
G02*
X178121100Y-102690500I-152400J0D01*
G01*
X175871100Y-102690500D01*
G75*
G02*
X175718700Y-102538100I0J152400D01*
G01*
X175718700Y-100288100D01*
G75*
G02*
X175871100Y-100135700I152400J0D01*
G01*
X178121100Y-100135700D01*
G75*
G02*
X178273500Y-100288100I0J-152400D01*
G01*
G37*
G36*
G01*
X178273500Y-97748100D02*
X178273500Y-99998100D01*
G75*
G02*
X178121100Y-100150500I-152400J0D01*
G01*
X175871100Y-100150500D01*
G75*
G02*
X175718700Y-99998100I0J152400D01*
G01*
X175718700Y-97748100D01*
G75*
G02*
X175871100Y-97595700I152400J0D01*
G01*
X178121100Y-97595700D01*
G75*
G02*
X178273500Y-97748100I0J-152400D01*
G01*
G37*
G36*
G01*
X178273500Y-95208100D02*
X178273500Y-97458100D01*
G75*
G02*
X178121100Y-97610500I-152400J0D01*
G01*
X175871100Y-97610500D01*
G75*
G02*
X175718700Y-97458100I0J152400D01*
G01*
X175718700Y-95208100D01*
G75*
G02*
X175871100Y-95055700I152400J0D01*
G01*
X178121100Y-95055700D01*
G75*
G02*
X178273500Y-95208100I0J-152400D01*
G01*
G37*
G36*
G01*
X185893500Y-95208100D02*
X185893500Y-97458100D01*
G75*
G02*
X185741100Y-97610500I-152400J0D01*
G01*
X183491100Y-97610500D01*
G75*
G02*
X183338700Y-97458100I0J152400D01*
G01*
X183338700Y-95208100D01*
G75*
G02*
X183491100Y-95055700I152400J0D01*
G01*
X185741100Y-95055700D01*
G75*
G02*
X185893500Y-95208100I0J-152400D01*
G01*
G37*
G36*
G01*
X185893500Y-97748100D02*
X185893500Y-99998100D01*
G75*
G02*
X185741100Y-100150500I-152400J0D01*
G01*
X183491100Y-100150500D01*
G75*
G02*
X183338700Y-99998100I0J152400D01*
G01*
X183338700Y-97748100D01*
G75*
G02*
X183491100Y-97595700I152400J0D01*
G01*
X185741100Y-97595700D01*
G75*
G02*
X185893500Y-97748100I0J-152400D01*
G01*
G37*
G36*
G01*
X185893500Y-107908100D02*
X185893500Y-110158100D01*
G75*
G02*
X185741100Y-110310500I-152400J0D01*
G01*
X183491100Y-110310500D01*
G75*
G02*
X183338700Y-110158100I0J152400D01*
G01*
X183338700Y-107908100D01*
G75*
G02*
X183491100Y-107755700I152400J0D01*
G01*
X185741100Y-107755700D01*
G75*
G02*
X185893500Y-107908100I0J-152400D01*
G01*
G37*
G36*
G01*
X185893500Y-105368100D02*
X185893500Y-107618100D01*
G75*
G02*
X185741100Y-107770500I-152400J0D01*
G01*
X183491100Y-107770500D01*
G75*
G02*
X183338700Y-107618100I0J152400D01*
G01*
X183338700Y-105368100D01*
G75*
G02*
X183491100Y-105215700I152400J0D01*
G01*
X185741100Y-105215700D01*
G75*
G02*
X185893500Y-105368100I0J-152400D01*
G01*
G37*
G36*
G01*
X185893500Y-110448100D02*
X185893500Y-112698100D01*
G75*
G02*
X185741100Y-112850500I-152400J0D01*
G01*
X183491100Y-112850500D01*
G75*
G02*
X183338700Y-112698100I0J152400D01*
G01*
X183338700Y-110448100D01*
G75*
G02*
X183491100Y-110295700I152400J0D01*
G01*
X185741100Y-110295700D01*
G75*
G02*
X185893500Y-110448100I0J-152400D01*
G01*
G37*
G36*
G01*
X185893500Y-112988100D02*
X185893500Y-115238100D01*
G75*
G02*
X185741100Y-115390500I-152400J0D01*
G01*
X183491100Y-115390500D01*
G75*
G02*
X183338700Y-115238100I0J152400D01*
G01*
X183338700Y-112988100D01*
G75*
G02*
X183491100Y-112835700I152400J0D01*
G01*
X185741100Y-112835700D01*
G75*
G02*
X185893500Y-112988100I0J-152400D01*
G01*
G37*
G36*
G01*
X185893500Y-100288100D02*
X185893500Y-102538100D01*
G75*
G02*
X185741100Y-102690500I-152400J0D01*
G01*
X183491100Y-102690500D01*
G75*
G02*
X183338700Y-102538100I0J152400D01*
G01*
X183338700Y-100288100D01*
G75*
G02*
X183491100Y-100135700I152400J0D01*
G01*
X185741100Y-100135700D01*
G75*
G02*
X185893500Y-100288100I0J-152400D01*
G01*
G37*
G36*
G01*
X185893500Y-102828100D02*
X185893500Y-105078100D01*
G75*
G02*
X185741100Y-105230500I-152400J0D01*
G01*
X183491100Y-105230500D01*
G75*
G02*
X183338700Y-105078100I0J152400D01*
G01*
X183338700Y-102828100D01*
G75*
G02*
X183491100Y-102675700I152400J0D01*
G01*
X185741100Y-102675700D01*
G75*
G02*
X185893500Y-102828100I0J-152400D01*
G01*
G37*
G36*
G01*
X185893500Y-115528100D02*
X185893500Y-117778100D01*
G75*
G02*
X185741100Y-117930500I-152400J0D01*
G01*
X183491100Y-117930500D01*
G75*
G02*
X183338700Y-117778100I0J152400D01*
G01*
X183338700Y-115528100D01*
G75*
G02*
X183491100Y-115375700I152400J0D01*
G01*
X185741100Y-115375700D01*
G75*
G02*
X185893500Y-115528100I0J-152400D01*
G01*
G37*
G36*
G01*
X185893500Y-118068100D02*
X185893500Y-120318100D01*
G75*
G02*
X185741100Y-120470500I-152400J0D01*
G01*
X183491100Y-120470500D01*
G75*
G02*
X183338700Y-120318100I0J152400D01*
G01*
X183338700Y-118068100D01*
G75*
G02*
X183491100Y-117915700I152400J0D01*
G01*
X185741100Y-117915700D01*
G75*
G02*
X185893500Y-118068100I0J-152400D01*
G01*
G37*
%TD*%
%TO.C,SW1*%
G36*
G01*
X148110000Y-78045100D02*
X148110000Y-76775100D01*
G75*
G02*
X148262400Y-76622700I152400J0D01*
G01*
X150802400Y-76622700D01*
G75*
G02*
X150954800Y-76775100I0J-152400D01*
G01*
X150954800Y-78045100D01*
G75*
G02*
X150802400Y-78197500I-152400J0D01*
G01*
X148262400Y-78197500D01*
G75*
G02*
X148110000Y-78045100I0J152400D01*
G01*
G37*
G36*
G01*
X137950000Y-78045100D02*
X137950000Y-76775100D01*
G75*
G02*
X138102400Y-76622700I152400J0D01*
G01*
X140642400Y-76622700D01*
G75*
G02*
X140794800Y-76775100I0J-152400D01*
G01*
X140794800Y-78045100D01*
G75*
G02*
X140642400Y-78197500I-152400J0D01*
G01*
X138102400Y-78197500D01*
G75*
G02*
X137950000Y-78045100I0J152400D01*
G01*
G37*
G36*
G01*
X148110000Y-83125100D02*
X148110000Y-81855100D01*
G75*
G02*
X148262400Y-81702700I152400J0D01*
G01*
X150802400Y-81702700D01*
G75*
G02*
X150954800Y-81855100I0J-152400D01*
G01*
X150954800Y-83125100D01*
G75*
G02*
X150802400Y-83277500I-152400J0D01*
G01*
X148262400Y-83277500D01*
G75*
G02*
X148110000Y-83125100I0J152400D01*
G01*
G37*
G36*
G01*
X137950000Y-83125100D02*
X137950000Y-81855100D01*
G75*
G02*
X138102400Y-81702700I152400J0D01*
G01*
X140642400Y-81702700D01*
G75*
G02*
X140794800Y-81855100I0J-152400D01*
G01*
X140794800Y-83125100D01*
G75*
G02*
X140642400Y-83277500I-152400J0D01*
G01*
X138102400Y-83277500D01*
G75*
G02*
X137950000Y-83125100I0J152400D01*
G01*
G37*
%TD*%
%TO.C,LED1*%
X108257500Y-77029200D03*
X105717500Y-77029200D03*
%TD*%
%TO.C,LED2*%
X111591100Y-77029100D03*
X114131100Y-77029100D03*
%TD*%
%TO.C,IC5*%
G36*
G01*
X146557500Y-98693100D02*
X146557500Y-96493100D01*
G75*
G02*
X146709900Y-96340700I152400J0D01*
G01*
X147909900Y-96340700D01*
G75*
G02*
X148062300Y-96493100I0J-152400D01*
G01*
X148062300Y-98693100D01*
G75*
G02*
X147909900Y-98845500I-152400J0D01*
G01*
X146709900Y-98845500D01*
G75*
G02*
X146557500Y-98693100I0J152400D01*
G01*
G37*
G36*
G01*
X149097500Y-98693100D02*
X149097500Y-96493100D01*
G75*
G02*
X149249900Y-96340700I152400J0D01*
G01*
X150449900Y-96340700D01*
G75*
G02*
X150602300Y-96493100I0J-152400D01*
G01*
X150602300Y-98693100D01*
G75*
G02*
X150449900Y-98845500I-152400J0D01*
G01*
X149249900Y-98845500D01*
G75*
G02*
X149097500Y-98693100I0J152400D01*
G01*
G37*
G36*
G01*
X151637500Y-98693100D02*
X151637500Y-96493100D01*
G75*
G02*
X151789900Y-96340700I152400J0D01*
G01*
X152989900Y-96340700D01*
G75*
G02*
X153142300Y-96493100I0J-152400D01*
G01*
X153142300Y-98693100D01*
G75*
G02*
X152989900Y-98845500I-152400J0D01*
G01*
X151789900Y-98845500D01*
G75*
G02*
X151637500Y-98693100I0J152400D01*
G01*
G37*
G36*
G01*
X154177500Y-98693100D02*
X154177500Y-96493100D01*
G75*
G02*
X154329900Y-96340700I152400J0D01*
G01*
X155529900Y-96340700D01*
G75*
G02*
X155682300Y-96493100I0J-152400D01*
G01*
X155682300Y-98693100D01*
G75*
G02*
X155529900Y-98845500I-152400J0D01*
G01*
X154329900Y-98845500D01*
G75*
G02*
X154177500Y-98693100I0J152400D01*
G01*
G37*
G36*
G01*
X154177500Y-91093100D02*
X154177500Y-88893100D01*
G75*
G02*
X154329900Y-88740700I152400J0D01*
G01*
X155529900Y-88740700D01*
G75*
G02*
X155682300Y-88893100I0J-152400D01*
G01*
X155682300Y-91093100D01*
G75*
G02*
X155529900Y-91245500I-152400J0D01*
G01*
X154329900Y-91245500D01*
G75*
G02*
X154177500Y-91093100I0J152400D01*
G01*
G37*
G36*
G01*
X151637500Y-91093100D02*
X151637500Y-88893100D01*
G75*
G02*
X151789900Y-88740700I152400J0D01*
G01*
X152989900Y-88740700D01*
G75*
G02*
X153142300Y-88893100I0J-152400D01*
G01*
X153142300Y-91093100D01*
G75*
G02*
X152989900Y-91245500I-152400J0D01*
G01*
X151789900Y-91245500D01*
G75*
G02*
X151637500Y-91093100I0J152400D01*
G01*
G37*
G36*
G01*
X149097500Y-91093100D02*
X149097500Y-88893100D01*
G75*
G02*
X149249900Y-88740700I152400J0D01*
G01*
X150449900Y-88740700D01*
G75*
G02*
X150602300Y-88893100I0J-152400D01*
G01*
X150602300Y-91093100D01*
G75*
G02*
X150449900Y-91245500I-152400J0D01*
G01*
X149249900Y-91245500D01*
G75*
G02*
X149097500Y-91093100I0J152400D01*
G01*
G37*
G36*
G01*
X146557500Y-91093100D02*
X146557500Y-88893100D01*
G75*
G02*
X146709900Y-88740700I152400J0D01*
G01*
X147909900Y-88740700D01*
G75*
G02*
X148062300Y-88893100I0J-152400D01*
G01*
X148062300Y-91093100D01*
G75*
G02*
X147909900Y-91245500I-152400J0D01*
G01*
X146709900Y-91245500D01*
G75*
G02*
X146557500Y-91093100I0J152400D01*
G01*
G37*
%TD*%
%TO.C,IC4*%
G36*
G01*
X142112300Y-103126800D02*
X142112300Y-103476800D01*
G75*
G02*
X141959900Y-103629200I-152400J0D01*
G01*
X139759900Y-103629200D01*
G75*
G02*
X139607500Y-103476800I0J152400D01*
G01*
X139607500Y-103126800D01*
G75*
G02*
X139759900Y-102974400I152400J0D01*
G01*
X141959900Y-102974400D01*
G75*
G02*
X142112300Y-103126800I0J-152400D01*
G01*
G37*
G36*
G01*
X142112300Y-102476800D02*
X142112300Y-102826800D01*
G75*
G02*
X141959900Y-102979200I-152400J0D01*
G01*
X139759900Y-102979200D01*
G75*
G02*
X139607500Y-102826800I0J152400D01*
G01*
X139607500Y-102476800D01*
G75*
G02*
X139759900Y-102324400I152400J0D01*
G01*
X141959900Y-102324400D01*
G75*
G02*
X142112300Y-102476800I0J-152400D01*
G01*
G37*
G36*
G01*
X142112300Y-101826800D02*
X142112300Y-102176800D01*
G75*
G02*
X141959900Y-102329200I-152400J0D01*
G01*
X139759900Y-102329200D01*
G75*
G02*
X139607500Y-102176800I0J152400D01*
G01*
X139607500Y-101826800D01*
G75*
G02*
X139759900Y-101674400I152400J0D01*
G01*
X141959900Y-101674400D01*
G75*
G02*
X142112300Y-101826800I0J-152400D01*
G01*
G37*
G36*
G01*
X142112300Y-101176800D02*
X142112300Y-101526800D01*
G75*
G02*
X141959900Y-101679200I-152400J0D01*
G01*
X139759900Y-101679200D01*
G75*
G02*
X139607500Y-101526800I0J152400D01*
G01*
X139607500Y-101176800D01*
G75*
G02*
X139759900Y-101024400I152400J0D01*
G01*
X141959900Y-101024400D01*
G75*
G02*
X142112300Y-101176800I0J-152400D01*
G01*
G37*
G36*
G01*
X142112300Y-100526800D02*
X142112300Y-100876800D01*
G75*
G02*
X141959900Y-101029200I-152400J0D01*
G01*
X139759900Y-101029200D01*
G75*
G02*
X139607500Y-100876800I0J152400D01*
G01*
X139607500Y-100526800D01*
G75*
G02*
X139759900Y-100374400I152400J0D01*
G01*
X141959900Y-100374400D01*
G75*
G02*
X142112300Y-100526800I0J-152400D01*
G01*
G37*
G36*
G01*
X142112300Y-99876800D02*
X142112300Y-100226800D01*
G75*
G02*
X141959900Y-100379200I-152400J0D01*
G01*
X139759900Y-100379200D01*
G75*
G02*
X139607500Y-100226800I0J152400D01*
G01*
X139607500Y-99876800D01*
G75*
G02*
X139759900Y-99724400I152400J0D01*
G01*
X141959900Y-99724400D01*
G75*
G02*
X142112300Y-99876800I0J-152400D01*
G01*
G37*
G36*
G01*
X142112300Y-99226800D02*
X142112300Y-99576800D01*
G75*
G02*
X141959900Y-99729200I-152400J0D01*
G01*
X139759900Y-99729200D01*
G75*
G02*
X139607500Y-99576800I0J152400D01*
G01*
X139607500Y-99226800D01*
G75*
G02*
X139759900Y-99074400I152400J0D01*
G01*
X141959900Y-99074400D01*
G75*
G02*
X142112300Y-99226800I0J-152400D01*
G01*
G37*
G36*
G01*
X142112300Y-98576800D02*
X142112300Y-98926800D01*
G75*
G02*
X141959900Y-99079200I-152400J0D01*
G01*
X139759900Y-99079200D01*
G75*
G02*
X139607500Y-98926800I0J152400D01*
G01*
X139607500Y-98576800D01*
G75*
G02*
X139759900Y-98424400I152400J0D01*
G01*
X141959900Y-98424400D01*
G75*
G02*
X142112300Y-98576800I0J-152400D01*
G01*
G37*
G36*
G01*
X142112300Y-97926800D02*
X142112300Y-98276800D01*
G75*
G02*
X141959900Y-98429200I-152400J0D01*
G01*
X139759900Y-98429200D01*
G75*
G02*
X139607500Y-98276800I0J152400D01*
G01*
X139607500Y-97926800D01*
G75*
G02*
X139759900Y-97774400I152400J0D01*
G01*
X141959900Y-97774400D01*
G75*
G02*
X142112300Y-97926800I0J-152400D01*
G01*
G37*
G36*
G01*
X142112300Y-97276800D02*
X142112300Y-97626800D01*
G75*
G02*
X141959900Y-97779200I-152400J0D01*
G01*
X139759900Y-97779200D01*
G75*
G02*
X139607500Y-97626800I0J152400D01*
G01*
X139607500Y-97276800D01*
G75*
G02*
X139759900Y-97124400I152400J0D01*
G01*
X141959900Y-97124400D01*
G75*
G02*
X142112300Y-97276800I0J-152400D01*
G01*
G37*
G36*
G01*
X142112300Y-96626800D02*
X142112300Y-96976800D01*
G75*
G02*
X141959900Y-97129200I-152400J0D01*
G01*
X139759900Y-97129200D01*
G75*
G02*
X139607500Y-96976800I0J152400D01*
G01*
X139607500Y-96626800D01*
G75*
G02*
X139759900Y-96474400I152400J0D01*
G01*
X141959900Y-96474400D01*
G75*
G02*
X142112300Y-96626800I0J-152400D01*
G01*
G37*
G36*
G01*
X142112300Y-95976800D02*
X142112300Y-96326800D01*
G75*
G02*
X141959900Y-96479200I-152400J0D01*
G01*
X139759900Y-96479200D01*
G75*
G02*
X139607500Y-96326800I0J152400D01*
G01*
X139607500Y-95976800D01*
G75*
G02*
X139759900Y-95824400I152400J0D01*
G01*
X141959900Y-95824400D01*
G75*
G02*
X142112300Y-95976800I0J-152400D01*
G01*
G37*
G36*
G01*
X142112300Y-95326800D02*
X142112300Y-95676800D01*
G75*
G02*
X141959900Y-95829200I-152400J0D01*
G01*
X139759900Y-95829200D01*
G75*
G02*
X139607500Y-95676800I0J152400D01*
G01*
X139607500Y-95326800D01*
G75*
G02*
X139759900Y-95174400I152400J0D01*
G01*
X141959900Y-95174400D01*
G75*
G02*
X142112300Y-95326800I0J-152400D01*
G01*
G37*
G36*
G01*
X142112300Y-94676800D02*
X142112300Y-95026800D01*
G75*
G02*
X141959900Y-95179200I-152400J0D01*
G01*
X139759900Y-95179200D01*
G75*
G02*
X139607500Y-95026800I0J152400D01*
G01*
X139607500Y-94676800D01*
G75*
G02*
X139759900Y-94524400I152400J0D01*
G01*
X141959900Y-94524400D01*
G75*
G02*
X142112300Y-94676800I0J-152400D01*
G01*
G37*
G36*
G01*
X142112300Y-94026800D02*
X142112300Y-94376800D01*
G75*
G02*
X141959900Y-94529200I-152400J0D01*
G01*
X139759900Y-94529200D01*
G75*
G02*
X139607500Y-94376800I0J152400D01*
G01*
X139607500Y-94026800D01*
G75*
G02*
X139759900Y-93874400I152400J0D01*
G01*
X141959900Y-93874400D01*
G75*
G02*
X142112300Y-94026800I0J-152400D01*
G01*
G37*
G36*
G01*
X142112300Y-93376800D02*
X142112300Y-93726800D01*
G75*
G02*
X141959900Y-93879200I-152400J0D01*
G01*
X139759900Y-93879200D01*
G75*
G02*
X139607500Y-93726800I0J152400D01*
G01*
X139607500Y-93376800D01*
G75*
G02*
X139759900Y-93224400I152400J0D01*
G01*
X141959900Y-93224400D01*
G75*
G02*
X142112300Y-93376800I0J-152400D01*
G01*
G37*
G36*
G01*
X142112300Y-92726800D02*
X142112300Y-93076800D01*
G75*
G02*
X141959900Y-93229200I-152400J0D01*
G01*
X139759900Y-93229200D01*
G75*
G02*
X139607500Y-93076800I0J152400D01*
G01*
X139607500Y-92726800D01*
G75*
G02*
X139759900Y-92574400I152400J0D01*
G01*
X141959900Y-92574400D01*
G75*
G02*
X142112300Y-92726800I0J-152400D01*
G01*
G37*
G36*
G01*
X142112300Y-92076800D02*
X142112300Y-92426800D01*
G75*
G02*
X141959900Y-92579200I-152400J0D01*
G01*
X139759900Y-92579200D01*
G75*
G02*
X139607500Y-92426800I0J152400D01*
G01*
X139607500Y-92076800D01*
G75*
G02*
X139759900Y-91924400I152400J0D01*
G01*
X141959900Y-91924400D01*
G75*
G02*
X142112300Y-92076800I0J-152400D01*
G01*
G37*
G36*
G01*
X142112300Y-91426800D02*
X142112300Y-91776800D01*
G75*
G02*
X141959900Y-91929200I-152400J0D01*
G01*
X139759900Y-91929200D01*
G75*
G02*
X139607500Y-91776800I0J152400D01*
G01*
X139607500Y-91426800D01*
G75*
G02*
X139759900Y-91274400I152400J0D01*
G01*
X141959900Y-91274400D01*
G75*
G02*
X142112300Y-91426800I0J-152400D01*
G01*
G37*
G36*
G01*
X142112300Y-90776800D02*
X142112300Y-91126800D01*
G75*
G02*
X141959900Y-91279200I-152400J0D01*
G01*
X139759900Y-91279200D01*
G75*
G02*
X139607500Y-91126800I0J152400D01*
G01*
X139607500Y-90776800D01*
G75*
G02*
X139759900Y-90624400I152400J0D01*
G01*
X141959900Y-90624400D01*
G75*
G02*
X142112300Y-90776800I0J-152400D01*
G01*
G37*
G36*
G01*
X138647300Y-87061800D02*
X138647300Y-89261800D01*
G75*
G02*
X138494900Y-89414200I-152400J0D01*
G01*
X138144900Y-89414200D01*
G75*
G02*
X137992500Y-89261800I0J152400D01*
G01*
X137992500Y-87061800D01*
G75*
G02*
X138144900Y-86909400I152400J0D01*
G01*
X138494900Y-86909400D01*
G75*
G02*
X138647300Y-87061800I0J-152400D01*
G01*
G37*
G36*
G01*
X137997300Y-87061800D02*
X137997300Y-89261800D01*
G75*
G02*
X137844900Y-89414200I-152400J0D01*
G01*
X137494900Y-89414200D01*
G75*
G02*
X137342500Y-89261800I0J152400D01*
G01*
X137342500Y-87061800D01*
G75*
G02*
X137494900Y-86909400I152400J0D01*
G01*
X137844900Y-86909400D01*
G75*
G02*
X137997300Y-87061800I0J-152400D01*
G01*
G37*
G36*
G01*
X137347300Y-87061800D02*
X137347300Y-89261800D01*
G75*
G02*
X137194900Y-89414200I-152400J0D01*
G01*
X136844900Y-89414200D01*
G75*
G02*
X136692500Y-89261800I0J152400D01*
G01*
X136692500Y-87061800D01*
G75*
G02*
X136844900Y-86909400I152400J0D01*
G01*
X137194900Y-86909400D01*
G75*
G02*
X137347300Y-87061800I0J-152400D01*
G01*
G37*
G36*
G01*
X136697300Y-87061800D02*
X136697300Y-89261800D01*
G75*
G02*
X136544900Y-89414200I-152400J0D01*
G01*
X136194900Y-89414200D01*
G75*
G02*
X136042500Y-89261800I0J152400D01*
G01*
X136042500Y-87061800D01*
G75*
G02*
X136194900Y-86909400I152400J0D01*
G01*
X136544900Y-86909400D01*
G75*
G02*
X136697300Y-87061800I0J-152400D01*
G01*
G37*
G36*
G01*
X136047300Y-87061800D02*
X136047300Y-89261800D01*
G75*
G02*
X135894900Y-89414200I-152400J0D01*
G01*
X135544900Y-89414200D01*
G75*
G02*
X135392500Y-89261800I0J152400D01*
G01*
X135392500Y-87061800D01*
G75*
G02*
X135544900Y-86909400I152400J0D01*
G01*
X135894900Y-86909400D01*
G75*
G02*
X136047300Y-87061800I0J-152400D01*
G01*
G37*
G36*
G01*
X135397300Y-87061800D02*
X135397300Y-89261800D01*
G75*
G02*
X135244900Y-89414200I-152400J0D01*
G01*
X134894900Y-89414200D01*
G75*
G02*
X134742500Y-89261800I0J152400D01*
G01*
X134742500Y-87061800D01*
G75*
G02*
X134894900Y-86909400I152400J0D01*
G01*
X135244900Y-86909400D01*
G75*
G02*
X135397300Y-87061800I0J-152400D01*
G01*
G37*
G36*
G01*
X134747300Y-87061800D02*
X134747300Y-89261800D01*
G75*
G02*
X134594900Y-89414200I-152400J0D01*
G01*
X134244900Y-89414200D01*
G75*
G02*
X134092500Y-89261800I0J152400D01*
G01*
X134092500Y-87061800D01*
G75*
G02*
X134244900Y-86909400I152400J0D01*
G01*
X134594900Y-86909400D01*
G75*
G02*
X134747300Y-87061800I0J-152400D01*
G01*
G37*
G36*
G01*
X134097300Y-87061800D02*
X134097300Y-89261800D01*
G75*
G02*
X133944900Y-89414200I-152400J0D01*
G01*
X133594900Y-89414200D01*
G75*
G02*
X133442500Y-89261800I0J152400D01*
G01*
X133442500Y-87061800D01*
G75*
G02*
X133594900Y-86909400I152400J0D01*
G01*
X133944900Y-86909400D01*
G75*
G02*
X134097300Y-87061800I0J-152400D01*
G01*
G37*
G36*
G01*
X133447300Y-87061800D02*
X133447300Y-89261800D01*
G75*
G02*
X133294900Y-89414200I-152400J0D01*
G01*
X132944900Y-89414200D01*
G75*
G02*
X132792500Y-89261800I0J152400D01*
G01*
X132792500Y-87061800D01*
G75*
G02*
X132944900Y-86909400I152400J0D01*
G01*
X133294900Y-86909400D01*
G75*
G02*
X133447300Y-87061800I0J-152400D01*
G01*
G37*
G36*
G01*
X132797300Y-87061800D02*
X132797300Y-89261800D01*
G75*
G02*
X132644900Y-89414200I-152400J0D01*
G01*
X132294900Y-89414200D01*
G75*
G02*
X132142500Y-89261800I0J152400D01*
G01*
X132142500Y-87061800D01*
G75*
G02*
X132294900Y-86909400I152400J0D01*
G01*
X132644900Y-86909400D01*
G75*
G02*
X132797300Y-87061800I0J-152400D01*
G01*
G37*
G36*
G01*
X132147300Y-87061800D02*
X132147300Y-89261800D01*
G75*
G02*
X131994900Y-89414200I-152400J0D01*
G01*
X131644900Y-89414200D01*
G75*
G02*
X131492500Y-89261800I0J152400D01*
G01*
X131492500Y-87061800D01*
G75*
G02*
X131644900Y-86909400I152400J0D01*
G01*
X131994900Y-86909400D01*
G75*
G02*
X132147300Y-87061800I0J-152400D01*
G01*
G37*
G36*
G01*
X131497300Y-87061800D02*
X131497300Y-89261800D01*
G75*
G02*
X131344900Y-89414200I-152400J0D01*
G01*
X130994900Y-89414200D01*
G75*
G02*
X130842500Y-89261800I0J152400D01*
G01*
X130842500Y-87061800D01*
G75*
G02*
X130994900Y-86909400I152400J0D01*
G01*
X131344900Y-86909400D01*
G75*
G02*
X131497300Y-87061800I0J-152400D01*
G01*
G37*
G36*
G01*
X130847300Y-87061800D02*
X130847300Y-89261800D01*
G75*
G02*
X130694900Y-89414200I-152400J0D01*
G01*
X130344900Y-89414200D01*
G75*
G02*
X130192500Y-89261800I0J152400D01*
G01*
X130192500Y-87061800D01*
G75*
G02*
X130344900Y-86909400I152400J0D01*
G01*
X130694900Y-86909400D01*
G75*
G02*
X130847300Y-87061800I0J-152400D01*
G01*
G37*
G36*
G01*
X130197300Y-87061800D02*
X130197300Y-89261800D01*
G75*
G02*
X130044900Y-89414200I-152400J0D01*
G01*
X129694900Y-89414200D01*
G75*
G02*
X129542500Y-89261800I0J152400D01*
G01*
X129542500Y-87061800D01*
G75*
G02*
X129694900Y-86909400I152400J0D01*
G01*
X130044900Y-86909400D01*
G75*
G02*
X130197300Y-87061800I0J-152400D01*
G01*
G37*
G36*
G01*
X129547300Y-87061800D02*
X129547300Y-89261800D01*
G75*
G02*
X129394900Y-89414200I-152400J0D01*
G01*
X129044900Y-89414200D01*
G75*
G02*
X128892500Y-89261800I0J152400D01*
G01*
X128892500Y-87061800D01*
G75*
G02*
X129044900Y-86909400I152400J0D01*
G01*
X129394900Y-86909400D01*
G75*
G02*
X129547300Y-87061800I0J-152400D01*
G01*
G37*
G36*
G01*
X128897300Y-87061800D02*
X128897300Y-89261800D01*
G75*
G02*
X128744900Y-89414200I-152400J0D01*
G01*
X128394900Y-89414200D01*
G75*
G02*
X128242500Y-89261800I0J152400D01*
G01*
X128242500Y-87061800D01*
G75*
G02*
X128394900Y-86909400I152400J0D01*
G01*
X128744900Y-86909400D01*
G75*
G02*
X128897300Y-87061800I0J-152400D01*
G01*
G37*
G36*
G01*
X128247300Y-87061800D02*
X128247300Y-89261800D01*
G75*
G02*
X128094900Y-89414200I-152400J0D01*
G01*
X127744900Y-89414200D01*
G75*
G02*
X127592500Y-89261800I0J152400D01*
G01*
X127592500Y-87061800D01*
G75*
G02*
X127744900Y-86909400I152400J0D01*
G01*
X128094900Y-86909400D01*
G75*
G02*
X128247300Y-87061800I0J-152400D01*
G01*
G37*
G36*
G01*
X127597300Y-87061800D02*
X127597300Y-89261800D01*
G75*
G02*
X127444900Y-89414200I-152400J0D01*
G01*
X127094900Y-89414200D01*
G75*
G02*
X126942500Y-89261800I0J152400D01*
G01*
X126942500Y-87061800D01*
G75*
G02*
X127094900Y-86909400I152400J0D01*
G01*
X127444900Y-86909400D01*
G75*
G02*
X127597300Y-87061800I0J-152400D01*
G01*
G37*
G36*
G01*
X126947300Y-87061800D02*
X126947300Y-89261800D01*
G75*
G02*
X126794900Y-89414200I-152400J0D01*
G01*
X126444900Y-89414200D01*
G75*
G02*
X126292500Y-89261800I0J152400D01*
G01*
X126292500Y-87061800D01*
G75*
G02*
X126444900Y-86909400I152400J0D01*
G01*
X126794900Y-86909400D01*
G75*
G02*
X126947300Y-87061800I0J-152400D01*
G01*
G37*
G36*
G01*
X126297300Y-87061800D02*
X126297300Y-89261800D01*
G75*
G02*
X126144900Y-89414200I-152400J0D01*
G01*
X125794900Y-89414200D01*
G75*
G02*
X125642500Y-89261800I0J152400D01*
G01*
X125642500Y-87061800D01*
G75*
G02*
X125794900Y-86909400I152400J0D01*
G01*
X126144900Y-86909400D01*
G75*
G02*
X126297300Y-87061800I0J-152400D01*
G01*
G37*
G36*
G01*
X125647300Y-87061800D02*
X125647300Y-89261800D01*
G75*
G02*
X125494900Y-89414200I-152400J0D01*
G01*
X125144900Y-89414200D01*
G75*
G02*
X124992500Y-89261800I0J152400D01*
G01*
X124992500Y-87061800D01*
G75*
G02*
X125144900Y-86909400I152400J0D01*
G01*
X125494900Y-86909400D01*
G75*
G02*
X125647300Y-87061800I0J-152400D01*
G01*
G37*
G36*
G01*
X124997300Y-87061800D02*
X124997300Y-89261800D01*
G75*
G02*
X124844900Y-89414200I-152400J0D01*
G01*
X124494900Y-89414200D01*
G75*
G02*
X124342500Y-89261800I0J152400D01*
G01*
X124342500Y-87061800D01*
G75*
G02*
X124494900Y-86909400I152400J0D01*
G01*
X124844900Y-86909400D01*
G75*
G02*
X124997300Y-87061800I0J-152400D01*
G01*
G37*
G36*
G01*
X124347300Y-87061800D02*
X124347300Y-89261800D01*
G75*
G02*
X124194900Y-89414200I-152400J0D01*
G01*
X123844900Y-89414200D01*
G75*
G02*
X123692500Y-89261800I0J152400D01*
G01*
X123692500Y-87061800D01*
G75*
G02*
X123844900Y-86909400I152400J0D01*
G01*
X124194900Y-86909400D01*
G75*
G02*
X124347300Y-87061800I0J-152400D01*
G01*
G37*
G36*
G01*
X123697300Y-87061800D02*
X123697300Y-89261800D01*
G75*
G02*
X123544900Y-89414200I-152400J0D01*
G01*
X123194900Y-89414200D01*
G75*
G02*
X123042500Y-89261800I0J152400D01*
G01*
X123042500Y-87061800D01*
G75*
G02*
X123194900Y-86909400I152400J0D01*
G01*
X123544900Y-86909400D01*
G75*
G02*
X123697300Y-87061800I0J-152400D01*
G01*
G37*
G36*
G01*
X123047300Y-87061800D02*
X123047300Y-89261800D01*
G75*
G02*
X122894900Y-89414200I-152400J0D01*
G01*
X122544900Y-89414200D01*
G75*
G02*
X122392500Y-89261800I0J152400D01*
G01*
X122392500Y-87061800D01*
G75*
G02*
X122544900Y-86909400I152400J0D01*
G01*
X122894900Y-86909400D01*
G75*
G02*
X123047300Y-87061800I0J-152400D01*
G01*
G37*
G36*
G01*
X122397300Y-87061800D02*
X122397300Y-89261800D01*
G75*
G02*
X122244900Y-89414200I-152400J0D01*
G01*
X121894900Y-89414200D01*
G75*
G02*
X121742500Y-89261800I0J152400D01*
G01*
X121742500Y-87061800D01*
G75*
G02*
X121894900Y-86909400I152400J0D01*
G01*
X122244900Y-86909400D01*
G75*
G02*
X122397300Y-87061800I0J-152400D01*
G01*
G37*
G36*
G01*
X121747300Y-87061800D02*
X121747300Y-89261800D01*
G75*
G02*
X121594900Y-89414200I-152400J0D01*
G01*
X121244900Y-89414200D01*
G75*
G02*
X121092500Y-89261800I0J152400D01*
G01*
X121092500Y-87061800D01*
G75*
G02*
X121244900Y-86909400I152400J0D01*
G01*
X121594900Y-86909400D01*
G75*
G02*
X121747300Y-87061800I0J-152400D01*
G01*
G37*
G36*
G01*
X121097300Y-87061800D02*
X121097300Y-89261800D01*
G75*
G02*
X120944900Y-89414200I-152400J0D01*
G01*
X120594900Y-89414200D01*
G75*
G02*
X120442500Y-89261800I0J152400D01*
G01*
X120442500Y-87061800D01*
G75*
G02*
X120594900Y-86909400I152400J0D01*
G01*
X120944900Y-86909400D01*
G75*
G02*
X121097300Y-87061800I0J-152400D01*
G01*
G37*
G36*
G01*
X120447300Y-87061800D02*
X120447300Y-89261800D01*
G75*
G02*
X120294900Y-89414200I-152400J0D01*
G01*
X119944900Y-89414200D01*
G75*
G02*
X119792500Y-89261800I0J152400D01*
G01*
X119792500Y-87061800D01*
G75*
G02*
X119944900Y-86909400I152400J0D01*
G01*
X120294900Y-86909400D01*
G75*
G02*
X120447300Y-87061800I0J-152400D01*
G01*
G37*
G36*
G01*
X119797300Y-87061800D02*
X119797300Y-89261800D01*
G75*
G02*
X119644900Y-89414200I-152400J0D01*
G01*
X119294900Y-89414200D01*
G75*
G02*
X119142500Y-89261800I0J152400D01*
G01*
X119142500Y-87061800D01*
G75*
G02*
X119294900Y-86909400I152400J0D01*
G01*
X119644900Y-86909400D01*
G75*
G02*
X119797300Y-87061800I0J-152400D01*
G01*
G37*
G36*
G01*
X118182300Y-90776800D02*
X118182300Y-91126800D01*
G75*
G02*
X118029900Y-91279200I-152400J0D01*
G01*
X115829900Y-91279200D01*
G75*
G02*
X115677500Y-91126800I0J152400D01*
G01*
X115677500Y-90776800D01*
G75*
G02*
X115829900Y-90624400I152400J0D01*
G01*
X118029900Y-90624400D01*
G75*
G02*
X118182300Y-90776800I0J-152400D01*
G01*
G37*
G36*
G01*
X118182300Y-91426800D02*
X118182300Y-91776800D01*
G75*
G02*
X118029900Y-91929200I-152400J0D01*
G01*
X115829900Y-91929200D01*
G75*
G02*
X115677500Y-91776800I0J152400D01*
G01*
X115677500Y-91426800D01*
G75*
G02*
X115829900Y-91274400I152400J0D01*
G01*
X118029900Y-91274400D01*
G75*
G02*
X118182300Y-91426800I0J-152400D01*
G01*
G37*
G36*
G01*
X118182300Y-92076800D02*
X118182300Y-92426800D01*
G75*
G02*
X118029900Y-92579200I-152400J0D01*
G01*
X115829900Y-92579200D01*
G75*
G02*
X115677500Y-92426800I0J152400D01*
G01*
X115677500Y-92076800D01*
G75*
G02*
X115829900Y-91924400I152400J0D01*
G01*
X118029900Y-91924400D01*
G75*
G02*
X118182300Y-92076800I0J-152400D01*
G01*
G37*
G36*
G01*
X118182300Y-92726800D02*
X118182300Y-93076800D01*
G75*
G02*
X118029900Y-93229200I-152400J0D01*
G01*
X115829900Y-93229200D01*
G75*
G02*
X115677500Y-93076800I0J152400D01*
G01*
X115677500Y-92726800D01*
G75*
G02*
X115829900Y-92574400I152400J0D01*
G01*
X118029900Y-92574400D01*
G75*
G02*
X118182300Y-92726800I0J-152400D01*
G01*
G37*
G36*
G01*
X118182300Y-93376800D02*
X118182300Y-93726800D01*
G75*
G02*
X118029900Y-93879200I-152400J0D01*
G01*
X115829900Y-93879200D01*
G75*
G02*
X115677500Y-93726800I0J152400D01*
G01*
X115677500Y-93376800D01*
G75*
G02*
X115829900Y-93224400I152400J0D01*
G01*
X118029900Y-93224400D01*
G75*
G02*
X118182300Y-93376800I0J-152400D01*
G01*
G37*
G36*
G01*
X118182300Y-94026800D02*
X118182300Y-94376800D01*
G75*
G02*
X118029900Y-94529200I-152400J0D01*
G01*
X115829900Y-94529200D01*
G75*
G02*
X115677500Y-94376800I0J152400D01*
G01*
X115677500Y-94026800D01*
G75*
G02*
X115829900Y-93874400I152400J0D01*
G01*
X118029900Y-93874400D01*
G75*
G02*
X118182300Y-94026800I0J-152400D01*
G01*
G37*
G36*
G01*
X118182300Y-94676800D02*
X118182300Y-95026800D01*
G75*
G02*
X118029900Y-95179200I-152400J0D01*
G01*
X115829900Y-95179200D01*
G75*
G02*
X115677500Y-95026800I0J152400D01*
G01*
X115677500Y-94676800D01*
G75*
G02*
X115829900Y-94524400I152400J0D01*
G01*
X118029900Y-94524400D01*
G75*
G02*
X118182300Y-94676800I0J-152400D01*
G01*
G37*
G36*
G01*
X118182300Y-95326800D02*
X118182300Y-95676800D01*
G75*
G02*
X118029900Y-95829200I-152400J0D01*
G01*
X115829900Y-95829200D01*
G75*
G02*
X115677500Y-95676800I0J152400D01*
G01*
X115677500Y-95326800D01*
G75*
G02*
X115829900Y-95174400I152400J0D01*
G01*
X118029900Y-95174400D01*
G75*
G02*
X118182300Y-95326800I0J-152400D01*
G01*
G37*
G36*
G01*
X118182300Y-95976800D02*
X118182300Y-96326800D01*
G75*
G02*
X118029900Y-96479200I-152400J0D01*
G01*
X115829900Y-96479200D01*
G75*
G02*
X115677500Y-96326800I0J152400D01*
G01*
X115677500Y-95976800D01*
G75*
G02*
X115829900Y-95824400I152400J0D01*
G01*
X118029900Y-95824400D01*
G75*
G02*
X118182300Y-95976800I0J-152400D01*
G01*
G37*
G36*
G01*
X118182300Y-96626800D02*
X118182300Y-96976800D01*
G75*
G02*
X118029900Y-97129200I-152400J0D01*
G01*
X115829900Y-97129200D01*
G75*
G02*
X115677500Y-96976800I0J152400D01*
G01*
X115677500Y-96626800D01*
G75*
G02*
X115829900Y-96474400I152400J0D01*
G01*
X118029900Y-96474400D01*
G75*
G02*
X118182300Y-96626800I0J-152400D01*
G01*
G37*
G36*
G01*
X118182300Y-97276800D02*
X118182300Y-97626800D01*
G75*
G02*
X118029900Y-97779200I-152400J0D01*
G01*
X115829900Y-97779200D01*
G75*
G02*
X115677500Y-97626800I0J152400D01*
G01*
X115677500Y-97276800D01*
G75*
G02*
X115829900Y-97124400I152400J0D01*
G01*
X118029900Y-97124400D01*
G75*
G02*
X118182300Y-97276800I0J-152400D01*
G01*
G37*
G36*
G01*
X118182300Y-97926800D02*
X118182300Y-98276800D01*
G75*
G02*
X118029900Y-98429200I-152400J0D01*
G01*
X115829900Y-98429200D01*
G75*
G02*
X115677500Y-98276800I0J152400D01*
G01*
X115677500Y-97926800D01*
G75*
G02*
X115829900Y-97774400I152400J0D01*
G01*
X118029900Y-97774400D01*
G75*
G02*
X118182300Y-97926800I0J-152400D01*
G01*
G37*
G36*
G01*
X118182300Y-98576800D02*
X118182300Y-98926800D01*
G75*
G02*
X118029900Y-99079200I-152400J0D01*
G01*
X115829900Y-99079200D01*
G75*
G02*
X115677500Y-98926800I0J152400D01*
G01*
X115677500Y-98576800D01*
G75*
G02*
X115829900Y-98424400I152400J0D01*
G01*
X118029900Y-98424400D01*
G75*
G02*
X118182300Y-98576800I0J-152400D01*
G01*
G37*
G36*
G01*
X118182300Y-99226800D02*
X118182300Y-99576800D01*
G75*
G02*
X118029900Y-99729200I-152400J0D01*
G01*
X115829900Y-99729200D01*
G75*
G02*
X115677500Y-99576800I0J152400D01*
G01*
X115677500Y-99226800D01*
G75*
G02*
X115829900Y-99074400I152400J0D01*
G01*
X118029900Y-99074400D01*
G75*
G02*
X118182300Y-99226800I0J-152400D01*
G01*
G37*
G36*
G01*
X118182300Y-99876800D02*
X118182300Y-100226800D01*
G75*
G02*
X118029900Y-100379200I-152400J0D01*
G01*
X115829900Y-100379200D01*
G75*
G02*
X115677500Y-100226800I0J152400D01*
G01*
X115677500Y-99876800D01*
G75*
G02*
X115829900Y-99724400I152400J0D01*
G01*
X118029900Y-99724400D01*
G75*
G02*
X118182300Y-99876800I0J-152400D01*
G01*
G37*
G36*
G01*
X118182300Y-100526800D02*
X118182300Y-100876800D01*
G75*
G02*
X118029900Y-101029200I-152400J0D01*
G01*
X115829900Y-101029200D01*
G75*
G02*
X115677500Y-100876800I0J152400D01*
G01*
X115677500Y-100526800D01*
G75*
G02*
X115829900Y-100374400I152400J0D01*
G01*
X118029900Y-100374400D01*
G75*
G02*
X118182300Y-100526800I0J-152400D01*
G01*
G37*
G36*
G01*
X118182300Y-101176800D02*
X118182300Y-101526800D01*
G75*
G02*
X118029900Y-101679200I-152400J0D01*
G01*
X115829900Y-101679200D01*
G75*
G02*
X115677500Y-101526800I0J152400D01*
G01*
X115677500Y-101176800D01*
G75*
G02*
X115829900Y-101024400I152400J0D01*
G01*
X118029900Y-101024400D01*
G75*
G02*
X118182300Y-101176800I0J-152400D01*
G01*
G37*
G36*
G01*
X118182300Y-101826800D02*
X118182300Y-102176800D01*
G75*
G02*
X118029900Y-102329200I-152400J0D01*
G01*
X115829900Y-102329200D01*
G75*
G02*
X115677500Y-102176800I0J152400D01*
G01*
X115677500Y-101826800D01*
G75*
G02*
X115829900Y-101674400I152400J0D01*
G01*
X118029900Y-101674400D01*
G75*
G02*
X118182300Y-101826800I0J-152400D01*
G01*
G37*
G36*
G01*
X118182300Y-102476800D02*
X118182300Y-102826800D01*
G75*
G02*
X118029900Y-102979200I-152400J0D01*
G01*
X115829900Y-102979200D01*
G75*
G02*
X115677500Y-102826800I0J152400D01*
G01*
X115677500Y-102476800D01*
G75*
G02*
X115829900Y-102324400I152400J0D01*
G01*
X118029900Y-102324400D01*
G75*
G02*
X118182300Y-102476800I0J-152400D01*
G01*
G37*
G36*
G01*
X118182300Y-103126800D02*
X118182300Y-103476800D01*
G75*
G02*
X118029900Y-103629200I-152400J0D01*
G01*
X115829900Y-103629200D01*
G75*
G02*
X115677500Y-103476800I0J152400D01*
G01*
X115677500Y-103126800D01*
G75*
G02*
X115829900Y-102974400I152400J0D01*
G01*
X118029900Y-102974400D01*
G75*
G02*
X118182300Y-103126800I0J-152400D01*
G01*
G37*
G36*
G01*
X119797300Y-104991800D02*
X119797300Y-107191800D01*
G75*
G02*
X119644900Y-107344200I-152400J0D01*
G01*
X119294900Y-107344200D01*
G75*
G02*
X119142500Y-107191800I0J152400D01*
G01*
X119142500Y-104991800D01*
G75*
G02*
X119294900Y-104839400I152400J0D01*
G01*
X119644900Y-104839400D01*
G75*
G02*
X119797300Y-104991800I0J-152400D01*
G01*
G37*
G36*
G01*
X120447300Y-104991800D02*
X120447300Y-107191800D01*
G75*
G02*
X120294900Y-107344200I-152400J0D01*
G01*
X119944900Y-107344200D01*
G75*
G02*
X119792500Y-107191800I0J152400D01*
G01*
X119792500Y-104991800D01*
G75*
G02*
X119944900Y-104839400I152400J0D01*
G01*
X120294900Y-104839400D01*
G75*
G02*
X120447300Y-104991800I0J-152400D01*
G01*
G37*
G36*
G01*
X121097300Y-104991800D02*
X121097300Y-107191800D01*
G75*
G02*
X120944900Y-107344200I-152400J0D01*
G01*
X120594900Y-107344200D01*
G75*
G02*
X120442500Y-107191800I0J152400D01*
G01*
X120442500Y-104991800D01*
G75*
G02*
X120594900Y-104839400I152400J0D01*
G01*
X120944900Y-104839400D01*
G75*
G02*
X121097300Y-104991800I0J-152400D01*
G01*
G37*
G36*
G01*
X121747300Y-104991800D02*
X121747300Y-107191800D01*
G75*
G02*
X121594900Y-107344200I-152400J0D01*
G01*
X121244900Y-107344200D01*
G75*
G02*
X121092500Y-107191800I0J152400D01*
G01*
X121092500Y-104991800D01*
G75*
G02*
X121244900Y-104839400I152400J0D01*
G01*
X121594900Y-104839400D01*
G75*
G02*
X121747300Y-104991800I0J-152400D01*
G01*
G37*
G36*
G01*
X122397300Y-104991800D02*
X122397300Y-107191800D01*
G75*
G02*
X122244900Y-107344200I-152400J0D01*
G01*
X121894900Y-107344200D01*
G75*
G02*
X121742500Y-107191800I0J152400D01*
G01*
X121742500Y-104991800D01*
G75*
G02*
X121894900Y-104839400I152400J0D01*
G01*
X122244900Y-104839400D01*
G75*
G02*
X122397300Y-104991800I0J-152400D01*
G01*
G37*
G36*
G01*
X123047300Y-104991800D02*
X123047300Y-107191800D01*
G75*
G02*
X122894900Y-107344200I-152400J0D01*
G01*
X122544900Y-107344200D01*
G75*
G02*
X122392500Y-107191800I0J152400D01*
G01*
X122392500Y-104991800D01*
G75*
G02*
X122544900Y-104839400I152400J0D01*
G01*
X122894900Y-104839400D01*
G75*
G02*
X123047300Y-104991800I0J-152400D01*
G01*
G37*
G36*
G01*
X123697300Y-104991800D02*
X123697300Y-107191800D01*
G75*
G02*
X123544900Y-107344200I-152400J0D01*
G01*
X123194900Y-107344200D01*
G75*
G02*
X123042500Y-107191800I0J152400D01*
G01*
X123042500Y-104991800D01*
G75*
G02*
X123194900Y-104839400I152400J0D01*
G01*
X123544900Y-104839400D01*
G75*
G02*
X123697300Y-104991800I0J-152400D01*
G01*
G37*
G36*
G01*
X124347300Y-104991800D02*
X124347300Y-107191800D01*
G75*
G02*
X124194900Y-107344200I-152400J0D01*
G01*
X123844900Y-107344200D01*
G75*
G02*
X123692500Y-107191800I0J152400D01*
G01*
X123692500Y-104991800D01*
G75*
G02*
X123844900Y-104839400I152400J0D01*
G01*
X124194900Y-104839400D01*
G75*
G02*
X124347300Y-104991800I0J-152400D01*
G01*
G37*
G36*
G01*
X124997300Y-104991800D02*
X124997300Y-107191800D01*
G75*
G02*
X124844900Y-107344200I-152400J0D01*
G01*
X124494900Y-107344200D01*
G75*
G02*
X124342500Y-107191800I0J152400D01*
G01*
X124342500Y-104991800D01*
G75*
G02*
X124494900Y-104839400I152400J0D01*
G01*
X124844900Y-104839400D01*
G75*
G02*
X124997300Y-104991800I0J-152400D01*
G01*
G37*
G36*
G01*
X125647300Y-104991800D02*
X125647300Y-107191800D01*
G75*
G02*
X125494900Y-107344200I-152400J0D01*
G01*
X125144900Y-107344200D01*
G75*
G02*
X124992500Y-107191800I0J152400D01*
G01*
X124992500Y-104991800D01*
G75*
G02*
X125144900Y-104839400I152400J0D01*
G01*
X125494900Y-104839400D01*
G75*
G02*
X125647300Y-104991800I0J-152400D01*
G01*
G37*
G36*
G01*
X126297300Y-104991800D02*
X126297300Y-107191800D01*
G75*
G02*
X126144900Y-107344200I-152400J0D01*
G01*
X125794900Y-107344200D01*
G75*
G02*
X125642500Y-107191800I0J152400D01*
G01*
X125642500Y-104991800D01*
G75*
G02*
X125794900Y-104839400I152400J0D01*
G01*
X126144900Y-104839400D01*
G75*
G02*
X126297300Y-104991800I0J-152400D01*
G01*
G37*
G36*
G01*
X126947300Y-104991800D02*
X126947300Y-107191800D01*
G75*
G02*
X126794900Y-107344200I-152400J0D01*
G01*
X126444900Y-107344200D01*
G75*
G02*
X126292500Y-107191800I0J152400D01*
G01*
X126292500Y-104991800D01*
G75*
G02*
X126444900Y-104839400I152400J0D01*
G01*
X126794900Y-104839400D01*
G75*
G02*
X126947300Y-104991800I0J-152400D01*
G01*
G37*
G36*
G01*
X127597300Y-104991800D02*
X127597300Y-107191800D01*
G75*
G02*
X127444900Y-107344200I-152400J0D01*
G01*
X127094900Y-107344200D01*
G75*
G02*
X126942500Y-107191800I0J152400D01*
G01*
X126942500Y-104991800D01*
G75*
G02*
X127094900Y-104839400I152400J0D01*
G01*
X127444900Y-104839400D01*
G75*
G02*
X127597300Y-104991800I0J-152400D01*
G01*
G37*
G36*
G01*
X128247300Y-104991800D02*
X128247300Y-107191800D01*
G75*
G02*
X128094900Y-107344200I-152400J0D01*
G01*
X127744900Y-107344200D01*
G75*
G02*
X127592500Y-107191800I0J152400D01*
G01*
X127592500Y-104991800D01*
G75*
G02*
X127744900Y-104839400I152400J0D01*
G01*
X128094900Y-104839400D01*
G75*
G02*
X128247300Y-104991800I0J-152400D01*
G01*
G37*
G36*
G01*
X128897300Y-104991800D02*
X128897300Y-107191800D01*
G75*
G02*
X128744900Y-107344200I-152400J0D01*
G01*
X128394900Y-107344200D01*
G75*
G02*
X128242500Y-107191800I0J152400D01*
G01*
X128242500Y-104991800D01*
G75*
G02*
X128394900Y-104839400I152400J0D01*
G01*
X128744900Y-104839400D01*
G75*
G02*
X128897300Y-104991800I0J-152400D01*
G01*
G37*
G36*
G01*
X129547300Y-104991800D02*
X129547300Y-107191800D01*
G75*
G02*
X129394900Y-107344200I-152400J0D01*
G01*
X129044900Y-107344200D01*
G75*
G02*
X128892500Y-107191800I0J152400D01*
G01*
X128892500Y-104991800D01*
G75*
G02*
X129044900Y-104839400I152400J0D01*
G01*
X129394900Y-104839400D01*
G75*
G02*
X129547300Y-104991800I0J-152400D01*
G01*
G37*
G36*
G01*
X130197300Y-104991800D02*
X130197300Y-107191800D01*
G75*
G02*
X130044900Y-107344200I-152400J0D01*
G01*
X129694900Y-107344200D01*
G75*
G02*
X129542500Y-107191800I0J152400D01*
G01*
X129542500Y-104991800D01*
G75*
G02*
X129694900Y-104839400I152400J0D01*
G01*
X130044900Y-104839400D01*
G75*
G02*
X130197300Y-104991800I0J-152400D01*
G01*
G37*
G36*
G01*
X130847300Y-104991800D02*
X130847300Y-107191800D01*
G75*
G02*
X130694900Y-107344200I-152400J0D01*
G01*
X130344900Y-107344200D01*
G75*
G02*
X130192500Y-107191800I0J152400D01*
G01*
X130192500Y-104991800D01*
G75*
G02*
X130344900Y-104839400I152400J0D01*
G01*
X130694900Y-104839400D01*
G75*
G02*
X130847300Y-104991800I0J-152400D01*
G01*
G37*
G36*
G01*
X131497300Y-104991800D02*
X131497300Y-107191800D01*
G75*
G02*
X131344900Y-107344200I-152400J0D01*
G01*
X130994900Y-107344200D01*
G75*
G02*
X130842500Y-107191800I0J152400D01*
G01*
X130842500Y-104991800D01*
G75*
G02*
X130994900Y-104839400I152400J0D01*
G01*
X131344900Y-104839400D01*
G75*
G02*
X131497300Y-104991800I0J-152400D01*
G01*
G37*
G36*
G01*
X132147300Y-104991800D02*
X132147300Y-107191800D01*
G75*
G02*
X131994900Y-107344200I-152400J0D01*
G01*
X131644900Y-107344200D01*
G75*
G02*
X131492500Y-107191800I0J152400D01*
G01*
X131492500Y-104991800D01*
G75*
G02*
X131644900Y-104839400I152400J0D01*
G01*
X131994900Y-104839400D01*
G75*
G02*
X132147300Y-104991800I0J-152400D01*
G01*
G37*
G36*
G01*
X132797300Y-104991800D02*
X132797300Y-107191800D01*
G75*
G02*
X132644900Y-107344200I-152400J0D01*
G01*
X132294900Y-107344200D01*
G75*
G02*
X132142500Y-107191800I0J152400D01*
G01*
X132142500Y-104991800D01*
G75*
G02*
X132294900Y-104839400I152400J0D01*
G01*
X132644900Y-104839400D01*
G75*
G02*
X132797300Y-104991800I0J-152400D01*
G01*
G37*
G36*
G01*
X133447300Y-104991800D02*
X133447300Y-107191800D01*
G75*
G02*
X133294900Y-107344200I-152400J0D01*
G01*
X132944900Y-107344200D01*
G75*
G02*
X132792500Y-107191800I0J152400D01*
G01*
X132792500Y-104991800D01*
G75*
G02*
X132944900Y-104839400I152400J0D01*
G01*
X133294900Y-104839400D01*
G75*
G02*
X133447300Y-104991800I0J-152400D01*
G01*
G37*
G36*
G01*
X134097300Y-104991800D02*
X134097300Y-107191800D01*
G75*
G02*
X133944900Y-107344200I-152400J0D01*
G01*
X133594900Y-107344200D01*
G75*
G02*
X133442500Y-107191800I0J152400D01*
G01*
X133442500Y-104991800D01*
G75*
G02*
X133594900Y-104839400I152400J0D01*
G01*
X133944900Y-104839400D01*
G75*
G02*
X134097300Y-104991800I0J-152400D01*
G01*
G37*
G36*
G01*
X134747300Y-104991800D02*
X134747300Y-107191800D01*
G75*
G02*
X134594900Y-107344200I-152400J0D01*
G01*
X134244900Y-107344200D01*
G75*
G02*
X134092500Y-107191800I0J152400D01*
G01*
X134092500Y-104991800D01*
G75*
G02*
X134244900Y-104839400I152400J0D01*
G01*
X134594900Y-104839400D01*
G75*
G02*
X134747300Y-104991800I0J-152400D01*
G01*
G37*
G36*
G01*
X135397300Y-104991800D02*
X135397300Y-107191800D01*
G75*
G02*
X135244900Y-107344200I-152400J0D01*
G01*
X134894900Y-107344200D01*
G75*
G02*
X134742500Y-107191800I0J152400D01*
G01*
X134742500Y-104991800D01*
G75*
G02*
X134894900Y-104839400I152400J0D01*
G01*
X135244900Y-104839400D01*
G75*
G02*
X135397300Y-104991800I0J-152400D01*
G01*
G37*
G36*
G01*
X136047300Y-104991800D02*
X136047300Y-107191800D01*
G75*
G02*
X135894900Y-107344200I-152400J0D01*
G01*
X135544900Y-107344200D01*
G75*
G02*
X135392500Y-107191800I0J152400D01*
G01*
X135392500Y-104991800D01*
G75*
G02*
X135544900Y-104839400I152400J0D01*
G01*
X135894900Y-104839400D01*
G75*
G02*
X136047300Y-104991800I0J-152400D01*
G01*
G37*
G36*
G01*
X136697300Y-104991800D02*
X136697300Y-107191800D01*
G75*
G02*
X136544900Y-107344200I-152400J0D01*
G01*
X136194900Y-107344200D01*
G75*
G02*
X136042500Y-107191800I0J152400D01*
G01*
X136042500Y-104991800D01*
G75*
G02*
X136194900Y-104839400I152400J0D01*
G01*
X136544900Y-104839400D01*
G75*
G02*
X136697300Y-104991800I0J-152400D01*
G01*
G37*
G36*
G01*
X137347300Y-104991800D02*
X137347300Y-107191800D01*
G75*
G02*
X137194900Y-107344200I-152400J0D01*
G01*
X136844900Y-107344200D01*
G75*
G02*
X136692500Y-107191800I0J152400D01*
G01*
X136692500Y-104991800D01*
G75*
G02*
X136844900Y-104839400I152400J0D01*
G01*
X137194900Y-104839400D01*
G75*
G02*
X137347300Y-104991800I0J-152400D01*
G01*
G37*
G36*
G01*
X137997300Y-104991800D02*
X137997300Y-107191800D01*
G75*
G02*
X137844900Y-107344200I-152400J0D01*
G01*
X137494900Y-107344200D01*
G75*
G02*
X137342500Y-107191800I0J152400D01*
G01*
X137342500Y-104991800D01*
G75*
G02*
X137494900Y-104839400I152400J0D01*
G01*
X137844900Y-104839400D01*
G75*
G02*
X137997300Y-104991800I0J-152400D01*
G01*
G37*
G36*
G01*
X138647300Y-104991800D02*
X138647300Y-107191800D01*
G75*
G02*
X138494900Y-107344200I-152400J0D01*
G01*
X138144900Y-107344200D01*
G75*
G02*
X137992500Y-107191800I0J152400D01*
G01*
X137992500Y-104991800D01*
G75*
G02*
X138144900Y-104839400I152400J0D01*
G01*
X138494900Y-104839400D01*
G75*
G02*
X138647300Y-104991800I0J-152400D01*
G01*
G37*
%TD*%
D12*
%TO.C,CON1*%
X194501100Y-107003600D03*
X102501100Y-107003600D03*
G36*
G01*
X122119400Y-135936400D02*
X122119400Y-127808400D01*
G75*
G02*
X122271800Y-127656000I152400J0D01*
G01*
X123770400Y-127656000D01*
G75*
G02*
X123922800Y-127808400I0J-152400D01*
G01*
X123922800Y-135936400D01*
G75*
G02*
X123770400Y-136088800I-152400J0D01*
G01*
X122271800Y-136088800D01*
G75*
G02*
X122119400Y-135936400I0J152400D01*
G01*
G37*
G36*
G01*
X124659400Y-135936400D02*
X124659400Y-127808400D01*
G75*
G02*
X124811800Y-127656000I152400J0D01*
G01*
X126310400Y-127656000D01*
G75*
G02*
X126462800Y-127808400I0J-152400D01*
G01*
X126462800Y-135936400D01*
G75*
G02*
X126310400Y-136088800I-152400J0D01*
G01*
X124811800Y-136088800D01*
G75*
G02*
X124659400Y-135936400I0J152400D01*
G01*
G37*
G36*
G01*
X127199400Y-135936400D02*
X127199400Y-127808400D01*
G75*
G02*
X127351800Y-127656000I152400J0D01*
G01*
X128850400Y-127656000D01*
G75*
G02*
X129002800Y-127808400I0J-152400D01*
G01*
X129002800Y-135936400D01*
G75*
G02*
X128850400Y-136088800I-152400J0D01*
G01*
X127351800Y-136088800D01*
G75*
G02*
X127199400Y-135936400I0J152400D01*
G01*
G37*
G36*
G01*
X129739400Y-135936400D02*
X129739400Y-127808400D01*
G75*
G02*
X129891800Y-127656000I152400J0D01*
G01*
X131390400Y-127656000D01*
G75*
G02*
X131542800Y-127808400I0J-152400D01*
G01*
X131542800Y-135936400D01*
G75*
G02*
X131390400Y-136088800I-152400J0D01*
G01*
X129891800Y-136088800D01*
G75*
G02*
X129739400Y-135936400I0J152400D01*
G01*
G37*
G36*
G01*
X132279400Y-135936400D02*
X132279400Y-127808400D01*
G75*
G02*
X132431800Y-127656000I152400J0D01*
G01*
X133930400Y-127656000D01*
G75*
G02*
X134082800Y-127808400I0J-152400D01*
G01*
X134082800Y-135936400D01*
G75*
G02*
X133930400Y-136088800I-152400J0D01*
G01*
X132431800Y-136088800D01*
G75*
G02*
X132279400Y-135936400I0J152400D01*
G01*
G37*
G36*
G01*
X134819400Y-135936400D02*
X134819400Y-127808400D01*
G75*
G02*
X134971800Y-127656000I152400J0D01*
G01*
X136470400Y-127656000D01*
G75*
G02*
X136622800Y-127808400I0J-152400D01*
G01*
X136622800Y-135936400D01*
G75*
G02*
X136470400Y-136088800I-152400J0D01*
G01*
X134971800Y-136088800D01*
G75*
G02*
X134819400Y-135936400I0J152400D01*
G01*
G37*
G36*
G01*
X137359400Y-135936400D02*
X137359400Y-127808400D01*
G75*
G02*
X137511800Y-127656000I152400J0D01*
G01*
X139010400Y-127656000D01*
G75*
G02*
X139162800Y-127808400I0J-152400D01*
G01*
X139162800Y-135936400D01*
G75*
G02*
X139010400Y-136088800I-152400J0D01*
G01*
X137511800Y-136088800D01*
G75*
G02*
X137359400Y-135936400I0J152400D01*
G01*
G37*
G36*
G01*
X139899400Y-135936400D02*
X139899400Y-127808400D01*
G75*
G02*
X140051800Y-127656000I152400J0D01*
G01*
X141550400Y-127656000D01*
G75*
G02*
X141702800Y-127808400I0J-152400D01*
G01*
X141702800Y-135936400D01*
G75*
G02*
X141550400Y-136088800I-152400J0D01*
G01*
X140051800Y-136088800D01*
G75*
G02*
X139899400Y-135936400I0J152400D01*
G01*
G37*
G36*
G01*
X142439400Y-135936400D02*
X142439400Y-127808400D01*
G75*
G02*
X142591800Y-127656000I152400J0D01*
G01*
X144090400Y-127656000D01*
G75*
G02*
X144242800Y-127808400I0J-152400D01*
G01*
X144242800Y-135936400D01*
G75*
G02*
X144090400Y-136088800I-152400J0D01*
G01*
X142591800Y-136088800D01*
G75*
G02*
X142439400Y-135936400I0J152400D01*
G01*
G37*
G36*
G01*
X144979400Y-135936400D02*
X144979400Y-127808400D01*
G75*
G02*
X145131800Y-127656000I152400J0D01*
G01*
X146630400Y-127656000D01*
G75*
G02*
X146782800Y-127808400I0J-152400D01*
G01*
X146782800Y-135936400D01*
G75*
G02*
X146630400Y-136088800I-152400J0D01*
G01*
X145131800Y-136088800D01*
G75*
G02*
X144979400Y-135936400I0J152400D01*
G01*
G37*
G36*
G01*
X147519400Y-135936400D02*
X147519400Y-127808400D01*
G75*
G02*
X147671800Y-127656000I152400J0D01*
G01*
X149170400Y-127656000D01*
G75*
G02*
X149322800Y-127808400I0J-152400D01*
G01*
X149322800Y-135936400D01*
G75*
G02*
X149170400Y-136088800I-152400J0D01*
G01*
X147671800Y-136088800D01*
G75*
G02*
X147519400Y-135936400I0J152400D01*
G01*
G37*
G36*
G01*
X150059400Y-135936400D02*
X150059400Y-127808400D01*
G75*
G02*
X150211800Y-127656000I152400J0D01*
G01*
X151710400Y-127656000D01*
G75*
G02*
X151862800Y-127808400I0J-152400D01*
G01*
X151862800Y-135936400D01*
G75*
G02*
X151710400Y-136088800I-152400J0D01*
G01*
X150211800Y-136088800D01*
G75*
G02*
X150059400Y-135936400I0J152400D01*
G01*
G37*
G36*
G01*
X152599400Y-135936400D02*
X152599400Y-127808400D01*
G75*
G02*
X152751800Y-127656000I152400J0D01*
G01*
X154250400Y-127656000D01*
G75*
G02*
X154402800Y-127808400I0J-152400D01*
G01*
X154402800Y-135936400D01*
G75*
G02*
X154250400Y-136088800I-152400J0D01*
G01*
X152751800Y-136088800D01*
G75*
G02*
X152599400Y-135936400I0J152400D01*
G01*
G37*
G36*
G01*
X155139400Y-135936400D02*
X155139400Y-127808400D01*
G75*
G02*
X155291800Y-127656000I152400J0D01*
G01*
X156790400Y-127656000D01*
G75*
G02*
X156942800Y-127808400I0J-152400D01*
G01*
X156942800Y-135936400D01*
G75*
G02*
X156790400Y-136088800I-152400J0D01*
G01*
X155291800Y-136088800D01*
G75*
G02*
X155139400Y-135936400I0J152400D01*
G01*
G37*
G36*
G01*
X157679400Y-135936400D02*
X157679400Y-127808400D01*
G75*
G02*
X157831800Y-127656000I152400J0D01*
G01*
X159330400Y-127656000D01*
G75*
G02*
X159482800Y-127808400I0J-152400D01*
G01*
X159482800Y-135936400D01*
G75*
G02*
X159330400Y-136088800I-152400J0D01*
G01*
X157831800Y-136088800D01*
G75*
G02*
X157679400Y-135936400I0J152400D01*
G01*
G37*
G36*
G01*
X160219400Y-135936400D02*
X160219400Y-127808400D01*
G75*
G02*
X160371800Y-127656000I152400J0D01*
G01*
X161870400Y-127656000D01*
G75*
G02*
X162022800Y-127808400I0J-152400D01*
G01*
X162022800Y-135936400D01*
G75*
G02*
X161870400Y-136088800I-152400J0D01*
G01*
X160371800Y-136088800D01*
G75*
G02*
X160219400Y-135936400I0J152400D01*
G01*
G37*
G36*
G01*
X162759400Y-135936400D02*
X162759400Y-127808400D01*
G75*
G02*
X162911800Y-127656000I152400J0D01*
G01*
X164410400Y-127656000D01*
G75*
G02*
X164562800Y-127808400I0J-152400D01*
G01*
X164562800Y-135936400D01*
G75*
G02*
X164410400Y-136088800I-152400J0D01*
G01*
X162911800Y-136088800D01*
G75*
G02*
X162759400Y-135936400I0J152400D01*
G01*
G37*
G36*
G01*
X165299400Y-135936400D02*
X165299400Y-127808400D01*
G75*
G02*
X165451800Y-127656000I152400J0D01*
G01*
X166950400Y-127656000D01*
G75*
G02*
X167102800Y-127808400I0J-152400D01*
G01*
X167102800Y-135936400D01*
G75*
G02*
X166950400Y-136088800I-152400J0D01*
G01*
X165451800Y-136088800D01*
G75*
G02*
X165299400Y-135936400I0J152400D01*
G01*
G37*
G36*
G01*
X167839400Y-135936400D02*
X167839400Y-127808400D01*
G75*
G02*
X167991800Y-127656000I152400J0D01*
G01*
X169490400Y-127656000D01*
G75*
G02*
X169642800Y-127808400I0J-152400D01*
G01*
X169642800Y-135936400D01*
G75*
G02*
X169490400Y-136088800I-152400J0D01*
G01*
X167991800Y-136088800D01*
G75*
G02*
X167839400Y-135936400I0J152400D01*
G01*
G37*
G36*
G01*
X170379400Y-135936400D02*
X170379400Y-127808400D01*
G75*
G02*
X170531800Y-127656000I152400J0D01*
G01*
X172030400Y-127656000D01*
G75*
G02*
X172182800Y-127808400I0J-152400D01*
G01*
X172182800Y-135936400D01*
G75*
G02*
X172030400Y-136088800I-152400J0D01*
G01*
X170531800Y-136088800D01*
G75*
G02*
X170379400Y-135936400I0J152400D01*
G01*
G37*
G36*
G01*
X172919400Y-135936400D02*
X172919400Y-127808400D01*
G75*
G02*
X173071800Y-127656000I152400J0D01*
G01*
X174570400Y-127656000D01*
G75*
G02*
X174722800Y-127808400I0J-152400D01*
G01*
X174722800Y-135936400D01*
G75*
G02*
X174570400Y-136088800I-152400J0D01*
G01*
X173071800Y-136088800D01*
G75*
G02*
X172919400Y-135936400I0J152400D01*
G01*
G37*
G36*
G01*
X175459400Y-135936400D02*
X175459400Y-127808400D01*
G75*
G02*
X175611800Y-127656000I152400J0D01*
G01*
X177110400Y-127656000D01*
G75*
G02*
X177262800Y-127808400I0J-152400D01*
G01*
X177262800Y-135936400D01*
G75*
G02*
X177110400Y-136088800I-152400J0D01*
G01*
X175611800Y-136088800D01*
G75*
G02*
X175459400Y-135936400I0J152400D01*
G01*
G37*
G36*
G01*
X177999400Y-135936400D02*
X177999400Y-127808400D01*
G75*
G02*
X178151800Y-127656000I152400J0D01*
G01*
X179650400Y-127656000D01*
G75*
G02*
X179802800Y-127808400I0J-152400D01*
G01*
X179802800Y-135936400D01*
G75*
G02*
X179650400Y-136088800I-152400J0D01*
G01*
X178151800Y-136088800D01*
G75*
G02*
X177999400Y-135936400I0J152400D01*
G01*
G37*
G36*
G01*
X180539400Y-135936400D02*
X180539400Y-127808400D01*
G75*
G02*
X180691800Y-127656000I152400J0D01*
G01*
X182190400Y-127656000D01*
G75*
G02*
X182342800Y-127808400I0J-152400D01*
G01*
X182342800Y-135936400D01*
G75*
G02*
X182190400Y-136088800I-152400J0D01*
G01*
X180691800Y-136088800D01*
G75*
G02*
X180539400Y-135936400I0J152400D01*
G01*
G37*
G36*
G01*
X183079400Y-135936400D02*
X183079400Y-127808400D01*
G75*
G02*
X183231800Y-127656000I152400J0D01*
G01*
X184730400Y-127656000D01*
G75*
G02*
X184882800Y-127808400I0J-152400D01*
G01*
X184882800Y-135936400D01*
G75*
G02*
X184730400Y-136088800I-152400J0D01*
G01*
X183231800Y-136088800D01*
G75*
G02*
X183079400Y-135936400I0J152400D01*
G01*
G37*
%TD*%
D15*
X129847400Y-76997300D03*
X157628600Y-76997300D03*
X127307400Y-94110600D03*
X114766100Y-105223200D03*
X104923600Y-103000500D03*
X129847400Y-103635600D03*
X146039900Y-109985700D03*
X139848600Y-110938100D03*
X120957400Y-111731800D03*
X130482400Y-109350600D03*
X151119900Y-117097600D03*
X166201100Y-115383100D03*
X135086100Y-78870600D03*
X121909900Y-83950600D03*
X117782400Y-107128000D03*
X108568000Y-74647900D03*
X111280400Y-74647900D03*
X190331100Y-82045600D03*
X190331100Y-86014400D03*
X193188600Y-85061900D03*
X193188600Y-82998100D03*
X149691100Y-78997600D03*
X134451100Y-96491800D03*
X133181100Y-97603100D03*
X193188600Y-79029400D03*
X190331100Y-79981900D03*
X193188600Y-81093100D03*
X190331100Y-83950600D03*
X111591100Y-92840600D03*
X109527400Y-92840600D03*
X144611100Y-96714000D03*
X152231200Y-106493100D03*
X156199900Y-105540600D03*
X158739900Y-105540600D03*
X162549900Y-107763100D03*
X180012400Y-104905600D03*
X162391200Y-124431800D03*
X160962400Y-106175600D03*
X159851200Y-124431800D03*
X156041200Y-107763100D03*
X157311200Y-124431800D03*
X156199900Y-103318100D03*
X154771200Y-124431900D03*
X151913600Y-104270600D03*
X142706100Y-107445500D03*
X138261100Y-98555600D03*
X125402400Y-101095600D03*
X125719900Y-95380600D03*
X124767400Y-97920600D03*
X123814900Y-99825600D03*
X173821100Y-126368600D03*
X179345600Y-98873100D03*
X181377600Y-98873100D03*
X180171100Y-101730600D03*
X166359800Y-124431800D03*
X162549900Y-114271800D03*
X152548600Y-124431900D03*
X122544900Y-77092600D03*
X124767400Y-77092600D03*
X136991100Y-95380600D03*
X135721100Y-98555600D03*
X130164900Y-85538100D03*
X131752400Y-122685600D03*
X135721100Y-124431900D03*
X129847400Y-121098100D03*
X127942400Y-119510600D03*
X138261100Y-124431900D03*
X126037400Y-117923100D03*
X120322400Y-96015600D03*
X140801100Y-124431900D03*
X121592300Y-94110600D03*
X122862400Y-96015600D03*
X143341100Y-124431900D03*
X124132400Y-94110600D03*
X141118600Y-117923100D03*
X128577400Y-100778100D03*
X147151100Y-124431900D03*
X142388600Y-115700600D03*
X127624800Y-96650600D03*
X143658600Y-117605600D03*
X129212400Y-95063100D03*
X149691000Y-124431900D03*
X144928600Y-115700600D03*
X130164900Y-92840600D03*
X146516100Y-117288100D03*
M02*
